/* XPM */
static char * asm_m_xpm[] = {
/* width height ncolors cpp [x_hot y_hot] */
"32 32 11 1 0 0",
/* colors */
" 	s Gray8	m black	c #212121212121",
".	s none	m none	c none",
"X	s Color2	m white	c white",
"o	s Color1	m black	c black",
"O	s Gray1	m white	c #dededededede",
"+	s Gray6	m black	c #636363636363",
"@	s Gray4	m white	c #949494949494",
"#	s Gray3	m white	c #adadadadadad",
"$	s Color12	m white	c yellow",
"%	s Gray2	m white	c #bdbdbdbdbdbd",
"&	s Gray7	m black	c #424242424242",
/* pixels */
"                    ............",
" XXXXXXXXXXXXXXXXXoO ...........",
" XXXXXXXXXXXXXXXXXoXO ..........",
" XXXXXXXXXXXXXXXXXoXXO .........",
" XXXXXXXXXXXXXXXXXoXXXO ........",
" XXXXXXXXXXXXXXXXXoooooo........",
" XXXXXXXXXXXXXXXXXX+++++o.......",
" XXXXXXXXXXXXXXXXXXX++++o.......",
" XXXXXXXXXXXXXXXXXXXXXX+o.......",
" XXXXXXXXXXXXXXXXXXXXXX+o.......",
" XXXXXXXXXXXXXXXXXXXXXX+o.......",
" XXXXXXXXXX@+oXXXXXXXXX+o.......",
" XXXXXXXXX@+++oXXXXXXXX+o.......",
" XXXXXXXX@+++++oXXXXXXX+o.......",
" XXXXXXX@+++++++oXXXXXX+o.......",
" XXXXXX@++++#++++oXXXXX+o.......",
" XXXXX@++++#++#+++oXXXX+o.......",
" XXXX#+++##++#+++++oXXX+o.......",
" XXXX##+++++#+#+++#oXXX+o.......",
" XXXX#@#+++#+#+++# oXXX+o.......",
" XXXX$ @#+++++++#  oXXX+o.......",
" XXXX$X @#+++++#  oXXXX+o.......",
" XXXXXX$ @#+++#  o$XXXX+o.......",
" XXXXXX$X @#%#  oX$XXXX+o.......",
" XXXXXXXX$ @&& o$XXXXXX+o.......",
" XXXXXXXX$X &&oX$XXXXXX+o.......",
" XXXXXXXXXXXXXXXXXXXXXX+o.......",
" XXXXXXXXXXXXXXXXXXXXXX+o.......",
" XXXXXXXXXXXXXXXXXXXXXX+o.......",
" XXXXXXXXXXXXXXXXXXXXXX+o.......",
"   +++++++++++++++++++++o.......",
"...oooooooooooooooooooooo......."};
