/* XPM */
static char * asm_s_xpm[] = {
/* width height ncolors cpp [x_hot y_hot] */
"24 24 11 1 0 0",
/* colors */
" 	s Gray8	m black	c #212121212121",
".	s none	m none	c none",
"X	s Color2	m white	c white",
"o	s Gray6	m black	c #636363636363",
"O	s Color1	m black	c black",
"+	s Gray3	m white	c #adadadadadad",
"@	s Gray4	m white	c #949494949494",
"#	s Gray5	m black	c #737373737373",
"$	s Gray7	m black	c #424242424242",
"%	s Color12	m white	c yellow",
"&	s Gray2	m white	c #bdbdbdbdbdbd",
/* pixels */
"               .........",
" XXXXXXXXXXXX X ........",
" XXXXXXXXXXXX XX .......",
" XXXXXXXXXXXX XXX ......",
" XXXXXXXXXXXX     ......",
" XXXXXXXXXXXXXXXXoO.....",
" XXXXXXX+++XXXXXXoO.....",
" XXXXXX+ooo+XXXXXoO.....",
" XXXXX+ooooo+XXXXoO.....",
" XXXX+ooo+ooo+XXXoO.....",
" XXX+ooo+oo+oo+XXoO.....",
" XX+oo++oo+oooo+XoO.....",
" XX+ooooo+o+oooOXoO.....",
" XX@+ooo+o+ooo+ XoO.....",
" XX#@+ooooooo+$OXoO.....",
" XXX#@+ooooo+$O%XoO.....",
" XXX%#@+ooo+$OXXXoO.....",
" XXXXX#@+&+$O%XXXoO.....",
" XXXXX%#@$$OXXXXXoO.....",
" XXXXXXX#$O%XXXXXoO.....",
" XXXXXXXXXXXXXXXXoO.....",
" XXXXXXXXXXXXXXXXoO.....",
"  ooooooooooooooooO.....",
"..OOOOOOOOOOOOOOOOO....."};
