/* XPM */
static char * asm_t_xpm[] = {
/* width height ncolors cpp [x_hot y_hot] */
"16 16 10 1 0 0",
/* colors */
" 	s Gray8	m black	c #212121212121",
".	s none	m none	c none",
"X	s Color2	m white	c white",
"o	s Color1	m black	c black",
"O	s Gray1	m white	c #dededededede",
"+	s Gray6	m black	c #636363636363",
"@	s Gray3	m white	c #adadadadadad",
"#	s Gray7	m black	c #424242424242",
"$	s Gray4	m white	c #949494949494",
"%	s Gray5	m black	c #737373737373",
/* pixels */
"          ......",
" XXXXXXXoO .....",
" XXXXXXXoXO ....",
" XXXXXXXoooo....",
" XXXXXXXX+++o...",
" XXXXXXXXX++o...",
" XXXX@#$XXX+o...",
" XXX@#+#$XX+o...",
" XX@#+%%#$X+o...",
" XX$+%%+$ X+o...",
" XX$$++$ oX+o...",
" XXX$$$ oXX+o...",
" XXXX$ oXXX+o...",
" XXXXXXXXXX+o...",
" +++++++++++o...",
"..ooooooooooo..."};
