/* XPM */
static char * asm_l_xpm[] = {
/* width height ncolors cpp [x_hot y_hot] */
"48 48 10 1 0 0",
/* colors */
" 	s Gray8	m black	c #212121212121",
".	s none	m none	c none",
"X	s Color2	m white	c white",
"o	s Color1	m black	c black",
"O	s Gray2	m white	c #bdbdbdbdbdbd",
"+	s Gray1	m white	c #dededededede",
"@	s Gray6	m black	c #636363636363",
"#	s Gray4	m white	c #949494949494",
"$	s Color12	m white	c yellow",
"%	s Gray7	m black	c #424242424242",
/* pixels */
"                               .................",
" XXXXXXXXXXXXXXXXXXXXXXXXXXXXoO ................",
" XXXXXXXXXXXXXXXXXXXXXXXXXXXXo+O ...............",
" XXXXXXXXXXXXXXXXXXXXXXXXXXXXoX+O ..............",
" XXXXXXXXXXXXXXXXXXXXXXXXXXXXoXX+O .............",
" XXXXXXXXXXXXXXXXXXXXXXXXXXXXoXXX+O ............",
" XXXXXXXXXXXXXXXXXXXXXXXXXXXXoXXXX+O ...........",
" XXXXXXXXXXXXXXXXXXXXXXXXXXXXoXXXXX+O ..........",
" XXXXXXXXXXXXXXXXXXXXXXXXXXXXooooooooo..........",
" XXXXXXXXXXXXXXXXXXXXXXXXXXXXX@@@@@@@@o.........",
" XXXXXXXXXXXXXXXXXXXXXXXXXXXXXX@@@@@@@o.........",
" XXXXXXXXXXXXXXXXXXXXXXXXXXXXXXXXXXXX@o.........",
" XXXXXXXXXXXXXXXXXXXXXXXXXXXXXXXXXXXX@o.........",
" XXXXXXXXXXXXXXXX###XXXXXXXXXXXXXXXXX@o.........",
" XXXXXXXXXXXXXXX#@@@oXXXXXXXXXXXXXXXX@o.........",
" XXXXXXXXXXXXXX#@@@@@oXXXXXXXXXXXXXXX@o.........",
" XXXXXXXXXXXXX#@@@@@@@oXXXXXXXXXXXXXX@o.........",
" XXXXXXXXXXXX#@@@@@@@@@oXXXXXXXXXXXXX@o.........",
" XXXXXXXXXXX#@@@@@@@@@@@oXXXXXXXXXXXX@o.........",
" XXXXXXXXXX#@@@@@@@@@@@@@oXXXXXXXXXXX@o.........",
" XXXXXXXXX#@@@@@@@@@#@@@@@oXXXXXXXXXX@o.........",
" XXXXXXXX#@@@@@@@@@#@@@@@@@oXXXXXXXXX@o.........",
" XXXXXXX#@@@@@@@@@@@#@@@@@@@oXXXXXXXX@o.........",
" XXXXXX#@@@@@@@@@##@@@#@@@@@@oXXXXXXX@o.........",
" XXXXXO@@@@@@@@@#@@#@#@#@@@@@@oXXXXXX@o.........",
" XXXXXOO@@@@@@@#@#@@#@#@@@@@@@@oXXXXX@o.........",
" XXXXXO@O@@@@@#@@@#@@#@@@@@@@@O XXXXX@o.........",
" XXXXXO@@O@@@@@###@@#@@@@@@@@O  XXXXX@o.........",
" XXXXXXo@@O@@@@@#@#@@@@@@@@@O  oXXXXX@o.........",
" XXXXXX$o@@O@@@@@##@@@@@@@@O  oXXXXXX@o.........",
" XXXXXX$Xo@@O@@@@@@@@@@@@@O  o$XXXXXX@o.........",
" XXXXXX$X$o@@O@@@@@@@@@@@O  oX$XXXXXX@o.........",
" XXXXXXXX$Xo@@O@@@@@@@@@O  o$X$XXXXXX@o.........",
" XXXXXXXX$X$o@@O@@@@@@@O  oX$XXXXXXXX@o.........",
" XXXXXXXXXX$Xo@@O@@@@@O  o$X$XXXXXXXX@o.........",
" XXXXXXXXXX$X$o@@O@@@O  oX$XXXXXXXXXX@o.........",
" XXXXXXXXXXXX$Xo@@OOO  o$X$XXXXXXXXXX@o.........",
" XXXXXXXXXXXX$X$o@%%% oX$XXXXXXXXXXXX@o.........",
" XXXXXXXXXXXXXX$Xo%%%o$X$XXXXXXXXXXXX@o.........",
" XXXXXXXXXXXXXX$X$oooX$XXXXXXXXXXXXXX@o.........",
" XXXXXXXXXXXXXXXX$XXXX$XXXXXXXXXXXXXX@o.........",
" XXXXXXXXXXXXXXXX$XXXXXXXXXXXXXXXXXXX@o.........",
" XXXXXXXXXXXXXXXXXXXXXXXXXXXXXXXXXXXX@o.........",
" XXXXXXXXXXXXXXXXXXXXXXXXXXXXXXXXXXXX@o.........",
" XXXXXXXXXXXXXXXXXXXXXXXXXXXXXXXXXXXX@o.........",
" XXXXXXXXXXXXXXXXXXXXXXXXXXXXXXXXXXXX@o.........",
"   @@@@@@@@@@@@@@@@@@@@@@@@@@@@@@@@@@@o.........",
"...oooooooooooooooooooooooooooooooooooo........."};
