/* XPM */
static char * audio_l_xpm[] = {
/* width height ncolors cpp [x_hot y_hot] */
"48 48 11 1 0 0",
/* colors */
" 	s Gray8	m black	c #212121212121",
".	s none	m none	c none",
"X	s Color2	m white	c white",
"o	s Color1	m black	c black",
"O	s Gray2	m white	c #bdbdbdbdbdbd",
"+	s Gray1	m white	c #dededededede",
"@	s Gray6	m black	c #636363636363",
"#	s Gray5	m black	c #737373737373",
"$	s Gray4	m white	c #949494949494",
"%	s Gray7	m black	c #424242424242",
"&	s Gray3	m white	c #adadadadadad",
/* pixels */
"                               .................",
" XXXXXXXXXXXXXXXXXXXXXXXXXXXXoO ................",
" XXXXXXXXXXXXXXXXXXXXXXXXXXXXo+O ...............",
" XXXXXXXXXXXXXXXXXXXXXXXXXXXXoX+O ..............",
" XXXXXXXXXXXXXXXXXXXXXXXXXXXXoXX+O .............",
" XXXXXXXXXXXXXXXXXXXXXXXXXXXXoXXX+O ............",
" XXXXXXXXXXXXXXXXXXXXXXXXXXXXoXXXX+O ...........",
" XXXXXXXXXXXXXXXXXXXXXXXXXXXXoXXXXX+O ..........",
" XXXXXXXXXXXXXXXXXXXXXXXXXXXXooooooooo..........",
" XXXXXXXXXXXXXXXXXXXXXXXXXXXXX@@@@@@@@o.........",
" XXXXXXXXXXXXXXXXXXXXXXXXXXXXXX@@@@@@@o.........",
" XXXXXXXXXXXXXXXXXXXXXXXXXXXXXXXXXXXX@o.........",
" XXXXXXXXXXXXXXXXXXXXXXXXoXXXXXXXXXXX@o.........",
" XXXXXXXXXXXXXXXXXXXXXXXo#XXXXXXXXXXX@o.........",
" XXXXXXXXXXXXXXXXXXXXXXo##XXXXXXXXXXX@o.........",
" XXXXXXXXXXXXXXXXXXXXXo#$%XXXXXXXXXXX@o.........",
" XXXXXXXXXXXXXXXXXXXXo#$&#XXXXXXXXXXX@o.........",
" XXXXXXXXXXXXXXXXXXXo#$&&%XXXXXXXXXXX@o.........",
" XXXXXXXXXXXXXXXXXXo#$&&+#XXXXXXXXXXX@o.........",
" XXXXXXXXXXXXXXXXXo#$&&+&%XXXXXXXXXXX@o.........",
" XXXXXXXXXXXXXXXXo#$&&+&+#XXXXXXXXXXX@o.........",
" XXXXXXXXXXooo%Xo#$&&+&++%XXXXXXXXXXX@o.........",
" XXXXXXXXXo%%%oo#$&O+&+&+#XXXXXXXXXXX@o.........",
" XXXXXXXXXo@@@o#$&O+&+&X+&XXXXXXXXXXX@o.........",
" XXXXXXXXXo$$$ O&O+OX&X&X#XXXXXXXXXXX@o.........",
" XXXXXXXXXoOOO$OO+OX&X&X+OXXXXXXXXXXX@o.........",
" XXXXXXXXXoXOX%O+OXOX&X&X#XXXXXXXXXXX@o.........",
" XXXXXXXXXoOXOOXOXOX&X&X++XXXXXXXXXXX@o.........",
" XXXXXXXXXoXOX%OXOXOX&X&X#XXXXXXXXXXX@o.........",
" XXXXXXXXXoOOO$$O+OX&X&XXOXXXXXXXXXXX@o.........",
" XXXXXXXXXo$$$ &$O+OX&X&+#XXXXXXXXXXX@o.........",
" XXXXXXXXXo@@@o#&$O+&X&X+&XXXXXXXXXXX@o.........",
" XXXXXXXXXo%%%oo#&$O+&X&+#XXXXXXXXXXX@o.........",
" XXXXXXXXX$ooo%$o#&$&+&X+@XXXXXXXXXXX@o.........",
" XXXXXXXXXX$$$XX$o#&$&+&+#XXXXXXXXXXX@o.........",
" XXXXXXXXXXXXXXXX$o#&$&++%XXXXXXXXXXX@o.........",
" XXXXXXXXXXXXXXXXX$o#&$&+oXXXXXXXXXXX@o.........",
" XXXXXXXXXXXXXXXXXX$o#&$+%XXXXXXXXXXX@o.........",
" XXXXXXXXXXXXXXXXXXX$o#&$oXXXXXXXXXXX@o.........",
" XXXXXXXXXXXXXXXXXXXX$o#&%XXXXXXXXXXX@o.........",
" XXXXXXXXXXXXXXXXXXXXX$o#oXXXXXXXXXXX@o.........",
" XXXXXXXXXXXXXXXXXXXXXX$ooXXXXXXXXXXX@o.........",
" XXXXXXXXXXXXXXXXXXXXXXX$oXXXXXXXXXXX@o.........",
" XXXXXXXXXXXXXXXXXXXXXXXX$XXXXXXXXXXX@o.........",
" XXXXXXXXXXXXXXXXXXXXXXXXXXXXXXXXXXXX@o.........",
" XXXXXXXXXXXXXXXXXXXXXXXXXXXXXXXXXXXX@o.........",
"   @@@@@@@@@@@@@@@@@@@@@@@@@@@@@@@@@@@o.........",
"...oooooooooooooooooooooooooooooooooooo........."};
