/* XPM */
static char * audio_m_xpm[] = {
/* width height ncolors cpp [x_hot y_hot] */
"32 32 12 1 0 0",
/* colors */
" 	s iconGray8	m black	c #212121212121",
".	s none	m none	c none",
"X	s iconColor2	m white	c white",
"o	s iconGray1	m white	c #dededededede",
"O	s iconColor1	m black	c black",
"+	s iconGray6	m black	c #636363636363",
"@	s iconGray5	m black	c #737373737373",
"#	s iconGray4	m white	c #949494949494",
"$	s iconGray2	m white	c #bdbdbdbdbdbd",
"%	s iconGray3	m white	c #adadadadadad",
"&	s iconGray7	m black	c #424242424242",
"*	c #E5E5E5E5E5E5",
/* pixels */
"                    ............",
" XXXXXXXXXXXXXXXXX oO...........",
" XXXXXXXXXXXXXXXXX XoO..........",
" XXXXXXXXXXXXXXXXX XXoO.........",
" XXXXXXXXXXXXXXXXX XXXo ........",
" XXXXXXXXXXXXXXXXX      ........",
" XXXXXXXXXXXXXXOXXX+++++O.......",
" XXXXXXXXXXXXXO@XXXX++++O.......",
" XXXXXXXXXXXXO#@XXXXXXX+O.......",
" XXXXXXXXXXXO#$%XXXXXXX+O.......",
" XXXXXXXXXXO#$$@XXXXXXX+O.......",
" XXXXXXXXXO#$$$%XXXXXXX+O.......",
" XXXXXXOOO#$$$o@XXXXXXX+O.......",
" XXXX#O## $$$o$%XXXXXXX+O.......",
" XXXX#O$$#$$o$X#XXXXXXX+O.......",
" XXXX#O$X&$X$X$#XXXXXXX+O.......",
" XXXX#OX$$X$X$X#XXXXXXX+O.......",
" XXXX#O$X&$X$X$#XXXXXXX+O.......",
" XXXX#O$$#$$o$X#XXXXXXX+O.......",
" XXXX#O## $%$o$&XXXXXXX+O.......",
" XXXXX#OOO#$%$*%XXXXXXX+O.......",
" XXXXXX###O#$%$&XXXXXXX+O.......",
" XXXXXXXXX#O#$%%XXXXXXX+O.......",
" XXXXXXXXXX#O#$&XXXXXXX+O.......",
" XXXXXXXXXXX#O#&XXXXXXX+O.......",
" XXXXXXXXXXXX#O&XXXXXXX+O.......",
" XXXXXXXXXXXXX#OXXXXXXX+O.......",
" XXXXXXXXXXXXXX#XXXXXXX+O.......",
" XXXXXXXXXXXXXXXXXXXXXX+O.......",
" XXXXXXXXXXXXXXXXXXXXXX+O.......",
" ++++++++++++++++++++++&O.......",
"...                     O......."};
