/* XPM */
static char * audio_s_xpm[] = {
/* width height ncolors cpp [x_hot y_hot] */
"24 24 13 1 0 0",
/* colors */
" 	s iconGray8	m black	c #212121212121",
".	s none	m none	c none",
"X	s iconColor2	m white	c white",
"o	s iconColor1	m black	c black",
"O	s iconGray5	m black	c #737373737373",
"+	s iconGray6	m black	c #636363636363",
"@	s iconGray4	m white	c #949494949494",
"#	s iconGray2	m white	c #bdbdbdbdbdbd",
"$	c #AAAAAAAAAAAA",
"%	c #F3F3F3F3F3F3",
"&	c #555555555555",
"*	s iconGray1	m white	c #dededededede",
"=	s iconGray7	m black	c #424242424242",
/* pixels */
"               .........",
" XXXXXXXXXXXX X ........",
" XXXXXXXXXXXX XX .......",
" XXXXXXXXXXXX XXX ......",
" XXXXXXXXXXoX     ......",
" XXXXXXXXXoOXX++++o.....",
" XXXXXXXXo@OXXX+++o.....",
" XXXXXXXo@#$XXXXX+o.....",
" XXXXXXo@##OXXXXX+o.....",
" XXXooo@##X$XXXXX+o.....",
" XXo%%&##X#OXXXXX+o.....",
" XXo%Xo#X#X@XXXXX+o.....",
" XXoX#&X#X#@XXXXX+o.....",
" XXo#*o#*#X@XXXXX+o.....",
" XXo##o@#*#OXXXXX+o.....",
" XXXooo&@#*@XXXXX+o.....",
" XXXXXXo&@#OXXXXX+o.....",
" XXXXXXXo&@&XXXXX+o.....",
" XXXXXXXXo&&XXXXX+o.....",
" XXXXXXXXXo&XXXXX+o.....",
" XXXXXXXXXXoXXXXX+o.....",
" XXXXXXXXXXXXXXXX+o.....",
" ++++++++++++++++=o.....",
"...               o....."};
