/* XPM */
static char * bin_s_xpm[] = {
/* width height ncolors cpp [x_hot y_hot] */
"24 24 7 1 0 0",
/* colors */
" 	s iconGray8	m black	c #212121212121",
".	s none	m none	c none",
"X	s iconColor2	m white	c white",
"o	s iconGray6	m black	c #636363636363",
"O	s iconColor1	m black	c black",
"+	s iconGray5	m black	c #737373737373",
"@	s iconGray2	m white	c #bdbdbdbdbdbd",
/* pixels */
"               .........",
" XXXXXXXXXXXX X ........",
" XXXXXXXXXXXX XX .......",
" XXXXXXXXXXXX XXX ......",
" XXXXXXXXXXXX     ......",
" XXXXXXXXXXXXXooooO.....",
" XX++X++XXXX++XoooO.....",
" XX+@X+@XXXX+@XXXoO.....",
" XXXXXXXXXXXXXXXXoO.....",
" XX++XXXX++X++XXXoO.....",
" XX+@XXXX+@X+@XXXoO.....",
" XXXXXXXXXXXXXXXXoO.....",
" XX++XXXX++XXXXXXoO.....",
" XX+@XXXX+@XXXXXXoO.....",
" XXXXXXXXXXXXXXXXoO.....",
" XX++X++XXXX++XXXoO.....",
" XX+@X+@XXXX+@XXXoO.....",
" XXXXXXXXXXXXXXXXoO.....",
" XX++XXXX++XXXXXXoO.....",
" XX+@XXXX+@XXXXXXoO.....",
" XXXXXXXXXXXXXXXXoO.....",
" XXXXXXXXXXXXXXXXoO.....",
"  ooooooooooooooooO.....",
"..OOOOOOOOOOOOOOOOO....."};
