/* XPM */
static char * cinc_t_xpm[] = {
/* width height ncolors cpp [x_hot y_hot] */
"16 16 6 1 0 0",
/* colors */
" 	s Gray8	m black	c #212121212121",
".	s none	m none	c none",
"X	s Color2	m white	c white",
"o	s Color1	m black	c black",
"O	s Gray6	m black	c #636363636363",
"+	s Color11	m black	c darkkhaki",
/* pixels */
"          ......",
" XXXXXXXoX .....",
" XXXXXXXoXX ....",
" XXXXXXXoooo....",
" XXXXXXXXOOOo...",
" XXX+++XXXOOo...",
" XX+++++XXXOo...",
" XX++XXXXXXOo...",
" XX++XXXXXXOo...",
" XX++XXXXXXOo...",
" XX+++++XXXOo...",
" XXX+++XXXXOo...",
" XXXXXXXXXXOo...",
" XXXXXXXXXXOo...",
"  OOOOOOOOOOo...",
"..ooooooooooo..."};
