/* XPM */
static char * cinc_t_xpm[] = {
/* width height ncolors cpp [x_hot y_hot] */
"16 16 6 1 0 0",
/* colors */
" 	s iconGray8	m black	c #212121212121",
".	s none	m none	c none",
"X	s iconColor2	m white	c white",
"o	s iconColor1	m black	c black",
"O	s iconGray6	m black	c #636363636363",
"+	s iconColor11	m black	c darkkhaki",
/* pixels */
"          ......",
" XXXXXXXoX .....",
" XXXXXXXoXX ....",
" XXXXXXXoooo....",
" XXXXXXXXOOOo...",
" XXXXXXXXXOOo...",
" XXX+++XXXXOo...",
" XX+++++XXXOo...",
" XX++XXXXXXOo...",
" XX++XXXXXXOo...",
" XX++XXXXXXOo...",
" XX+++++XXXOo...",
" XXX+++XXXXOo...",
" XXXXXXXXXXOo...",
"  OOOOOOOOOOo...",
"..ooooooooooo..."};
