/* XPM */
static char * comp_t_xpm[] = {
/* width height ncolors cpp [x_hot y_hot] */
"16 16 8 1 0 0",
/* colors */
" 	s iconGray8	m black	c #212121212121",
".	s none	m none	c none",
"X	s iconColor2	m white	c white",
"o	s iconColor1	m black	c black",
"O	s iconGray1	m white	c #dededededede",
"+	s iconGray6	m black	c #636363636363",
"@	s iconGray7	m black	c #424242424242",
"#	s iconGray5	m black	c #737373737373",
/* pixels */
"          ......",
" XXXXXXXoO .....",
" XXXXXXXoXO ....",
" XXXXXXXoooo....",
" XXXXXXXX+++o...",
" XX@@@@@@X++o...",
" XXX####XXX+o...",
" XXXX##XXXX+o...",
" XXXXXXXXXX+o...",
" XXXXXXXXXX+o...",
" XXXX##XXXX+o...",
" XXX####XXX+o...",
" XX@@@@@@XX+o...",
" XXXXXXXXXX+o...",
" +++++++++++o...",
"..ooooooooooo..."};
