/* XPM */
static char * comp_m_xpm[] = {
/* width height ncolors cpp [x_hot y_hot] */
"32 32 9 1 0 0",
/* colors */
" 	s none	m none	c none",
".	s Gray8	m black	c #212121212121",
"X	s Color2	m white	c white",
"o	s Color1	m black	c black",
"O	s Gray1	m white	c #dededededede",
"+	s Gray6	m black	c #636363636363",
"@	s Color4	m white	c red",
"#	s Color3	m black	c darkred",
"$	s Gray2	m white	c #bdbdbdbdbdbd",
/* pixels */
"     .........                  ",
"     .XXXXXXoO.                 ",
"     .XXXXXXoXO.                ",
"     .XXXXXXoXXO.               ",
"     .XXXXXXoXXXO.              ",
"     .XXXXXXoooooo              ",
"     .XXXXXXX+++++o             ",
"     .XXXXXXXX++++o             ",
"     .XXXXXXXXXXX+o             ",
"     .XXXXXXXXXXX+o             ",
"@    .XXXXXXXXXXX+o    @        ",
"#@   .XXXXXXXXXXX+o   @#        ",
"##@  .XXXXXXXXXXX+o  @##        ",
"###@ .XXXXXXXXXXX+o @###        ",
"####@.XXXXXXXXXXX+o@####        ",
"#####@XXXXXXXXXXX+@#####        ",
"######@XXXXXXXXXX@######        ",
"#######@OXXXXXXX@#######        ",
"#######oOXXXXXXXo#######        ",
"######o$XXXXXXXX$o######        ",
"#####o$XXXXXXXXXX+o#####        ",
"####o.XXXXXXXXXXX+oo####        ",
"###o .XXXXXXXXXXX+o o###        ",
"##o  .XXXXXXXXXXX+o  o##        ",
"#o   .XXXXXXXXXXX+o   o#        ",
"o    .XXXXXXXXXXX+o    o        ",
"     .XXXXXXXXXXX+o             ",
"     .XXXXXXXXXXX+o             ",
"     .XXXXXXXXXXX+o             ",
"     .XXXXXXXXXXX+o             ",
"     ...++++++++++o             ",
"        ooooooooooo             "};
