/* XPM */
static char * comp_m_xpm[] = {
/* width height ncolors cpp [x_hot y_hot] */
"32 32 9 1 0 0",
/* colors */
" 	s Gray8	m black	c #212121212121",
".	s none	m none	c none",
"X	s Color2	m white	c white",
"o	s Color1	m black	c black",
"O	s Gray1	m white	c #dededededede",
"+	s Gray6	m black	c #636363636363",
"@	s Color3	m black	c darkred",
"#	s Gray4	m white	c #949494949494",
"$	s Gray7	m black	c #424242424242",
/* pixels */
"                    ............",
" XXXXXXXXXXXXXXXXXoO ...........",
" XXXXXXXXXXXXXXXXXoXO ..........",
" XXXXXXXXXXXXXXXXXoXXO .........",
" XXXXXXXXXXXXXXXXXoXXXO ........",
" XXXXXXXXXXXXXXXXXoooooo........",
" XXXXXXXXXXXXXXXXXX+++++o.......",
" XXXXXXXXXXXXXXXXXXX++++o.......",
" XXXXXXXXXXXXXXXXXXXXXX+o.......",
" XXXX@@@@@@@@@@@@@XXXXX+o.......",
" XXXX@@@@@@@@@@@@@XXXXX+o.......",
" XXXXX@@@@@@@@@@@XXXXXX+o.......",
" XXXXXX@@@@@@@@@XXXXXXX+o.......",
" XXXXXXX@@@@@@@XXXXXXXX+o.......",
" XXXXXXXX@@@@@XXXXXXXXX+o.......",
" XXXXXXXXX@@@XXXXXXXXXX+o.......",
" XXXXXXXXXX@XXXXXXXXXXX+o.......",
" XXXX#$#$#$#$#$#$#XXXXX+o.......",
" XXXX$#$#$#$#$#$#$XXXXX+o.......",
" XXXXXXXXXX@XXXXXXXXXXX+o.......",
" XXXXXXXXX@@@XXXXXXXXXX+o.......",
" XXXXXXXX@@@@@XXXXXXXXX+o.......",
" XXXXXXX@@@@@@@XXXXXXXX+o.......",
" XXXXXX@@@@@@@@@XXXXXXX+o.......",
" XXXXX@@@@@@@@@@@XXXXXX+o.......",
" XXXX@@@@@@@@@@@@@XXXXX+o.......",
" XXXX@@@@@@@@@@@@@XXXXX+o.......",
" XXXXXXXXXXXXXXXXXXXXXX+o.......",
" XXXXXXXXXXXXXXXXXXXXXX+o.......",
" XXXXXXXXXXXXXXXXXXXXXX+o.......",
"   +++++++++++++++++++++o.......",
"...oooooooooooooooooooooo......."};
