/* XPM */
static char * comp_m_xpm[] = {
/* width height ncolors cpp [x_hot y_hot] */
"32 32 7 1 0 0",
/* colors */
" 	s iconGray8	m black	c #212121212121",
".	s none	m none	c none",
"X	s iconColor2	m white	c white",
"o	s iconColor1	m black	c black",
"O	s iconGray1	m white	c #dededededede",
"+	s iconGray6	m black	c #636363636363",
"@	s iconGray7	m black	c #424242424242",
/* pixels */
"                    ............",
" XXXXXXXXXXXXXXXXXoO ...........",
" XXXXXXXXXXXXXXXXXoXO ..........",
" XXXXXXXXXXXXXXXXXoXXO .........",
" XXXXXXXXXXXXXXXXXoXXXO ........",
" XXXXXXXXXXXXXXXXXoooooo........",
" XXXXXXXXXXXXXXXXXX+++++o.......",
" XXXX@@@@@@@@@@@@@XX++++o.......",
" XXXXX@@@@@@@@@@@XXXXXX+o.......",
" XXXXXX@@@@@@@@@XXXXXXX+o.......",
" XXXX+++++++++++++XXXXX+o.......",
" XXXXX+++++++++++XXXXXX+o.......",
" XXXXXX+++++++++XXXXXXX+o.......",
" XXXXXXX+++++++XXXXXXXX+o.......",
" XXXXXXXX+++++XXXXXXXXX+o.......",
" XXXXXXXXX+++XXXXXXXXXX+o.......",
" XXXXXXXXXX+XXXXXXXXXXX+o.......",
" XXXXX@X@X@X@X@X@XXXXXX+o.......",
" XXXX@X@X@X@X@X@X@XXXXX+o.......",
" XXXXXXXXXX+XXXXXXXXXXX+o.......",
" XXXXXXXXX+++XXXXXXXXXX+o.......",
" XXXXXXXX+++++XXXXXXXXX+o.......",
" XXXXXXX+++++++XXXXXXXX+o.......",
" XXXXXX+++++++++XXXXXXX+o.......",
" XXXXX+++++++++++XXXXXX+o.......",
" XXXX+++++++++++++XXXXX+o.......",
" XXXXXX@@@@@@@@@XXXXXXX+o.......",
" XXXXX@@@@@@@@@@@XXXXXX+o.......",
" XXXX@@@@@@@@@@@@@XXXXX+o.......",
" XXXXXXXXXXXXXXXXXXXXXX+o.......",
"   +++++++++++++++++++++o.......",
"...oooooooooooooooooooooo......."};
