/* XPM */
static char * comp_t_xpm[] = {
/* width height ncolors cpp [x_hot y_hot] */
"16 16 9 1 0 0",
/* colors */
" 	s none	m none	c none",
".	s Gray8	m black	c #212121212121",
"X	s Color2	m white	c white",
"o	s Color1	m black	c black",
"O	s Gray1	m white	c #dededededede",
"+	s Color4	m white	c red",
"@	s Gray6	m black	c #636363636363",
"#	s Color3	m black	c darkred",
"$	s Gray2	m white	c #bdbdbdbdbdbd",
/* pixels */
"  .....         ",
"  .XXoO.        ",
"  .XXoXO.       ",
"  .XXoooo       ",
"+ .XXX@@@o +    ",
"#+.XXXX@@o+#    ",
"##+XXXXX@+##    ",
"###+XXXX+###    ",
"####+$X+####    ",
"###o$XX$o###    ",
"##o$XXXX@o##    ",
"#ooXXXXX@oo#    ",
"o .XXXXX@o o    ",
"  .XXXXX@o      ",
"  .@@@@@@o      ",
"    oooooo      "};
