/* XPM */
static char * comp_t_xpm[] = {
/* width height ncolors cpp [x_hot y_hot] */
"16 16 8 1 0 0",
/* colors */
" 	s Gray8	m black	c #212121212121",
".	s none	m none	c none",
"X	s Color2	m white	c white",
"o	s Color1	m black	c black",
"O	s Gray1	m white	c #dededededede",
"+	s Gray6	m black	c #636363636363",
"@	s Color3	m black	c darkred",
"#	s Gray2	m white	c #bdbdbdbdbdbd",
/* pixels */
"          ......",
" XXXXXXXoO .....",
" XXXXXXXoXO ....",
" XXXXXXXoooo....",
" XXXXXXXX+++o...",
" XX@@@@@@X++o...",
" XXX@@@@XXX+o...",
" XXXX@@XXXX+o...",
" XX+#+#+#XX+o...",
" XX#+#+#+XX+o...",
" XXXX@@XXXX+o...",
" XXX@@@@XXX+o...",
" XX@@@@@@XX+o...",
" XXXXXXXXXX+o...",
" +++++++++++o...",
"..ooooooooooo..."};
