/* XPM */
static char * comp_s_xpm[] = {
/* width height ncolors cpp [x_hot y_hot] */
"24 24 7 1 0 0",
/* colors */
" 	s Gray8	m black	c #212121212121",
".	s none	m none	c none",
"X	s Color2	m white	c white",
"o	s Gray6	m black	c #636363636363",
"O	s Color1	m black	c black",
"+	s Color3	m black	c darkred",
"@	s Gray4	m white	c #949494949494",
/* pixels */
"               .........",
" XXXXXXXXXXXX X ........",
" XXXXXXXXXXXX XX .......",
" XXXXXXXXXXXX XXX ......",
" XXXXXXXXXXXX     ......",
" XXXXXXXXXXXXXooooO.....",
" XXXX++++++++XXoooO.....",
" XXXX++++++++XXXXoO.....",
" XXXXX++++++XXXXXoO.....",
" XXXXXX++++XXXXXXoO.....",
" XXXXXXX++XXXXXXXoO.....",
" XXXXXXXXXXXXXXXXoO.....",
" XXX@ @ @ @ @ XXXoO.....",
" XXX @ @ @ @ @XXXoO.....",
" XXXXXXXXXXXXXXXXoO.....",
" XXXXXXX++XXXXXXXoO.....",
" XXXXXX++++XXXXXXoO.....",
" XXXXX++++++XXXXXoO.....",
" XXXX++++++++XXXXoO.....",
" XXXX++++++++XXXXoO.....",
" XXXXXXXXXXXXXXXXoO.....",
" XXXXXXXXXXXXXXXXoO.....",
"  ooooooooooooooooO.....",
"..OOOOOOOOOOOOOOOOO....."};
