/* XPM */
static char * comp_l_xpm[] = {
/* width height ncolors cpp [x_hot y_hot] */
"48 48 9 1 0 0",
/* colors */
" 	s none	m none	c none",
".	s Gray8	m black	c #212121212121",
"X	s Color2	m white	c white",
"o	s Color1	m black	c black",
"O	s Gray2	m white	c #bdbdbdbdbdbd",
"+	s Gray1	m white	c #dededededede",
"@	s Gray6	m black	c #636363636363",
"#	s Color4	m white	c red",
"$	s Color3	m black	c darkred",
/* pixels */
"         ............                           ",
"         .XXXXXXXXXoO.                          ",
"         .XXXXXXXXXo+O.                         ",
"         .XXXXXXXXXoX+O.                        ",
"         .XXXXXXXXXoXX+O.                       ",
"         .XXXXXXXXXoXXX+O.                      ",
"         .XXXXXXXXXoXXXX+O.                     ",
"         .XXXXXXXXXoXXXXX+O.                    ",
"         .XXXXXXXXXooooooooo                    ",
"         .XXXXXXXXXX@@@@@@@@o                   ",
"         .XXXXXXXXXXX@@@@@@@o                   ",
"         .XXXXXXXXXXXXXXXXX@o                   ",
"         .XXXXXXXXXXXXXXXXX@o                   ",
"         .XXXXXXXXXXXXXXXXX@o                   ",
"         .XXXXXXXXXXXXXXXXX@o                   ",
"         .XXXXXXXXXXXXXXXXX@o                   ",
"         .XXXXXXXXXXXXXXXXX@o                   ",
"         .XXXXXXXXXXXXXXXXX@o                   ",
" #       .XXXXXXXXXXXXXXXXX@.       #           ",
" $#      .XXXXXXXXXXXXXXXXX@.      #$           ",
" $$#     .XXXXXXXXXXXXXXXXX@.     #$$           ",
" $$$#    .XXXXXXXXXXXXXXXXX@.    #$$$           ",
" $$$$#   .XXXXXXXXXXXXXXXXX@.   #$$$$           ",
" $$$$$#  .XXXXXXXXXXXXXXXXX@.  #$$$$$           ",
" $$$$$$# .XXXXXXXXXXXXXXXXX@. #$$$$$$           ",
" $$$$$$$#.XXXXXXXXXXXXXXXXX@.#$$$$$$$           ",
" $$$$$$$$#XXXXXXXXXXXXXXXXX@#$$$$$$$$           ",
" $$$$$$$$oXXXXXXXXXXXXXXXXX@o$$$$$$$$           ",
" $$$$$$$o.XXXXXXXXXXXXXXXXX@.o$$$$$$$           ",
" $$$$$$o .XXXXXXXXXXXXXXXXX@. o$$$$$$           ",
" $$$$$o  .XXXXXXXXXXXXXXXXX@.  o$$$$$           ",
" $$$$o   .XXXXXXXXXXXXXXXXX@.   o$$$$           ",
" $$$o    .XXXXXXXXXXXXXXXXX@.    o$$$           ",
" $$o     .XXXXXXXXXXXXXXXXX@.     o$$           ",
" $o      .XXXXXXXXXXXXXXXXX@.      o$           ",
" o       .XXXXXXXXXXXXXXXXX@.       o           ",
"         .XXXXXXXXXXXXXXXXX@.                   ",
"         .XXXXXXXXXXXXXXXXX@o                   ",
"         .XXXXXXXXXXXXXXXXX@o                   ",
"         .XXXXXXXXXXXXXXXXX@o                   ",
"         .XXXXXXXXXXXXXXXXX@o                   ",
"         .XXXXXXXXXXXXXXXXX@o                   ",
"         .XXXXXXXXXXXXXXXXX@o                   ",
"         .XXXXXXXXXXXXXXXXX@o                   ",
"         .XXXXXXXXXXXXXXXXX@o                   ",
"         .XXXXXXXXXXXXXXXXX@o                   ",
"         ...@@@@@@@@@@@@@@@@o                   ",
"            ooooooooooooooooo                   "};
