/* XPM */
static char * cxxinc_m_xpm[] = {
/* width height ncolors cpp [x_hot y_hot] */
"32 32 9 1 0 0",
/* colors */
" 	s iconGray8	m black	c #212121212121",
".	s none	m none	c none",
"X	s iconColor2	m white	c white",
"o	s iconColor1	m black	c black",
"O	s iconGray1	m white	c #dededededede",
"+	s iconGray6	m black	c #636363636363",
"@	s iconGray3	m white	c #adadadadadad",
"#	s iconColor11	m black	c darkkhaki",
"$	c #AEAEAEAEAEAE",
/* pixels */
"                    ............",
" XXXXXXXXXXXXXXXXXoO ...........",
" XXXXXXXXXXXXXXXXXoXO ..........",
" XXXXXXXXXXXXXXXXXoXXO .........",
" XXXXXXXXXXXXXXXXXoXXXO ........",
" XXXXXXXXXXXXXXXXXoooooo........",
" XXXXXXXXXXXXXXXXXX+++++o.......",
" XXXXXXXXXXXXXXXXXXX++++o.......",
" XXXXXXXXXXXXoo@ooooXXX+o.......",
" XXXXX####XXXXXXXXXXXXX+o.......",
" XXXX######XXX#XXo$oXXX+o.......",
" XXX###XX##XX###XXXXXXX+o.......",
" XXX##XXXXXXXX#XXoooXXX+o.......",
" XXX##XXXXXXXXXXXXXXXXX+o.......",
" XXX##XXXXXXXX#XXo$oXXX+o.......",
" XXX###XX##XX###XXXXXXX+o.......",
" XXXX######XXX#XXoooXXX+o.......",
" XXXXX####XXXXXXXXXXXXX+o.......",
" XXXXXXXXXXXXoooooooXXX+o.......",
" XXXXXXXXXXXXXXXXXXXXXX+o.......",
" XXXo$ooooooooooo$ooXXX+o.......",
" XXXXXXXXXXXXXXXXXXXXXX+o.......",
" XXXoooo$oooooo$ooooXXX+o.......",
" XXXXXXXXXXXXXXXXXXXXXX+o.......",
" XXXo$$ooooo$oooooooXXX+o.......",
" XXXXXXXXXXXXXXXXXXXXXX+o.......",
" XXXooooooooooooooooXXX+o.......",
" XXXXXXXXXXXXXXXXXXXXXX+o.......",
" XXXXXXXXXXXXXXXXXXXXXX+o.......",
" XXXXXXXXXXXXXXXXXXXXXX+o.......",
"   +++++++++++++++++++++o.......",
"...oooooooooooooooooooooo......."};
