/* XPM */
static char * cxxsrc_l_xpm[] = {
/* width height ncolors cpp [x_hot y_hot] */
"48 48 8 1 0 0",
/* colors */
" 	s Gray8	m black	c #212121212121",
".	s none	m none	c none",
"X	s Color2	m white	c white",
"o	s Color1	m black	c black",
"O	s Gray2	m white	c #bdbdbdbdbdbd",
"+	s Gray1	m white	c #dededededede",
"@	s Gray6	m black	c #636363636363",
"#	s Color15	m black	c slateblue",
/* pixels */
"                               .................",
" XXXXXXXXXXXXXXXXXXXXXXXXXXXXoO ................",
" XXXXXXXXXXXXXXXXXXXXXXXXXXXXo+O ...............",
" XXXXXXXXXXXXXXXXXXXXXXXXXXXXoX+O ..............",
" XXXXXXXXXXXXXXXXXXXXXXXXXXXXoXX+O .............",
" XXXXXXXXXXXXXXXXXXXXXXXXXXXXoXXX+O ............",
" XXXXXXXXXXXXXXXXXXXXXXXXXXXXoXXXX+O ...........",
" XXXXXXXXXXXXXXXXXXXXXXXXXXXXoXXXXX+O ..........",
" XXXXXXXXXXXXXXXXXXXXXXXXXXXXooooooooo..........",
" XXXXXXXXXXXXXXXXXXXXXXXXXXXXX@@@@@@@@o.........",
" XXXXXXXXXXXXXXXXXXXXXXXXXXXXXX@@@@@@@o.........",
" XXXXXXXXXXXXXXXXXXXXXXXXXXXXXXXXXXXX@o.........",
" XXXXXXXXXXXXXXXXXXXXXXXXXXXXXXXXXXXX@o.........",
" XXXXXXXXXXXXXXXXXXXXXXXXXXXXXXXXXXXX@o.........",
" XXXXXX#####XXXXXXXoooooooooOOooXXXXX@o.........",
" XXXXX#######XXXXXXXXXXXXXXXXXXXXXXXX@o.........",
" XXXX###XXX###XXXXXXXooOoooooOooXXXXX@o.........",
" XXXX##XXXXX##XXX#XXXXXXXXXXXXXXXXXXX@o.........",
" XXXX##XXXXXXXXX###XXooooooOOoooXXXXX@o.........",
" XXXX##XXXXXXXXXX#XXXXXXXXXXXXXXXXXXX@o.........",
" XXXX##XXXXXXXXXXXXXXoooOoooOoooXXXXX@o.........",
" XXXX##XXXXXXXXXXXXXXXXXXXXXXXXXXXXXX@o.........",
" XXXX##XXXXXXXXXX#XXXoooooOoooooXXXXX@o.........",
" XXXX##XXXXX##XX###XXXXXXXXXXXXXXXXXX@o.........",
" XXXX###XXX###XXX#XXXoooooOoooOoXXXXX@o.........",
" XXXXX#######XXXXXXXXXXXXXXXXXXXXXXXX@o.........",
" XXXXXX#####XXXXXXXoooOooooOooooXXXXX@o.........",
" XXXXXXXXXXXXXXXXXXXXXXXXXXXXXXXXXXXX@o.........",
" XXXXooooOOooooooOooooOooooOOoooXXXXX@o.........",
" XXXXXXXXXXXXXXXXXXXXXXXXXXXXXXXXXXXX@o.........",
" XXXXooOooOooooooOOooooooOooOooXXXXXX@o.........",
" XXXXXXXXXXXXXXXXXXXXXXXXXXXXXXXXXXXX@o.........",
" XXXXoOoooooooOOooooooooOOOoooooXXXXX@o.........",
" XXXXXXXXXXXXXXXXXXXXXXXXXXXXXXXXXXXX@o.........",
" XXXXoOooOoooooOOoooooOooooOOoooXXXXX@o.........",
" XXXXXXXXXXXXXXXXXXXXXXXXXXXXXXXXXXXX@o.........",
" XXXXoooooOOooooooOOooooooOoooooXXXXX@o.........",
" XXXXXXXXXXXXXXXXXXXXXXXXXXXXXXXXXXXX@o.........",
" XXXXoooOooooooOOoooooOoooooOoooXXXXX@o.........",
" XXXXXXXXXXXXXXXXXXXXXXXXXXXXXXXXXXXX@o.........",
" XXXXoooOOooooooooooOoooooooOoooXXXXX@o.........",
" XXXXXXXXXXXXXXXXXXXXXXXXXXXXXXXXXXXX@o.........",
" XXXXXXXXXXXXXXXXXXXXXXXXXXXXXXXXXXXX@o.........",
" XXXXXXXXXXXXXXXXXXXXXXXXXXXXXXXXXXXX@o.........",
" XXXXXXXXXXXXXXXXXXXXXXXXXXXXXXXXXXXX@o.........",
" XXXXXXXXXXXXXXXXXXXXXXXXXXXXXXXXXXXX@o.........",
"   @@@@@@@@@@@@@@@@@@@@@@@@@@@@@@@@@@@o.........",
"...oooooooooooooooooooooooooooooooooooo........."};
