/* XPM */
static char * cxxsrc_t_xpm[] = {
/* width height ncolors cpp [x_hot y_hot] */
"16 16 7 1 0 0",
/* colors */
" 	s Gray8	m black	c #212121212121",
".	s none	m none	c none",
"X	s Color2	m white	c white",
"o	s Color1	m black	c black",
"O	s Gray6	m black	c #636363636363",
"+	s Color15	m black	c slateblue",
"@	s Gray4	m white	c #949494949494",
/* pixels */
"          ......",
" XXXXXXXoX .....",
" XXXXXXXoXX ....",
" XXXXXXXoooo....",
" XXXXXXXXOOOo...",
" XX+++XXX+XOo...",
" X+++++X+++@o...",
" X++XXXXX+XOo...",
" X++XXXXXXXOo...",
" X++XXXXX+XOo...",
" X+++++X+++@o...",
" XX+++XXX+XOo...",
" XXXXXXXXXXOo...",
" XXXXXXXXXXOo...",
"  OOOOOOOOOOo...",
"..ooooooooooo..."};
