/* XPM */
static char * dlink_s_xpm[] = {
/* width height ncolors cpp [x_hot y_hot] */
"24 24 7 1 0 0",
/* colors */
" 	s iconGray8	m black	c #212121212121",
".	s none	m none	c none",
"X	s iconColor2	m white	c white",
"o	s iconGray1	m white	c #dededededede",
"O	s iconGray6	m black	c #636363636363",
"+	s iconColor1	m black	c black",
"@	s iconGray7	m black	c #424242424242",
/* pixels */
"               .........",
" XXXXXXXXXXXX o ........",
" XXXXXXXXXXXX Xo .......",
" XXXXXXXXXXXX XXo ......",
" XXXXXXXXXXXX     ......",
" XXXXXXXXXXXXXOOOO+.....",
" XXXXXXXXXXXXXXOOO+.....",
" XXXXXXXXXXXXXXXXO+.....",
" XXXXXXXXXXXXXXXXO+.....",
" @XXXXXXXX@XXXXXXO+.....",
" +@X@@XXX@+@@XXX@O+.....",
"..+@++@X@+.++@X@+.......",
"...+..+@+....+@+..+.....",
" +.....+..+...+..++.....",
" X+.++...+X+.X..+O+.....",
" XX+XX+.+XXX+..+XO+.....",
" XXXXXX+XXXXX++XXO+.....",
" XXXXXXXXXXXXXXXXO+.....",
" XXXXXXXXXXXXXXXXO+.....",
" XXXXXXXXXXXXXXXXO+.....",
" XXXXXXXXXXXXXXXXO+.....",
" XXXXXXXXXXXXXXXXO+.....",
"   OOOOOOOOOOOOOOO+.....",
"...               +....."};
