/* XPM */
static char * dlink_t_xpm[] = {
/* width height ncolors cpp [x_hot y_hot] */
"16 16 7 1 0 0",
/* colors */
" 	s iconGray8	m black	c #212121212121",
".	s none	m none	c none",
"X	s iconColor2	m white	c white",
"o	s iconColor1	m black	c black",
"O	s iconGray1	m white	c #dededededede",
"+	s iconGray6	m black	c #636363636363",
"@	s iconGray7	m black	c #424242424242",
/* pixels */
"          ......",
" XXXXXXXoO .....",
" XXXXXXXoXO ....",
" XXXXXXXoooo....",
" XXXXXXXX+++o...",
" @XXX@X@XX+@o...",
".o@X@o@o@X@oo...",
"..o@o.o.o@o.....",
"o..o.....o......",
" o...o.o...oo...",
" Xo.oXoXo.o+o...",
" XXoXXXXXoX+o...",
" XXXXXXXXXX+o...",
" XXXXXXXXXX+o...",
" +++++++++++o...",
"..ooooooooooo..."};
