/* XPM */
static char * elf_l_xpm[] = {
/* width height ncolors cpp [x_hot y_hot] */
"48 48 12 1 0 0",
/* colors */
" 	s Gray8	m black	c #212121212121",
".	s none	m none	c none",
"X	s Color2	m white	c white",
"o	s Color1	m black	c black",
"O	s Gray2	m white	c #bdbdbdbdbdbd",
"+	s Gray1	m white	c #dededededede",
"@	s Gray5	m black	c #737373737373",
"#	s Gray6	m black	c #636363636363",
"$	s Gray7	m black	c #424242424242",
"%	s Color12	m white	c yellow",
"&	s Color11	m black	c darkkhaki",
"*	s Gray4	m white	c #949494949494",
/* pixels */
"                               .................",
" XXXXXXXXXXXXXXXXXXXXXXXXXXXXoO ................",
" XXXXXXXXXXXXXXXXXXXXXXXXXXXXo+O ...............",
" XXXXXXXXXXXXXXXXXXXXXXXXXXXXoX+O ..............",
" XXXXXXXXXXXXXXXXXXXXXXXXXXXXoXX+O .............",
" XXXXXXXXXXXXXXXXXXXXXXXXXXXXoXXX+O ............",
" XXXXXXXXXXXXXXXXXXXXXXXXXXXXoXXXX+O ...........",
" XXXXXXXXXXXXXXXXXXXXXXXXXXXXoXXXXX+O ..........",
" XXXXXXXXXXXXXXXXXXXXXXXXXXXXooooooooo..........",
" XXXX@@@XX@@@XXXXXXX@@@XXXXXXX########o.........",
" XXXX@+XXX@+XXXXXXXX@+XXXXXXXXX#######o.........",
" XXXX@XXXX@XXXXXXXXX@XXXXXXXXXXXXXXXX#o.........",
" XXXXXXXXXXXXXXXXXXXXXXXXXXXXXXXXXXXX#o.........",
" XXXXXXXXXXXXXXXXXXXXXXXXXXXXXXXXXXXX#o.........",
" XXXX@@@XXXXXXX@@@XX@@@XX@@@XXXXXXXXX#o.........",
" XXXX@+XXXXXXXX@+XXX@+XXX@+XXXXXXXXXX#o.........",
" XXXX@XXXXXXXXX@XXXX@XXXX@XXXXXXXXXXX#o.........",
" XXXXXXXXXXXXXXXXXXXXXXXXXXXXXXXXXXXX#o.........",
" XXXXXXXXXXXXXXXXXXXXXXXXXXXXXXXXXXXX#o.........",
" XXXX@@@XXXXXXX@@@XXXXXXXXXXXXXXXXXXX#o.........",
" XXXX@+XXXXXXXX@+XXXXXXXXXXXXXXXXXXXX#o.........",
" XXXX@XXXXXXXXX@XXXXXXXXXXXXXXXXXXXXX#o.........",
" XXXXXXXXXXXXXXXXXXXXXXXXXXXXXXXXXXXX#o.........",
" XXXXXXXXXXXXXXXXXXXXXXXXXXXXXXXXXXXX#o.........",
" XXXX@@@XXXXXXXXXXXX@@@XX@@@XXXXXXXXX#o.........",
" XXXX@+XXXXXXXXXXXXX@+XXX@+XXXXXXXXXX#o.........",
" XXXX@XXXXXXXXXXXXXX@XXXX@XXXXXXXX@ @#o.........",
" XXXXXXXXXXXXXXXXXXXXXXXXXXXXXX $O@%@## ........",
" XXXXXXXXXXXXXXXXXXXXXXXXXXXXX %%$%&%#%% .......",
" XXXX@@@XXXXXXX@@@XXXXXXXXXXXX#%%&&&&&&%$.......",
" XXXX@+XXXXXXXX@+XXXXXXXXXXXXXO#&&&&&&&$........",
" XXXX@XXXXXXXXX@XXXXXXXXXXXXX@@%&&*o*&&%@@......",
" XXXXXXXXXXXXXXXXXXXXXXXXXXXX %%&&ooo%&&% ......",
" XXXXXXXXXXXXXXXXXXXXXXXXXXXX@@&&&*o%&&&$$......",
" XXXXXXXXX@@@XXXXXXXXXXXX@@@XX*#&&&%&&&##.......",
" XXXXXXXXX@+XXXXXXXXXXXXX@+XXO#%%&&&&&&&@****...",
" XXXXXXXXX@XXXXXXXXXXXXXX@XXXX %&#%&&#&##$%%$#..",
" XXXXXXXXXXXXXXXXXXXXXXXXXXXXXX #O@%@#@#%#&&#%o.",
" XXXXXXXXXXXXXXXXXXXXXXXXXXXXXXXXX@ @#o$#&&&&#$.",
" XXXX@@@XXXXXXX@@@XXXXXXX@@@XXXXXXOOO#o%&&$ %&%#",
" XXXX@+XXXXXXXX@+XXXXXXXX@+XXXXXXXXXX#o%&& $%&%#",
" XXXX@XXXXXXXXX@XXXXXXXXX@XXXXXXXXXXX#o$#&%%&##o",
" XXXXXXXXXXXXXXXXXXXXXXXXXXXXXXXXXXXX#oo%#&&#%o.",
" XXXXXXXXXXXXXXXXXXXXXXXXXXXXXXXXXXXX#o.*$%%$#..",
" XXXXXXXXXXXXXXXXXXXXXXXXXXXXXXXXXXXX#o...oo....",
" XXXXXXXXXXXXXXXXXXXXXXXXXXXXXXXXXXXX#o.........",
"   ###################################o.........",
"...oooooooooooooooooooooooooooooooooooo........."};
