/* XPM */
static char * elf_m_xpm[] = {
/* width height ncolors cpp [x_hot y_hot] */
"32 32 12 1 0 0",
/* colors */
" 	s Gray8	m black	c #212121212121",
".	s none	m none	c none",
"X	s Color2	m white	c white",
"o	s Color1	m black	c black",
"O	s Gray1	m white	c #dededededede",
"+	s Gray6	m black	c #636363636363",
"@	s Gray5	m black	c #737373737373",
"#	s Gray2	m white	c #bdbdbdbdbdbd",
"$	s Gray4	m white	c #949494949494",
"%	s Gray7	m black	c #424242424242",
"&	s Color12	m white	c yellow",
"*	s Color11	m black	c darkkhaki",
/* pixels */
"                    ............",
" XXXXXXXXXXXXXXXXXoO ...........",
" XXXXXXXXXXXXXXXXXoXO ..........",
" XXXXXXXXXXXXXXXXXoXXO .........",
" XXXXXXXXXXXXXXXXXoXXXO ........",
" XXXXXXXXXXXXXXXXXoooooo........",
" XXXXXXXXXXXXXXXXXX+++++o.......",
" XXX@@X@@XXXX@@XXXXX++++o.......",
" XXX@#X@#XXXX@#XXXXXXXX+o.......",
" XXXXXXXXXXXXXXXXXXXXXX+o.......",
" XXX@@XXXX@@X@@X@@XXXXX+o.......",
" XXX@#XXXX@#X@#X@#XXXXX+o.......",
" XXXXXXXXXXXXXXXXXXXXXX+o.......",
" XXX@@XXXX@@XXXXXXXXXXX+o.......",
" XXX@#XXXX@#XXXXXXXXXXX+o.......",
" XXXXXXXXXXXXXXXXXXXXXX+o.......",
" XXX@@X@@XXXX@@X@@XXXXX+o.......",
" XXX@#X@#XXXX@#X@XXO$$$$o.......",
" XXXXXXXXXXXXXXXXXO$%&&%+.......",
" XXX@@XXXX@@XXXXXO$&****&o......",
" XXX@#XXXX@#XXXXX$%******%......",
" XXXXXXXXXXXXXXXX$&**% &*&+.....",
" XXXXXX@@XXXXXXXX$&** %&*&+$$...",
" XXXXXX@#XXXXXXXXO%**&&**+$&%$..",
" XXXXXXXXXXXXXXXXX$&****&%&**&$.",
" XXX@@XXXX@@XXXX+@X$%&&%+o*%@*&o",
" XXX@#XXXX@#XXXX+OXX++++o&*@%*%o",
" XXXXXXXXXXXXXXXXXXXXXX+oo&**&+o",
" XXXXXXXXXXXXXXXXXXXXXX+o.o%&+o.",
" XXXXXXXXXXXXXXXXXXXXXX+o..ooo..",
"   +++++++++++++++++++++o.......",
"...oooooooooooooooooooooo......."};
