/* XPM */
static char * elf_s_xpm[] = {
/* width height ncolors cpp [x_hot y_hot] */
"24 24 12 1 0 0",
/* colors */
" 	s Gray8	m black	c #212121212121",
".	s none	m none	c none",
"X	s Color2	m white	c white",
"o	s Gray6	m black	c #636363636363",
"O	s Color1	m black	c black",
"+	s Gray5	m black	c #737373737373",
"@	s Gray2	m white	c #bdbdbdbdbdbd",
"#	s Gray1	m white	c #dededededede",
"$	s Gray4	m white	c #949494949494",
"%	s Gray7	m black	c #424242424242",
"&	s Color12	m white	c yellow",
"*	s Color11	m black	c darkkhaki",
/* pixels */
"               .........",
" XXXXXXXXXXXX X ........",
" XXXXXXXXXXXX XX .......",
" XXXXXXXXXXXX XXX ......",
" XXXXXXXXXXXX     ......",
" XXXXXXXXXXXXXooooO.....",
" XX++X++XXXX++XoooO.....",
" XX+@X+@XXXX+@XXXoO.....",
" XXXXXXXXXXXXXXXXoO.....",
" XX++XXXX++XXXXXXoO.....",
" XX+@XXXX+#XX$$$$oO.....",
" XXXXXXXXXXX$%&&%oO.....",
" XX++XXXXXX$&****&O.....",
" XX+@XXXXX$%******%.....",
" XXXXXXXXX$&**% &*&+....",
" XX++X++XX$&** %&*&+....",
" XX+@X+@XXX%**&&**%+$$..",
" XXXXXXXXXX$&****&O$&%$.",
" XX++XXXX++X$%&&%oO&**&$",
" XX+@XXXX+#XX$$$$o%*%+*&",
" XXXXXXXXXXXXXXXXo&*+%*%",
" XXXXXXXXXXXXXXXXoO&**&O",
"  ooooooooooooooooOO%&O.",
"..OOOOOOOOOOOOOOOOO.OO.."};
