/* XPM */
static char * exec_m_xpm[] = {
/* width height ncolors cpp [x_hot y_hot] */
"32 32 11 1 0 0",
/* colors */
" 	s Gray8	m black	c #212121212121",
".	s none	m none	c none",
"X	s Color2	m white	c white",
"o	s Color1	m black	c black",
"O	s Gray1	m white	c #dededededede",
"+	s Gray6	m black	c #636363636363",
"@	s Gray5	m black	c #737373737373",
"#	s Color12	m white	c yellow",
"$	s Color11	m black	c darkkhaki",
"%	s Gray2	m white	c #bdbdbdbdbdbd",
"&	s Gray7	m black	c #424242424242",
/* pixels */
"                    ............",
" XXXXXXXXXXXXXXXXXoO ...........",
" XXXXXXXXXXXXXXXXXoXO ..........",
" XXXXXXXXXXXXXXXXXoXXO .........",
" XXXXXXXXXXXXXXXXXoXXXO ........",
" XXXXXXXXXXXXXXXXXoooooo........",
" XXXXXXXXXXXXXXXXXX+++++o.......",
" XXXXXXXXXXXXXXXXXXX++++o.......",
" XXXXXXXXXXXXXXXXXXXXXX+o.......",
" XXXXXXXXXXXXXXXXXXXXXX+o.......",
" XXXXX@@XXXXXXXXXXXXXXX+o.......",
" XXX @##@ XXXXXXXXXXXXX+o.......",
" XXX@#@@$@XXXXXXXXXXXXX+o.......",
" XX@#@XX $ XXXXXXXXXXXX+o.......",
" XX@$@XX # XXXXXXXXXXXX+o.......",
" XXX@$  #+XXX@ @XXXXXXX+o.......",
" XXX @##+$ @X@#@X+ XXXX+o.......",
" XXXXX  X ##+$$$+## XXX+o.......",
" XXXXXXXX@$$$$$$$$$+XXX+o.......",
" XXXXXXXXX+$$@@@$$+XXXX+o.......",
" XXXXXXX@@#$@%X% ##@@XX+o.......",
" XXXXXXX #$$@XXX #$$ XX+o.......",
" XXXXXXX@@$$@%X% #$@@XX+o.......",
" XXXXXXXXX+#$   #$+XXXX+o.......",
" XXXXXXXX+#$$###$$$+XXX+o.......",
" XXXXXXXX $$+$$$&#$ XXX+o.......",
" XXXXXXXXX +X@$@X& XXXX+o.......",
" XXXXXXXXXXXX@ @XXXXXXX+o.......",
" XXXXXXXXXXXXXXXXXXXXXX+o.......",
" XXXXXXXXXXXXXXXXXXXXXX+o.......",
"   +++++++++++++++++++++o.......",
"...oooooooooooooooooooooo......."};
