/* XPM */
static char * exec_s_xpm[] = {
/* width height ncolors cpp [x_hot y_hot] */
"24 24 8 1 0 0",
/* colors */
" 	s Gray8	m black	c #212121212121",
".	s none	m none	c none",
"X	s Color2	m white	c white",
"o	s Gray6	m black	c #636363636363",
"O	s Color1	m black	c black",
"+	s Color12	m white	c yellow",
"@	s Gray5	m black	c #737373737373",
"#	s Gray7	m black	c #424242424242",
/* pixels */
"               .........",
" XXXXXXXXXXXX X ........",
" XXXXXXXXXXXX XX .......",
" XXXXXXXXXXXX XXX ......",
" XXXXXXXXXXXX     ......",
" XXXXXXXXXXXXXooooO.....",
" XXXXXXXXXXXXXXoooO.....",
" XXXXXXXXXXXXXXXXoO.....",
" XXXXXXXXXXXXXXXXoO.....",
" XXXXX  XXXXXXXXXoO.....",
" XXXX ++ XXXXXXXXoO.....",
" XXX +@@+ XXXXXXXoO.....",
" XXX +@@+   XXXXXoO.....",
" XXXX ++ @++@OXXXoO.....",
" XXXXX  @+##+@XXXoO.....",
" XXXXXX +#XXO+ XXoO.....",
" XXXXXX +#XXO+ XXoO.....",
" XXXXXXX@+OO+oXXXoO.....",
" XXXXXXXO@++oOXXXoO.....",
" XXXXXXXXX  XXXXXoO.....",
" XXXXXXXXXXXXXXXXoO.....",
" XXXXXXXXXXXXXXXXoO.....",
"  ooooooooooooooooO.....",
"..OOOOOOOOOOOOOOOOO....."};
