/* XPM */
static char * exec_s_xpm[] = {
/* width height ncolors cpp [x_hot y_hot] */
"24 24 8 1 0 0",
/* colors */
" 	s iconGray8	m black	c #212121212121",
".	s none	m none	c none",
"X	s iconColor2	m white	c white",
"o	s iconGray6	m black	c #636363636363",
"O	s iconColor1	m black	c black",
"+	s iconGray5	m black	c #737373737373",
"@	s iconGray7	m black	c #424242424242",
"#	s iconColor12	m white	c yellow",
/* pixels */
"               .........",
" XXXXXXXXXXXX X ........",
" XXXXXXXXXXXX XX .......",
" XXXXXXXXXXXX XXX ......",
" XXXXXXXXXXXX     ......",
" XXXXXXXXXXXXXooooO.....",
" XXXXXXXXXXXXXXoooO.....",
" XXXXXXXXXXXXXXXXoO.....",
" XXXXXXXXXXXXXXXXoO.....",
" XXXXXXXXXXXXXXXXoO.....",
" XXXXXX++XXXXXXXXoO.....",
" XXXXX@##@XXXXXXXoO.....",
" XXXX+#++#oXXXXXXoO.....",
" XXXX+#++#o@+XXXXoO.....",
" XXXXX@##@+##+@XXoO.....",
" XXXXXXoo+#@@#+.XoO.....",
" XXXXXXX@#@XX #oXoO.....",
" XXXXXXX+#@XX #oXoO.....",
" XXXXXXXX+#  #oXXoO.....",
" XXXXXXXX@+##o@XXoO.....",
" XXXXXXXXX.ooXXXXoO.....",
" XXXXXXXXXXXXXXXXoO.....",
"  ooooooooooooooooO.....",
"..OOOOOOOOOOOOOOOOO....."};
