/* XPM */
static char * exec_t_xpm[] = {
/* width height ncolors cpp [x_hot y_hot] */
"16 16 9 1 0 0",
/* colors */
" 	s iconGray8	m black	c #212121212121",
".	s none	m none	c none",
"X	s iconColor2	m white	c white",
"o	s iconColor1	m black	c black",
"O	s iconGray1	m white	c #dededededede",
"+	s iconGray6	m black	c #636363636363",
"@	s iconGray5	m black	c #737373737373",
"#	s iconColor12	m white	c yellow",
"$	s iconGray3	m white	c #adadadadadad",
/* pixels */
"          ......",
" XXXXXXXoO .....",
" XXXXXXXoXO ....",
" XXXXXXXoooo....",
" XXXXXXXX+++o...",
" XX@@XXXXX++o...",
" X@##@XXXXX+o...",
" X@##@@@XXX+o...",
" XX@@@##@XX+o...",
" XXX@#$$#+X+o...",
" XXX@#$$#+X+o...",
" XXXX@##+XX+o...",
" XXXXX++XXX+o...",
" XXXXXXXXXX+o...",
" +++++++++++o...",
"..ooooooooooo..."};
