/* XPM */
static char * exec_l_xpm[] = {
/* width height ncolors cpp [x_hot y_hot] */
"48 48 10 1 0 0",
/* colors */
" 	s Gray8	m black	c #212121212121",
".	s none	m none	c none",
"X	s Color2	m white	c white",
"o	s Color1	m black	c black",
"O	s Gray2	m white	c #bdbdbdbdbdbd",
"+	s Gray1	m white	c #dededededede",
"@	s Gray6	m black	c #636363636363",
"#	s Gray5	m black	c #737373737373",
"$	s Color12	m white	c yellow",
"%	s Gray7	m black	c #424242424242",
/* pixels */
"                               .................",
" XXXXXXXXXXXXXXXXXXXXXXXXXXXXoO ................",
" XXXXXXXXXXXXXXXXXXXXXXXXXXXXo+O ...............",
" XXXXXXXXXXXXXXXXXXXXXXXXXXXXoX+O ..............",
" XXXXXXXXXXXXXXXXXXXXXXXXXXXXoXX+O .............",
" XXXXXXXXXXXXXXXXXXXXXXXXXXXXoXXX+O ............",
" XXXXXXXXXXXXXXXXXXXXXXXXXXXXoXXXX+O ...........",
" XXXXXXXXXXXXXXXXXXXXXXXXXXXXoXXXXX+O ..........",
" XXXXXXXXXXXXXXXXXXXXXXXXXXXXooooooooo..........",
" XXXXXXXXXXXXXXXXXXXXXXXXXXXXX@@@@@@@@o.........",
" XXXXXXXXXXXXXXXXXXXXXXXXXXXXXX@@@@@@@o.........",
" XXXXXXXXXXXXXXXXXXXXXXXXXXXXXXXXXXXX@o.........",
" XXXXXXXXXXXXXXXXXXXXXXXXXXXXXXXXXXXX@o.........",
" XXXXXXXXXXXXXXXXXXXXXXXXXXXXXXXXXXXX@o.........",
" XXXXXXXXXXXXXXXXXXXXXXXXXXXXXXXXXXXX@o.........",
" XXXXXXXXXXXXXXXXXXXXXXXXXXXXXXXXXXXX@o.........",
" XXXXXXXXXXXX# #XXXXXXXXXXXXXXXXXXXXX@o.........",
" XXXXXXXXX #X#$#X@ XXXXXXXXXXXXXXXXXX@o.........",
" XXXXXXXX $$@$$$@$$ XXXXXXXXXXXXXXXXX@o.........",
" XXXXXXXX#$$$$$$$$$@XXXXXXXXXXXXXXXXX@o.........",
" XXXXXXXXX@$$###$$@XXXXXXXXXXXXXXXXXX@o.........",
" XXXXXXX##$$#OXO $$#@XXXXXXXXXXXXXXXX@o.........",
" XXXXXXX $$$#XXX $$$oXXXXXXXXXXXXXXXX@o.........",
" XXXXXXX##$$#OXO $$#@XXXXXXXXXXXXXXXX@o.........",
" XXXXXXXXX@$$   $$@XXXXXXXXXXXXXXXXXX@o.........",
" XXXXXXXX@$$$$$$$$$@XoXXXXXXXXXXXXXXX@o.........",
" XXXXXXXX $$@$$$%@$ @$@@X@oXXXXXXXXXX@o.........",
" XXXXXXXXX @X#$#@$ #$$$@@$$oXXXXXXXXX@o.........",
" XXXXXXXXXXXX@o@$$$%$$$%$$$@XXXXXXXXX@o.........",
" XXXXXXXXXXXXXXX#$$$$$$$$$@XXXXXXXXXX@o.........",
" XXXXXXXXXXXXXXX@%$$###$$%@XXXXXXXXXX@o.........",
" XXXXXXXXXXXXX@@$$$#OXO $$$@@XXXXXXXX@o.........",
" XXXXXXXXXXXXXo$$$$#XXX $$$$oXXXXXXXX@o.........",
" XXXXXXXXXXXXX@#$$$#OXO $$$@@XXXXXXXX@o.........",
" XXXXXXXXXXXXXXX@%$$   $$%@XXXXXXXXXX@o.........",
" XXXXXXXXXXXXXXX@$$$$$$$$$@XXXXXXXXXX@o.........",
" XXXXXXXXXXXXXX@$$$%$$$%$$$@XXXXXXXXX@o.........",
" XXXXXXXXXXXXXXo$$@@$$$@%$$oXXXXXXXXX@o.........",
" XXXXXXXXXXXXXXXo@XX#$#XX@oXXXXXXXXXX@o.........",
" XXXXXXXXXXXXXXXXXXX@o@XXXXXXXXXXXXXX@o.........",
" XXXXXXXXXXXXXXXXXXXXXXXXXXXXXXXXXXXX@o.........",
" XXXXXXXXXXXXXXXXXXXXXXXXXXXXXXXXXXXX@o.........",
" XXXXXXXXXXXXXXXXXXXXXXXXXXXXXXXXXXXX@o.........",
" XXXXXXXXXXXXXXXXXXXXXXXXXXXXXXXXXXXX@o.........",
" XXXXXXXXXXXXXXXXXXXXXXXXXXXXXXXXXXXX@o.........",
" XXXXXXXXXXXXXXXXXXXXXXXXXXXXXXXXXXXX@o.........",
"   @@@@@@@@@@@@@@@@@@@@@@@@@@@@@@@@@@@o.........",
"...oooooooooooooooooooooooooooooooooooo........."};
