/* XPM */
static char * http_m_xpm[] = {
/* width height ncolors cpp [x_hot y_hot] */
"32 32 18 1 0 0",
/* colors */
" 	s iconGray8	m black	c #212121212121",
".	s none	m none	c none",
"X	s iconColor2	m white	c white",
"o	s iconColor1	m black	c black",
"O	s iconGray1	m white	c #dededededede",
"+	s iconGray2	m white	c #bdbdbdbdbdbd",
"@	s iconGray6	m black	c #636363636363",
"#	s iconGray4	m white	c #949494949494",
"$	s iconGray7	m black	c #424242424242",
"%	s iconColor3	m black	c darkred",
"&	s iconColor8	m white	c blue",
"*	s iconColor4	m white	c red",
"=	s iconColor5	m black	c darkgreen",
"-	s iconColor7	m black	c darkblue",
";	s iconColor6	m white	c green",
":	s iconGray5	m black	c #737373737373",
">	c #AEAEAEAEAEAE",
",	s iconGray3	m white	c #adadadadadad",
/* pixels */
"                    ............",
" XXXXXXXXXXXXXXXXXoO ...........",
" XXXXXXXXXXXXXXXXXoXO ..........",
" XXXXXXXXXXXXXXXXXoXXO .........",
" XXXXXXXXXXXXXXXXXoXXXO ........",
" XXXXXXXXXXXXXXXXXoooooo........",
" XX +XXX+ XXXX+XXXX@@@@@o.......",
" XX  +  +   +   XXXX@@@@o.......",
" XX#############XXXXXXX@o.......",
" XXXXXXXXXXXXXXXXX$$$$$$o.......",
" XX%XXXXXX&XXXXX$$XXXXXoo.......",
" XX*%XX=X&-XXX$$XXXXXX&XXoo.....",
" XX%*X=;X-&XX$X&X&XXX&X&X&Xo....",
" XX*%X;=X&-XX$&X;X;X&O&O&O&o....",
" XXXXXXXXXXX:&X;X;X;O&O;#&#&o...",
" XXXXXXXXXXX:X;X;X;O&>;#;#;#o...",
" XX #XX#XXX@X;X;X;O&>;#;#;#;#o..",
" XX   ,  ,X@&X;O;O&>&#;#;#;#;o..",
" XXXXXXXXXX@X&O;O&>&#;#;:;:;$o..",
" XX #X+XX#X@&O;+;>&#&:;:&:;$&o..",
" XX ,     X@O&+;>;#&:;:&:&$&$o..",
" XXXXXXXXXXXo+&>;#;:&:&:&$&$o:..",
" XX #XX#XX#Xo&>&:;:&:&:;$;$&o...",
" XX  ,     XXo&:&:;:&$&$;$&o....",
" XXXXXXXXXXXXo:&:&$&$&$&$&$o....",
" XX #+XX+XX#XXoo@$&$&$&$@oo.....",
" XX   ,      XXXoo$@$@$oo.......",
" XXXXXXXXXXXXXXXXXooooooo.......",
" XXXXXXXXXXXXXXXXXXXXXX@o.......",
" XXXXXXXXXXXXXXXXXXXXXX@o.......",
"   @@@@@@@@@@@@@@@@@@@@@o.......",
"...oooooooooooooooooooooo......."};
