/* XPM */
static char * http_l_xpm[] = {
/* width height ncolors cpp [x_hot y_hot] */
"48 48 18 1 0 0",
/* colors */
" 	s Gray8	m black	c #212121212121",
".	s none	m none	c none",
"X	s Color2	m white	c white",
"o	s Color1	m black	c black",
"O	s Gray2	m white	c #bdbdbdbdbdbd",
"+	s Gray1	m white	c #dededededede",
"@	s Gray6	m black	c #636363636363",
"#	s Gray4	m white	c #949494949494",
"$	s Color3	m black	c darkred",
"%	s Color8	m white	c blue",
"&	s Color4	m white	c red",
"*	s Color6	m white	c green",
"=	s Color5	m black	c darkgreen",
"-	s Color7	m black	c darkblue",
";	s Gray5	m black	c #737373737373",
":	s Gray3	m white	c #adadadadadad",
">	s Gray7	m black	c #424242424242",
",	c #AEAEAEAEAEAE",
/* pixels */
"                               .................",
" XXXXXXXXXXXXXXXXXXXXXXXXXXXXoO ................",
" XXXXXXXXXXXXXXXXXXXXXXXXXXXXo+O ...............",
" XXXXXXXXXXXXXXXXXXXXXXXXXXXXoX+O ..............",
" XXXXXXXXXXXXXXXXXXXXXXXXXXXXoXX+O .............",
" XXXXXXXXXXXXXXXXXXXXXXXXXXXXoXXX+O ............",
" XXXXXXXXXXXXXXXXXXXXXXXXXXXXoXXXX+O ...........",
" XXXXXXXXXXXXXXXXXXXXXXXXXXXXoXXXXX+O ..........",
" XXXXXXXXXXXXXXXXXXXXXXXXXXXXooooooooo..........",
" XXXXXXXXXXXXXXXXXXXXXXXXXXXXX@@@@@@@@o.........",
" XXXX OXXXO X OXXXO XXXXOXXXXXX@@@@@@@o.........",
" XXXX  O  O    O  O   O   XXXXXXXXXXX@o.........",
" XXXX#####################XXXXXXXXXXX@o.........",
" XXXXXXXXXXXXXXXXXXXXXXXXXXXXXXXXXXXX@o.........",
" XXXX$+XXXXXXXXX+%XXXXXXXXXXXXXXXXXXX@o.........",
" XXXX&$&$X***X+%%%XXXXXXXXXXXXXXXXXXX@o.........",
" XXXX$&$&X=*+X%%%%XXXXXXXXXXXXXXXXXXX@o.........",
" XXXX$$$$X*=*X%-%-XXXXXXXXXXXXXXXXXXX@o.........",
" XXXX$$$$X=*=X-%-%XXXXXXXXXXXXXXXXXXX@o.........",
" XXXXXXXXXXXXXXXXXXXXXXXXXXXXXXXXXXXX@o.........",
" XXXX #XX#XXXX;;XXX;;XXX;XXXX;XXXXXXX@o.........",
" XXXX   :  XoooooXoooXXoooXooooXXXXXX@o.........",
" XXXXXXXXXXXXXXXXXXXXXXXXXXXXXXXXXXXX@o.........",
" XXXX #XOXXXXXXXX;XXXXXXXXXXXXXXXXXXX@o.........",
" XXXX :    ooXoXoooXXXX>>>>>>XXXXXXXX@o.........",
" XXXXXXXXXXXXXXXXXXXX>>XXXXXooXXXXXXX@o.........",
" XXXX #XX#XX;XXXXXX>>XXXXXX%XXooXXXXX@o.........",
" XXXX  :   oooo#XX>X%X%XXX%X%X%XoXXXX@o.........",
" XXXXXXXXXXXXXXXXX>%X*X*X%+%+%+%oXXXX@o.........",
" XXXX #OXXOXXXXXX;%X*X*X*+%+*#%#%oXXX@o.........",
" XXXX   :  Xoo;XX;X*X*X*+%,*#*#*#oXXX@o.........",
" XXXXXXXXXXXXXXX@X*X*X*+%,*#*#*#*#oXX@o.........",
" XXXX #OXXOX#XXX@%X*+*+%,%#*#*#*#*oXX@o.........",
" XXXX   :  ooo#X@X%+*+%,%#*#*;*;*>oXX@o.........",
" XXXXXXXXXXXXXXX@%+*O*,%#%;*;%;*>%oXX@o.........",
" XXXX #OXXOXXXXX@+%O*,*#%;*;%;%>%>oXX@o.........",
" XXXX # :  XooXXXoO%,*#*;%;%;%>%>o;XX@o.........",
" XXXXXXXXXXXXXXXXo%,%;*;%;%;*>*>%o#XX@o.........",
" XXXX #OXXOX#oXXXXo%;%;*;%>%>*>%o#XXX@o.........",
" XXXX  #:  Xooo#XXo;%;%>%>%>%>%>oXXXX@o.........",
" XXXXXXXXXXXXXXXXXXoo@>%>%>%>@oo#XXXX@o.........",
" XXXXo#XXXXXXXXXXXXXXoo>@>@>oo#XXXXXX@o.........",
" XXXXo#o#ooo#ooo#o#XXXXoooooo#XXXXXXX@o.........",
" XXXXXXXXXXXXXXXXXXXXXXXXXXXXXXXXXXXX@o.........",
" XXXXXXXXXXXXXXXXXXXXXXXXXXXXXXXXXXXX@o.........",
" XXXXXXXXXXXXXXXXXXXXXXXXXXXXXXXXXXXX@o.........",
"   @@@@@@@@@@@@@@@@@@@@@@@@@@@@@@@@@@@o.........",
"...oooooooooooooooooooooooooooooooooooo........."};
