/* XPM */
static char * http_t_xpm[] = {
/* width height ncolors cpp [x_hot y_hot] */
"16 16 18 1 0 0",
/* colors */
" 	s iconGray8	m black	c #212121212121",
".	s none	m none	c none",
"X	s iconColor2	m white	c white",
"o	s iconColor1	m black	c black",
"O	s iconGray1	m white	c #dededededede",
"+	s iconGray3	m white	c #adadadadadad",
"@	s iconGray6	m black	c #636363636363",
"#	s iconColor4	m white	c red",
"$	s iconColor6	m white	c green",
"%	s iconColor8	m white	c blue",
"&	c #E1E1E1E1E1E1",
"*	c #9B9B9B9B9B9B",
"=	c #6E6E6E6E6E6E",
"-	c #676767676767",
";	c #565656565656",
":	c #D8D8D8D8D8D8",
">	s iconGray4	m white	c #949494949494",
",	c #AEAEAEAEAEAE",
/* pixels */
"          ......",
" XXXXXXXoO .....",
" XXXXXXXoXO ....",
" X +  @Xoooo....",
" XXXXXXXX@@@o...",
" X#$%XX&*=-;o...",
" X#$%X:@XOXXo...",
" XXXX&@$XXX$>o..",
" Xo@@*$X$X$O$>o.",
" XXXX=X$X%O$>%o.",
" XooX=%O$O%,%>o.",
" XXXX*O%O%,%>$o.",
" Xo@@&o>%,%>%o..",
" XXXXX:o>>>>o...",
" @@@@@@@    o...",
"..ooooooooooo..."};
