/* XPM */
static char * isocd_s_xpm[] = {
/* width height ncolors cpp [x_hot y_hot] */
"24 24 9 1 0 0",
/* colors */
" 	s iconGray8	m black	c #212121212121",
".	s none	m none	c none",
"X	s iconColor2	m white	c white",
"o	s iconGray1	m white	c #dededededede",
"O	s iconGray6	m black	c #636363636363",
"+	s iconColor1	m black	c black",
"@	s iconGray7	m black	c #424242424242",
"#	s iconGray5	m black	c #737373737373",
"$	s iconGray2	m white	c #bdbdbdbdbdbd",
/* pixels */
"               .........",
" XXXXXXXXXXXX o ........",
" XXXXXXXXXXXX Xo .......",
" XXXXXXXXXXXX XXo ......",
" XXXXXXXXXXXX     ......",
" XXXXXXXXXXXooOOOO+.....",
" XXXXXXXXXooXXXXX@+.....",
" XXXXXXXXoXXooooXo@@....",
" XXXXXXXoXoooXoooooo@...",
" XXXXXXoXXXoXooooXoXX@..",
" XXXXXoXXXXooXooooXXoo@.",
" XXXXXoXooXXoOOOOoXooo@.",
" XXXXoXooXooOooooOXoooo@",
" XXXXoXooooOoo##ooOoo$$@",
" XXXXoX$$$$Oo#$$#oO$$$$@",
" XXXXoX$$$$Oo#$$#oO$$$$@",
" XXXXoX$$$oOoo##ooOooo$@",
" XXXXoXoooooOooooOXoooo@",
" XXXXXoXooooXOOOOoooXo .",
" XXXXXoXooXXXoooooXXoX .",
" XXXXXXoXXXXoXooXooXX ..",
" XXXXXXXo@XooooooooX ...",
"   OOOOOOOOOXoXoXo  ....",
"...++++++++++++++++....."};
