/* XPM */
static char * isocd_m_xpm[] = {
/* width height ncolors cpp [x_hot y_hot] */
"32 32 10 1 0 0",
/* colors */
" 	s iconGray8	m black	c #212121212121",
".	s none	m none	c none",
"X	s iconColor2	m white	c white",
"o	s iconColor1	m black	c black",
"O	s iconGray1	m white	c #dededededede",
"+	s iconGray6	m black	c #636363636363",
"@	s iconGray7	m black	c #424242424242",
"#	s iconGray2	m white	c #bdbdbdbdbdbd",
"$	s iconGray5	m black	c #737373737373",
"%	c #AEAEAEAEAEAE",
/* pixels */
"                    ............",
" XXXXXXXXXXXXXXXXXoO ...........",
" XXXXXXXXXXXXXXXXXoXO ..........",
" XXXXXXXXXXXXXXXXXoXXO .........",
" XXXXXXXXXXXXXXXXXoXXXO ........",
" XXXXXXXXXXXXXXXOOoooooo........",
" XXXXXXXXXXXXOOOXXX+++++o.......",
" XXXXXXXXXXXOXXXXOOOXOXXX.......",
" XXXXXXXXXOOXOOXOXOOOXOOO@......",
" XXXXXXXXOXXOXXOXOXOXOXOOX@@....",
" XXXXXXXOXXXXOOXOXOOOXOOOXXX@...",
" XXXXXXOXXXXXOXXOOOOXOOOXXXXX@..",
" XXXXXXOXXXXXXOOOXOOOOOOXXXXO@..",
" XXXXXOXXOXXXXXOXOOOOXOXXXOOOO@.",
" XXXXXOXOXOOXXXOOXOOOOXXOOOOOO@.",
" XXXXOXOOOOXOOXXO++++OXOOOOOOOO@",
" XXXXOXOOOOOOXOO+OOOO+XOOOO####@",
" XXXXOX####OOOO+OO$$OO+OO######@",
" XXXXOX########+O$##$O+########@",
" XXXXOX########+O$##$O+########@",
" XXXXOX#######O+OO$$OO+OOO#####@",
" XXXXOX###OOOOOO+OOOO+XOOOOO###@",
" XXXXOXOOOOOOOOOX++++OOOXOOOOOO@",
" XXXXXOXOOOOOOXXXOOOOOXXOXXOOO .",
" XXXXXOXXXOOOXXXOXOOXOOXXOOXXO .",
" XXXXXXOXOOOXXXOOOOOOOOXXXOOX ..",
" XXXXXXOXOOXXXXOXOXOXOXOXXXXO ..",
" XXXXXXO$OXXXXOOOOOOOOXOXXXX ...",
" XXXXXXXO$XXXXOXOOOXOOOXOX  ....",
" XXXXXXXXO$$XOOOOOOOOOOXO ......",
"   ++++++++++++#%OOOOO   .......",
"...ooooooooooooo      oo........"};
