/* XPM */
static char * isocd_l_xpm[] = {
/* width height ncolors cpp [x_hot y_hot] */
"48 48 10 1 0 0",
/* colors */
" 	s Gray8	m black	c #212121212121",
".	s none	m none	c none",
"X	s Color2	m white	c white",
"o	s Color1	m black	c black",
"O	s Gray2	m white	c #bdbdbdbdbdbd",
"+	s Gray1	m white	c #dededededede",
"@	s Gray6	m black	c #636363636363",
"#	s Gray7	m black	c #424242424242",
"$	s Gray5	m black	c #737373737373",
"%	c #AEAEAEAEAEAE",
/* pixels */
"                               .................",
" XXXXXXXXXXXXXXXXXXXXXXXXXXXXoO ................",
" XXXXXXXXXXXXXXXXXXXXXXXXXXXXo+O ...............",
" XXXXXXXXXXXXXXXXXXXXXXXXXXXXoX+O ..............",
" XXXXXXXXXXXXXXXXXXXXXXXXXXXXoXX+O .............",
" XXXXXXXXXXXXXXXXXXXXXXXXXXXXoXXX+O ............",
" XXXXXXXXXXXXXXXXXXXXXXXXXXXXoXXXX+O ...........",
" XXXXXXXXXXXXXXXXXXXXXXXXXXXXoXXXXX+O ..........",
" XXXXXXXXXXXXXXXXXXXXXXXXXXXXooooooooo..........",
" XXXXXXXXXXXXXXXXXXXXXXXXXXXXX@@@@@@@@o.........",
" XXXXXXXXXXXXXXXXXXXXXXXXXXXXXX@@@@@@@o.........",
" XXXXXXXXXXXXXXXXXXXXXXXXXXXXXXXXXXXX@o.........",
" XXXXXXXXXXXXXXXXXXXXXXXXXXXXXXXXXXXX@o.........",
" XXXXXXXXXXXXXXXXXXXXXXXXXXXXXXXXXXXX@o.........",
" XXXXXXXXXXXXXXXXXXXXXXXXXXXXXXXXXXXX@o.........",
" XXXXXXXXXXXXXXXXXXXXXXXXXXXXXXXXXXXX@o.........",
" XXXXXXXXXXXXXXXXXXXXXXXXXXXXXXXXXXXX@o.........",
" XXXXXXXXXXXXXXXXXXXXXXXXXXXX+X+X+XXX@o.........",
" XXXXXXXXXXXXXXXXXXXXXXXXX++XXXXXXX++@o.........",
" XXXXXXXXXXXXXXXXXXXXXXXX+XXXX+++X+XXXo.........",
" XXXXXXXXXXXXXXXXXXXXXX++X++X+X+++X+++#.........",
" XXXXXXXXXXXXXXXXXXXXX+XX+XX+X+X+X+X++X##.......",
" XXXXXXXXXXXXXXXXXXXX+XXXX++X+X+++X+++XXX#......",
" XXXXXXXXXXXXXXXXXXX+XXXXX+XX++++X+++XXXXX#.....",
" XXXXXXXXXXXXXXXXXXX+XXXXXX+++X++++++XXXX+#.....",
" XXXXXXXXXXXXXXXXXX+XX+XXXXX+X++++X+XXX++++#....",
" XXXXXXXXXXXXXXXXXX+X+X++XXX++X++++XX++++++#....",
" XXXXXXXXXXXXXXXXX+X++++X++XX+@@@@+X++++++++#...",
" XXXXXXXXXXXXXXXXX+X++++++X++@++++@X++++OOOO#...",
" XXXXXXXXXXXXXXXXX+XOOOO++++@++$$++@++OOOOOO#...",
" XXXXXXXXXXXXXXXXX+XOOOOOOOO@+$OO$+@OOOOOOOO#...",
" XXXXXXXXXXXXXXXXX+XOOOOOOOO@+$OO$+@OOOOOOOO#...",
" XXXXXXXXXXXXXXXXX+XOOOOOOO+@++$$++@+++OOOOO#...",
" XXXXXXXXXXXXXXXXX+XOOO++++++@++++@X+++++OOO#...",
" XXXXXXXXXXXXXXXXX+X+++++++++X@@@@+++X++++++#...",
" XXXXXXXXXXXXXXXXXX+X++++++XXX+++++XX+XX+++ ....",
" XXXXXXXXXXXXXXXXXX+XXX+++XXX+X++X++XX++XX+ ....",
" XXXXXXXXXXXXXXXXXXX+X+++XXX++++++++XXX++X .....",
" XXXXXXXXXXXXXXXXXXX+X++XXXX+X+X+X+X+XXXX+ .....",
" XXXXXXXXXXXXXXXXXXX+$+XXXX++++++++X+XXXX ......",
" XXXXXXXXXXXXXXXXXXXX+$XXXX+X+++X+++X+X  .......",
" XXXXXXXXXXXXXXXXXXXXX+$$X++++++++++X+ .........",
" XXXXXXXXXXXXXXXXXXXXXXXX@@@O%+++++   o.........",
" XXXXXXXXXXXXXXXXXXXXXXXXXXXo      ###o.........",
" XXXXXXXXXXXXXXXXXXXXXXXXXXXXXXXXXXXX@o.........",
" XXXXXXXXXXXXXXXXXXXXXXXXXXXXXXXXXXXX@o.........",
"   @@@@@@@@@@@@@@@@@@@@@@@@@@@@@@@@@@@o.........",
"...oooooooooooooooooooooooooooooooooooo........."};
