/* XPM */
static char * lib_l_xpm[] = {
/* width height ncolors cpp [x_hot y_hot] */
"48 48 7 1 0 0",
/* colors */
" 	s Gray8	m black	c #212121212121",
".	s none	m none	c none",
"X	s Color2	m white	c white",
"o	s Color1	m black	c black",
"O	s Gray2	m white	c #bdbdbdbdbdbd",
"+	s Gray1	m white	c #dededededede",
"@	s Gray6	m black	c #636363636363",
/* pixels */
"                        ........................",
" XXXXXXXXXXXXXXXXXXXXXoO .......................",
" XXXXXXXXXXXXXXXXXXXXXo+O ......................",
" XXXXXXXXXXXXXXXXXXXXXoX+O .....................",
" XXX                        ....................",
" XXX XXXXXXXXXXXXXXXXXXXXXoO ...................",
" XXX XXXXXXXXXXXXXXXXXXXXXo+O ..................",
" XXX XXXXXXXXXXXXXXXXXXXXXoX+O .................",
" XXX XXXX                        ...............",
" XXX XXXX XXXXXXXXXXXXXXXXXXXXXoO ..............",
" XXX XXXX XXXXXXXXXXXXXXXXXXXXXo+O .............",
" XXX XXXX XXXXXXXXXXXXXXXXXXXXXoX+O ............",
" XXX XXXX XXXXXXXXXXXXXXXXXXXXXoXX+O ...........",
" XXX XXXX XXXXXXXXXXXXXXXXXXXXXoXXX+O ..........",
" XXX XXXX XXXXXXXXXXXXXXXXXXXXXoXXXX+O .........",
" XXX XXXX XXXXXXXXXXXXXXXXXXXXXoXXXXX+O ........",
" XXX XXXX XXXXXXXXXXXXXXXXXXXXXooooooooo........",
" XXX XXXX XXXXXXXXXXXXXXXXXXXXXX@@@@@@@@o.......",
" XXX XXXX XXXXXXXXXXXXXXXXXXXXXXX@@@@@@@o.......",
" XXX XXXX XXXXXXXXXXXXXXXXXXXXXXXXXXXXX@o.......",
" XXX XXXX XXXXXXXXXXXXXXXXXXXXXXXXXXXXX@o.......",
" XXX XXXX XXXXXXXXXXXXXXXXXXXXXXXXXXXXX@o.......",
" XXX XXXX XXXXXXXXXXXXXXXXXXXXXXXXXXXXX@o.......",
" XXX XXXX XXXXXXXXXXXXXXXXXXXXXXXXXXXXX@o.......",
" XXX XXXX XXXXXXXXXXXXXXXXXXXXXXXXXXXXX@o.......",
" XXX XXXX XXXXXXXXXXXXXXXXXXXXXXXXXXXXX@o.......",
" XXX XXXX XXXXXXXXXXXXXXXXXXXXXXXXXXXXX@o.......",
" XXX XXXX XXXXXXXXXXXXXXXXXXXXXXXXXXXXX@o.......",
" XXX XXXX XXXXXXXXXXXXXXXXXXXXXXXXXXXXX@o.......",
" XXX XXXX XXXXXXXXXXXXXXXXXXXXXXXXXXXXX@o.......",
" XXX XXXX XXXXXXXXXXXXXXXXXXXXXXXXXXXXX@o.......",
" XXX XXXX XXXXXXXXXXXXXXXXXXXXXXXXXXXXX@o.......",
" XXX XXXX XXXXXXXXXXXXXXXXXXXXXXXXXXXXX@o.......",
" XXX XXXX XXXXXXXXXXXXXXXXXXXXXXXXXXXXX@o.......",
" XXX XXXX XXXXXXXXXXXXXXXXXXXXXXXXXXXXX@o.......",
" XXX XXXX XXXXXXXXXXXXXXXXXXXXXXXXXXXXX@o.......",
" XXX XXXX XXXXXXXXXXXXXXXXXXXXXXXXXXXXX@o.......",
"   @ XXXX XXXXXXXXXXXXXXXXXXXXXXXXXXXXX@o.......",
"...o XXXX XXXXXXXXXXXXXXXXXXXXXXXXXXXXX@o.......",
".... XXXX XXXXXXXXXXXXXXXXXXXXXXXXXXXXX@o.......",
".... XXXX XXXXXXXXXXXXXXXXXXXXXXXXXXXXX@o.......",
"....   @@ XXXXXXXXXXXXXXXXXXXXXXXXXXXXX@o.......",
".......oo XXXXXXXXXXXXXXXXXXXXXXXXXXXXX@o.......",
"......... XXXXXXXXXXXXXXXXXXXXXXXXXXXXX@o.......",
"......... XXXXXXXXXXXXXXXXXXXXXXXXXXXXX@o.......",
".........   @@@@@@@@@@@@@@@@@@@@@@@@@@@@o.......",
"............ooooooooooooooooooooooooooooo.......",
"................................................"};
