/* XPM */
static char * lib_m_xpm[] = {
/* width height ncolors cpp [x_hot y_hot] */
"32 32 6 1 0 0",
/* colors */
" 	s Gray8	m black	c #212121212121",
".	s none	m none	c none",
"X	s Color2	m white	c white",
"o	s Color1	m black	c black",
"O	s Gray1	m white	c #dededededede",
"+	s Gray6	m black	c #636363636363",
/* pixels */
"              ..................",
" XXXXXXXXXXXoO .................",
" XXXXXXXXXXXoXO ................",
" XX              ...............",
" XX XXXXXXXXXXXoO ..............",
" XX XXXXXXXXXXXoXO .............",
" XX XX              ............",
" XX XX XXXXXXXXXXXoO ...........",
" XX XX XXXXXXXXXXXoXO ..........",
" XX XX XXXXXXXXXXXoXXO .........",
" XX XX XXXXXXXXXXXoXXXO ........",
" XX XX XXXXXXXXXXXoooooo........",
" XX XX XXXXXXXXXXXX+++++o.......",
" XX XX XXXXXXXXXXXXX++++o.......",
" XX XX XXXXXXXXXXXXXXXX+o.......",
" XX XX XXXXXXXXXXXXXXXX+o.......",
" XX XX XXXXXXXXXXXXXXXX+o.......",
" XX XX XXXXXXXXXXXXXXXX+o.......",
" XX XX XXXXXXXXXXXXXXXX+o.......",
" XX XX XXXXXXXXXXXXXXXX+o.......",
" XX XX XXXXXXXXXXXXXXXX+o.......",
" XX XX XXXXXXXXXXXXXXXX+o.......",
" XX XX XXXXXXXXXXXXXXXX+o.......",
"    XX XXXXXXXXXXXXXXXX+o.......",
"... XX XXXXXXXXXXXXXXXX+o.......",
"... XX XXXXXXXXXXXXXXXX+o.......",
"...    XXXXXXXXXXXXXXXX+o.......",
"...... XXXXXXXXXXXXXXXX+o.......",
"...... XXXXXXXXXXXXXXXX+o.......",
"......   +++++++++++++++o.......",
".........oooooooooooooooo.......",
"................................"};
