/* XPM */
static char * makefile_s_xpm[] = {
/* width height ncolors cpp [x_hot y_hot] */
"24 24 9 1 0 0",
/* colors */
" 	s iconGray8	m black	c #212121212121",
".	s none	m none	c none",
"X	s iconColor2	m white	c white",
"o	s iconGray6	m black	c #636363636363",
"O	s iconColor1	m black	c black",
"+	s iconColor5	m black	c darkgreen",
"@	s iconGray3	m white	c #adadadadadad",
"#	s iconGray4	m white	c #949494949494",
"$	s iconGray2	m white	c #bdbdbdbdbdbd",
/* pixels */
"               .........",
" XXXXXXXXXXXX X ........",
" XXXXXXXXXXXX XX .......",
" XXXXXXXXXXXX XXX ......",
" XXXXXXXXXXXX     ......",
" XXXXXXXXXXXXXooooO.....",
" XXXXXXXXXXXXXXoooO.....",
" XXXXX+XXXXXXXXXXoO.....",
" XX+X+@X#XXX$$XXXoO.....",
" XXX+@XX  ##   XXoO.....",
" XXX@XXXXXXXXXXXXoO.....",
" XXXXX+XXXXXXXXXXoO.....",
" XX+X+@X#X$XX#XXXoO.....",
" XXX+@XX #  #  XXoO.....",
" XXX@XXXXXXXXXXXXoO.....",
" XXXXX+XXXXXXXXXXoO.....",
" XX+X+@X#$XXX#XXXoO.....",
" XXX+@XX    #  XXoO.....",
" XXX@XXXXXXXXXXXXoO.....",
" XXXXXXXXXXXXXXXXoO.....",
" XXXXXXXXXXXXXXXXoO.....",
" XXXXXXXXXXXXXXXXoO.....",
"  ooooooooooooooooO.....",
"..OOOOOOOOOOOOOOOOO....."};
