/* XPM */
static char * makefile_l_xpm[] = {
/* width height ncolors cpp [x_hot y_hot] */
"48 48 11 1 0 0",
/* colors */
" 	s Gray8	m black	c #212121212121",
".	s none	m none	c none",
"X	s Color2	m white	c white",
"o	s Color1	m black	c black",
"O	s Gray2	m white	c #bdbdbdbdbdbd",
"+	s Gray1	m white	c #dededededede",
"@	s Gray6	m black	c #636363636363",
"#	s Color5	m black	c darkgreen",
"$	s Gray4	m white	c #949494949494",
"%	s Color6	m white	c green",
"&	s Gray7	m black	c #424242424242",
/* pixels */
"                               .................",
" XXXXXXXXXXXXXXXXXXXXXXXXXXXXoO ................",
" XXXXXXXXXXXXXXXXXXXXXXXXXXXXo+O ...............",
" XXXXXXXXXXXXXXXXXXXXXXXXXXXXoX+O ..............",
" XXXXXXXXXXXXXXXXXXXXXXXXXXXXoXX+O .............",
" XXXXXXXXXXXXXXXXXXXXXXXXXXXXoXXX+O ............",
" XXXXXXXXXXXXXXXXXXXXXXXXXXXXoXXXX+O ...........",
" XXXXXXXXXXXXXXXXXXXXXXXXXXXXoXXXXX+O ..........",
" XXXXXXXXXXXXXXXXXXXXXXXXXXXXooooooooo..........",
" XXXXXXXXXXXXXXXXXXXXXXXXXXXXX@@@@@@@@o.........",
" XXXXXXXXXXXXXXXXXXXXXXXXXXXXXX@@@@@@@o.........",
" XXXXXXXXXXXXXXXXXXXXXXXXXXXXXXXXXXXX@o.........",
" XXXXXXXXXXXXXXXXXXXXXXXXXXXXXXXXXXXX@o.........",
" XXXXXXXXXXXXXXXXXXXXXXXXXXXXXXXXXXXX@o.........",
" XXXXXXXXXX#XXXXXXXXXXXXXXXXXXXXXXXXX@o.........",
" XXXXXXXXX#$XXXXXXXXXXXXXXXXXXXXXXXXX@o.........",
" XXXX#%X##$XXXXXXXXXXXXXXXXXXXXXXXXXX@o.........",
" XXXXX###$XX&XXXXXXXXXXXXXXXXXXXXXXXX@o.........",
" XXXXX##$XXX $ XX XXX$X $ X$$ $XXXXXX@o.........",
" XXXXXX#$XXX   X      X        XXXXXX@o.........",
" XXXXXX$XXXXXXXXXXXXXXXXXXXXXXXXXXXXX@o.........",
" XXXXXXXXXX#XXXXXXXXXXXXXXXXXXXXXXXXX@o.........",
" XXXXXXXXX#$XXXXXXXXXXXXXXXXXXXXXXXXX@o.........",
" XXXX#%X##$XXXXXXXXXXXXXXXXXXXXXXXXXX@o.........",
" XXXXX###$XX&XXXX&XXXXXXXXXXXXXXXXXXX@o.........",
" XXXXX##$XXX $ XX  $ $X XX $X $XXXXXX@o.........",
" XXXXXX#$XXX    X    XX X   X  XXXXXX@o.........",
" XXXXXX$XXXXXXXXXXXXXXXXXXXXXXXXXXXXX@o.........",
" XXXXXXXXXX#XXXXXXXXXXXXXXXXXXXXXXXXX@o.........",
" XXXXXXXXX#$XXXXXXXXXXXXXXXXXXXXXXXXX@o.........",
" XXXX#%X##$XXXXXXXXXXXXXXXXXXXXXXXXXX@o.........",
" XXXXX###$XX&XXXXXXXXXXXXXXXXXXXXXXXX@o.........",
" XXXXX##$XXX $ XXXX$ $X $ X$$ $XXXXXX@o.........",
" XXXXXX#$XXX    X     X        XXXXXX@o.........",
" XXXXXX$XXXXXXXXXXXXXXXXXXXXXXXXXXXXX@o.........",
" XXXXXXXXXX#XXXXXXXXXXXXXXXXXXXXXXXXX@o.........",
" XXXXXXXXX#$XXXXXXXXXXXXXXXXXXXXXXXXX@o.........",
" XXXX#%X##$XXXXXXXXXXXXXXXXXXXXXXXXXX@o.........",
" XXXXX###$XX&XXXXXXXXXXXXXXXXXXXXXXXX@o.........",
" XXXXX##$XXX $XXXXXXX$X $XX$$ $XXXXXX@o.........",
" XXXXXX#$XXX    X   X     X    XXXXXX@o.........",
" XXXXXX$XXXXXXXXXXXXXXXXXXXXXXXXXXXXX@o.........",
" XXXXXXXXXXXXXXXXXXXXXXXXXXXXXXXXXXXX@o.........",
" XXXXXXXXXXXXXXXXXXXXXXXXXXXXXXXXXXXX@o.........",
" XXXXXXXXXXXXXXXXXXXXXXXXXXXXXXXXXXXX@o.........",
" XXXXXXXXXXXXXXXXXXXXXXXXXXXXXXXXXXXX@o.........",
"   @@@@@@@@@@@@@@@@@@@@@@@@@@@@@@@@@@@o.........",
"...oooooooooooooooooooooooooooooooooooo........."};
