/* XPM */
static char * makefile_t_xpm[] = {
/* width height ncolors cpp [x_hot y_hot] */
"16 16 8 1 0 0",
/* colors */
" 	s iconGray8	m black	c #212121212121",
".	s none	m none	c none",
"X	s iconColor2	m white	c white",
"o	s iconColor1	m black	c black",
"O	s iconGray1	m white	c #dededededede",
"+	s iconColor5	m black	c darkgreen",
"@	s iconGray6	m black	c #636363636363",
"#	s iconGray4	m white	c #949494949494",
/* pixels */
"          ......",
" XXXXXXXoO .....",
" XXXXXXXoXO ....",
" XXXXXXXoooo....",
" XXXX+XXX@@@o...",
" X+X+#XXXX@@o...",
" XX+#X#XXXX@o...",
" XX#XX@@X@X@o...",
" XXXXXXXXXX@o...",
" XXXX+XXXXX@o...",
" X+X+#XXXXX@o...",
" XX+#X#XXXX@o...",
" XX#XX@X@@X@o...",
" XXXXXXXXXX@o...",
" @@@@@@@@@@@o...",
"..ooooooooooo..."};
