/* XPM */
static char * makefile_m_xpm[] = {
/* width height ncolors cpp [x_hot y_hot] */
"32 32 9 1 0 0",
/* colors */
" 	s iconGray8	m black	c #212121212121",
".	s none	m none	c none",
"X	s iconColor2	m white	c white",
"o	s iconColor1	m black	c black",
"O	s iconGray1	m white	c #dededededede",
"+	s iconGray6	m black	c #636363636363",
"@	s iconColor5	m black	c darkgreen",
"#	s iconGray4	m white	c #949494949494",
"$	s iconGray7	m black	c #424242424242",
/* pixels */
"                    ............",
" XXXXXXXXXXXXXXXXXoO ...........",
" XXXXXXXXXXXXXXXXXoXO ..........",
" XXXXXXXXXXXXXXXXXoXXO .........",
" XXXXXXXXXXXXXXXXXoXXXO ........",
" XXXXXXXXXXXXXXXXXoooooo........",
" XXXXXXXXXXXXXXXXXX+++++o.......",
" XXXXXX@XXXXXXXXXXXX++++o.......",
" XX@XX@#XXXXXXXXXXXXXXX+o.......",
" XXX@@#XX$#XXXXXXXXXXXX+o.......",
" XXX@#XXX  X    X  XXXX+o.......",
" XXX#XXXXXXXXXXXXXXXXXX+o.......",
" XXXXXX@XXXXXXXXXXXXXXX+o.......",
" XX@XX@#XXXXXXXXXXXXXXX+o.......",
" XXX@@#XX$XX#XXXXXXXXXX+o.......",
" XXX@#XXX    X     XXXX+o.......",
" XXX#XXXXXXXXXXXXXXXXXX+o.......",
" XXXXXX@XXXXXXXXXXXXXXX+o.......",
" XX@XX@#XXXXXXXXXXXXXXX+o.......",
" XXX@@#XX$XXXXXXXXXXXXX+o.......",
" XXX@#XXX   X      XXXX+o.......",
" XXX#XXXXXXXXXXXXXXXXXX+o.......",
" XXXXXX@XXXXXXXXXXXXXXX+o.......",
" XX@XX@#XXXXXXXXXXXXXXX+o.......",
" XXX@@#XX$XXXX$XXXXXXXX+o.......",
" XXX@#XXX   XX     XXXX+o.......",
" XXX#XXXXXXXXXXXXXXXXXX+o.......",
" XXXXXXXXXXXXXXXXXXXXXX+o.......",
" XXXXXXXXXXXXXXXXXXXXXX+o.......",
" XXXXXXXXXXXXXXXXXXXXXX+o.......",
"   +++++++++++++++++++++o.......",
"...oooooooooooooooooooooo......."};
