/* XPM */
static char * mpt_t_xpm[] = {
/* width height ncolors cpp [x_hot y_hot] */
"16 16 12 1 0 0",
/* colors */
" 	s none	m none	c none",
".	s iconGray3	m white	c #adadadadadad",
"X	s iconGray6	m black	c #636363636363",
"o	s iconColor1	m black	c black",
"O	s iconGray5	m black	c #737373737373",
"+	s iconGray8	m black	c #212121212121",
"@	s iconColor5	m black	c darkgreen",
"#	s iconColor6	m white	c green",
"$	s iconColor2	m white	c white",
"%	s iconGray1	m white	c #dededededede",
"&	s iconColor12	m white	c yellow",
"*	s iconGray2	m white	c #bdbdbdbdbdbd",
/* pixels */
"                ",
"                ",
"                ",
"                ",
" .XooooX.       ",
"O+@####@++++++  ",
"+$@@@@@@$$$$$$+ ",
"+$$$$$$$%&%&%&Xo",
"+$&%&%&%&%&%&*Xo",
"+$%&%&%&%&%&%&Xo",
"+$&%&%&%&%&%&*Xo",
"+$%&%&%&%&%&%&Xo",
"+$&%&%&%&%&%&*Xo",
"+$*&*&*&*&*&*&Xo",
" +XXXXXXXXXXXXXo",
"  oooooooooooooo"};
