/* XPM */
static char * mpti_s_xpm[] = {
/* width height ncolors cpp [x_hot y_hot] */
"24 24 10 1 0 0",
/* colors */
" 	s none	m none	c none",
".	s iconColor1	m black	c black",
"X	s iconGray8	m black	c #212121212121",
"o	s iconColor2	m white	c white",
"O	s iconGray5	m black	c #737373737373",
"+	s iconColor5	m black	c darkgreen",
"@	s iconColor11	m black	c darkkhaki",
"#	s iconColor12	m white	c yellow",
"$	s iconGray1	m white	c #dededededede",
"%	s iconGray2	m white	c #bdbdbdbdbdbd",
/* pixels */
"                        ",
"                        ",
"                        ",
"                        ",
"                        ",
"                        ",
"                        ",
"   ......X              ",
"  XoooooooX             ",
"OXoO+O+O+O@XXXXXXXXXXO  ",
"XoO+O+O+O+OooooooooooX  ",
"Xo#@@@@@@@o$#$#$#$#$#O. ",
"Xo$#oooooo$#$#$#$#$#%O. ",
"Xo#$#$#$#$#$#$#$#$#$#O. ",
"Xo$#$#$#$#$#$#$#$#$#%O. ",
"Xo#$#$#$#$#$#$#$#$#$#O. ",
"Xo$#$#$#$#$#$#$#$#$#%O. ",
"Xo#$#$#$#$#$#$#$#$#$#O. ",
"Xo$#$#$#$#$#$#$#$#$#%O. ",
"Xo#$#$#$#$#$#$#$#$#$#O. ",
"Xo$#$#$#$#$#$#$#$#$#%O. ",
"Xo#%#%#%#%#%#%#%#%#%#O. ",
"OXOOOOOOOOOOOOOOOOOOOO. ",
"  ..................... "};
