/* XPM */
static char * mpti_m_xpm[] = {
/* width height ncolors cpp [x_hot y_hot] */
"32 32 12 1 0 0",
/* colors */
" 	s none	m none	c none",
".	s Gray8	m black	c #212121212121",
"X	s Color1	m black	c black",
"o	s Color2	m white	c white",
"O	s Color8	m white	c blue",
"+	s Gray4	m white	c #949494949494",
"@	s Color11	m black	c darkkhaki",
"#	s Color12	m white	c yellow",
"$	s Gray5	m black	c #737373737373",
"%	s Gray1	m white	c #dededededede",
"&	s Gray2	m white	c #bdbdbdbdbdbd",
"*	s Gray6	m black	c #636363636363",
/* pixels */
"                                ",
"                                ",
"                                ",
"                                ",
"                                ",
"                                ",
"                                ",
"                                ",
"                                ",
"    .XXXXXXX.                   ",
"   .ooooooooo.                  ",
"  .oO+O+O+O+O@.                 ",
" .oO+O+O+O+O+O@..............   ",
".oO+O+O+O+O+O+Ooooooooooooooo.  ",
".o#$@$@$@$@$@$o%#%#%#%#%#%#%#$X ",
".o%ooooooooooo%#%#%#%#%#%#%#&*X ",
".o#%#%#%#%#%#%#%#%#%#%#%#%#%#*X ",
".o%#%#%#%#%#%#%#%#%#%#%#%#%#&*X ",
".o#%#%#%#%#%#%#%#%#%#%#%#%#%#*X ",
".o%#%#%#%#%#%#%#%#%#%#%#%#%#&*X ",
".o#%#%#%#%#%#%#%#%#%#%#%#%#%#*X ",
".o%#%#%#%#%#%#%#%#%#%#%#%#%#&*X ",
".o#%#%#%#%#%#%#%#%#%#%#%#%#%#*X ",
".o%#%#%#%#%#%#%#%#%#%#%#%#%#&*X ",
".o#%#%#%#%#%#%#%#%#%#%#%#%#%#*X ",
".o%#%#%#%#%#%#%#%#%#%#%#%#%#&*X ",
".o#%#%#%#%#%#%#%#%#%#%#%#%#%#*X ",
".o%#%#%#%#%#%#%#%#%#%#%#%#%#&*X ",
".o#%#%#%#%#%#%#%#%#%#%#%#%#%#*X ",
".o&#&#&#&#&#&#&#&#&#&#&#&#&#&*X ",
" .$***************************X ",
"  XXXXXXXXXXXXXXXXXXXXXXXXXXXXX "};
