/* XPM */
static char * mpti_l_xpm[] = {
/* width height ncolors cpp [x_hot y_hot] */
"48 48 13 1 0 0",
/* colors */
" 	s none	m none	c none",
".	s Gray8	m black	c #212121212121",
"X	s Color2	m white	c white",
"o	s Color5	m black	c darkgreen",
"O	s Gray4	m white	c #949494949494",
"+	s Gray3	m white	c #adadadadadad",
"@	s Gray1	m white	c #dededededede",
"#	s Color11	m black	c darkkhaki",
"$	s Gray6	m black	c #636363636363",
"%	s Color12	m white	c yellow",
"&	s Gray5	m black	c #737373737373",
"*	s Gray2	m white	c #bdbdbdbdbdbd",
"=	s Color1	m black	c black",
/* pixels */
"                                                ",
"                                                ",
"                                                ",
"                                                ",
"                                                ",
"                                                ",
"                                                ",
"                                                ",
"                                                ",
"                                                ",
"                                                ",
"                                                ",
"                                                ",
"      .............                             ",
"     .XXXXXXXXXXXXX.                            ",
"    .XoOoOoOoOoOoOo+.                           ",
"   .XoOoOoOoOoOoOoOo+.                          ",
"  .XoOoOoOoOoOoOoOoOo+.                         ",
" .@oOoOoOoOoOoOoOoOoOo#......................   ",
".XX$#O#O#O#O#O#O#O#O#OXXXXXXXXXXXXXXXXXXXXXXX.  ",
".X@%$#&#&#&#&#&#&#&#&X@%@%@%@%@%@%@%@%@%@%@%*.  ",
".X%@%XXXXXXXXXXXXXXXX@%@%@%@%@%@%@%@%@%@%@%@%$= ",
".X@%@%@%@%@%@%@%@%@%@%@%@%@%@%@%@%@%@%@%@%@%*$= ",
".X%@%@%@%@%@%@%@%@%@%@%@%@%@%@%@%@%@%@%@%@%@%$= ",
".X@%@%@%@%@%@%@%@%@%@%@%@%@%@%@%@%@%@%@%@%@%*$= ",
".X%@%@%@%@%@%@%@%@%@%@%@%@%@%@%@%@%@%@%@%@%@%$= ",
".X@%@%@%@%@%@%@%@%@%@%@%@%@%@%@%@%@%@%@%@%@%*$= ",
".X%@%@%@%@%@%@%@%@%@%@%@%@%@%@%@%@%@%@%@%@%@%$= ",
".X@%@%@%@%@%@%@%@%@%@%@%@%@%@%@%@%@%@%@%@%@%*$= ",
".X%@%@%@%@%@%@%@%@%@%@%@%@%@%@%@%@%@%@%@%@%@%$= ",
".X@%@%@%@%@%@%@%@%@%@%@%@%@%@%@%@%@%@%@%@%@%*$= ",
".X%@%@%@%@%@%@%@%@%@%@%@%@%@%@%@%@%@%@%@%@%@%$= ",
".X@%@%@%@%@%@%@%@%@%@%@%@%@%@%@%@%@%@%@%@%@%*$= ",
".X%@%@%@%@%@%@%@%@%@%@%@%@%@%@%@%@%@%@%@%@%@%$= ",
".X@%@%@%@%@%@%@%@%@%@%@%@%@%@%@%@%@%@%@%@%@%*$= ",
".X%@%@%@%@%@%@%@%@%@%@%@%@%@%@%@%@%@%@%@%@%@%$= ",
".X@%@%@%@%@%@%@%@%@%@%@%@%@%@%@%@%@%@%@%@%@%*$= ",
".X%@%@%@%@%@%@%@%@%@%@%@%@%@%@%@%@%@%@%@%@%@%$= ",
".X@%@%@%@%@%@%@%@%@%@%@%@%@%@%@%@%@%@%@%@%@%*$= ",
".X%@%@%@%@%@%@%@%@%@%@%@%@%@%@%@%@%@%@%@%@%@%$= ",
".X@%@%@%@%@%@%@%@%@%@%@%@%@%@%@%@%@%@%@%@%@%*$= ",
".X%@%@%@%@%@%@%@%@%@%@%@%@%@%@%@%@%@%@%@%@%@%$= ",
".X@%@%@%@%@%@%@%@%@%@%@%@%@%@%@%@%@%@%@%@%@%*$= ",
".X%@%@%@%@%@%@%@%@%@%@%@%@%@%@%@%@%@%@%@%@%@%$= ",
".X@%@%@%@%@%@%@%@%@%@%@%@%@%@%@%@%@%@%@%@%@%*$= ",
".X%*%*%*%*%*%*%*%*%*%*%*%*%*%*%*%*%*%*%*%*%*%$= ",
" ..$$$$$$$$$$$$$$$$$$$$$$$$$$$$$$$$$$$$$$$$$$$= ",
"   ============================================ "};
