/* XPM */
static char * mpti_s_xpm[] = {
/* width height ncolors cpp [x_hot y_hot] */
"24 24 11 1 0 0",
/* colors */
" 	s none	m none	c none",
".	s Color1	m black	c black",
"X	s Gray8	m black	c #212121212121",
"o	s Color2	m white	c white",
"O	s Gray5	m black	c #737373737373",
"+	s Color5	m black	c darkgreen",
"@	s Color11	m black	c darkkhaki",
"#	s Gray4	m white	c #949494949494",
"$	s Color12	m white	c yellow",
"%	s Gray1	m white	c #dededededede",
"&	s Gray2	m white	c #bdbdbdbdbdbd",
/* pixels */
"                        ",
"                        ",
"                        ",
"                        ",
"                        ",
"                        ",
"                        ",
"   ......X              ",
"  XoooooooX             ",
"OXoO+O+O+O@XXXXXXXXXXO  ",
"XoO+O+O+O+#ooooooooooX  ",
"Xo$@@@@@@@o%$%$%$%$%$O. ",
"Xo%$oooooo%$%$%$%$%$&O. ",
"Xo$%$%$%$%$%$%$%$%$%$O. ",
"Xo%$%$%$%$%$%$%$%$%$&O. ",
"Xo$%$%$%$%$%$%$%$%$%$O. ",
"Xo%$%$%$%$%$%$%$%$%$&O. ",
"Xo$%$%$%$%$%$%$%$%$%$O. ",
"Xo%$%$%$%$%$%$%$%$%$&O. ",
"Xo$%$%$%$%$%$%$%$%$%$O. ",
"Xo%$%$%$%$%$%$%$%$%$&O. ",
"Xo$&$&$&$&$&$&$&$&$&$O. ",
"OXOOOOOOOOOOOOOOOOOOOO. ",
"  ..................... "};
