/* XPM */
static char * mpti_t_xpm[] = {
/* width height ncolors cpp [x_hot y_hot] */
"16 16 12 1 0 0",
/* colors */
" 	s none	m none	c none",
".	s Gray3	m white	c #adadadadadad",
"X	s Gray6	m black	c #636363636363",
"o	s Color1	m black	c black",
"O	s Gray5	m black	c #737373737373",
"+	s Gray8	m black	c #212121212121",
"@	s Color5	m black	c darkgreen",
"#	s Color9	m black	c darkcyan",
"$	s Color2	m white	c white",
"%	s Gray1	m white	c #dededededede",
"&	s Color12	m white	c yellow",
"*	s Gray2	m white	c #bdbdbdbdbdbd",
/* pixels */
"                ",
"                ",
"                ",
"                ",
" .XooooX.       ",
"O+@#@#@#++++++  ",
"+$#@#@#@$$$$$$+ ",
"+$$$$$$$%&%&%&Xo",
"+$&%&%&%&%&%&*Xo",
"+$%&%&%&%&%&%&Xo",
"+$&%&%&%&%&%&*Xo",
"+$%&%&%&%&%&%&Xo",
"+$&%&%&%&%&%&*Xo",
"+$*&*&*&*&*&*&Xo",
" +XXXXXXXXXXXXXo",
"  oooooooooooooo"};
