/* XPM */
static char * nrfile_s_xpm[] = {
/* width height ncolors cpp [x_hot y_hot] */
"24 24 7 1 0 0",
/* colors */
" 	s iconGray8	m black	c #212121212121",
".	s none	m none	c none",
"X	s iconColor2	m white	c white",
"o	s iconGray6	m black	c #636363636363",
"O	s iconColor1	m black	c black",
"+	s iconGray4	m white	c #949494949494",
"@	s iconColor3	m black	c darkred",
/* pixels */
"               .........",
" XXXXXXXXXXXX X ........",
" XXXXXXXXXXXX XX .......",
" XXXXXXXXXXXX XXX ......",
" XXXXXXXXXXXX     ......",
" XXXXXXXXXXXXXooooO.....",
" XXXXXXXXXXXXXXoooO.....",
" XXXXXXXXXXXXXXXXoO.....",
" XXXXXXXXXXXXXXXXoO.....",
" XXXXX+@@@@+XXXXXoO.....",
" XXXX@@@@@@@@XXXXoO.....",
" XXX@@@XXXX@@@XXXoO.....",
" XX+@@@@XXXX@@+XXoO.....",
" XX@@X@@@XXXX@@XXoO.....",
" XX@@XX@@@XXX@@XXoO.....",
" XX@@XXX@@@XX@@XXoO.....",
" XX@@XXXX@@@X@@XXoO.....",
" XX+@@XXXX@@@@+XXoO.....",
" XXX@@@XXXX@@@XXXoO.....",
" XXXX@@@@@@@@XXXXoO.....",
" XXXXX+@@@@+XXXXXoO.....",
" XXXXXXXXXXXXXXXXoO.....",
"  ooooooooooooooooO.....",
"..OOOOOOOOOOOOOOOOO....."};
