/* XPM */
static char * nxdir_l_xpm[] = {
/* width height ncolors cpp [x_hot y_hot] */
"48 48 14 1 0 0",
/* colors */
" 	s none	m none	c none",
".	s iconGray8	m black	c #212121212121",
"X	s iconColor2	m white	c white",
"o	s iconColor4	m white	c red",
"O	s iconColor3	m black	c darkred",
"+	s iconGray3	m white	c #adadadadadad",
"@	s iconGray1	m white	c #dededededede",
"#	s iconColor11	m black	c darkkhaki",
"$	s iconGray6	m black	c #636363636363",
"%	s iconGray4	m white	c #949494949494",
"&	s iconColor12	m white	c yellow",
"*	s iconGray5	m black	c #737373737373",
"=	s iconGray2	m white	c #bdbdbdbdbdbd",
"-	s iconColor1	m black	c black",
/* pixels */
"                                                ",
"                                                ",
"                                                ",
"                                                ",
"                                                ",
"                                                ",
"                                                ",
"                                                ",
"                                                ",
"                                                ",
"                                                ",
"                                                ",
"                                                ",
"      .............                             ",
"     .XXXXXXXXXXXXX.                            ",
"    .XoOoOoOoOoOoOo+.                           ",
"   .XoOoOoOoOoOoOoOo+.                          ",
"  .XoOoOoOoOoOoOoOoOo+.                         ",
" .@oOoOoOoOoOoOoOoOoOo#......................   ",
".XX$#%#%#%#%#%#%#%#%#%XXXXXXXXXXXXXXXXXXXXXXX.  ",
".X@&$#*#*#*#*#*#*#*#*X@&@&@&@&@&@&@&@&@&@&@&=.  ",
".X&@&XXXXXXXXXXXXXXXX@&@&@&@&@&@&@&@&@&@&@&@&$- ",
".X@&@&@&@&@&@&@&@&@&@&@&@&@&@&@&@&@&@&@&@&@&=$- ",
".X&@&@&@&@&@&@&@&@&@&@&@&@&@&@&@&@&@&@&@&@&@&$- ",
".X@&@&@&@&@&@&@&@&@&@&@&@&@&@&@&@&@&@&@&@&@&=$- ",
".X&@&@&@&@&@&@&@&@&@&@&@&@&@&@&@&@&@&@&@&@&@&$- ",
".X@&@&@&@&@&@&@&@&@&@&@&@&@&@&@&@&@&@&@&@&@&=$- ",
".X&@&@&@&@&@&@&@&@&@&@&@&@&@&@&@&@&@&@&@&@&@&$- ",
".X@&@&@&@&@&@&@&@&@&@&@&@&@&@&@&@&@&@&@&@&@&=$- ",
".X&@&@&@&@&@&@&@&@&@&@&@&@&@&@&@&@&@&@&@&@&@&$- ",
".X@&@&@&@&@&@&@&@&@&@&@&@&@&@&@&@&@&@&@&@&@&=$- ",
".X&@&@&@&@&@&@&@&@&@&@&@&@&@&@&@&@&@&@&@&@&@&$- ",
".X@&@&@&@&@&@&@&@&@&@&@&@&@&@&@&@&@&@&@&@&@&=$- ",
".X&@&@&@&@&@&@&@&@&@&@&@&@&@&@&@&@&@&@&@&@&@&$- ",
".X@&@&@&@&@&@&@&@&@&@&@&@&@&@&@&@&@&@&@&@&@&=$- ",
".X&@&@&@&@&@&@&@&@&@&@&@&@&@&@&@&@&@&@&@&@&@&$- ",
".X@&@&@&@&@&@&@&@&@&@&@&@&@&@&@&@&@&@&@&@&@&=$- ",
".X&@&@&@&@&@&@&@&@&@&@&@&@&@&@&@&@&@&@&@&@&@&$- ",
".X@&@&@&@&@&@&@&@&@&@&@&@&@&@&@&@&@&@&@&@&@&=$- ",
".X&@&@&@&@&@&@&@&@&@&@&@&@&@&@&@&@&@&@&@&@&@&$- ",
".X@&@&@&@&@&@&@&@&@&@&@&@&@&@&@&@&@&@&@&@&@&=$- ",
".X&@&@&@&@&@&@&@&@&@&@&@&@&@&@&@&@&@&@&@&@&@&$- ",
".X@&@&@&@&@&@&@&@&@&@&@&@&@&@&@&@&@&@&@&@&@&=$- ",
".X&@&@&@&@&@&@&@&@&@&@&@&@&@&@&@&@&@&@&@&@&@&$- ",
".X@&@&@&@&@&@&@&@&@&@&@&@&@&@&@&@&@&@&@&@&@&=$- ",
".X&=&=&=&=&=&=&=&=&=&=&=&=&=&=&=&=&=&=&=&=&=&$- ",
" ..$$$$$$$$$$$$$$$$$$$$$$$$$$$$$$$$$$$$$$$$$$$- ",
"   -------------------------------------------- "};
