/* XPM */
static char * nxdir_s_xpm[] = {
/* width height ncolors cpp [x_hot y_hot] */
"24 24 13 1 0 0",
/* colors */
" 	s none	m none	c none",
".	s iconColor1	m black	c black",
"X	s iconGray8	m black	c #212121212121",
"o	s iconColor2	m white	c white",
"O	s iconGray5	m black	c #737373737373",
"+	s iconColor4	m white	c red",
"@	s iconColor3	m black	c darkred",
"#	s iconColor11	m black	c darkkhaki",
"$	s iconGray6	m black	c #636363636363",
"%	s iconColor12	m white	c yellow",
"&	s iconGray4	m white	c #949494949494",
"*	s iconGray1	m white	c #dededededede",
"=	s iconGray2	m white	c #bdbdbdbdbdbd",
/* pixels */
"                        ",
"                        ",
"                        ",
"                        ",
"                        ",
"                        ",
"                        ",
"   ......X              ",
"  XoooooooX             ",
"OXo+@+@+@+#XXXXXXXXXXO  ",
"Xo$@+@+@+@+ooooooooooX  ",
"Xo%&&#&#&#o*%*%*%*%*%O. ",
"Xo*ooooooo*%*%*%*%*%=O. ",
"Xo%*%*%*%*%*%*%*%*%*%O. ",
"Xo*%*%*%*%*%*%*%*%*%=O. ",
"Xo%*%*%*%*%*%*%*%*%*%O. ",
"Xo*%*%*%*%*%*%*%*%*%=O. ",
"Xo%*%*%*%*%*%*%*%*%*%O. ",
"Xo*%*%*%*%*%*%*%*%*%=O. ",
"Xo%*%*%*%*%*%*%*%*%*%O. ",
"Xo*%*%*%*%*%*%*%*%*%=O. ",
"Xo%=%=%=%=%=%=%=%=%=%O. ",
"OXOOOOOOOOOOOOOOOOOOOO. ",
"  ..................... "};
