/* XPM */
static char * pdf_m_xpm[] = {
/* width height ncolors cpp [x_hot y_hot] */
"32 32 9 1 0 0",
/* colors */
" 	s iconGray8	m black	c #212121212121",
".	s none	m none	c none",
"X	s iconColor2	m white	c white",
"o	s iconColor1	m black	c black",
"O	s iconGray1	m white	c #dededededede",
"+	s iconColor3	m black	c darkred",
"@	s iconGray4	m white	c #949494949494",
"#	s iconGray6	m black	c #636363636363",
"$	c #E8E8E8E8E8E8",
/* pixels */
"                    ............",
" XXXXXXXXXXXXXXXXXoO ...........",
" XXXXXXXXXXXXXXXXXoXO ..........",
" XXXXXXXXXXXXXXXXXoXXO .........",
" XXXXXXXXXXXXXXXXXoXXXO ........",
" XXXXXXXXXXXXXXXXXoooooo........",
" XXXXXXXXXX+@XXXXXX@@@##o.......",
" XXXXXXXXXX++XXXXXXXXX##o.......",
" XXXXXXXXXX+X+XXXXXXXXX#o.......",
" XXXXXXXXXX+X+XXXXXXXXX#o.......",
" XXXXXXXXXX+X+XXXXXXXXX#o.......",
" XXXXXXXXXX++@XXXXXXXXX#o.......",
" XXXXXXXXXX++XXXXXXXXXX#o.......",
" XXXXXXXXXX++XXXXXXXXXX#o.......",
" XXXXXXXXXX+@XXXXXXXXXX#o.......",
" XXXXXXXXXX+XXXXXXXXXXX#o.......",
" XXXXXXXXXX+XXXXXXXXXXX#o.......",
" XXXXXXXXXX++XXXXXXXXXX#o.......",
" XXXXXXXXX+X+XXXXXXXXXX#o.......",
" XXXXXXXXX+X@+XXXXXXXXX#o.......",
" XXXXXXXXX+XX+XXXXXXXXX#o.......",
" XXXXXXXX+@XX@++#XXXXXX#o.......",
" XXXXXXXX+X++++++++++XX#o.......",
" XXXXXXX+++XXXXXXX#+X+X#o.......",
" XXXXX@++XXXXXXXXXX#++X#o.......",
" XXXX+++XXXXXXXXXXXXXXX#o.......",
" XX$+X+XXXXXXXXXXXXXXXX#o.......",
" XX+++XXXXXXXXXXXXXXXXX#o.......",
" XX++$XXXXXXXXXXXXXXXXX#o.......",
" XXXXXXXXXXXXXXXXXXXXXX#o.......",
"   #####################o.......",
"...oooooooooooooooooooooo......."};
