/* XPM */
static char * pdf_l_xpm[] = {
/* width height ncolors cpp [x_hot y_hot] */
"48 48 9 1 0 0",
/* colors */
" 	s Gray8	m black	c #212121212121",
".	s none	m none	c none",
"X	s Color2	m white	c white",
"o	s Color1	m black	c black",
"O	s Gray2	m white	c #bdbdbdbdbdbd",
"+	s Gray1	m white	c #dededededede",
"@	s Gray6	m black	c #636363636363",
"#	s Color3	m black	c darkred",
"$	c #E8E8E8E8E8E8",
/* pixels */
"                               .................",
" XXXXXXXXXXXXXXXXXXXXXXXXXXXXoO ................",
" XXXXXXXXXXXXXXXXXXXXXXXXXXXXo+O ...............",
" XXXXXXXXXXXXXXXXXXXXXXXXXXXXoX+O ..............",
" XXXXXXXXXXXXXXXXXXXXXXXXXXXXoXX+O .............",
" XXXXXXXXXXXXXXXXXXXXXXXXXXXXoXXX+O ............",
" XXXXXXXXXXXXXXXXXXXXXXXXXXXXoXXXX+O ...........",
" XXXXXXXXXXXXXXXXXXXXXXXXXXXXoXXXXX+O ..........",
" XXXXXXXXXXXXXXXXXXXXXXXXXXXXooooooooo..........",
" XXXXXXXXXXXXXXXXXXXXXXXXXXXXX@@@@@@@@o.........",
" XXXXXXXXXXXXXXXXXXXXXXXXXXXXXX@@@@@@@o.........",
" XXXXXXXXXXXXXXXX#XXXXXXXXXXXXXXXXXXX@o.........",
" XXXXXXXXXXXXXXXX##XXXXXXXXXXXXXXXXXX@o.........",
" XXXXXXXXXXXXXXXX#O#XXXXXXXXXXXXXXXXX@o.........",
" XXXXXXXXXXXXXXXX#X#XXXXXXXXXXXXXXXXX@o.........",
" XXXXXXXXXXXXXXXX#X#XXXXXXXXXXXXXXXXX@o.........",
" XXXXXXXXXXXXXXXX#X#XXXXXXXXXXXXXXXXX@o.........",
" XXXXXXXXXXXXXXXX#X#XXXXXXXXXXXXXXXXX@o.........",
" XXXXXXXXXXXXXXXX#X#XXXXXXXXXXXXXXXXX@o.........",
" XXXXXXXXXXXXXXXX##XXXXXXXXXXXXXXXXXX@o.........",
" XXXXXXXXXXXXXXXX##XXXXXXXXXXXXXXXXXX@o.........",
" XXXXXXXXXXXXXXXX##XXXXXXXXXXXXXXXXXX@o.........",
" XXXXXXXXXXXXXXXX#OXXXXXXXXXXXXXXXXXX@o.........",
" XXXXXXXXXXXXXXXX#XXXXXXXXXXXXXXXXXXX@o.........",
" XXXXXXXXXXXXXXXX#XXXXXXXXXXXXXXXXXXX@o.........",
" XXXXXXXXXXXXXXXX#XXXXXXXXXXXXXXXXXXX@o.........",
" XXXXXXXXXXXXXXXX#XXXXXXXXXXXXXXXXXXX@o.........",
" XXXXXXXXXXXXXXXX##XXXXXXXXXXXXXXXXXX@o.........",
" XXXXXXXXXXXXXXXX##XXXXXXXXXXXXXXXXXX@o.........",
" XXXXXXXXXXXXXXX#O#XXXXXXXXXXXXXXXXXX@o.........",
" XXXXXXXXXXXXXXX#XX##XXXXXXXXXXXXXXXX@o.........",
" XXXXXXXXXXXXXXX#XXX##XXXXXXXXXXXXXXX@o.........",
" XXXXXXXXXXXXXX#+XXXX#####XXXXXXXXXXX@o.........",
" XXXXXXXXXXXXXX#XXXX##########XXXXXXX@o.........",
" XXXXXXXXXXXXX#XX####OXXXXX##X##XXXXX@o.........",
" XXXXXXXXXXXX####OXXXXXXXXXX##X##XXXX@o.........",
" XXXXXXXXXX###OXXXXXXXXXXXXXXO#X#XXXX@o.........",
" XXXXXXXXX###XXXXXXXXXXXXXXXXX+##XXXX@o.........",
" XXXXXXXX###OXXXXXXXXXXXXXXXXXXXXXXXX@o.........",
" XXXX$X##X#XXXXXXXXXXXXXXXXXXXXXXXXXX@o.........",
" XXXXX#XX#OXXXXXXXXXXXXXXXXXXXXXXXXXX@o.........",
" XXXX#XX##XXXXXXXXXXXXXXXXXXXXXXXXXXX@o.........",
" XXXX####$XXXXXXXXXXXXXXXXXXXXXXXXXXX@o.........",
" XXXXXXXXXXXXXXXXXXXXXXXXXXXXXXXXXXXX@o.........",
" XXXXXXXXXXXXXXXXXXXXXXXXXXXXXXXXXXXX@o.........",
" XXXXXXXXXXXXXXXXXXXXXXXXXXXXXXXXXXXX@o.........",
"   @@@@@@@@@@@@@@@@@@@@@@@@@@@@@@@@@@@o.........",
"...oooooooooooooooooooooooooooooooooooo........."};
