/* XPM */
static char * pixmap_l_xpm[] = {
/* width height ncolors cpp [x_hot y_hot] */
"48 48 19 1 0 0",
/* colors */
" 	s Gray8	m black	c #212121212121",
".	s none	m none	c none",
"X	s Color2	m white	c white",
"o	s Color1	m black	c black",
"O	s Gray2	m white	c #bdbdbdbdbdbd",
"+	s Gray1	m white	c #dededededede",
"@	s Gray6	m black	c #636363636363",
"#	s Color12	m white	c yellow",
"$	s Color6	m white	c green",
"%	s Color10	m white	c cyan",
"&	s Color11	m black	c darkkhaki",
"*	s Color9	m black	c darkcyan",
"=	s Gray4	m white	c #949494949494",
"-	c #FFFFA5A50000",
";	s Color8	m white	c blue",
":	s Color7	m black	c darkblue",
">	s Gray7	m black	c #424242424242",
",	s Color3	m black	c darkred",
"<	s Color5	m black	c darkgreen",
/* pixels */
"                               .................",
" XXXXXXXXXXXXXXXXXXXXXXXXXXXXoO ................",
" XXXXXXXXXXXXXXXXXXXXXXXXXXXXo+O ...............",
" XXXXXXXXXXXXXXXXXXXXXXXXXXXXoX+O ..............",
" XXXXXXXXXXXXXXXXXXXXXXXXXXXXoXX+O .............",
" XXXXXXXXXXXXXXXXXXXXXXXXXXXXoXXX+O ............",
" XXXXXXXXXXXXXXXXXXXXXXXXXXXXoXXXX+O ...........",
" XXXXXXXXXXXXXXXXXXXXXXXXXXXXoXXXXX+O ..........",
" XXXXXXXXXXXXXXXXXXXXXXXXXXXXooooooooo..........",
" XXXXXXXXXXXXXXXXXXXXXXXXXXXXX@@@@@@@@o.........",
" XXXXXXXXXXXXXXXXXXXXXXXXXXXXXX@@@@@@@o.........",
" XXXXXXXXXXXXXXXXXXXXXXXXXXXXXXXXXXXX@o.........",
" XXXXXXXXXXXXXXXXXXXXXXXXXXXXXXXXXXXX@o.........",
" XXXX#+#+#XX$%$%$XX%%%%%XXOOOOOXXXXXX@o.........",
" XXXX+#+#+XX%$%$%XX%%%%%XXOOOOOXXXXXX@o.........",
" XXXX#+#+#XX$%$%$XX%%%%%XXOOOOOXXXXXX@o.........",
" XXXX+#+#+XX%$%$%XX%%%%%XXOOOOOXXXXXX@o.........",
" XXXX#+#+#XX$%$%$XX%%%%%XXOOOOOXXXXXX@o.........",
" XXXXXXXXXXXXXXXXXXXXXXXXXXXXXXXXXXXX@o.........",
" XXXX#####XX&$&$&XX*****XX=====XXXXXX@o.........",
" XXXX#####XX$&$&$XX*****XX=====XXXXXX@o.........",
" XXXX#####XX&$&$&XX*****XX=====XXXXXX@o.........",
" XXXX#####XX$&$&$XX*****XX=====XXXXXX@o.........",
" XXXX#####XX&$&$&XX*****XX=====XXXXXX@o.........",
" XXXXXXXXXXXXXXXXXXXXXXXXXXXXXXXXXXXX@o.........",
" XXXX&-&-&XX#$#$#XX;;;;;XX@@@@@XXXXXX@o.........",
" XXXX-&-&-XX$#$#$XX;;;;;XX@@@@@XXXXXX@o.........",
" XXXX&-&-&XX#$#$#XX;;;;;XX@@@@@XXXXXX@o.........",
" XXXX-&-&-XX$#$#$XX;;;;;XX@@@@@XXXXXX@o.........",
" XXXX&-&-&XX#$#$#XX;;;;;XX@@@@@XXXXXX@o.........",
" XXXXXXXXXXXXXXXXXXXXXXXXXXXXXXXXXXXX@o.........",
" XXXX-----XX$$$$$XX:;:;:XX>>>>>XXXXXX@o.........",
" XXXX-----XX$$$$$XX;:;:;XX>>>>>XXXXXX@o.........",
" XXXX-----XX$$$$$XX:;:;:XX>>>>>XXXXXX@o.........",
" XXXX-----XX$$$$$XX;:;:;XX>>>>>XXXXXX@o.........",
" XXXX-----XX$$$$$XX:;:;:XX>>>>>XXXXXX@o.........",
" XXXXXXXXXXXXXXXXXXXXXXXXXXXXXXXXXXXX@o.........",
" XXXX,,,,,XX<<<<<XX:::::XX     XXXXXX@o.........",
" XXXX,,,,,XX<<<<<XX:::::XX     XXXXXX@o.........",
" XXXX,,,,,XX<<<<<XX:::::XX     XXXXXX@o.........",
" XXXX,,,,,XX<<<<<XX:::::XX     XXXXXX@o.........",
" XXXX,,,,,XX<<<<<XX:::::XX     XXXXXX@o.........",
" XXXXXXXXXXXXXXXXXXXXXXXXXXXXXXXXXXXX@o.........",
" XXXXXXXXXXXXXXXXXXXXXXXXXXXXXXXXXXXX@o.........",
" XXXXXXXXXXXXXXXXXXXXXXXXXXXXXXXXXXXX@o.........",
" XXXXXXXXXXXXXXXXXXXXXXXXXXXXXXXXXXXX@o.........",
"   @@@@@@@@@@@@@@@@@@@@@@@@@@@@@@@@@@@o.........",
"...oooooooooooooooooooooooooooooooooooo........."};
