/* XPM */
static char * pixmap_s_xpm[] = {
/* width height ncolors cpp [x_hot y_hot] */
"24 24 17 1 0 0",
/* colors */
" 	s iconGray8	m black	c #212121212121",
".	s none	m none	c none",
"X	s iconColor2	m white	c white",
"o	s iconGray6	m black	c #636363636363",
"O	s iconColor1	m black	c black",
"+	s iconColor12	m white	c yellow",
"@	s iconColor10	m white	c cyan",
"#	s iconColor16	m white	c skyblue",
"$	s iconGray3	m white	c #adadadadadad",
"%	c #FFFFA5A50000",
"&	s iconColor6	m white	c green",
"*	s iconGray4	m white	c #949494949494",
"=	s iconColor4	m white	c red",
"-	s iconColor9	m black	c darkcyan",
";	s iconColor3	m black	c darkred",
":	s iconColor5	m black	c darkgreen",
">	s iconColor8	m white	c blue",
/* pixels */
"               .........",
" XXXXXXXXXXXX X ........",
" XXXXXXXXXXXX XX .......",
" XXXXXXXXXXXX XXX ......",
" XXXXXXXXXXXX     ......",
" XXXXXXXXXXXXXooooO.....",
" XXXXXXXXXXXXXXoooO.....",
" XXXXXXXXXXXXXXXXoO.....",
" XXXXXXXXXXXXXXXXoO.....",
" XX++X@@X##X$$XXXoO.....",
" XX++X@@X##X$$XXXoO.....",
" XXXXXXXXXXXXXXXXoO.....",
" XX%%X&&X@@X**XXXoO.....",
" XX%%X&&X@@X**XXXoO.....",
" XXXXXXXXXXXXXXXXoO.....",
" XX==X&&X--XooXXXoO.....",
" XX==X&&X--XooXXXoO.....",
" XXXXXXXXXXXXXXXXoO.....",
" XX;;X::X>>X  XXXoO.....",
" XX;;X::X>>X  XXXoO.....",
" XXXXXXXXXXXXXXXXoO.....",
" XXXXXXXXXXXXXXXXoO.....",
"  ooooooooooooooooO.....",
"..OOOOOOOOOOOOOOOOO....."};
