/* XPM */
static char * script_l_xpm[] = {
/* width height ncolors cpp [x_hot y_hot] */
"48 48 10 1 0 0",
/* colors */
" 	s Gray8	m black	c #212121212121",
".	s none	m none	c none",
"X	s Color2	m white	c white",
"o	s Color1	m black	c black",
"O	s Gray2	m white	c #bdbdbdbdbdbd",
"+	s Gray1	m white	c #dededededede",
"@	s Gray6	m black	c #636363636363",
"#	s Gray7	m black	c #424242424242",
"$	s Gray5	m black	c #737373737373",
"%	s Color12	m white	c yellow",
/* pixels */
"                               .................",
" XXXXXXXXXXXXXXXXXXXXXXXXXXXXoO ................",
" XXXXXXXXXXXXXXXXXXXXXXXXXXXXo+O ...............",
" XXXXXXXXXXXXXXXXXXXXXXXXXXXXoX+O ..............",
" XXXXXXXXXXXXXXXXXXXXXXXXXXXXoXX+O .............",
" XXXXXXXXXXXXXXXXXXXXXXXXXXXXoXXX+O ............",
" XXXXXXXXXXXXXXXXXXXXXXXXXXXXoXXXX+O ...........",
" XXXXXXXXXXXXXXXXXXXXXXXXXXXXoXXXXX+O ..........",
" XXXXXXXXXXXXXXXXXXXXXXXXXXXXooooooooo..........",
" XXXXXXXXXXXXXXXXXXXXXXXXXXXXX@@@@@@@@o.........",
" XXXXXXXXXXXXXXXXXXXXXXXXXXXXXX@@@@@@@o.........",
" XXXXXXXXXXXXXXXXXXXXXXXXXXXXXXXXXXXX@o.........",
" XXXXooOOoooooooooOooooOoooooOooXXXXX@o.........",
" XXXXXXXXXXXXXXXXXXXXXXXXXXXXXXXXXXXX@o.........",
" XXXXoooOOoooooooOOoooooooooOOooXXXXX@o.........",
" XXXXXXXXXXXXXXXXXXXXXXXXXXXXXXXXXXXX@o.........",
" XXXXooOOoooooooooOooooOoooooOooXXXXX@o.........",
" XXXXXXXXXXXXXXXXXXXXXXXXXXXXXXXXXXXX@o.........",
" XXXXoooooooOOOoooooOOoooooOOoooXXXXX@o.........",
" XXXXXXXXXXXXXXXXXXXXXXXXXXXXXXXXXXXX@o.........",
" XXXXooOooooOoooOOOoooooOoooOoooXXXXX@o.........",
" XXXXXXXXXXXXXXXXXXXXXXXXXXXXXXXXXXXX@o.........",
" XXXXooooOOoooooooooOoooooOoooooXXXXX@o.........",
" XXXXXXXXXXXXXXXXXXXXXXXXXXXXXXXXXXXX@o.........",
" XXXXooOoooooooooOOoooooooOoooOoXXXXX@o.........",
" XXXXXXXXXXXXXXXXXXXXXXXXXXXXXXXXXXXX@o.........",
" XXXXoooOoooOoooooooOOOooooOooooXXXXX@o.........",
" XXXXXXXXXXXXXXXXXXXXXXXXXXXXXXXXXXXX@o.........",
" XXXXooooOOooooooooXXXXX# #XXXXXXXXXX@o.........",
" XXXXXXXXXXXXXXXXXXXX #X$%$X# XXXXXXX@o.........",
" XXXXooOooOooooooOXX %%@%%%@%% XXXXXX@o.........",
" XXXXXXXXXXXXXXXXXXX#%%%%%%%%%#XXXXXX@o.........",
" XXXXoOoooooooOOoXXXX@%%$$$%%@XXXXXXX@o.........",
" XXXXXXXXXXXXXXXXXX#$%%$OXO %%$#XXXXX@o.........",
" XXXXoOooOoooooOOXX %%%$XXX %%% XXXXX@o.........",
" XXXXXXXXXXXXXXXXXX#$%%$OXO %%$#XXXXX@o.........",
" XXXXoooooOOoooooXXXX@%%   %%@XXXXXXX@o.........",
" XXXXXXXXXXXXXXXXXXX@%%%%%%%%%@XXXXXX@o.........",
" XXXXoooOooooooOOoXX %%@%%%@%% XXXXXX@o.........",
" XXXXXXXXXXXXXXXXXXXX @X$%$X@ XXXXXXX@o.........",
" XXXXoooOOoooooooooXXXXX# #XXXXXXXXXX@o.........",
" XXXXXXXXXXXXXXXXXXXXXXXXXXXXXXXXXXXX@o.........",
" XXXXXXXXXXXXXXXXXXXXXXXXXXXXXXXXXXXX@o.........",
" XXXXXXXXXXXXXXXXXXXXXXXXXXXXXXXXXXXX@o.........",
" XXXXXXXXXXXXXXXXXXXXXXXXXXXXXXXXXXXX@o.........",
" XXXXXXXXXXXXXXXXXXXXXXXXXXXXXXXXXXXX@o.........",
"   @@@@@@@@@@@@@@@@@@@@@@@@@@@@@@@@@@@o.........",
"...oooooooooooooooooooooooooooooooooooo........."};
