/* XPM */
static char * script_m_xpm[] = {
/* width height ncolors cpp [x_hot y_hot] */
"32 32 12 1 0 0",
/* colors */
" 	s Gray8	m black	c #212121212121",
".	s none	m none	c none",
"X	s Color2	m white	c white",
"o	s Color1	m black	c black",
"O	s Gray1	m white	c #dededededede",
"+	s Gray6	m black	c #636363636363",
"@	c #AEB5AEB5AEB5",
"#	s Gray4	m white	c #949494949494",
"$	s Gray5	m black	c #737373737373",
"%	s Gray7	m black	c #424242424242",
"&	s Color12	m white	c yellow",
"*	s Color11	m black	c darkkhaki",
/* pixels */
"                    ............",
" XXXXXXXXXXXXXXXXXoO ...........",
" XXXXXXXXXXXXXXXXXoXO ..........",
" XXXXXXXXXXXXXXXXXoXXO .........",
" XXXXXXXXXXXXXXXXXoXXXO ........",
" XXXXXXXXXXXXXXXXXoooooo........",
" XXXXXXXXXXXXXXXXXX+++++o.......",
" XXXXXXXXXXXXXXXXXXX++++o.......",
" XXX@oooo@XXXXXXXXXXXXX+o.......",
" XXXXXXXXXXXXXXXXXXXXXX+o.......",
" XXXo@oooo@@@ooooo@oXXX+o.......",
" XXXXXXXXXXXXXXXXXXXXXX+o.......",
" XXX@oooo@oooooo@oooXXX+o.......",
" XXXXXXXXXXXXXXXXXXXXXX+o.......",
" XXXoo@oooo@oooooo@oXXX+o.......",
" XXXXXXXXXXXXXXXXXXXXXX+o.......",
" XXXo@ooo@ooooo@ooo#XXX+o.......",
" XXXXXXXXXXXXXXXXXXX####o.......",
" XXXoo@oooo@@ooo#X$#%&&%+.......",
" XXXXXXXXXXXXXXXX$#&****&o......",
" XXXo@ooooooooooX#%******%......",
" XXXXXXXXXXXXXXXX#&**% &*&+.....",
" XXXoooo@oooooo@X#&** %&*&+##...",
" XXXXXXXXXXXXXXXXX%**&&**+#&%#..",
" XXXo@@ooooo@ooooX#&****&%&**&#.",
" XXXXXXXXXXXXXXXXXX#%&&%+o*%$*&o",
" XXXoooooooooooooo#X++++o&*$%*%o",
" XXXXXXXXXXXXXXXXXXXXXX+oo&**&+o",
" XXXXXXXXXXXXXXXXXXXXXX+o.o%&+o.",
" XXXXXXXXXXXXXXXXXXXXXX+o..ooo..",
"   +++++++++++++++++++++o.......",
"...oooooooooooooooooooooo......."};
