/* XPM */
static char * script_m_xpm[] = {
/* width height ncolors cpp [x_hot y_hot] */
"32 32 10 1 0 0",
/* colors */
" 	s Gray8	m black	c #212121212121",
".	s none	m none	c none",
"X	s Color2	m white	c white",
"o	s Color1	m black	c black",
"O	s Gray1	m white	c #dededededede",
"+	s Gray6	m black	c #636363636363",
"@	s Gray7	m black	c #424242424242",
"#	s Gray5	m black	c #737373737373",
"$	s Color12	m white	c yellow",
"%	s Gray2	m white	c #bdbdbdbdbdbd",
/* pixels */
"                    ............",
" XXXXXXXXXXXXXXXXXoO ...........",
" XXXXXXXXXXXXXXXXXoXO ..........",
" XXXXXXXXXXXXXXXXXoXXO .........",
" XXXXXXXXXXXXXXXXXoXXXO ........",
" XXXXXXXXXXXXXXXXXoooooo........",
" XXXXXXXXXXXXXXXXXX+++++o.......",
" XXX   X    X  XXXXX++++o.......",
" XXXXXXXXXXXXXXXXXXXXXX+o.......",
" XXX             X  XXX+o.......",
" XXXXXXXXXXXXXXXXXXXXXX+o.......",
" XXX   X       X     XX+o.......",
" XXXXXXXXXXXXXXXXXXXXXX+o.......",
" XXX        X     X  XX+o.......",
" XXXXXXXXXXXXXXXXXXXXXX+o.......",
" XXX     XXXX@ @XXXXXXX+o.......",
" XXXXXXXXX @X#$#X@ XXXX+o.......",
" XXX    X $$+$$$+$$ XXX+o.......",
" XXXXXXXX@$$$$$$$$$@XXX+o.......",
" XXX   XXX+$$###$$+XXXX+o.......",
" XXXXXXX@#$$#%X% $$#@XX+o.......",
" XXX   X $$$#XXX $$$ XX+o.......",
" XXXXXXX@#$$#%X% $$#@XX+o.......",
" XXX   XXX+$$   $$+XXXX+o.......",
" XXXXXXXX+$$$$$$$$$+XXX+o.......",
" XXX    X $$+$$$+$$ XXX+o.......",
" XXXXXXXXX +X#$#X+ XXXX+o.......",
" XXXXXXXXXXXX@ @XXXXXXX+o.......",
" XXXXXXXXXXXXXXXXXXXXXX+o.......",
" XXXXXXXXXXXXXXXXXXXXXX+o.......",
"   +++++++++++++++++++++o.......",
"...oooooooooooooooooooooo......."};
