/* XPM */
static char * script_l_xpm[] = {
/* width height ncolors cpp [x_hot y_hot] */
"48 48 12 1 0 0",
/* colors */
" 	s Gray8	m black	c #212121212121",
".	s none	m none	c none",
"X	s Color2	m white	c white",
"o	s Color1	m black	c black",
"O	s Gray2	m white	c #bdbdbdbdbdbd",
"+	s Gray1	m white	c #dededededede",
"@	s Gray6	m black	c #636363636363",
"#	s Gray5	m black	c #737373737373",
"$	s Gray4	m white	c #949494949494",
"%	s Gray7	m black	c #424242424242",
"&	s Color12	m white	c yellow",
"*	s Color11	m black	c darkkhaki",
/* pixels */
"                               .................",
" XXXXXXXXXXXXXXXXXXXXXXXXXXXXoO ................",
" XXXXXXXXXXXXXXXXXXXXXXXXXXXXo+O ...............",
" XXXXXXXXXXXXXXXXXXXXXXXXXXXXoX+O ..............",
" XXXXXXXXXXXXXXXXXXXXXXXXXXXXoXX+O .............",
" XXXXXXXXXXXXXXXXXXXXXXXXXXXXoXXX+O ............",
" XXXXXXXXXXXXXXXXXXXXXXXXXXXXoXXXX+O ...........",
" XXXXXXXXXXXXXXXXXXXXXXXXXXXXoXXXXX+O ..........",
" XXXXXXXXXXXXXXXXXXXXXXXXXXXXooooooooo..........",
" XXXXXXXXXXXXXXXXXXXXXXXXXXXXX@@@@@@@@o.........",
" XXXXXXXXXXXXXXXXXXXXXXXXXXXXXX@@@@@@@o.........",
" XXXX XXXXXXXXXXXXXXXXXXXXXXXXXXXXXXX@o.........",
" XXXXooOOoooooXXXXXXXXXXXXXXXXXXXXXXX@o.........",
" XXXXXXXXXXXXXXXXXXXXXXXXXXXXXXXXXXXX@o.........",
" XXXXoooOOoooooooOOoooooooooOOooXXXXX@o.........",
" XXXXXXXXXXXXXXXXXXXXXXXXXXXXXXXXXXXX@o.........",
" XXXXooOOoooooooooOooooOoooooOooXXXXX@o.........",
" XXXXXXXXXXXXXXXXXXXXXXXXXXXXXXXXXXXX@o.........",
" XXXXoooooooOOOoooooOOoooooOOoooXXXXX@o.........",
" XXXXXXXXXXXXXXXXXXXXXXXXXXXXXXXXXXXX@o.........",
" XXXXooOooooOoooOOOoooooOoooOoooXXXXX@o.........",
" XXXXXXXXXXXXXXXXXXXXXXXXXXXXXXXXXXXX@o.........",
" XXXXooooOOoooooooooOoooooOoooooXXXXX@o.........",
" XXXXXXXXXXXXXXXXXXXXXXXXXXXXXXXXXXXX@o.........",
" XXXXooOoooooooooOOoooooooOoooOoXXXXX@o.........",
" XXXXXXXXXXXXXXXXXXXXXXXXXXXXXXXXX# #@o.........",
" XXXXoooOoooOoooooooOOOooooOo$X %O#&#@@ ........",
" XXXXXXXXXXXXXXXXXXXXXXXXXXXXX &&%&*&@&& .......",
" XXXXooooOOooooooOooooOooooO$X@&&******&%.......",
" XXXXXXXXXXXXXXXXXXXXXXXXXXXXXO@*******%........",
" XXXXooOooOooooooOOooooooOooX##&**$o$**&##......",
" XXXXXXXXXXXXXXXXXXXXXXXXXXXX &&**ooo&**& ......",
" XXXXoOoooooooOOooooooooOOOoX##***$o&***%%......",
" XXXXXXXXXXXXXXXXXXXXXXXXXXXXX$@***&***@@.......",
" XXXXoOooOoooooOOoooooOooooO$X@&&*******#$$$$...",
" XXXXXXXXXXXXXXXXXXXXXXXXXXXXX &*@&**@*@@%&&%@..",
" XXXXoooooOOooooooOOooooooOooXO @O#&#@#@&@**@&o.",
" XXXXXXXXXXXXXXXXXXXXXXXXXXXXXXOOX# #@o%@****@%.",
" XXXXoooOooooooOOoooooOoooooOoooXXOOO@o&**% &*&@",
" XXXXXXXXXXXXXXXXXXXXXXXXXXXXXXXXXXXX@o&** %&*&@",
" XXXXoooOOooooooooooOoooooooOooooXXXX@o%@*&&*@@o",
" XXXXXXXXXXXXXXXXXXXXXXXXXXXXXXXXXXXX@oo&@**@&o.",
" XXXXXXXXXXXXXXXXXXXXXXXXXXXXXXXXXXXX@o.$%&&%@..",
" XXXXXXXXXXXXXXXXXXXXXXXXXXXXXXXXXXXX@o...oo....",
" XXXXXXXXXXXXXXXXXXXXXXXXXXXXXXXXXXXX@o.........",
" XXXXXXXXXXXXXXXXXXXXXXXXXXXXXXXXXXXX@o.........",
"   @@@@@@@@@@@@@@@@@@@@@@@@@@@@@@@@@@@o.........",
"...oooooooooooooooooooooooooooooooooooo........."};
