/* XPM */
static char * script_m_xpm[] = {
/* width height ncolors cpp [x_hot y_hot] */
"32 32 10 1 0 0",
/* colors */
" 	s iconGray8	m black	c #212121212121",
".	s none	m none	c none",
"X	s iconColor2	m white	c white",
"o	s iconColor1	m black	c black",
"O	s iconGray1	m white	c #dededededede",
"+	s iconGray6	m black	c #636363636363",
"@	s iconGray7	m black	c #424242424242",
"#	s iconGray5	m black	c #737373737373",
"$	s iconColor12	m white	c yellow",
"%	s iconGray2	m white	c #bdbdbdbdbdbd",
/* pixels */
"                    ............",
" XXXXXXXXXXXXXXXXXoO ...........",
" XXXXXXXXXXXXXXXXXoXO ..........",
" XXXXXXXXXXXXXXXXXoXXO .........",
" XXXXXXXXXXXXXXXXXoXXXO ........",
" XX  X        X  Xoooooo........",
" XXXXXXXXXXXXXXXXXX+++++o.......",
" XX    X    X     XX++++o.......",
" XXXXXXXXXXXXXXXXXXXXXX+o.......",
" XX              X   XX+o.......",
" XXXXXXXXXXXXXXXXXXXXXX+o.......",
" XX    X       X     XX+o.......",
" XXXXXXXXXXXXXXXXXXXXXX+o.......",
" XX         X     X  XX+o.......",
" XXXXXXXXXXXXXXXXXXXXXX+o.......",
" XX      XXXX@ @XXXXXXX+o.......",
" XXXXXXXXX @X#$#X@ XXXX+o.......",
" XX     X $$+$$$+$$ XXX+o.......",
" XXXXXXXX@$$$$$$$$$@XXX+o.......",
" XX    XXX+$$###$$+XXXX+o.......",
" XXXXXXX@#$$#%X% $$#@XX+o.......",
" XX    X $$$#XXX $$$ XX+o.......",
" XXXXXXX@#$$#%X% $$#@XX+o.......",
" XX    XXX+$$   $$+XXXX+o.......",
" XXXXXXXX+$$$$$$$$$+XXX+o.......",
" XX     X $$+$$$+$$ X X+o.......",
" XXXXXXXXX +X#$#X+ XXXX+o.......",
" XX   X  XXXX@ @XXXX  X+o.......",
" XXXXXXXXXXXXXXXXXXXXXX+o.......",
" XXXXXXXXXXXXXXXXXXXXXX+o.......",
"   +++++++++++++++++++++o.......",
"...oooooooooooooooooooooo......."};
