/* XPM */
static char * script_s_xpm[] = {
/* width height ncolors cpp [x_hot y_hot] */
"24 24 10 1 0 0",
/* colors */
" 	s Gray8	m black	c #212121212121",
".	s none	m none	c none",
"X	s Color2	m white	c white",
"o	s Gray6	m black	c #636363636363",
"O	s Color1	m black	c black",
"+	s Gray2	m white	c #bdbdbdbdbdbd",
"@	s Gray7	m black	c #424242424242",
"#	s Gray5	m black	c #737373737373",
"$	s Color12	m white	c yellow",
"%	s Gray4	m white	c #949494949494",
/* pixels */
"               .........",
" XXXXXXXXXXXX X ........",
" XXXXXXXXXXXX XX .......",
" XXXXXXXXXXXX XXX ......",
" XXXXXXXXXXXX     ......",
" XXXXXXXXXXXXXooooO.....",
" XXXXXXXXXXXXXXoooO.....",
" XXX  + XXXXXXXXXoO.....",
" XXXXXXXXXXXXXXXXoO.....",
" XXX +     +  XXXoO.....",
" XXXXXXXXXXXXXXXXoO.....",
" XXX    +     XXXoO.....",
" XXXXXXXXXXXXXXXXoO.....",
" XXX    XXX@@XXXXoO.....",
" XXXXXXXX #$$# XXoO.....",
" XXX   XX#$##$#XXoO.....",
" XXXXXXX@$#XX@$@XoO.....",
" XXX   X@$#XX@$@XoO.....",
" XXXXXXXX#$@@$oXXoO.....",
" XXX %  X #$$o XXoO.....",
" XXXXXXXXXX@@XXXXoO.....",
" XXXXXXXXXXXXXXXXoO.....",
"  ooooooooooooooooO.....",
"..OOOOOOOOOOOOOOOOO....."};
