/* XPM */
static char * script_s_xpm[] = {
/* width height ncolors cpp [x_hot y_hot] */
"24 24 10 1 0 0",
/* colors */
" 	s iconGray8	m black	c #212121212121",
".	s none	m none	c none",
"X	s iconColor2	m white	c white",
"o	s iconGray2	m white	c #bdbdbdbdbdbd",
"O	s iconGray6	m black	c #636363636363",
"+	s iconColor1	m black	c black",
"@	s iconGray7	m black	c #424242424242",
"#	s iconGray5	m black	c #737373737373",
"$	s iconColor12	m white	c yellow",
"%	s iconGray4	m white	c #949494949494",
/* pixels */
"               .........",
" XXXXXXXXXXXX X ........",
" XXXXXXXXXXXX XX .......",
" XXXXXXXXXXXX XXX ......",
" XXXXXXXXXXXX     ......",
" XX   o     XXOOOO+.....",
" XXXXXXXXXXXXXXOOO+.....",
" XX        o   XXO+.....",
" XXXXXXXXXXXXXXXXO+.....",
" XX  o         XXO+.....",
" XXXXXXXXXXXXXXXXO+.....",
" XX     o      XXO+.....",
" XXXXXXXXXXXXXXXXO+.....",
" XX     XXX@@XXXXO+.....",
" XXXXXXXX #$$# XXO+.....",
" XX    XX#$##$#XXO+.....",
" XXXXXXX@$#XX@$@XO+.....",
" XX    X@$#XX@$@XO+.....",
" XXXXXXXX#$@@$OXXO+.....",
" XX  %  X #$$O XXO+.....",
" XXXXXXXXXX@@XXXXO+.....",
" XXXXXXXXXXXXXXXXO+.....",
"  OOOOOOOOOOOOOOOO+.....",
"..+++++++++++++++++....."};
