/* XPM */
static char * script_t_xpm[] = {
/* width height ncolors cpp [x_hot y_hot] */
"16 16 12 1 0 0",
/* colors */
" 	s Gray8	m black	c #212121212121",
".	s none	m none	c none",
"X	s Color2	m white	c white",
"o	s Color1	m black	c black",
"O	s Gray1	m white	c #dededededede",
"+	s Gray2	m white	c #bdbdbdbdbdbd",
"@	s Gray6	m black	c #636363636363",
"#	s Gray4	m white	c #949494949494",
"$	s Color12	m white	c yellow",
"%	s Gray7	m black	c #424242424242",
"&	s Color11	m black	c darkkhaki",
"*	s Gray5	m black	c #737373737373",
/* pixels */
"          ......",
" XXXXXXXoO .....",
" XXXXXXXoXO ....",
" XXXXXXXoooo....",
" XXo+ooXX@@@o...",
" XXXXXXX++X#o...",
" XXo+oX#$%##o...",
" XXXXXo$&&$#o...",
" XXooX%&%*&$##..",
" XXXXX$&*%&%$%#.",
" XXooXo$&&$o&&$#",
" XXXXXXo%$o&%*&$",
" XXo+o+Xoo&&*%&%",
" XXXXXXXXXo$&&$o",
" @@@@@@@@@oo%$o.",
"..ooooooooo.oo.."};
