/* XPM */
static char * sh_m_xpm[] = {
/* width height ncolors cpp [x_hot y_hot] */
"32 32 9 1 0 0",
/* colors */
" 	s iconGray8	m black	c #212121212121",
".	s none	m none	c none",
"X	s iconColor2	m white	c white",
"o	s iconColor1	m black	c black",
"O	s iconGray1	m white	c #dededededede",
"+	s iconGray6	m black	c #636363636363",
"@	s iconGray4	m white	c #949494949494",
"#	s iconColor11	m black	c darkkhaki",
"$	s iconGray5	m black	c #737373737373",
/* pixels */
"                    ............",
" XXXXXXXXXXXXXXXXXoO ...........",
" XXXXXXXXXXXXXXXXXoXO ..........",
" XXXXXXXXXXXXXXXXXoXXO .........",
" XXXXXXXXXXXXXXXXXoXXXO ........",
" XXXXXXXXXXXXXXXXXoooooo........",
" XXXXXXXXXXXXXXXXXX+++++o.......",
" XXXXXXXXXXXXXXXXXXX++++o.......",
" XXXXXXXXXXXXXXXXXXXXXX+o.......",
" XXXXXXXXXXXXXXXXXXXXXX+o.......",
" XXXXXXXXXXXXXXXXXXXXXX+o.......",
" XXXXXXXXX@@@@XXXXXXXXX+o.......",
" XXXXXXX@@XXXX@@XXXXXXX+o.......",
" XXXXX@@XX####XX@@XXXXX+o.......",
" XXXX@@X##XXOX##X@@XXXX+o.......",
" XXX@XX#XX####XX#XX@XXX+o.......",
" XXX@##O##XOXX##O##@XXX+o.......",
" XXX@XX#OX####XO#XX@XXX+o.......",
" XXXX+#X##XXOX##X#+XXXX+o.......",
" XXXXX+$XO####OX#+XXXXX+o.......",
" XXXXXX+##OOXX##+XXXXXX+o.......",
" XXXXXXX$#OOXX#$XXXXXXX+o.......",
" XXXXXXXX$#OX#$XXXXXXXX+o.......",
" XXXXXXXX$####$XXXXXXXX+o.......",
" XXXXXXXXX@++@XXXXXXXXX+o.......",
" XXXXXXXXXXXXXXXXXXXXXX+o.......",
" XXXXXXXXXXXXXXXXXXXXXX+o.......",
" XXXXXXXXXXXXXXXXXXXXXX+o.......",
" XXXXXXXXXXXXXXXXXXXXXX+o.......",
" XXXXXXXXXXXXXXXXXXXXXX+o.......",
"   +++++++++++++++++++++o.......",
"...oooooooooooooooooooooo......."};
