/* XPM */
static char * sh_s_xpm[] = {
/* width height ncolors cpp [x_hot y_hot] */
"24 24 9 1 0 0",
/* colors */
" 	s iconGray8	m black	c #212121212121",
".	s none	m none	c none",
"X	s iconColor2	m white	c white",
"o	s iconGray6	m black	c #636363636363",
"O	s iconColor1	m black	c black",
"+	s iconGray5	m black	c #737373737373",
"@	s iconGray2	m white	c #bdbdbdbdbdbd",
"#	s iconColor11	m black	c darkkhaki",
"$	s iconGray7	m black	c #424242424242",
/* pixels */
"               .........",
" XXXXXXXXXXXX X ........",
" XXXXXXXXXXXX XX .......",
" XXXXXXXXXXXX XXX ......",
" XXXXXXXXXXXX     ......",
" XXXXXXXXXXXXXooooO.....",
" XXXXXXXXXXXXXXoooO.....",
" XXXXXXXXXXXXXXXXoO.....",
" XXXXX++++++XXXXXoO.....",
" XXXooX@XX@XooXXXoO.....",
" XX+oX##XX##@o$XXoO.....",
" X+X@#XX##XX#XX$XoO.....",
" Xo##X##XX##X##$XoO.....",
" XoXX#@X##@X#XX$XoO.....",
" XXo#X##XX##X#$XXoO.....",
" XXXo+XX##XX#$XXXoO.....",
" XXXXo#@XX@#$XXXXoO.....",
" XXXXXo#XX#$XXXXXoO.....",
" XXXXXo#X##$XXXXXoO.....",
" XXXXXX$$$$XXXXXXoO.....",
" XXXXXXXXXXXXXXXXoO.....",
" XXXXXXXXXXXXXXXXoO.....",
"  ooooooooooooooooO.....",
"..OOOOOOOOOOOOOOOOO....."};
