/* XPM */
static char * sh_t_xpm[] = {
/* width height ncolors cpp [x_hot y_hot] */
"16 16 9 1 0 0",
/* colors */
" 	s iconGray8	m black	c #212121212121",
".	s none	m none	c none",
"X	s iconColor2	m white	c white",
"o	s iconColor1	m black	c black",
"O	s iconGray1	m white	c #dededededede",
"+	s iconGray6	m black	c #636363636363",
"@	s iconGray5	m black	c #737373737373",
"#	s iconColor11	m black	c darkkhaki",
"$	s iconGray2	m white	c #bdbdbdbdbdbd",
/* pixels */
"          ......",
" XXXXXXXoO .....",
" XXXXXXXoXO ....",
" XXXXXXXoooo....",
" XXXXXXXX+++o...",
" XXXXXXXXX++o...",
" XXX@@@@XXX+o...",
" XX@####@XX+o...",
" X@#OOOO#@X+o...",
" X@O####O@X+o...",
" XX@#OX#@XX+o...",
" XXX@XX@XXX+o...",
" XXX$@@$XXX+o...",
" XXXXXXXXXX+o...",
" +++++++++++o...",
"..ooooooooooo..."};
