/* XPM */
static char * tar_t_xpm[] = {
/* width height ncolors cpp [x_hot y_hot] */
"16 16 9 1 0 0",
/* colors */
" 	s iconGray8	m black	c #212121212121",
".	s none	m none	c none",
"X	s iconColor2	m white	c white",
"o	s iconColor1	m black	c black",
"O	s iconGray1	m white	c #dededededede",
"+	s iconGray6	m black	c #636363636363",
"@	s iconColor3	m black	c darkred",
"#	s iconGray5	m black	c #737373737373",
"$	s iconGray4	m white	c #949494949494",
/* pixels */
"          ......",
" XXXXXXXoO .....",
" XXXXXXXoXO ....",
" XXXXXXXoooo....",
" XXXXXXXX+++o...",
" XXXXXXXXXX+o...",
" XXXXX+++++++...",
" XXX++OO@@@OO++.",
" XX+O@@OO#OO@@O ",
" XX+XXOO@@@OO$$ ",
" XX+@@XXXXXXX@@ ",
" XX+XX@@@@@@@XX ",
" XXX  XXXXXXX  .",
" XXXXX       ...",
" +##########o...",
"..ooooooooooo..."};
