/* XPM */
static char * tar_s_xpm[] = {
/* width height ncolors cpp [x_hot y_hot] */
"24 24 10 1 0 0",
/* colors */
" 	s iconGray8	m black	c #212121212121",
".	s none	m none	c none",
"X	s iconColor2	m white	c white",
"o	s iconGray6	m black	c #636363636363",
"O	s iconColor1	m black	c black",
"+	s iconGray2	m white	c #bdbdbdbdbdbd",
"@	s iconGray1	m white	c #dededededede",
"#	s iconColor3	m black	c darkred",
"$	s iconGray4	m white	c #949494949494",
"%	s iconGray7	m black	c #424242424242",
/* pixels */
"               .........",
" XXXXXXXXXXXX X ........",
" XXXXXXXXXXXX XX .......",
" XXXXXXXXXXXX XXX ......",
" XXXXXXXXXXXX     ......",
" XXXXXXXXXXXXXooooO.....",
" XXXXXXXXXXXXXXoooO.....",
" XXXXXXXXXXXXXXXXoO.....",
" XXXXXXXX+++++++++ .....",
" XXXXX+++@@######X+++...",
" XXX++@@@@@@####X@@@@++.",
" XX+@@###@@@@@@@@@@###X+",
" XX+@@####X@$OOX@@####X ",
" XX+@@###X@@@@@@@@@###X ",
" XX%XX@@@@@@ ###X@@@@X@ ",
" XX%$$XXX@@ #####@XX@$$ ",
" XX%##$$$XXXXXXXXX$$$## ",
" XX%X####$$$$$$$$$###@@ ",
" XXX%XXXX##########@@  .",
" XXXX%%%%XXXXXXX@@@  ...",
" XXXXXXXX          .....",
" XXXXXXXXXXXXXXXXX .....",
"  ooooooooooooooooO.....",
"..OOOOOOOOOOOOOOOOO....."};
