/* XPM */
static char * tar_l_xpm[] = {
/* width height ncolors cpp [x_hot y_hot] */
"48 48 12 1 0 0",
/* colors */
" 	s Gray8	m black	c #212121212121",
".	s none	m none	c none",
"X	s Color2	m white	c white",
"o	s Color1	m black	c black",
"O	s Gray2	m white	c #bdbdbdbdbdbd",
"+	s Gray1	m white	c #dededededede",
"@	s Gray6	m black	c #636363636363",
"#	s Gray4	m white	c #949494949494",
"$	s Gray7	m black	c #424242424242",
"%	s Color3	m black	c darkred",
"&	s Gray3	m white	c #adadadadadad",
"*	s Gray5	m black	c #737373737373",
/* pixels */
"                               .................",
" XXXXXXXXXXXXXXXXXXXXXXXXXXXXoO ................",
" XXXXXXXXXXXXXXXXXXXXXXXXXXXXo+O ...............",
" XXXXXXXXXXXXXXXXXXXXXXXXXXXXoX+O ..............",
" XXXXXXXXXXXXXXXXXXXXXXXXXXXXoXX+O .............",
" XXXXXXXXXXXXXXXXXXXXXXXXXXXXoXXX+O ............",
" XXXXXXXXXXXXXXXXXXXXXXXXXXXXoXXXX+O ...........",
" XXXXXXXXXXXXXXXXXXXXXXXXXXXXoXXXXX+O ..........",
" XXXXXXXXXXXXXXXXXXXXXXXXXXXXooooooooo..........",
" XXXXXXXXXXXXXXXXXXXXXXXXXXXXX@@@@@@@@o.........",
" XXXXXXXXXXXXXXXXXXXXXXXXXXXXXX@@@@@@@o.........",
" XXXXXXXXXXXXXXXXXXXXXXXXXXXXXXXXXXXX@o.........",
" XXXXXXXXXXXXXXXXXXXXXXXXXXXXXXXXXXXX@o.........",
" XXXXXXXXXXXXXXXXXXXXXXXXXXXXXXXXXXXX@o.........",
" XXXXXXXXXXXXXXXXXXXXXXXXXXXXXXXXXXXX@o.........",
" XXXXXXXXXXXXXXXXXXXXXXXXXXXXXXXXXXXX@o.........",
" XXXXXXXXXXXXXXXXXXXXXXXXXXXXXXXXXXXX@o.........",
" XXXXXXXXXXXXXXXXXXXXXXXXXXXXXXXXXXXX@o.........",
" XXXXXXXXXXXXXXXXXXXXXXXXXXXXXXXXXXXX@o.........",
" XXXXXXXXXXXXXXXXXXXXXXXXXXXXXXXXXXXX@o.........",
" XXXXXXXXXXXXXXXXXXXXXXXXXXXXXXXXXXXX@o.........",
" XXXXXXXXXXXXXXXXXXXXXXXXXXXXXXXXXXXX@o.........",
" XXXXXXXXXXXXXXXXXXXXXXXXXXXXXXXXXXXX@o.........",
" XXXXXXXXXXXXXXXXXXXXXXXXXXXXXXXXXXXX@o.........",
" XXXXXXXXXXXXXXXXXXXXXXXXXXXXXXXXXXXX@o.........",
" XXXXXXXXXXXXXXXXXXXX###############o$o.........",
" XXXXXXXXXXXXXXXX####+++ %%%%%%%%%X+#####.......",
" XXXXXXXXXXXXXX##++++++++ %%%%%%%X+++++++##.....",
" XXXXXXXXXXXXX#+++%%++++++++++++X+++++%%+X+$....",
" XXXXXXXXXXXXX#++%%%%%+++++&**&+X+++%%%%%X+$....",
" XXXXXXXXXXXXX#++%%%%%%%X+&$$$$&X+%%%%%%%X+$....",
" XXXXXXXXXXXXX#++%%%%X++++XX+XXXX++++%%%%X+$....",
" XXXXXXXXXXXXXoXX++++++++ %%%%%%%++++++++$$$....",
" XXXXXXXXXXXXXo@@XXXX+++ %%%%%%%%%X+XXX$$@%$....",
" XXXXXXXXXXXXXo%%@@@@XXXXXXXXXXXXXXX@@@@%%%$....",
" XXXXXXXXXXXXXo%%%%%%@@@@@@@@@@@@@@@%%%%%%%o....",
" XXXXXXXXXXXXXo%%%%%%%%%%%%%%%%%%%%%%%%%%%%o....",
" XXXXXXXXXXXXXoXX%%%%%%%%%%%%%%%%%%%%%%%%XXo....",
" XXXXXXXXXXXXXXooXXXX%%%%%%%%%%%%%%%XXXXXoo.....",
" XXXXXXXXXXXXXXXXooooXXXXXXXXXXXXXXXooooo.......",
" XXXXXXXXXXXXXXXXXXXXoooooooooooooooX$o.........",
" XXXXXXXXXXXXXXXXXXXXXXXXXXXXXXXXXXXX@o.........",
" XXXXXXXXXXXXXXXXXXXXXXXXXXXXXXXXXXXX@o.........",
" XXXXXXXXXXXXXXXXXXXXXXXXXXXXXXXXXXXX@o.........",
" XXXXXXXXXXXXXXXXXXXXXXXXXXXXXXXXXXXX@o.........",
" XXXXXXXXXXXXXXXXXXXXXXXXXXXXXXXXXXXX@o.........",
"   @@@@@@@@@@@@@@@@@@@@@@@@@@@@@@@@@@@o.........",
"...oooooooooooooooooooooooooooooooooooo........."};
