/* XPM */
static char * text_t_xpm[] = {
/* width height ncolors cpp [x_hot y_hot] */
"16 16 7 1 0 0",
/* colors */
" 	s iconGray8	m black	c #212121212121",
".	s none	m none	c none",
"X	s iconColor2	m white	c white",
"o	s iconColor1	m black	c black",
"O	s iconGray1	m white	c #dededededede",
"+	s iconGray6	m black	c #636363636363",
"@	c #AEAEAEAEAEAE",
/* pixels */
"          ......",
" XXXXXXXoO .....",
" XXXXXXXoXO ....",
" XXXXXXXoooo....",
" XXXXXXXX+++o...",
" XXo@oo@oX++o...",
" XXXXXXXXXX+o...",
" XXooo@ooXX+o...",
" XXXXXXXXXX+o...",
" XXo@ooooXX+o...",
" XXXXXXXXXX+o...",
" XXooo@ooXX+o...",
" XXXXXXXXXX+o...",
" XXXXXXXXXX+o...",
" +++++++++++o...",
"..ooooooooooo..."};
