/* XPM */
static char * typeset_s_xpm[] = {
/* width height ncolors cpp [x_hot y_hot] */
"24 24 9 1 0 0",
/* colors */
" 	s iconGray8	m black	c #212121212121",
".	s none	m none	c none",
"X	s iconColor2	m white	c white",
"o	s iconColor1	m black	c black",
"O	c #AEAEAEAEAEAE",
"+	s iconGray6	m black	c #636363636363",
"@	c #A7A70F0F0F0F",
"#	c #1111A7A70F0F",
"$	c #0F0F3737A7A7",
/* pixels */
"               .........",
" XXXXXXXXXXXX X ........",
" XXXXXXXXXXXX XX .......",
" XXXXXXXXXXXX XXX ......",
" XXXXXXXXXXXX     ......",
" XXXoOooOXXXXX++++o.....",
" XXXXXXXXXXXXXX+++o.....",
" XXXooOooXXXXXXXX+o.....",
" XXXXXXXXXXXXXXXX+o.....",
" XXXXXXXXXXXXXXXX+o.....",
" XXX@X##$XooOooXX+o.....",
" XXX@@#$$XXXXXXXX+o.....",
" XXX@@#$$XoooooXX+o.....",
" XXXXXXXXXXXXXXXX+o.....",
" XXXoooOoooooOoXX+o.....",
" XXXXXXXXXXXXXXXX+o.....",
" XXXooOoooOOoooXX+o.....",
" XXXXXXXXXXXXXXXX+o.....",
" XXXoOooXXXXXXXXX+o.....",
" XXXXXXXXXXXXXXXX+o.....",
" XXXXXXXXXXXXXXXX+o.....",
" XXXXXXXXXXXXXXXX+o.....",
"  ++++++++++++++++o.....",
"..ooooooooooooooooo....."};
