/* XPM */
static char * typeset_m_xpm[] = {
/* width height ncolors cpp [x_hot y_hot] */
"32 32 10 1 0 0",
/* colors */
" 	s iconGray8	m black	c #212121212121",
".	s none	m none	c none",
"X	s iconColor2	m white	c white",
"o	s iconColor1	m black	c black",
"O	s iconGray1	m white	c #dededededede",
"+	c #AEAEAEAEAEAE",
"@	s iconGray6	m black	c #636363636363",
"#	c #A7A70F0F0F0F",
"$	c #0F0F3737A7A7",
"%	c #1111A7A70F0F",
/* pixels */
"                    ............",
" XXXXXXXXXXXXXXXXXoO ...........",
" XXXXXXXXXXXXXXXXXoXO ..........",
" XXXXXXXXXXXXXXXXXoXXO .........",
" XXXo+oo+XXXXXXXXXoXXXO ........",
" XXXXXXXXXXXXXXXXXoooooo........",
" XXXooo+oooXXXXXXXX@@@@@o.......",
" XXXXXXXXXXXXXXXXXXX@@@@o.......",
" XXXo+oo+ooXXXXXXXXXXXX@o.......",
" XXXXXXXXXXXXXXXXXXXXXX@o.......",
" XXXXXXXXXXXXXXXXXXXXXX@o.......",
" XXX#XXXX$Xoooooo+ooXXX@o.......",
" XXX##%X$$XXXXXXXXXXXXX@o.......",
" XXX##%%$$Xo+ooooo+oXXX@o.......",
" XXX##%%$$XXXXXXXXXXXXX@o.......",
" XXX##%%$$Xooooo+oooXXX@o.......",
" XXXXXXXXXXXXXXXXXXXXXX@o.......",
" XXXooo+oooo++ooooooXXX@o.......",
" XXXXXXXXXXXXXXXXXXXXXX@o.......",
" XXXoo+oooooooooooooXXX@o.......",
" XXXXXXXXXXXXXXXXXXXXXX@o.......",
" XXXooooo+oooooo+oXXXXX@o.......",
" XXXXXXXXXXXXXXXXXXXXXX@o.......",
" XXXoo+oooooo+ooooooXXX@o.......",
" XXXXXXXXXXXXXXXXXXXXXX@o.......",
" XXXXXXXXXXXXXXXXXXXXXX@o.......",
" XXXXXXXXXXXXXXXXXXXXXX@o.......",
" XXXoooo+oXXXXXXXXXXXXX@o.......",
" XXXXXXXXXXXXXXXXXXXXXX@o.......",
" XXXXXXXXXXXXXXXXXXXXXX@o.......",
"   @@@@@@@@@@@@@@@@@@@@@o.......",
"...oooooooooooooooooooooo......."};
