/* XPM */
static char * typeset_l_xpm[] = {
/* width height ncolors cpp [x_hot y_hot] */
"48 48 16 1 0 0",
/* colors */
" 	s Gray8	m black	c #212121212121",
".	s none	m none	c none",
"X	s Color2	m white	c white",
"o	s Color1	m black	c black",
"O	s Gray2	m white	c #bdbdbdbdbdbd",
"+	s Gray1	m white	c #dededededede",
"@	s Gray6	m black	c #636363636363",
"#	s Gray4	m white	c #949494949494",
"$	s Gray5	m black	c #737373737373",
"%	s Gray3	m white	c #adadadadadad",
"&	s Color3	m black	c darkred",
"*	s Color6	m white	c green",
"=	s Color8	m white	c blue",
"-	s Color4	m white	c red",
";	s Color5	m black	c darkgreen",
":	s Color7	m black	c darkblue",
/* pixels */
"                               .................",
" XXXXXXXXXXXXXXXXXXXXXXXXXXXXoO ................",
" XXXXXXXXXXXXXXXXXXXXXXXXXXXXo+O ...............",
" XXXXXXXXXXXXXXXXXXXXXXXXXXXXoX+O ..............",
" XXXXXXXXXXXXXXXXXXXXXXXXXXXXoXX+O .............",
" XXXXXXXXXXXXXXXXXXXXXXXXXXXXoXXX+O ............",
" XXXXXXXXXXXXXXXXXXXXXXXXXXXXoXXXX+O ...........",
" XXXXXXXXXXXXXXXXXXXXXXXXXXXXoXXXXX+O ..........",
" XXXXXXXXXXXXXXXXXXXXXXXXXXXXooooooooo..........",
" XXXXXXXXXXXXXXXXXXXXXXXXXXXXX@@@@@@@@o.........",
" XXXX OXXXO X OXXXXXXXXXXXXXXXX@@@@@@@o.........",
" XXXX  O  O    O XXXXXXXXXXXXXXXXXXXX@o.........",
" XXXX############XXXXXXXXXXXXXXXXXXXX@o.........",
" XXXXXXXXXXXXXXXXXXXXXXXXXXXXXXXXXXXX@o.........",
" XXXX##XX$XXXXXXXXXXXXXXXXXXXXXXXXXXX@o.........",
" XXXX   #oooo#oo#XXXXXXXXXXXXXXXXXXXX@o.........",
" XXXXXXXXXXXXXXXXXXXXXXXXXXXXXXXXXXXX@o.........",
" XXXXXXXXXXXXXXXXXXXXXX#XXXXX$XXXXXXX@o.........",
" XXXXXXXXXXXXXXXXXXXX%  %X XooooXXXXX@o.........",
" XXXX&+XXX*XXXXX+=XXXXXXXXXXXXXXXXXXX@o.........",
" XXXX-&-XX;**X+:=:XXXOXXXXXOXXXXXXXXX@o.........",
" XXXX&-&XX*;*XX=:=XXX %  X  Xoo$XXXXX@o.........",
" XXXX-&-XX;*;XX:=:XXXXXXXXXXXXXXXXXXX@o.........",
" XXXX&-&XX*;*XX=:=XXXOXXXXXXXXXXXXXXX@o.........",
" XXXX-&-XX;*;XX:=:XXX %  %  ooo#XXXXX@o.........",
" XXXXXXXXXXXXXXXXXXXXXXXXXXXXXXXXXXXX@o.........",
" XXXX #XX#XX$XXXX#XXXOXXOXXOXXXXXXXXX@o.........",
" XXXX  %   ooXo%   Xo %  %  XXXXXXXXX@o.........",
" XXXXXXXXXXXXXXXXXXXXXXXXXXXXXXXXXXXX@o.........",
" XXXX #OXXOXXXXOXXOXooXXOXXOX#oXXXXXX@o.........",
" XXXX   %  Xoo$ %  Xo#% #%  XoooXXXXX@o.........",
" XXXXXXXXXXXXXXXXXXXXXXXXXXXXXXXXXXXX@o.........",
" XXXX #OXXOX#XXOXXXX#XoXXOXXXXXXXXXXX@o.........",
" XXXX   %  ooo# %X ooX %  %  XXXXXXXX@o.........",
" XXXXXXXXXXXXXXXXXXXXXXXXXXXXXXXXXXXX@o.........",
" XXXX #OXXOXXXXOXXOXXXXXXXXXOXXXXXXXX@o.........",
" XXXX # %  XooX %  Xoo %  %  XooXXXXX@o.........",
" XXXXXXXXXXXXXXXXXXXXXXXXXXXXXXXXXXXX@o.........",
" XXXX #OXXOX#oXOXXOX#oOXXOXXOX#oXXXXX@o.........",
" XXXX  #%  Xooo#%  Xoo#% #%  XooXXXXX@o.........",
" XXXXXXXXXXXXXXXXXXXXXXXXXXXXXXXXXXXX@o.........",
" XXXXo#XXXXXXXXXXXXXXXXXXXXXXXXXXXXXX@o.........",
" XXXXo#o#ooo#ooo#o#XXXXXXXXXXXXXXXXXX@o.........",
" XXXXXXXXXXXXXXXXXXXXXXXXXXXXXXXXXXXX@o.........",
" XXXXXXXXXXXXXXXXXXXXXXXXXXXXXXXXXXXX@o.........",
" XXXXXXXXXXXXXXXXXXXXXXXXXXXXXXXXXXXX@o.........",
"   @@@@@@@@@@@@@@@@@@@@@@@@@@@@@@@@@@@o.........",
"...oooooooooooooooooooooooooooooooooooo........."};
