/* XPM */
static char * video_m_xpm[] = {
/* width height ncolors cpp [x_hot y_hot] */
"32 32 8 1 0 0",
/* colors */
" 	s iconGray8	m black	c #212121212121",
".	s none	m none	c none",
"X	s iconColor2	m white	c white",
"o	s iconColor1	m black	c black",
"O	s iconGray1	m white	c #dededededede",
"+	s iconGray6	m black	c #636363636363",
"@	s iconColor11	m black	c darkkhaki",
"#	s iconGray4	m white	c #949494949494",
/* pixels */
"                    ............",
" XXXXXXXXXXXXXXXXXoO ...........",
" XXXXXXXXXXXXXXXXXoXO ..........",
" XXXXXXXXXXXXXXXXXoXXO .........",
" XXXXXXXXXXXXXXXXXoXXXO ........",
" XXXXXXXXXXXXXXXXXoooooo........",
" XXXXXXXXXXXXXXXXXX+++++o.......",
" XXXXXXXXXXXXXXXXXXX++++o.......",
" XXXXXXXXXXXXXXXXXXXXXX+o.......",
" XXXXXXXXXXXXXXXXXXXXXX+o.......",
" XXXXXXXXXXXXXXXXXXXXXX+o.......",
" XXXXXXXXXXXXXXXXXXXXXX+o.......",
" XXXXXXXXXXXXXXXXXXXXXX+o.......",
" XXXXXXXXXXXXXXXXXXXXXX+o.......",
" X                    X+o.......",
" X X   X    X   X   X X+o.......",
" X+++++ ++++++++ +++++X+o.......",
" X@#@#@ #@#@#@#@ #@#@XX+o.......",
" XX@#@# @#@#@#@# @#@#@X+o.......",
" X@#@#@ #@#@#@#@ #@#@XX+o.......",
" XX@#@# @#@#@#@# @#@#@X+o.......",
" X@#@#@ #@#@#@#@ #@#@XX+o.......",
" XX@#@# @#@#@#@# @#@#@X+o.......",
" X+++++ ++++++++ +++++X+o.......",
" X X   X    X   X   X X+o.......",
" X                    X+o.......",
" XXXXXXXXXXXXXXXXXXXXXX+o.......",
" XXXXXXXXXXXXXXXXXXXXXX+o.......",
" XXXXXXXXXXXXXXXXXXXXXX+o.......",
" XXXXXXXXXXXXXXXXXXXXXX+o.......",
"   +++++++++++++++++++++o.......",
"...oooooooooooooooooooooo......."};
