/* XPM */
static char * video_s_xpm[] = {
/* width height ncolors cpp [x_hot y_hot] */
"24 24 8 1 0 0",
/* colors */
" 	s iconGray8	m black	c #212121212121",
".	s none	m none	c none",
"X	s iconColor2	m white	c white",
"o	s iconGray6	m black	c #636363636363",
"O	s iconColor1	m black	c black",
"+	s iconGray7	m black	c #424242424242",
"@	s iconGray4	m white	c #949494949494",
"#	s iconColor11	m black	c darkkhaki",
/* pixels */
"               .........",
" XXXXXXXXXXXX X ........",
" XXXXXXXXXXXX XX .......",
" XXXXXXXXXXXX XXX ......",
" XXXXXXXXXXXX     ......",
" XXXXXXXXXXXXXooooO.....",
" XXXXXXXXXXXXXXoooO.....",
" XXXXXXXXXXXXXXXXoO.....",
" XXXXXXXXXXXXXXXXoO.....",
" XXXXXXXXXXXXXXXXoO.....",
" XXXXXXXXXXXXXXXXoO.....",
" X              XoO.....",
" XX+ +X++++X+ +XXoO.....",
" X@# @#@#@#@# #@XoO.....",
" X#@ #@#@#@#@ @#XoO.....",
" X@# @#@#@#@# #@XoO.....",
" X#@ #@#@#@#@ @#XoO.....",
" X@# @#@#@#@# #@XoO.....",
" XX+ +X++++X+ +XXoO.....",
" X              XoO.....",
" XXXXXXXXXXXXXXXXoO.....",
" XXXXXXXXXXXXXXXXoO.....",
"  ooooooooooooooooO.....",
"..OOOOOOOOOOOOOOOOO....."};
