/* XPM */
static char * xfile_t_xpm[] = {
/* width height ncolors cpp [x_hot y_hot] */
"16 16 6 1 0 0",
/* colors */
" 	s Gray8	m black	c #212121212121",
".	s none	m none	c none",
"X	s Color2	m white	c white",
"o	s Color1	m black	c black",
"O	s Gray1	m white	c #dededededede",
"+	s Gray6	m black	c #636363636363",
/* pixels */
"          ......",
" XXXXXXXoO .....",
" XXXXXXXoXO ....",
" XXXXXXXoooo....",
" XXXXXXXX+++o...",
" XXooXXXoX++o...",
" XXXooXXoXX+o...",
" XXXooXXoXX+o...",
" XXXXoooXXX+o...",
" XXXoooXXXX+o...",
" XXXoXooXXX+o...",
" XXoXXooXXX+o...",
" XXoXXXooXX+o...",
" XXXXXXXXXX+o...",
" +++++++++++o...",
"..ooooooooooo..."};
