/* XPM */
static char * xbm_l_xpm[] = {
/* width height ncolors cpp [x_hot y_hot] */
"48 48 8 1 0 0",
/* colors */
" 	s Gray8	m black	c #212121212121",
".	s none	m none	c none",
"X	s Color2	m white	c white",
"o	s Color1	m black	c black",
"O	s Gray2	m white	c #bdbdbdbdbdbd",
"+	s Gray1	m white	c #dededededede",
"@	s Gray6	m black	c #636363636363",
"#	s Gray4	m white	c #949494949494",
/* pixels */
"                               .................",
" XXXXXXXXXXXXXXXXXXXXXXXXXXXXoO ................",
" XXXXXXXXXXXXXXXXXXXXXXXXXXXXo+O ...............",
" XXXXXXXXXXXXXXXXXXXXXXXXXXXXoX+O ..............",
" XXXXXXXXXXXXXXXXXXXXXXXXXXXXoXX+O .............",
" XXXXXXXXXXXXXXXXXXXXXXXXXXXXoXXX+O ............",
" XXXXXXXXXXXXXXXXXXXXXXXXXXXXoXXXX+O ...........",
" XXXXXXXXXXXXXXXXXXXXXXXXXXXXoXXXXX+O ..........",
" XXXXXXXXXXXXXXXXXXXXXXXXXXXXooooooooo..........",
" XXXXXXXXXXXXXXXXXXXXXXXXXXXXX@@@@@@@@o.........",
" XXXXXXXXXXXXXXXXXXXXXXXXXXXXXX@@@@@@@o.........",
" XXXXXXXXXXXXXXXXXXXXXXXXXXXXXXXXXXXX@o.........",
" XXXXoooooXXXXXXXXXXXXXXXXXXXXXXXXXXX@o.........",
" XXXXooooooXXXXXXXXXXXXXXXXXXXXXXXXXX@o.........",
" XXXXXooooo#XXXXXXXXXXXXXXXXXXXoooXXX@o.........",
" XXXXX#oooooXXXXXXXXXXXXXXXXXXooo#XXX@o.........",
" XXXXXXooooooXXXXXXXXXXXXXXXX#oooXXXX@o.........",
" XXXXXXXooooooXXXXXXXXXXXXXXXoooXXXXX@o.........",
" XXXXXXXXooooooXXXXXXXXXXXXXoooXXXXXX@o.........",
" XXXXXXXXXooooo#XXXXXXXXXXXooo#XXXXXX@o.........",
" XXXXXXXXX#oooooXXXXXXXXXX#oooXXXXXXX@o.........",
" XXXXXXXXXXooooooXXXXXXXXXoooXXXXXXXX@o.........",
" XXXXXXXXXXXooooooXXXXXXXooo#XXXXXXXX@o.........",
" XXXXXXXXXXXXooooooXXXXX#oooXXXXXXXXX@o.........",
" XXXXXXXXXXXXXooooo#XXXXoooXXXXXXXXXX@o.........",
" XXXXXXXXXXXXX#oooooXXXooo#XXXXXXXXXX@o.........",
" XXXXXXXXXXXXXXooooooXXoooXXXXXXXXXXX@o.........",
" XXXXXXXXXXXXXXXooooXooooXXXXXXXXXXXX@o.........",
" XXXXXXXXXXXXXXXoooXooooXXXXXXXXXXXXX@o.........",
" XXXXXXXXXXXXXXXoooXoooXXXXXXXXXXXXXX@o.........",
" XXXXXXXXXXXXXXoooXoooooXXXXXXXXXXXXX@o.........",
" XXXXXXXXXXXXXoooXXooooooXXXXXXXXXXXX@o.........",
" XXXXXXXXXXXXooo#XXXooooooXXXXXXXXXXX@o.........",
" XXXXXXXXXXX#oooXXXXXooooo#XXXXXXXXXX@o.........",
" XXXXXXXXXXXoooXXXXXXXoooooXXXXXXXXXX@o.........",
" XXXXXXXXXXoooXXXXXXXX#oooooXXXXXXXXX@o.........",
" XXXXXXXXXooo#XXXXXXXXXooooooXXXXXXXX@o.........",
" XXXXXXXX#oooXXXXXXXXXXXooooooXXXXXXX@o.........",
" XXXXXXXXoooXXXXXXXXXXXXXooooo#XXXXXX@o.........",
" XXXXXXXoooXXXXXXXXXXXXXXXoooooXXXXXX@o.........",
" XXXXXXooo#XXXXXXXXXXXXXXX#oooooXXXXX@o.........",
" XXXXX#oooXXXXXXXXXXXXXXXXXoooooXXXXX@o.........",
" XXXXXoooXXXXXXXXXXXXXXXXXXXoooooXXXX@o.........",
" XXXXoooXXXXXXXXXXXXXXXXXXXXXoooooXXX@o.........",
" XXXXXXXXXXXXXXXXXXXXXXXXXXXXXXXXXXXX@o.........",
" XXXXXXXXXXXXXXXXXXXXXXXXXXXXXXXXXXXX@o.........",
"   @@@@@@@@@@@@@@@@@@@@@@@@@@@@@@@@@@@o.........",
"...oooooooooooooooooooooooooooooooooooo........."};
