/* XPM */
static char * xpm_m_xpm[] = {
/* width height ncolors cpp [x_hot y_hot] */
"32 32 12 1 0 0",
/* colors */
" 	s Gray8	m black	c #212121212121",
".	s none	m none	c none",
"X	s Color2	m white	c white",
"o	s Color1	m black	c black",
"O	s Gray1	m white	c #dededededede",
"+	s Gray6	m black	c #636363636363",
"@	s Color3	m black	c darkred",
"#	s Color4	m white	c red",
"$	s Color5	m black	c darkgreen",
"%	s Color6	m white	c green",
"&	s Color7	m black	c darkblue",
"*	s Color8	m white	c blue",
/* pixels */
"                    ............",
" XXXXXXXXXXXXXXXXXoO ...........",
" XXXXXXXXXXXXXXXXXoXO ..........",
" XXXXXXXXXXXXXXXXXoXXO .........",
" XXXXXXXXXXXXXXXXXoXXXO ........",
" XXXXXXXXXXXXXXXXXoooooo........",
" XXXXXXXXXXXXXXXXXX+++++o.......",
" XXXXXXXXXXXXXXXXXXX++++o.......",
" XXXXXXXXXXXXXXXXXXXXXX+o.......",
" XXX@#@XXXXXXXXXX#@XXXX+o.......",
" XXXX@#@XXXXXXXX#@XXXXX+o.......",
" XXXX#@#XXXXXXXX@#XXXXX+o.......",
" XXXXX#@#XXXXXX@#XXXXXX+o.......",
" XXXXXX#@#XXXXX#@XXXXXX+o.......",
" XXXXXX@#@XXXX#@XXXXXXX+o.......",
" XXXXXXX$%$XXX$%XXXXXXX+o.......",
" XXXXXXXX$%$X$%XXXXXXXX+o.......",
" XXXXXXXX%$%X%$XXXXXXXX+o.......",
" XXXXXXXXX%X%$XXXXXXXXX+o.......",
" XXXXXXXX%$X$%XXXXXXXXX+o.......",
" XXXXXXX%$X$%$XXXXXXXXX+o.......",
" XXXXXXX$%XX$%$XXXXXXXX+o.......",
" XXXXXX&*XXXX&*&XXXXXXX+o.......",
" XXXXXX*&XXXX*&*XXXXXXX+o.......",
" XXXXX*&XXXXXX*&*XXXXXX+o.......",
" XXXXX&*XXXXXXX*&*XXXXX+o.......",
" XXXX&*XXXXXXXX&*&XXXXX+o.......",
" XXX&*XXXXXXXXXX&*&XXXX+o.......",
" XXXXXXXXXXXXXXXXXXXXXX+o.......",
" XXXXXXXXXXXXXXXXXXXXXX+o.......",
"   +++++++++++++++++++++o.......",
"...oooooooooooooooooooooo......."};
