/* XPM */
static char * xpm_s_xpm[] = {
/* width height ncolors cpp [x_hot y_hot] */
"24 24 11 1 0 0",
/* colors */
" 	s Gray8	m black	c #212121212121",
".	s none	m none	c none",
"X	s Color2	m white	c white",
"o	s Gray6	m black	c #636363636363",
"O	s Color1	m black	c black",
"+	s Color3	m black	c darkred",
"@	s Color4	m white	c red",
"#	s Color5	m black	c darkgreen",
"$	s Color6	m white	c green",
"%	s Color7	m black	c darkblue",
"&	s Color8	m white	c blue",
/* pixels */
"               .........",
" XXXXXXXXXXXX X ........",
" XXXXXXXXXXXX XX .......",
" XXXXXXXXXXXX XXX ......",
" XXXXXXXXXXXX     ......",
" XXXXXXXXXXXXXooooO.....",
" XXXXXXXXXXXXXXoooO.....",
" XXXXXXXXXXXXXXXXoO.....",
" XXX+@+XXXXXX@+XXoO.....",
" XXXX+@+XXXX@+XXXoO.....",
" XXXX@+@XXXX+@XXXoO.....",
" XXXXX@+@XX+@XXXXoO.....",
" XXXXX#$#X#$XXXXXoO.....",
" XXXXXX#$X$#XXXXXoO.....",
" XXXXXXX#X#XXXXXXoO.....",
" XXXXX$#X#$XXXXXXoO.....",
" XXXXX#$X$#$XXXXXoO.....",
" XXXX%&XX%&%XXXXXoO.....",
" XXX%&XXXX%&%XXXXoO.....",
" XXX&%XXXX&%&XXXXoO.....",
" XX&%XXXXXX&%&XXXoO.....",
" XXXXXXXXXXXXXXXXoO.....",
"  ooooooooooooooooO.....",
"..OOOOOOOOOOOOOOOOO....."};
