/* XPM */
static char * arch_s_xpm[] = {
/* width height ncolors cpp [x_hot y_hot] */
"24 24 10 1 0 0",
/* colors */
" 	s Gray8	m black	c #212121212121",
".	s none	m none	c none",
"X	s Color2	m white	c white",
"o	s Gray6	m black	c #636363636363",
"O	s Color1	m black	c black",
"+	s Color11	m black	c darkkhaki",
"@	s Gray2	m white	c #bdbdbdbdbdbd",
"#	s Gray1	m white	c #dededededede",
"$	s Color12	m white	c yellow",
"%	s Gray5	m black	c #737373737373",
/* pixels */
"               .........",
" XXXXXXXXXXXX X ........",
" XXXXXXXXXXXX XX .......",
" XXXXXXXXXXXX XXX ......",
" XXXXXXXXXXXX     ......",
" XXXXXXXXXXXXXooooO.....",
" XXXXXXXXXXXXXXoooO.....",
" XXXXXXXXXXXXXXXXoO.....",
" XXXOOOXXXXXXXXXXoO.....",
" XXO+++OO@XXXXXXXoO.....",
" XXO#$#$#OXXXXXXXoO.....",
" XXO$#$OOOXXXXXXXoO.....",
" XX%OOO+++OO@XXXXoO.....",
" XXXXXO#$#$#OXXXXoO.....",
" XXXXXO$#$OOOXXXXoO.....",
" XXXXX%OOO+++OO@XoO.....",
" XXXXXXXXO#$#$#OXoO.....",
" XXXXXXXXO$#$#$OXoO.....",
" XXXXXXXX%OOOOO%XoO.....",
" XXXXXXXXXXXXXXXXoO.....",
" XXXXXXXXXXXXXXXXoO.....",
" XXXXXXXXXXXXXXXXoO.....",
"  ooooooooooooooooO.....",
"..OOOOOOOOOOOOOOOOO....."};
