/* XPM */
static char * arch_l_xpm[] = {
/* width height ncolors cpp [x_hot y_hot] */
"48 48 10 1 0 0",
/* colors */
" 	s Gray8	m black	c #212121212121",
".	s none	m none	c none",
"X	s Color2	m white	c white",
"o	s Color1	m black	c black",
"O	s Gray2	m white	c #bdbdbdbdbdbd",
"+	s Gray1	m white	c #dededededede",
"@	s Gray6	m black	c #636363636363",
"#	s Color11	m black	c darkkhaki",
"$	s Color12	m white	c yellow",
"%	s Gray7	m black	c #424242424242",
/* pixels */
"                               .................",
" XXXXXXXXXXXXXXXXXXXXXXXXXXXXoO ................",
" XXXXXXXXXXXXXXXXXXXXXXXXXXXXo+O ...............",
" XXXXXXXXXXXXXXXXXXXXXXXXXXXXoX+O ..............",
" XXXXXXXXXXXXXXXXXXXXXXXXXXXXoXX+O .............",
" XXXXXXXXXXXXXXXXXXXXXXXXXXXXoXXX+O ............",
" XXXXXXXXXXXXXXXXXXXXXXXXXXXXoXXXX+O ...........",
" XXXXXXXXXXXXXXXXXXXXXXXXXXXXoXXXXX+O ..........",
" XXXXXXXXXXXXXXXXXXXXXXXXXXXXooooooooo..........",
" XXXXXXXXXXXXXXXXXXXXXXXXXXXXX@@@@@@@@o.........",
" XXXXXXXXXXXXXXXXXXXXXXXXXXXXXX@@@@@@@o.........",
" XXXXXXXXXXXXXXXXXXXXXXXXXXXXXXXXXXXX@o.........",
" XXXXXXXXXXXXXXXXXXXXXXXXXXXXXXXXXXXX@o.........",
" XXXXXXXXXXXXXXXXXXXXXXXXXXXXXXXXXXXX@o.........",
" XXXXXXXXXXXXXXXXXXXXXXXXXXXXXXXXXXXX@o.........",
" XXXXXXXXXXXXXXXXXXXXXXXXXXXXXXXXXXXX@o.........",
" XXXXXXXXXXXXXXXXXXXXXXXXXXXXXXXXXXXX@o.........",
" XXXXXXXXoooooXXXXXXXXXXXXXXXXXXXXXXX@o.........",
" XXXXXXXoXXXXXoXXXXXXXXXXXXXXXXXXXXXX@o.........",
" XXXXXXoX######oooooOXXXXXXXXXXXXXXXX@o.........",
" XXXXXXoXXXXXXXXXXXXoXXXXXXXXXXXXXXXX@o.........",
" XXXXXXoX+$+$+$+$+$+oXXXXXXXXXXXXXXXX@o.........",
" XXXXXXoX$+$+#@@@@@XoXXXXXXXXXXXXXXXX@o.........",
" XXXXXXoX+$+#@XXXXX@oXXXXXXXXXXXXXXXX@o.........",
" XXXXXXoX$+#@X######@ooooOXXXXXXXXXXX@o.........",
" XXXXXXoX+$#@XXXXXXXXXXXXoXXXXXXXXXXX@o.........",
" XXXXXXoX$+#@X+$+$+$+$+$+oXXXXXXXXXXX@o.........",
" XXXXXX%oooooX$+$+#@@@@@XoXXXXXXXXXXX@o.........",
" XXXXXXXXXXXoX+$+#@XXXXX@oXXXXXXXXXXX@o.........",
" XXXXXXXXXXXoX$+#@X######@ooooOXXXXXX@o.........",
" XXXXXXXXXXXoX+$#@XXXXXXXXXXXXoXXXXXX@o.........",
" XXXXXXXXXXXoX$+#@X+$+$+$+$+$+oXXXXXX@o.........",
" XXXXXXXXXXX%oooooX$+$+$+$+$+$oXXXXXX@o.........",
" XXXXXXXXXXXXXXXXoX+$+$+$+$+$+oXXXXXX@o.........",
" XXXXXXXXXXXXXXXXoX$+$+$+$+$+$oXXXXXX@o.........",
" XXXXXXXXXXXXXXXXoX+$+$+$+$+$+oXXXXXX@o.........",
" XXXXXXXXXXXXXXXXoX$+$+$+$+$+$oXXXXXX@o.........",
" XXXXXXXXXXXXXXXX%oooooooooooo@XXXXXX@o.........",
" XXXXXXXXXXXXXXXXXXXXXXXXXXXXXXXXXXXX@o.........",
" XXXXXXXXXXXXXXXXXXXXXXXXXXXXXXXXXXXX@o.........",
" XXXXXXXXXXXXXXXXXXXXXXXXXXXXXXXXXXXX@o.........",
" XXXXXXXXXXXXXXXXXXXXXXXXXXXXXXXXXXXX@o.........",
" XXXXXXXXXXXXXXXXXXXXXXXXXXXXXXXXXXXX@o.........",
" XXXXXXXXXXXXXXXXXXXXXXXXXXXXXXXXXXXX@o.........",
" XXXXXXXXXXXXXXXXXXXXXXXXXXXXXXXXXXXX@o.........",
" XXXXXXXXXXXXXXXXXXXXXXXXXXXXXXXXXXXX@o.........",
"   @@@@@@@@@@@@@@@@@@@@@@@@@@@@@@@@@@@o.........",
"...oooooooooooooooooooooooooooooooooooo........."};
