/* XPM */
static char * arch_m_xpm[] = {
/* width height ncolors cpp [x_hot y_hot] */
"32 32 10 1 0 0",
/* colors */
" 	s Gray8	m black	c #212121212121",
".	s none	m none	c none",
"X	s Color2	m white	c white",
"o	s Color1	m black	c black",
"O	s Gray1	m white	c #dededededede",
"+	s Gray6	m black	c #636363636363",
"@	s Color11	m black	c darkkhaki",
"#	s Gray2	m white	c #bdbdbdbdbdbd",
"$	s Color12	m white	c yellow",
"%	s Gray7	m black	c #424242424242",
/* pixels */
"                    ............",
" XXXXXXXXXXXXXXXXXoO ...........",
" XXXXXXXXXXXXXXXXXoXO ..........",
" XXXXXXXXXXXXXXXXXoXXO .........",
" XXXXXXXXXXXXXXXXXoXXXO ........",
" XXXXXXXXXXXXXXXXXoooooo........",
" XXXXXXXXXXXXXXXXXX+++++o.......",
" XXXXXXXXXXXXXXXXXXX++++o.......",
" XXXXXXXXXXXXXXXXXXXXXX+o.......",
" XXXXXXXXXXXXXXXXXXXXXX+o.......",
" XXXXXXXXXXXXXXXXXXXXXX+o.......",
" XXXXXXXXXXXXXXXXXXXXXX+o.......",
" XXXXXoooXXXXXXXXXXXXXX+o.......",
" XXXXo@@@oooo#XXXXXXXXX+o.......",
" XXXoXXXXXXXXoXXXXXXXXX+o.......",
" XXXoXO$O$O$OoXXXXXXXXX+o.......",
" XXXoX$O@+++XoXXXXXXXXX+o.......",
" XXXoXO@+@@@++oo#XXXXXX+o.......",
" XXX%oooXXXXXXXXoXXXXXX+o.......",
" XXXXXXoXO$O$O$OoXXXXXX+o.......",
" XXXXXXoX$O@+++XoXXXXXX+o.......",
" XXXXXXoXO@+@@@++oo#XXX+o.......",
" XXXXXX%oooXXXXXXXXoXXX+o.......",
" XXXXXXXXXoXO$O$O$OoXXX+o.......",
" XXXXXXXXXoX$O$O$O$oXXX+o.......",
" XXXXXXXXXoXO$O$O$OoXXX+o.......",
" XXXXXXXXX%oooooooo%XXX+o.......",
" XXXXXXXXXXXXXXXXXXXXXX+o.......",
" XXXXXXXXXXXXXXXXXXXXXX+o.......",
" XXXXXXXXXXXXXXXXXXXXXX+o.......",
"   +++++++++++++++++++++o.......",
"...oooooooooooooooooooooo......."};
