/* XPM */
static char * blend_l_xpm[] = {
/* width height ncolors cpp [x_hot y_hot] */
"48 48 11 1 0 0",
/* colors */
" 	s iconGray8	m black	c #212121212121",
".	s none	m none	c none",
"X	s iconColor2	m white	c white",
"o	s iconColor1	m black	c black",
"O	s iconGray2	m white	c #bdbdbdbdbdbd",
"+	s iconGray1	m white	c #dededededede",
"@	s iconGray6	m black	c #636363636363",
"#	s iconColor4	m white	c red",
"$	s iconColor12	m white	c yellow",
"%	s iconColor8	m white	c blue",
"&	s iconColor7	m black	c darkblue",
/* pixels */
"                               .................",
" XXXXXXXXXXXXXXXXXXXXXXXXXXXXoO ................",
" XXXXXXXXXXXXXXXXXXXXXXXXXXXXo+O ...............",
" XXXXXXXXXXXXXXXXXXXXXXXXXXXXoX+O ..............",
" XXXXXXXXXXXXXXXXXXXXXXXXXXXXoXX+O .............",
" XXXXXXXXXXXXXXXXXXXXXXXXXXXXoXXX+O ............",
" XXXXXXXXXXXXXXXXXXXXXXXXXXXXoXXXX+O ...........",
" XXXXXXXXXXXXXXXXXXXXXXXXXXXXoXXXXX+O ..........",
" XXXXXXXXXXXXXXXXXXXXXXXXXXXXooooooooo..........",
" XXXXXXXXXXXXXXXXXXXXXXXXXXXXX@@@@@@@@o.........",
" XXXXXXXXXXXXXXXXXXXXXXXXXXXXXX@@@@@@@o.........",
" XXXXXXXXXXXXXXXXXXXXXXXXXXXXXXXXXXXX@o.........",
" XXXXXXXXXXXXXXXXXXXXXXXXXXXXXXXXXXXX@o.........",
" XXXXXXXXXXXXXXXXXXXXXXXXXXXXXXXXXXXX@o.........",
" XXXXXXXXXXXXX#$#$XXXXXXXXXXXXXXXXXXX@o.........",
" XXXXXXXXXXXX#$#$#$#$XXXXXXXXXXXXXXXX@o.........",
" XXXXXXXXXXXXX#$#$#$#$XXXXXXXXXXXXXXX@o.........",
" XXXXXXXXXXXXXX#$#$#$#$XXXXXXXXXXXXXX@o.........",
" XXXXXXXXXXXXXXX#$#$#$#$XXXXXXXXXXXXX@o.........",
" XXXXXXXXXXXXXXXX#$#$#$#$XXXXXXXXXXXX@o.........",
" XXXXXXXXXXXXXXXXX#$#$#$#$XXXXXXXXXXX@o.........",
" XXXXXXXXXXXXXXXXXX#$#$#$#$#XXXXXXXXX@o.........",
" XXXXXXXXXXXXXXXXXXX#$#$#$#$#XXXXXXXX@o.........",
" XXXX#$#$#$#$#$#$#$#$#$#$#$#$#$XXXXXX@o.........",
" XXX#$#$#$#$#$#$#$#$#$#$#$#$#$#$XXXXX@o.........",
" XXXX#$#$#$#$#$#$#$#$#$#$#$#$#$#$XXXX@o.........",
" XXXXXXXXXXXX$#$#$#$#XXXXX#$#$#$#XXXX@o.........",
" XXXXXXXXXXX$#$#$#$#X%&%&%X#$#$#$#XXX@o.........",
" XXXXXXXXXX$#$#$#$#X%&%&%&%X#$#$#$XXX@o.........",
" XXXXXXXXX$#$#$#$#X%&%&%&%&%X#$#$#XXX@o.........",
" XXXXXXXX$#$#$#$#$X&%&%&%&%&X$#$#$XXX@o.........",
" XXXXXXX$#$#$#$#$#X%&%&%&%&%X#$#$#XXX@o.........",
" XXXXXX$#$#$#$#$#$X&%&%&%&%&X$#$#$XXX@o.........",
" XXXXX$#$#$#XX$#$#$X&%&%&%&X$#$#$#XXX@o.........",
" XXXX$#$#$#XXX#$#$#$X&%&%&X$#$#$#$XXX@o.........",
" XXX$#$#$#XXXX$#$#$#$XXXXX$#$#$#$#XXX@o.........",
" XXX#$#$#XXXXXX$#$#$#$#$#$#$#$#$#XXXX@o.........",
" XXX$#$#XXXXXXXX$#$#$#$#$#$#$#$#$XXXX@o.........",
" XXXXXXXXXXXXXXXX$#$#$#$#$#$#$#XXXXXX@o.........",
" XXXXXXXXXXXXXXXXX$#$#$#$#$#$XXXXXXXX@o.........",
" XXXXXXXXXXXXXXXXXX$#$#$#$#$XXXXXXXXX@o.........",
" XXXXXXXXXXXXXXXXXXXXXXXXXXXXXXXXXXXX@o.........",
" XXXXXXXXXXXXXXXXXXXXXXXXXXXXXXXXXXXX@o.........",
" XXXXXXXXXXXXXXXXXXXXXXXXXXXXXXXXXXXX@o.........",
" XXXXXXXXXXXXXXXXXXXXXXXXXXXXXXXXXXXX@o.........",
" XXXXXXXXXXXXXXXXXXXXXXXXXXXXXXXXXXXX@o.........",
"   @@@@@@@@@@@@@@@@@@@@@@@@@@@@@@@@@@@o.........",
"...oooooooooooooooooooooooooooooooooooo........."};
