/* XPM */
static char * blend_m_xpm[] = {
/* width height ncolors cpp [x_hot y_hot] */
"32 32 10 1 0 0",
/* colors */
" 	s iconGray8	m black	c #212121212121",
".	s none	m none	c none",
"X	s iconColor2	m white	c white",
"o	s iconColor1	m black	c black",
"O	s iconGray1	m white	c #dededededede",
"+	s iconGray6	m black	c #636363636363",
"@	s iconColor12	m white	c yellow",
"#	s iconColor4	m white	c red",
"$	s iconColor7	m black	c darkblue",
"%	s iconColor8	m white	c blue",
/* pixels */
"                    ............",
" XXXXXXXXXXXXXXXXXoO ...........",
" XXXXXXXXXXXXXXXXXoXO ..........",
" XXXXXXXXXXXXXXXXXoXXO .........",
" XXXXXXXXXXXXXXXXXoXXXO ........",
" XXXXXXXXXXXXXXXXXoooooo........",
" XXXXXXXXXXXXXXXXXX+++++o.......",
" XXXXXXXXXXXXXXXXXXX++++o.......",
" XXXXXXXXXXXXXXXXXXXXXX+o.......",
" XXXXXX@#@XXXXXXXXXXXXX+o.......",
" XXXXXX#@#@XXXXXXXXXXXX+o.......",
" XXXXXXX#@#@XXXXXXXXXXX+o.......",
" XXXXXXXX#@#@XXXXXXXXXX+o.......",
" XXXXXXXXX#@#@XXXXXXXXX+o.......",
" XXXXXXXXXX#@#@#XXXXXXX+o.......",
" X#@#@#@#@#@#@#@#@XXXXX+o.......",
" X@#@#@#@#@#@#@#@#@XXXX+o.......",
" XXXXXXX#@#@XXX@#@#XXXX+o.......",
" XXXXXX#@#@X$%$X@#@#XXX+o.......",
" XXXXX#@#@X$%$%$X@#@XXX+o.......",
" XXXX#@#@#X%$%$%X#@#XXX+o.......",
" XXX#@#@#@X$%$%$X@#@XXX+o.......",
" XX#@#XX@#@X$%$X@#@#XXX+o.......",
" X#@#XXX#@#@XXX@#@#XXXX+o.......",
" X##XXXXX#@#@#@#@#@XXXX+o.......",
" XXXXXXXXX#@#@#@#@XXXXX+o.......",
" XXXXXXXXXX#@#@#XXXXXXX+o.......",
" XXXXXXXXXXXXXXXXXXXXXX+o.......",
" XXXXXXXXXXXXXXXXXXXXXX+o.......",
" XXXXXXXXXXXXXXXXXXXXXX+o.......",
"   +++++++++++++++++++++o.......",
"...oooooooooooooooooooooo......."};
