/* XPM */
static char * blend_t_xpm[] = {
/* width height ncolors cpp [x_hot y_hot] */
"16 16 9 1 0 0",
/* colors */
" 	s iconGray8	m black	c #212121212121",
".	s none	m none	c none",
"X	s iconColor2	m white	c white",
"o	s iconColor1	m black	c black",
"O	s iconGray1	m white	c #dededededede",
"+	s iconGray6	m black	c #636363636363",
"@	s iconColor12	m white	c yellow",
"#	s iconColor4	m white	c red",
"$	s iconColor7	m black	c darkblue",
/* pixels */
"          ......",
" XXXXXXXoO .....",
" XXXXXXXoXO ....",
" XXXXXXXoooo....",
" XXXXXXXX+++o...",
" XX@XXXXXX++o...",
" XX#@X@XXXX+o...",
" XXX#@#@XXX+o...",
" #@#@#@#@XX+o...",
" XXX#@X@#@X+o...",
" XX#@X$X@#X+o...",
" X#@#@X@#@X+o...",
" XXX@#@#@XX+o...",
" XXXX@X@XXX+o...",
" +++++++++++o...",
"..ooooooooooo..."};
