/* XPM */
static char * javac_l_xpm[] = {
/* width height ncolors cpp [x_hot y_hot] */
"48 48 14 1 0 0",
/* colors */
" 	s Gray8	m black	c #212121212121",
".	s none	m none	c none",
"X	s Color2	m white	c white",
"o	s Color1	m black	c black",
"O	s Gray2	m white	c #bdbdbdbdbdbd",
"+	s Gray1	m white	c #dededededede",
"@	s Gray6	m black	c #636363636363",
"#	s Gray5	m black	c #737373737373",
"$	s Color3	m black	c darkred",
"%	s Color7	m black	c darkblue",
"&	s Gray7	m black	c #424242424242",
"*	s Color12	m white	c yellow",
"=	s Color11	m black	c darkkhaki",
"-	s Gray4	m white	c #949494949494",
/* pixels */
"                               .................",
" XXXXXXXXXXXXXXXXXXXXXXXXXXXXoO ................",
" XXXXXXXXXXXXXXXXXXXXXXXXXXXXo+O ...............",
" XXXXXXXXXXXXXXXXXXXXXXXXXXXXoX+O ..............",
" XXXXXXXXXXXXXXXXXXXXXXXXXXXXoXX+O .............",
" XXXXXXXXXXXXXXXXXXXXXXXXXXXXoXXX+O ............",
" XXXXXXXXXXXXXXXXXXXXXXXXXXXXoXXXX+O ...........",
" XXXXXXXXXXXXXXXXXXXXXXXXXXXXoXXXXX+O ..........",
" XXXXXXXXXXXXXXXXXXXXXXXXXXXXooooooooo..........",
" XXXXXXXXXXXXXXXXXXXXXXXXXXXXX@@@@@@@@o.........",
" XXXXXXXXXXXXXXXXXXXXXXXXXXXXXX@@@@@@@o.........",
" XXXXXXXXXXXXXXXXXXXXXXXXXXXXXXXXXXXX@o.........",
" XXXXXXXXXXXXXXXXXXXXXXXXXXXXXXXXXXXX@o.........",
" XXXXXXXXXXXXXXXXX#XXXXXXXXXXXXXXXXXX@o.........",
" XXXXXXXXXXXXXXXX#$XXXXXXXXXXXXXXXXXX@o.........",
" XXXXXXXXXXXXXXX+$#XXXXXXXXXXXXXXXXXX@o.........",
" XXXXXXXXXXXXXXX$#XXX#XXXXXXXXXXXXXXX@o.........",
" XXXXXXXXXXXXXX$#$XXX$XXXXXXXXXXXXXXX@o.........",
" XXXXXXXXXXXXX$#$XXXX#XXXXXXXXXXXXXXX@o.........",
" XXXXXXXXXXXX$#$#XXX#$XXXXXXXXXXXXXXX@o.........",
" XXXXXXXXXXX+#$#+XX#$#XXXXXXXXXXXXXXX@o.........",
" XXXXXXXXXXX#$#$XX#$#$XXXXXXXXXXXXXXX@o.........",
" XXXXXXXXXXX$#$#XX$#$+XXXXXXXXXXXXXXX@o.........",
" XXXXXXXXXXX#$#$XX#$#XXXXXXXXXXXXXXXX@o.........",
" XXXXXXXXXXX$#$#+X$#$+XXXXXXXXXXXXXXX@o.........",
" XXXXXXXXXXXX$#$#XX$#$XXXXXXXXXXXXXXX@o.........",
" XXXXXX%%%%%XX$#$#X+$#XXXXXO%XXXXX# #@o.........",
" XXXXX%%OXXXXXX+#$XX#$XXXXX%%XX &O#*#@@ ........",
" XXXXX%%%XXXXXXXX#X#$XXXXXO%OX **&*=*@** .......",
" XXXXXX%%%%%%%%OXXXXXXXXO%XXXX@**======*&.......",
" XXXXXXXX%%%%%%%%%%%%%%%%XXXXXO@=======&........",
" XXXXXXXX%%XXXXXXXXXXXXXXXXXX##*==-o-==*##......",
" XXXXXXXXX%%%%%%%-OXXXXXO%XXX **==ooo*==* ......",
" XXXXXXXXXX%%%%%%%%%%%%%%XXX%##===-o*===&&......",
" XXXXXXXXXXXXXXXXXXXXXXXXXX%%--@===*===@@.......",
" XXXXXXXXXX%%XXXXXXXXXXXXXXXXO@**=======#----...",
" XXXXXXXXXXX%%%%%-OXXXXO%XXXXX *=@*==@=@@&**&@..",
" XXXX%%%%%XXX%%%%%%%%%%%XXXXXXO @O#*#@#@*@==@*o.",
" XXX%%%OXXXXXXXXXXXXXXXXXXXXXXXOOX# #@o&@====@&.",
" XXXX%%%%%%%%%%%%%%%%%%%%%%%%XXXXXOOO@o*==& *=*@",
" XXXXXO%%%%OXXXXXXXXXXXX%%%%%XXXXXXXX@o*== &*=*@",
" XXXXXXXXO%%%%%%%%%%%%%%%%%OXXXXXXXXX@o&@=**=@@o",
" XXXXXXXXXXXXXXXXXXXXXXXXXXXXXXXXXXXX@oo*@==@*o.",
" XXXXXXXXXXXXXXXXXXXXXXXXXXXXXXXXXXXX@o.-&**&@..",
" XXXXXXXXXXXXXXXXXXXXXXXXXXXXXXXXXXXX@o...oo....",
" XXXXXXXXXXXXXXXXXXXXXXXXXXXXXXXXXXXX@o.........",
"   @@@@@@@@@@@@@@@@@@@@@@@@@@@@@@@@@@@o.........",
"...oooooooooooooooooooooooooooooooooooo........."};
