/* XPM */
static char * javac_m_xpm[] = {
/* width height ncolors cpp [x_hot y_hot] */
"32 32 13 1 0 0",
/* colors */
" 	s Gray8	m black	c #212121212121",
".	s none	m none	c none",
"X	s Color2	m white	c white",
"o	s Color1	m black	c black",
"O	s Gray1	m white	c #dededededede",
"+	s Gray4	m white	c #949494949494",
"@	s Gray6	m black	c #636363636363",
"#	s Color3	m black	c darkred",
"$	s Color7	m black	c darkblue",
"%	s Gray5	m black	c #737373737373",
"&	s Gray7	m black	c #424242424242",
"*	s Color12	m white	c yellow",
"=	s Color11	m black	c darkkhaki",
/* pixels */
"                    ............",
" XXXXXXXXXXXXXXXXXoO ...........",
" XXXXXXXXXXXXXXXXXoXO ..........",
" XXXXXXXXXXXXXXXXXoXXO .........",
" XXXXXXXXXXXXXXXXXoXXXO ........",
" XXXXXXXXXXXXXXXXXoooooo........",
" XXXXXXXXXXX+XXXXXX@@@@@o.......",
" XXXXXXXXXXX#XXXXXXX@@@@o.......",
" XXXXXXXXXX#+XX#XXXXXXX@o.......",
" XXXXXXXXX#+XX#+XXXXXXX@o.......",
" XXXXXXXX#+XX#+XXXXXXXX@o.......",
" XXXXXXX#+#X#+XXXXXXXXX@o.......",
" XXXXXXX+#+X+#XXXXXXXXX@o.......",
" XXXXXXX#+#X#+#XXXXXXXX@o.......",
" XXXXXXX+#+#X#+XXXXXXXX@o.......",
" XXXX$$XX+#+#X#+XXXXXXX@o.......",
" XXX$$XXXXX#+X+XXX$$XXX@o.......",
" XXX$$$$$XXXXXXXX$XX++++o.......",
" XXXXX$$$$$$$$$$XX%+&**&@.......",
" XXXXX$XXXXXXXXXX%+*@==@*o......",
" XXXXXX$$XXXXXXXX+&@====@&......",
" XXXXXX$$$$$$$$$X+*==& *=*@.....",
" XXXXXXX$XXXXXXXX+*== &*=*@++...",
" XXXX$$XX$$$$$$$XX&@=**=@@+*&+..",
" XX$$XXXXXXXXXXXXX+*@==@*&*==*+.",
" XXX$$$$$$$$$$$$$$X+&**&@o=&%=*o",
" XXXXXX$$$$$$$$$$XXX@@@@o*=%&=&o",
" XXXXXXXXXXXXXXXXXXXXXX@oo*==*@o",
" XXXXXXXXXXXXXXXXXXXXXX@o.o&*@o.",
" XXXXXXXXXXXXXXXXXXXXXX@o..ooo..",
"   @@@@@@@@@@@@@@@@@@@@@o.......",
"...oooooooooooooooooooooo......."};
