/* XPM */
static char * java_s_xpm[] = {
/* width height ncolors cpp [x_hot y_hot] */
"24 24 9 1 0 0",
/* colors */
" 	s Gray8	m black	c #212121212121",
".	s none	m none	c none",
"X	s Color2	m white	c white",
"o	s Color3	m black	c darkred",
"O	s Gray5	m black	c #737373737373",
"+	s Gray6	m black	c #636363636363",
"@	s Color1	m black	c black",
"#	s Color7	m black	c darkblue",
"$	s Gray1	m white	c #dededededede",
/* pixels */
"               .........",
" XXXXXXXXXXXX X ........",
" XXXXXXXXXXXX XX .......",
" XXXXXXXXXXXX XXX ......",
" XXXXXXoXXXXX     ......",
" XXXXXoOXXoXXX++++@.....",
" XXXXXOXXoOXXXX+++@.....",
" XXXXOoXoOXXXXXXX+@.....",
" XXXXoOXOoXXXXXXX+@.....",
" XXXXOoXoOoXXXXXX+@.....",
" XXXXoOoXoOXXXXXX+@.....",
" XXXXXoOoXoOXXXXX+@.....",
" XX##XXoOXOXXXXXX+@.....",
" X#XXXXXXXXXXX#XX+@.....",
" XX#########$XX#X+@.....",
" XXX#XXXXXXXXXX#X+@.....",
" XXXX######$XX#XX+@.....",
" XXXX#XXXXXXX#$XX+@.....",
" XXXXX####$XXXXXX+@.....",
" X#XXXXXXXXXX#XXX+@.....",
" XX##########XXXX+@.....",
" XXXXXXXXXXXXXXXX+@.....",
"  ++++++++++++++++@.....",
"..@@@@@@@@@@@@@@@@@....."};
