/* XPM */
static char * kra_m_xpm[] = {
/* width height ncolors cpp [x_hot y_hot] */
"32 32 15 1 0 0",
/* colors */
" 	s Gray8	m black	c #212121212121",
".	s none	m none	c none",
"X	s Color2	m white	c white",
"o	s Color1	m black	c black",
"O	s Gray1	m white	c #dededededede",
"+	s Gray6	m black	c #636363636363",
"@	s Gray2	m white	c #bdbdbdbdbdbd",
"#	s Gray4	m white	c #949494949494",
"$	s Color12	m white	c yellow",
"%	s Gray7	m black	c #424242424242",
"&	s Gray3	m white	c #adadadadadad",
"*	s Color14	m white	c magenta",
"=	s Color13	m black	c darkmagenta",
"-	s Color15	m black	c slateblue",
";	s Color8	m white	c blue",
/* pixels */
"                    ............",
" XXXXXXXXXXXXXXXXXoO ...........",
" XXXXXXXXXXXXXXXXXoXO ..........",
" XXXXXXXXXXXXXXXXXoXXO .........",
" XXXXXXXXXXXXXXXXXoXXXO ........",
" XXXXXXXXXXXXXXXXXoooooo........",
" XXXXXXXXXXXXXXXXXX+++++o.......",
" XXXXXXXXXXXXXXXXXXX++++o.......",
" XXXXXXXXXXXXXXXXXXXXXX+o.......",
" XXXXXXXXXXXXXXXXXXXXXX+o.......",
" XXOOXXXXXXXXXXXXXXXXXX+o.......",
" XX@XOXXXXXXXXXXXXXXXXX+o.......",
" XX#$XOXXXXXXXXXXXXXXXX+o.......",
" XXX+$X@XXXXXXXXXXXXXXX+o.......",
" XXXX+$X@XXXXXXXXXXXXXX+o.......",
" XXXXX%$X@X@&&&&&&XXXXX+o.......",
" XXXXXX%$X&*O*O*O*&@XXX+o.......",
" XXXXXXX%$X&***O*O*O&XX+o.......",
" XXXXXXXX $X%*****O*&XX+o.......",
" XXXXXXXo= $X%*****O*oX+o.......",
" XXXXXXXo== $X+*****OoX+o.......",
" XXXXXXXo-== ;;;***O*oX+o.......",
" XXXXXXXo=-==;;;X;**OoX+o.......",
" XXXXXXXo-====;;;X;**oX+o.......",
" XXXXXXXo=-========*oXX+o.......",
" XXXXXXXXo=-=-=-=-=-oXX+o.......",
" XXXXXXXXXoo-=-=-=ooXXX+o.......",
" XXXXXXXXXXXooooooXXXXX+o.......",
" XXXXXXXXXXXXXXXXXXXXXX+o.......",
" XXXXXXXXXXXXXXXXXXXXXX+o.......",
"   +++++++++++++++++++++o.......",
"...oooooooooooooooooooooo......."};
