/* XPM */
static char * kra_t_xpm[] = {
/* width height ncolors cpp [x_hot y_hot] */
"16 16 12 1 0 0",
/* colors */
" 	s Gray8	m black	c #212121212121",
".	s none	m none	c none",
"X	s Color2	m white	c white",
"o	s Color1	m black	c black",
"O	s Gray1	m white	c #dededededede",
"+	s Gray3	m white	c #adadadadadad",
"@	s Gray6	m black	c #636363636363",
"#	s Gray7	m black	c #424242424242",
"$	s Color12	m white	c yellow",
"%	s Color14	m white	c magenta",
"&	s Color8	m white	c blue",
"*	s Color13	m black	c darkmagenta",
/* pixels */
"          ......",
" XXXXXXXoO .....",
" XXXXXXXoXO ....",
" XXXXXXXoooo....",
" X++XXXXX@@@o...",
" X#$+XXXXX@@o...",
" XX#$+XXXXX@o...",
" XXX#$#XXXX@o...",
" XXXX#$#%%X@o...",
" XXXXX#&X&%@o...",
" XXXXX*&&X%@o...",
" XXXXX**&&%@o...",
" XXXXXX***X@o...",
" XXXXXXXXXX@o...",
" @@@@@@@@@@@o...",
"..ooooooooooo..."};
