/* XPM */
static char * ofcalc_l_xpm[] = {
/* width height ncolors cpp [x_hot y_hot] */
"48 48 11 1 0 0",
/* colors */
" 	s Gray8	m black	c #212121212121",
".	s none	m none	c none",
"X	s Color2	m white	c white",
"o	s Color1	m black	c black",
"O	s Gray2	m white	c #bdbdbdbdbdbd",
"+	s Gray1	m white	c #dededededede",
"@	s Gray6	m black	c #636363636363",
"#	s Gray3	m white	c #adadadadadad",
"$	s Gray4	m white	c #949494949494",
"%	s Gray5	m black	c #737373737373",
"&	s Gray7	m black	c #424242424242",
/* pixels */
"                               .................",
" XXXXXXXXXXXXXXXXXXXXXXXXXXXXoO ................",
" XXXXXXXXXXXXXXXXXXXXXXXXXXXXo+O ...............",
" XXXXXXXXXXXXXXXXXXXXXXXXXXXXoX+O ..............",
" XXXXXXXXXXXXXXXXXXXXXXXXXXXXoXX+O .............",
" XXXXXXXXXXXXXXXXXXXXXXXXXXXXoXXX+O ............",
" XXXXXXXXXXXXXXXXXXXXXXXXXXXXoXXXX+O ...........",
" XXXXXXXXXXXXXXXXXXXXXXXXXXXXoXXXXX+O ..........",
" XXXXXXXXXXXXXXXXXXXXXXXXXXXXooooooooo..........",
" XXXXXXXXXXXXXXXXXXXXXXXXXXXXX@@@@@@@@o.........",
" XXX########################$$$@@@@@@@o.........",
" XXX#XXXXX#XXXXXX#XXXXXX#XXXXXX$XXXXX@o.........",
" XXX#XXXXX#XXXXXX#XXXXXX#XXXXXX$XXXXX@o.........",
" XXX############################XXXXX@o.........",
" XXX#XXXXX#XXXXXX#XXXXXX#XXXXXX#XXXXX@o.........",
" XXX#XXXXX#XXXXXX#XXXXXX#XXXXXX#XXXXX@o.........",
" XXX############################XXXXX@o.........",
" XXX#XXXXX#XX%%%%%%%%%%%%%%%%%%%%%.XX@o.........",
" XXX#XXXXX#XX%XXXXXXXXXXXXXXXXXXXoXXX@o.........",
" XXX#########%XOOOOOOOOOOOOOOOOOOoXXX@o.........",
" XXX#XXXXX#XX%XO&&&&&&&&&&&&&&&&Oo%XX@o.........",
" XXX#XXXXX#XX%XO&@@@@@@@@@@@@@@+Oo%XX@o.........",
" XXX#########%XO&@@@@@@@@&@&@&@+Oo%XX@o.........",
" XXX#XXXXX#XX%XO&@@@@@@@@@@@@@@+Oo%XX@o.........",
" XXX#XXXXX#XX%XO++++++++++++++++Oo%XX@o.........",
" XXX#########%XOOOOOOOOOOOOOOOOOOo%XX@o.........",
" XXX#XXXXX#XX%XO++++OO++++OO++++Oo%XX@o.........",
" XXX#XXXXX#XX%XO+#&$OO+#&$OO+#&$Oo%XX@o.........",
" XXX#########%XO+$$$OO+$$$OO+$$$Oo%XX@o.........",
" XXX#XXXXX#XX%XOOOOOOOOOOOOOOOOOOo%XX@o.........",
" XXX#XXXXX#XX%XO++++OO++++OO++++Oo%XX@o.........",
" XXX#########%XO+#&$OO+#&$OO+#&$Oo%XX@o.........",
" XXX#XXXXX#XX%XO+$$$OO+$$$OO+$$$Oo%XX@o.........",
" XXX#XXXXX#XX%XOOOOOOOOOOOOOOOOOOo%XX@o.........",
" XXX#########%XO++++OO++++OO++++Oo%XX@o.........",
" XXX#XXXXX#XX%XO+#&$OO+#&$OO+#&$Oo%XX@o.........",
" XXX#XXXXX#XX%XO+$$$OO+$$$OO+$$$Oo%XX@o.........",
" XXX#########%XOOOOOOOOOOOOOOOOOOo%XX@o.........",
" XXX#XXXXX#XX%XO++++OO++++OO++++Oo%XX@o.........",
" XXX#XXXXX#XX%XO+#&$OO+#&$OO+#&$Oo%XX@o.........",
" XXX#########%XO+$$$OO+$$$OO+$$$Oo%XX@o.........",
" XXXXXXXXXXXX%XOOOOOOOOOOOOOOOOOOo%XX@o.........",
" XXXXXXXXXXXX%@ooooooooooooooooooo%XX@o.........",
" XXXXXXXXXXXXXXX@@%%%%%%%%%%%%%%%%%XX@o.........",
" XXXXXXXXXXXXXXXXXXXXXXXXXXXXXXXXXXXX@o.........",
" XXXXXXXXXXXXXXXXXXXXXXXXXXXXXXXXXXXX@o.........",
"   @@@@@@@@@@@@@@@@@@@@@@@@@@@@@@@@@@@o.........",
"...oooooooooooooooooooooooooooooooooooo........."};
