/* XPM */
static char * ofcalc_s_xpm[] = {
/* width height ncolors cpp [x_hot y_hot] */
"24 24 11 1 0 0",
/* colors */
" 	s Gray8	m black	c #212121212121",
".	s none	m none	c none",
"X	s Color2	m white	c white",
"o	s Gray3	m white	c #adadadadadad",
"O	s Gray6	m black	c #636363636363",
"+	s Color1	m black	c black",
"@	s Gray5	m black	c #737373737373",
"#	s Gray7	m black	c #424242424242",
"$	s Gray2	m white	c #bdbdbdbdbdbd",
"%	s Gray4	m white	c #949494949494",
"&	s Gray1	m white	c #dededededede",
/* pixels */
"               .........",
" XXXXXXXXXXXX X ........",
" XXXXXXXXXXXX XX .......",
" XXXXXXXXXXXX XXX ......",
" XXXXXXXXXXXX     ......",
" XXoooooooooooOOOO+.....",
" XXoXXXoXXXoXXXOOO+.....",
" XXoooooooooooooXO+.....",
" XXoXXXoXXXoXXXoXO+.....",
" XXooo@@@@@@@@@#XO+.....",
" XXoX.@XXXXXXXX#XO+.....",
" XXooo@X$$$$$$$#XO+.....",
" XXoX.@X$OOOO%$#XO+.....",
" XXooo@X$&&&&&$#XO+.....",
" XXoX.@X$$$$$$$#XO+.....",
" XXooo@X$&%$&%$#XO+.....",
" XXoX.@X$$$$$$$#XO+.....",
" XXooo@X$&%$&%$#XO+.....",
" XXoX.@X$$$$$$$#XO+.....",
" XXooo@X$$$$$$$#XO+.....",
" XXXXX@@########XO+.....",
" XXXXXXXXXXXXXXXXO+.....",
"  OOOOOOOOOOOOOOOO+.....",
"..+++++++++++++++++....."};
