/* XPM */
static char * calc_l_pm[] = {
/* width height ncolors cpp [x_hot y_hot] */
"48 48 10 1 0 0",
/* colors */
" 	s none	m none	c none",
".	s iconGray5	m black	c #737373737373",
"X	s iconColor2	m white	c white",
"o	s iconGray1	m white	c #dededededede",
"O	s iconColor1	m black	c black",
"+	s iconGray4	m white	c #949494949494",
"@	s iconGray2	m white	c #bdbdbdbdbdbd",
"#	s iconGray7	m black	c #424242424242",
"$	s iconGray6	m black	c #636363636363",
"%	s iconGray3	m white	c #adadadadadad",
/* pixels */
"                                                ",
"                                                ",
"    .........................                   ",
"   .XXXXXXXXXXXXXXXXXXXXXXXXX                   ",
"   .XoooooooooooooooooooooooO                   ",
"   .Xo+++++++++++++++++++++oO                   ",
"   .Xo+ooo+ooo+ooo+ooo+ooo+oO...                ",
"   .Xo+++++++++++++++++++++oOXXXo               ",
"   .Xo+ooo+ooo+ooo+ooo+ooo+oO@oOo               ",
"   .Xo+++++++++++++++++++++oO@oOo               ",
"   .Xo+ooo+ooo+ooo+ooo+ooo+oO@oOo               ",
"   .Xo+++++++++++++++++++++oO@oOo               ",
"   .Xo+ooo+ooo+ooo+ooo+ooo+oO@oOo               ",
"   .Xo+++++++++++++++++++++oO@oOo               ",
"   .Xo+ooo+ooo+ooo+ooo+ooo+oO@oOo               ",
"   .Xo+++++++++++++++++++++oO@oOo               ",
"   .Xo+ooo+ooo+ooo+ooo+ooo+oO@oOo               ",
"   .Xo+++++++++++++++++++++oO@oOo               ",
"   .Xo+ooo+ooo+ooo+o.....................       ",
"   .Xo++++++++++++++.XXXXXXXXXXXXXXXXXXXOo      ",
"   .Xo+ooo+ooo+ooo+o.X@@@@@@@@@@@@@@@@@@Oo      ",
"   .Xo++++++++++++++.X@################@Oo      ",
"   .Xo+ooo+ooo+ooo+o.X@#$$$$$$$$$$$$$$o@Oo      ",
"   .Xo++++++++++++++.X@#$$$$$$$$#$#$#$o@Oo      ",
"   .Xo+ooo+ooo+ooo+o.X@#$$$$$$$$$$$$$$o@Oo      ",
"   .Xo++++++++++++++.X@oooooooooooooooo@Oo      ",
"   .Xo+ooo+ooo+ooo+o.X@@@@@@@@@@@@@@@@@@Oo      ",
"   .Xo++++++++++++++.X@oooo@@oooo@@oooo@Oo      ",
"   .Xo+ooo+ooo+ooo+o.X@o%#+@@o%#+@@o%#+@Oo      ",
"   .Xo++++++++++++++.X@o+++@@o+++@@o+++@Oo      ",
"   .Xo+ooo+ooo+ooo+o.X@@@@@@@@@@@@@@@@@@Oo      ",
"   .Xo++++++++++++++.X@oooo@@oooo@@oooo@Oo      ",
"   .Xooooooooooooooo.X@o%#+@@o%#+@@o%#+@Oo      ",
"   .Xooooooooooooooo.X@o+++@@o+++@@o+++@Oo      ",
"   .XOOOOOOOOOOOOOOO.X@@@@@@@@@@@@@@@@@@Oo      ",
"    oooX@@@@@@@@@@@@.X@oooo@@oooo@@oooo@Oo      ",
"      .Xoooooooooooo.X@o%#+@@o%#+@@o%#+@Oo      ",
"      .Xoooooooooooo.X@o+++@@o+++@@o+++@Oo      ",
"      .XOOOOOOOOOOOO.X@@@@@@@@@@@@@@@@@@Oo      ",
"        oooooooooooo.X@oooo@@oooo@@oooo@Oo      ",
"                    .X@o%#+@@o%#+@@o%#+@Oo      ",
"                    .X@o+++@@o+++@@o+++@Oo      ",
"                    .X@@@@@@@@@@@@@@@@@@Oo      ",
"                    .XOOOOOOOOOOOOOOOOOOOo      ",
"                     oooooooooooooooooooo       ",
"                                                ",
"                                                ",
"                                                "};
