/* XPM */
static char * ofcalc_m_xpm[] = {
/* width height ncolors cpp [x_hot y_hot] */
"32 32 9 1 0 0",
/* colors */
" 	s Gray8	m black	c #212121212121",
".	s none	m none	c none",
"X	s Color2	m white	c white",
"o	s Color1	m black	c black",
"O	s Gray1	m white	c #dededededede",
"+	s Gray4	m white	c #949494949494",
"@	s Gray6	m black	c #636363636363",
"#	s Gray5	m black	c #737373737373",
"$	s Gray2	m white	c #bdbdbdbdbdbd",
/* pixels */
"                    ............",
" XXXXXXXXXXXXXXXXXoO ...........",
" XXXXXXXXXXXXXXXXXoXO ..........",
" XXXXXXXXXXXXXXXXXoXXO .........",
" XXXXXXXXXXXXXXXXXoXXXO ........",
" XXXXXXXXXXXXXXXXXoooooo........",
" XX+++++++++++++++X@@@@@o.......",
" XX+XXXX+XXXX+XXXX+X@@@@o.......",
" XX+XXXX+XXXX+XXXX+XXXX@o.......",
" XX++O###############XX@o.......",
" XX+X#XXXXXXXXXXXXXX@oX@o.......",
" XX+X#X$$$$$$$$$$$$$@oX@o.......",
" XX++#X$###########$@oX@o.......",
" XX+X#X$#+++++++++O$@oX@o.......",
" XX+X#X$#+++@+@+@+O$@oX@o.......",
" XX++#X$OOOOOOOOOOO$@oX@o.......",
" XX+X#X$$$$$$$$$$$$$@oX@o.......",
" XX+X#X$OO$OO$OO$OO$@oX@o.......",
" XX++#X$##$##$##$##$@oX@o.......",
" XX+X#X$$$$$$$$$$$$$@oX@o.......",
" XX+X#X$OO$OO$OO$OO$@oX@o.......",
" XX++#X$##$##$##$##$@oX@o.......",
" XX+X#X$$$$$$$$$$$$$@oX@o.......",
" XX+X#X$OO$OO$OO$OO$@oX@o.......",
" XX++#X$##$##$##$##$@oX@o.......",
" XX+X#X$$$$$$$$$$$$$@oX@o.......",
" XX+X#X$$$$$$$$$$$$$@oX@o.......",
" XX++#@@@@@@@@@@@@@@@oX@o.......",
" XXXXXXoooooooooooooooX@o.......",
" XXXXXXXXXXXXXXXXXXXXXX@o.......",
"   @@@@@@@@@@@@@@@@@@@@@o.......",
"...oooooooooooooooooooooo......."};
