/* XPM */
static char * calc_m_pm[] = {
/* width height ncolors cpp [x_hot y_hot] */
"32 32 8 1 0 0",
/* colors */
" 	s none	m none	c none",
".	s iconGray5	m black	c #737373737373",
"X	s iconColor2	m white	c white",
"o	s iconGray1	m white	c #dededededede",
"O	s iconColor1	m black	c black",
"+	s iconGray4	m white	c #949494949494",
"@	s iconGray2	m white	c #bdbdbdbdbdbd",
"#	s iconGray6	m black	c #636363636363",
/* pixels */
" .................              ",
".XXXXXXXXXXXXXXXXX              ",
".XoooooooooooooooO...           ",
".Xo+++++++++++++oOXXX           ",
".Xo+oo+oo+oo+oo+oO@oOo          ",
".Xo+++++++++++++oO@oOo          ",
".Xo+oo+oo+oo+oo+oO@oOo          ",
".Xo+++++++++++++oO@oOo          ",
".Xo+oo+oo+oo+oo+oO@oOo          ",
".Xo+++++++++++++oO@oOo          ",
".Xo+oo+oo+oo+oo+oO@oOo          ",
".Xo+++++++++++++oO@oOo          ",
".Xo+oo+oo+oo...............     ",
".Xo++++++++.XXXXXXXXXXXXXXX     ",
".Xo+oo+oo+o.X@@@@@@@@@@@@@Oo    ",
".Xo++++++++.X@...........@Oo    ",
".Xo+oo+oo+o.X@.+++++++++o@Oo    ",
".Xo++++++++.X@.+++#+#+#+o@Oo    ",
".Xo+oo+oo+o.X@ooooooooooo@Oo    ",
".Xo++++++++.X@@@@@@@@@@@@@Oo    ",
".Xo+oo+oo+o.X@oo@oo@oo@oo@Oo    ",
".Xo++++++++.X@..@..@..@..@Oo    ",
".Xooooooooo.X@@@@@@@@@@@@@Oo    ",
".XOOOOOOOOO.X@oo@oo@oo@oo@Oo    ",
"  .X@@@@@@@.X@..@..@..@..@Oo    ",
"  .Xooooooo.X@@@@@@@@@@@@@Oo    ",
"  .XOOOOOOO.X@oo@oo@oo@oo@Oo    ",
"   oooooooo.X@..@..@..@..@Oo    ",
"           .X@@@@@@@@@@@@@Oo    ",
"           .X@@@@@@@@@@@@@Oo    ",
"           .XOOOOOOOOOOOOOOo    ",
"            oooooooooooooooo    "};
