/* XPM */
static char * draw_s_xpm[] = {
/* width height ncolors cpp [x_hot y_hot] */
"24 24 11 1 0 0",
/* colors */
" 	s none	m none	c none",
".	s iconGray5	m black	c #737373737373",
"X	s iconColor2	m white	c white",
"o	s iconColor1	m black	c black",
"O	s iconGray1	m white	c #dededededede",
"+	s iconGray3	m white	c #adadadadadad",
"@	s iconGray8	m black	c #212121212121",
"#	s iconColor12	m white	c yellow",
"$	s iconGray4	m white	c #949494949494",
"%	s iconGray7	m black	c #424242424242",
"&	s iconGray6	m black	c #636363636363",
/* pixels */
" ................       ",
".XXXXXXXXXXXXXXo..    . ",
".XOOOOOOOOOOOOOoXX   .X ",
".XO+OO+OO+OO+OOoO@X .X# ",
".XOOOOOOOOOOOOOoO@X.X#+ ",
".XOOOOOOOOOOOOOoO@.X#+$ ",
".XO+OO+OO+OO+OOoO.X#+$. ",
".XOOOOOOOOOOOOOo.X#+$.% ",
".XOOOOOOOOOOOOO.X#+$.%& ",
".XO+OO+OO+OO+O.X#+$.%&  ",
".XOOOOOOOOOOO.X#+$.%&   ",
".XOOOOOOOOOOO.#+$.%.    ",
".XO+OO+OO+OO.X+$.%.     ",
".XOOOOOOOOOO.X&.%.X     ",
".XOOOOOOOOO.X.&%.@X     ",
".XO+OO+OO+X.o@..O@X     ",
".XOOOOOOOO.oOOOoO@X     ",
".XOOOOOOOOOOOOOoO@X     ",
".XO+OO+OO+OO+OOoO@X     ",
".XOOOOOOOOOOOOOoO@X     ",
".oooooooooooooooO@X     ",
" .XOOOOOOOOOOOOOO@X     ",
" .X@@@@@@@@@@@@@@@X     ",
"   XXXXXXXXXXXXXXXX     "};
