/* XPM */
static char * draw_m_xpm[] = {
/* width height ncolors cpp [x_hot y_hot] */
"32 32 12 1 0 0",
/* colors */
" 	s none	m none	c none",
".	s iconGray5	m black	c #737373737373",
"X	s iconColor2	m white	c white",
"o	s iconGray7	m black	c #424242424242",
"O	s iconColor12	m white	c yellow",
"+	s iconGray3	m white	c #adadadadadad",
"@	s iconGray1	m white	c #dededededede",
"#	s iconColor1	m black	c black",
"$	s iconGray4	m white	c #949494949494",
"%	s iconGray6	m black	c #636363636363",
"&	s iconGray2	m white	c #bdbdbdbdbdbd",
"*	s iconGray8	m black	c #212121212121",
/* pixels */
"                                ",
"                                ",
"                                ",
"                           .    ",
" .................        .Xo   ",
".XXXXXXXXXXXXXXXXX       .OO+o  ",
".X@@@@@@@@@@@@@@@#...   .XO+$.o ",
".X@$@@$@@$@@$@@$@#XXX  .OO+$.o% ",
".X@@@@@@@@@@@@@@@#&&#@.XO+$.o%  ",
".X@$@@$@@$@@$@@$@#&&#.OO+$.o%   ",
".X@@@@@@@@@@@@@@@#&&.XO+$.o%    ",
".X@$@@$@@$@@$@@$@#&.OO+$.o%     ",
".X@@@@@@@@@@@@@@@#.XO+$.o%      ",
".X@$@@$@@$@@$@@$@.OO+$.o%       ",
".X@@@@@@@@@@@@@@.XO+$.o%        ",
".X@$@@$@@$@@$@@.OO+$.o%         ",
".X@@@@@@@@@@@@.XO+$.o%          ",
".X@$@@$@@$@@$@.O+$.o.@          ",
".X@@@@@@@@@@@.X+$.o.#@          ",
".X@$@@$@@$@@@.X%.o.@#@          ",
".X@@@@@@@@@@.X.%o.@@#@          ",
".X@$@@$@@$@X.#*..#@@#@          ",
".X@@@@@@@@@.#@@@@#@@#@          ",
".X@$@@$@@$@@@@@$@#@@#@          ",
".X@@@@@@@@@@@@@@@#@@#@          ",
".X@$@@$@@$@@$@@$@#@@#@          ",
".X@@@@@@@@@@@@@@@#@@#@          ",
".X################@@#@          ",
"  .X@@@@@@@@@@@@@@@@#@          ",
"  .X@@@@@@@@@@@@@@@@#@          ",
"  .X#################@          ",
"   @@@@@@@@@@@@@@@@@@           "};
