/* XPM */
static char * draw_m_xpm[] = {
/* width height ncolors cpp [x_hot y_hot] */
"32 32 9 1 0 0",
/* colors */
" 	s Gray8	m black	c #212121212121",
".	s none	m none	c none",
"X	s Color2	m white	c white",
"o	s Color1	m black	c black",
"O	s Gray1	m white	c #dededededede",
"+	s Gray6	m black	c #636363636363",
"@	s Color14	m white	c magenta",
"#	s Color12	m white	c yellow",
"$	s Gray4	m white	c #949494949494",
/* pixels */
"                    ............",
" XXXXXXXXXXXXXXXXXoO ...........",
" XXXXXXXXXXXXXXXXXoXO ..........",
" XXXXXXXXXXXXXXXXXoXXO .........",
" XXXXXXXXXXXXXXXXXoXXXO ........",
" XXXXXXXXXXXXXXXXXoooooo........",
" XXXXXXXXXXXXXXXXXX+++++o.......",
" XXXXXXXXXXXXXXXXXXX++++o.......",
" XXXXXXXXXXXXXXXXXXXXXX+o.......",
" XXXXXXXXXXXXXXXXXXXXXX+o.......",
" XXXXXXXXXXXXXXXXXXXXXX+o.......",
" XXXXXXXXXXXXXXXXXXoXXX+o.......",
" XXXXXXXXXXXXXXXXXo@oXX+o.......",
" XXXXXXXXXXXXXXXXo@@@oX+o.......",
" XXXXXXXXXXXXXXXo++@oXX+o.......",
" XXXXXXXXXXXXXXoX#+oXXX+o.......",
" XXXXXXXXXXXXXoX#$oXXXX+o.......",
" XXXXXXXXXXXXoX#$oXXXXX+o.......",
" XXXXXXXXXXXoX#$oXXXXXX+o.......",
" XXXXXXXXXXoX#$oXXXXXXX+o.......",
" XXXXXXXXXoX#$oXXXXXXXX+o.......",
" XXXXXXXXoX#$oXXXXXXXXX+o.......",
" XXXXXXXoX#$oXXXXXXXXXX+o.......",
" XXXXXXoX#$oXXXXXXXXXXX+o.......",
" XXXXXoOO$oXXXXXXXXXXXX+o.......",
" XXXXXoOooXXXXXXXXXXXXX+o.......",
" XXXX$ooXXXXXXXXXXXXXXX+o.......",
" XXXXoXXXXXXXXXXXXXXXXX+o.......",
" XXXXXXXXXXXXXXXXXXXXXX+o.......",
" XXXXXXXXXXXXXXXXXXXXXX+o.......",
"   +++++++++++++++++++++o.......",
"...oooooooooooooooooooooo......."};
