/* XPM */
static char * draw_l_pm[] = {
/* width height ncolors cpp [x_hot y_hot] */
"48 48 12 1 0 0",
/* colors */
" 	       s none m none c none",
".	s iconGray5	m black	c #737373737373",
"X	s iconColor2	m white	c white",
"o	s iconGray1	m white	c #dededededede",
"O	s iconGray7	m black	c #424242424242",
"+	s iconColor1	m black	c black",
"@	s iconColor6	m white	c yellow",
"#	s iconGray4	m white	c #949494949494",
"$	s iconGray3	m white	c #adadadadadad",
"%	s iconGray6	m black	c #636363636363",
"&	s iconGray2	m white	c #bdbdbdbdbdbd",
"*	s iconGray8	m black	c #212121212121",
/* pixels */
"                                                ",
"                                                ",
"                                                ",
"                                                ",
"                                                ",
"                                                ",
"     .........................                  ",
"    .XXXXXXXoXXXXXXXXXXXXXXXXX          O       ",
"    .Xooooooooooooooooooooooo+         .@O      ",
"    .Xo#ooo#ooo#ooo#ooo#ooo#o+        .X@oO     ",
"    .Xooooooooooooooooooooooo+...    .@@o$.O    ",
"    .Xo#o#o#o#o#o#o#o#o#o#o#o+XXXo  .X@o$..O%   ",
"    .Xooooooooooooooooooooooo+&&+o .@@o$..O%%   ",
"    .Xo#ooo#ooo#ooo#ooo#ooo#o+&&+o.X@o$..O%%    ",
"    .Xooooooooooooooooooooooo+&&+.@@o$..O%%     ",
"    .Xo#o#o#o#o#o#o#o#o#o#o#o+&&.X@o$..O%%      ",
"    .Xooooooooooooooooooooooo+&.@@o$..O%%       ",
"    .Xo#ooo#ooo#ooo#ooo#ooo#o+.X@o$..O%%        ",
"    .Xooooooooooooooooooooooo.@@o$..O%%         ",
"    .Xo#o#o#o#o#o#o#o#o#o#oo.X@o$..O%%          ",
"    .Xooooooooooooooooooooo.@@o$..O%%           ",
"    .Xo#ooo#ooo#ooo#ooo#oo.X@o$..O%%            ",
"    .Xooooooooooooooooooo.@@o$..O%%             ",
"    .Xo#o#o#o#o#o#o#o#o#.X@o$..OO%              ",
"    .Xooooooooooooooooo.@@o$..O%%o              ",
"    .Xo#ooo#ooo#ooo#oo.X@o$..O%%+o              ",
"    .XoooooooooooooooOXX.$..O%%o+o              ",
"    .Xo#o#o#o#o#o#o#oOXo%..O%%&o+o              ",
"    .XooooooooooooooOXo..%O%%+&o+o              ",
"    .Xo#ooo#ooo#ooooOX.....%o+&o+o              ",
"    .XooooooooooooooOo.OO.%oo+&o+o              ",
"    .Xo#o#o#o#o#o#o**++oooo#o+&o+o              ",
"    .Xooooooooooooo**oooooooo+&o+o              ",
"    .Xo#ooo#ooo#ooo#ooo#ooo#o+&o+o              ",
"    .Xooooooooooooooooooooooo+&o+o              ",
"    .Xo#o#o#o#o#o#o#o#o#o#o#o+&o+o              ",
"    .Xooooooooooooooooooooooo+&o+o              ",
"    .Xooooooooooooooooooooooo+&o+o              ",
"    .X++++++++++++++++++++++++&o+o              ",
"     oooX&&&&&&&&&&&&&&&&&&&&&oo+o              ",
"       .Xooooooooooooooooooooooo+o              ",
"       .Xooooooooooooooooooooooo+o              ",
"       .X++++++++++++++++++++++++o              ",
"         oooooooooooooooooooooooo               ",
"                                                ",
"                                                ",
"                                                ",
"                                                "};
