/* XPM */
static char * wordproc_t_pm[] = {
/* width height ncolors cpp [x_hot y_hot] */
"16 16 11 1 0 0",
/* colors */
" 	s none	m none	c none",
".	s iconGray6	m black	c #636363636363",
"X	s iconGray5	m black	c #737373737373",
"o	s iconColor1	m black	c black",
"O	s iconGray1	m white	c #dededededede",
"+	s iconColor2	m white	c white",
"@	s iconGray8	m black	c #212121212121",
"#	s iconColor5	m black	c blue",
"$	s iconGray7	m black	c #424242424242",
"%	s iconGray4	m white	c #949494949494",
"&	s iconColor6	m white	c yellow",
/* pixels */
" .XoXoXoXoXo..O ",
" .+Oo+o+o+o+o@Oo",
" .+oOoOoOoOoOoo+",
" .+OOOOOOOOOOo+#",
" .+O$$$$$$$Oo+##",
" .+OOOOOOOOo+##o",
" .+O$$$$$O@+##o ",
" .+OOOOOO%@@#oO ",
" .+O$$$O%+&@o@O ",
" .+OOOO%+&oOO@O ",
" .+O$O%+ooO$O@O ",
" .+OOOooOOOOO@O ",
" .+O$$OO$$$$O@O ",
" .+OOOOOOOOOO@O ",
" .+@@@@@@@@@@@O ",
" .OOOOOOOOOOOOO "};
