/* XPM */
static char * ofwp_l_pm[] = {
/* width height ncolors cpp [x_hot y_hot] */
"48 48 12 1 0 0",
/* colors */
" 	s none	m none	c none",
".	s iconColor1	m black	c black",
"X	s iconColor5	m black	c blue",
"o	s iconGray6	m black	c #636363636363",
"O	s iconColor2	m white	c white",
"+	s iconGray8	m black	c #212121212121",
"@	s iconGray1	m white	c #dededededede",
"#	s iconGray4	m white	c #949494949494",
"$	s iconGray5	m black	c #737373737373",
"%	s iconGray7	m black	c #424242424242",
"&	s iconColor6	m white	c yellow",
"*	s iconGray2	m white	c #bdbdbdbdbdbd",
/* pixels */
"      .    .    .    .    .    .    .         .X",
"   ooooOooooOooooOooooOooooOooooOooooOo+@    .XX",
"   oOOO.OOOO.OOOO.OOOO.OOOO.OOOO.OOOO.O+@   .XXO",
"   oO@@#@@@@#@@@@#@@@@#@@@@#@@@@#@@@@#@+@  .XXOX",
"   oO@@@@@@@@@@@@@@@@@@@@@@@@@@@@@@@@@@+@ .XXOX$",
"   oO@@@@@@@@@@@@@@@@@@@@@@@@@@@@@@@@@@+@.XXOX$X",
"   oO@@@@@@@@@@@@@@@@@@@@@@@@@@@@@@@@@@+.XXOX$Xo",
"   oO@@@@@@@@@@@@@@@@@@@@@@@@@@@@@@@@@@.XXOX$XoX",
"   oO@@%%%%@%%%%@%%%%@%%%%%%@@+%+%+@@@.XXOX$XoX%",
"   oO@@@%%@@@%%@@@%%@@@%%@@%%@@@@@@@@.XXOX$XoX%X",
"   oO@@@%%@@@%%@@@%@@@%%@@@%%@+%+%@@.XXOX$XoX%X+",
"   oO@@@%%@@@%%@@%%@@@%%@@@%%@@@@@@.XXOX$XoX%X+X",
"   oO@@@%%@@@%%@@%%@@@%%@@@%%@+%@@.XXOX$XoX%X+X+",
"   oO@@@%%@@@%%@@%@@@%%@@@%%@@@@@.XXOX$XoX%X+X+.",
"   oO@@@%%@@%%%@%%@@@%%%%%%@@+@@.XXOX$XoX%X+X+.$",
"   oO@@@%%@@%%%@%@@@%%@@@@@@@@@.XXOX$XoX%X+X+.$ ",
"   oO@@@%%@%@%%@%@@@%%@@+%++@@.XXOX$XoX%X+X+.$  ",
"   oO@@@%%@%@@%%%@@%%@@@@@@@@@..XX$XoX%X+X+.$   ",
"   oO@@@%%%@@@%%@@@%%@@%+%+@@.+O.$XoX%X+X+.$    ",
"   oO@@@@%%@@@%%@@@%@@@@@@@@.+O+#.oX%X+X+.$     ",
"   oO@@@@%@@@@%@@@%%@@+%+%@.+O+#+$.%X+X+.$      ",
"   oO@@@@%@@@@%@@%%%%@@@@@@@.+#+$+o.+X+.$       ",
"   oO@@@@@@@@@@@@@@@@@+@@@@.O.+$+o+%...+@       ",
"   oO@@@@@@@@@@@@@@@@@@@@@.O&O.+o+%+.@@+@       ",
"   oO@@@+%+%+%+%+%+%+%@@@.O&O&&.+%+.@@@+@       ",
"   oO@@@@@@@@@@@@@@@@@@@.O&O&&*&...@@@@+@       ",
"   oO@@@+%+%+%+%+%+%@@@.O&O&&*&#.@@@@@@+@       ",
"   oO@@@@@@@@@@@@@@@@@.O&O&&*&#.@@@@@@@+@       ",
"   oO@@@+%+%+%+%+%+@@.O&O&&*&#.@@%+%@@@+@       ",
"   oO@@@@@@@@@@@@@@@.O&O&&*&#.@@@@@@@@@+@       ",
"   oO@@@+%+%+%+%+@@.O&O&&*&#.@@%+%+%@@@+@       ",
"   oO@@@@@@@@@@@@@.O&O......@@@@@@@@@@@+@       ",
"   oO@@@+%+%+%+@@.O*..@@@@@@@%+%+%+%@@@+@       ",
"   oO@@@@@@@@@@@.O..@@@@@@@@@@@@@@@@@@@+@       ",
"   oO@@@+%+%+@@.O.@@@%+%+%+%+%+%+%+%@@@+@       ",
"   oO@@@@@@@@@@..@@@@@@@@@@@@@@@@@@@@@@+@       ",
"   oO@@@+%+%+@@@@@@%+%+%+%+%+%+%+%+%@@@+@       ",
"   oO@@@@@@@@@@@@@@@@@@@@@@@@@@@@@@@@@@+@       ",
"   oO@@@+%+%+%+%+%+%+%+%+%+%+%+%+%+%@@@+@       ",
"   oO@@@@@@@@@@@@@@@@@@@@@@@@@@@@@@@@@@+@       ",
"   oO@@@+%+%+%+%+%+%+%+%+%+%+%+%+%+%@@@+@       ",
"   oO@@@@@@@@@@@@@@@@@@@@@@@@@@@@@@@@@@+@       ",
"   oO@@@+%+%+%+%+%+%+%+%+%+%+%+%+%+%@@@+@       ",
"   oO@@@@@@@@@@@@@@@@@@@@@@@@@@@@@@@@@@+@       ",
"   oO@@@@@@@@@@@@@@@@@@@@@@@@@@@@@@@@@@+@       ",
"   oO@@@@@@@@@@@@@@@@@@@@@@@@@@@@@@@@@@+@       ",
"   oO+++++++++++++++++++++++++++++++++++@       ",
"   o@@@@@@@@@@@@@@@@@@@@@@@@@@@@@@@@@@@@@       "};
