/* XPM */
static char * wp_m_xpm[] = {
/* width height ncolors cpp [x_hot y_hot] */
"32 32 11 1 0 0",
/* colors */
" 	s Gray8	m black	c #212121212121",
".	s Color1	m black	c black",
"X	s none	m none	c none",
"o	s Color8	m white	c blue",
"O	s Color2	m white	c white",
"+	s Gray4	m white	c #949494949494",
"@	s Gray6	m black	c #636363636363",
"#	s Gray5	m black	c #737373737373",
"$	s Gray7	m black	c #424242424242",
"%	s Color12	m white	c yellow",
"&	s Gray2	m white	c #bdbdbdbdbdbd",
/* pixels */
"                   .XXXXXXXXX.oO",
" OOOOOOOOOOOOOOOOOO..XXXXXXX.oOo",
" OOOOOOOOOOOOOOOOOO.O.XXXXX.oOo+",
" OOOOOOOOOOOOOOOOOO.OO.XXX.oOo+o",
" OOOOOOOOOOOOOOOOOO.OOO.X.oOo+o@",
" OOOOOOOOOOOOOOOOOO......oOo+o@o",
" OOOOOOOOOOOOOOOOOOO###.oOo+o@o$",
" OO$$O$$O$$$O$$$$OOOO#.oOo+o@o$.",
" OOO$OO$OO$OOO$OO$OOO.oOo+o@o$.X",
" OOO$OO$OO$OO$OOO$OO.oOo+o@o$.XX",
" OOO$O$$OO$OO$OO$OO.oOo+o@o$.XXX",
" OO@OO$$O$OO$$$$OO.oOo+o@o$.XXXX",
" OO$O$O$O$OO$OOOO.oOo+o@o$.XXXXX",
" OO$O$O$O$OO$OOOO .o+o@o$.XXXXXX",
" OO$$OO$$OO$OOOO.O .o@o$.XXXXXXX",
" OO$$OO$$OO$OOOO. @ .o$..XXXXXXX",
" OO$OOO$OO$$$OO.O  $ ..#.XXXXXXX",
" OOOOOOOOOOOOO.O%&.  .O#.XXXXXXX",
" OO $ $ $ $OO.O%&%+..OO#.XXXXXXX",
" OOOOOOOOOOO.O%&%+.OOOO#.XXXXXXX",
" OO $ $ $OO.O%&%+.OOOOO#.XXXXXXX",
" OOOOOOOOO.O%&%+.OOOOOO#.XXXXXXX",
" OO $ $OO.O.....OO$ $OO#.XXXXXXX",
" OOOOOOO...OOOOOOOOOOOO#.XXXXXXX",
" OO $ O.OOOO$ $ $ $ $OO#.XXXXXXX",
" OOOOOOOOOOOOOOOOOOOOOO#.XXXXXXX",
" OO $ $ $ $ $ $ $ $ $OO#.XXXXXXX",
" OOOOOOOOOOOOOOOOOOOOOO#.XXXXXXX",
" OOOOOOOOOOOOOOOOOOOOOO#.XXXXXXX",
" OOOOOOOOOOOOOOOOOOOOOO#.XXXXXXX",
"   #####################.XXXXXXX",
"XXX......................XXXXXXX"};
