/* XPM */
static char * wp_t_xpm[] = {
/* width height ncolors cpp [x_hot y_hot] */
"16 16 9 1 0 0",
/* colors */
" 	s Gray8	m black	c #212121212121",
".	s Color2	m white	c white",
"X	s none	m none	c none",
"o	s Color8	m white	c blue",
"O	s Color1	m black	c black",
"+	s Gray7	m black	c #424242424242",
"@	s Gray4	m white	c #949494949494",
"#	s Gray5	m black	c #737373737373",
"$	s Color12	m white	c yellow",
/* pixels */
"           .X Xo",
" ........ .O Xoo",
" ........ . .ooO",
" ........  .ooOX",
" .++++++. .ooOXX",
" ....... .ooOXXX",
" .++++. .ooOOXXX",
" .....@  oO#OXXX",
" .++.@.$ O.#OXXX",
" ...@.$O...#OXXX",
" ..@.OO.+..#OXXX",
" ..OO......#OXXX",
" .+..++++..#OXXX",
" ..........#OXXX",
"  ##########OXXX",
"XXOOOOOOOOOOOXXX"};
