/* XPM */
static char * wp_l_xpm[] = {
/* width height ncolors cpp [x_hot y_hot] */
"48 48 11 1 0 0",
/* colors */
" 	s Gray8	m black	c #212121212121",
".	s none	m none	c none",
"X	s Color1	m black	c black",
"o	s Color8	m white	c blue",
"O	s Color2	m white	c white",
"+	s Gray5	m black	c #737373737373",
"@	s Gray6	m black	c #636363636363",
"#	s Gray7	m black	c #424242424242",
"$	s Gray4	m white	c #949494949494",
"%	s Color12	m white	c yellow",
"&	s Gray2	m white	c #bdbdbdbdbdbd",
/* pixels */
"                                 ..........Xoo.o",
" OOOOOOOOOOOOOOOOOOOOOOOOOOOOOOO  ........Xoo.o+",
" OOOOOOOOOOOOOOOOOOOOOOOOOOOOOOO O ......XooOo+o",
" OOOOOOOOOOOOOOOOOOOOOOOOOOOOOOO OO ....XooOo+o@",
" OOOOOOOOOOOOOOOOOOOOOOOOOOOOOOO OOO ..XooOo+o@o",
" OOOOOOOOOOOOOOOOOOOOOOOOOOOOOOO OOOO XooOo+o@o#",
" OOOOOOOOOOOOOOOOOOOOOOOOOOOOOOO     XooOo+o@o#o",
" OOOOOOOOOOOOOOOOOOOOOOOOOOOOOOOO@@@XooOo+o@o#o ",
" OOOO###O####O####O######OO # # OOOXooOo+o@o#o o",
" OOOOO#@OO##OOO##OOO##OO##OOOOOOOOXooOo+o@o#o o ",
" OOOOO#@OO##OOO#OOO##OOO##O # #OOXooOo+o@o#o o X",
" OOOOO#@OO##OO##OOO##OOO##OOOOOOXooOo+o@o#o o X.",
" OOOOO#@OO##OO##OOO##OOO##O #OOXooOo+o@o#o o X..",
" OOOOO#@OO##OO#OOO##OOO##OOOOOXooOo+o@o#o o X...",
" OOOO##OO###O##OOO######OO OOXooOo+o@o#o o X....",
" OOOO##OO###O#OOO##OOOOOOOOOXooOo+o@o#o o X.....",
" OOOO##O#O##O#OOO##OO #  OOXooOo+o@o#o o X......",
" OOOO##O#OO###OO##OOOOOOOOOXXoo+o@o#o o X.......",
" OOOO###OOO##OOO##OO# # OOX OX+o@o#o o X........",
" OOOOO##OOO##OOO#OOOOOOOOX O $X@o#o o X.........",
" OOOOO#OOOO#OOO##OO # #OX O $ +X#o o XX.........",
" OOOOO#OOOO#OO####OOOOOOOX $ + @X o X@X.........",
" OOOOOOOOOOOOOOOOOO OOOOXOX + @ #XXXO@X.........",
" OOOOOOOOOOOOOOOOOOOOOOXO%OX @ # XOOO@X.........",
" OOOO # # # # # # #OOOXO%O%%X # XOOOO@X.........",
" OOOOOOOOOOOOOOOOOOOOXO%O%%&%XXXOOOOO@X.........",
" OOOO # # # # # #OOOXO%O%%&%$XOOOOOOO@X.........",
" OOOOOOOOOOOOOOOOOOXO%O%%&%$XOOOOOOOO@X.........",
" OOOO # # # # # OOXO%O%%&%$XOO# #OOOO@X.........",
" OOOOOOOOOOOOOOOOXO%O%%&%$XOOOOOOOOOO@X.........",
" OOOO # # # # OOXO%O%%&%$XOO# # #OOOO@X.........",
" OOOOOOOOOOOOOOXO%OXXXXXXOOOOOOOOOOOO@X.........",
" OOOO # # # OOXO&XXOOOOOOO# # # #OOOO@X.........",
" OOOOOOOOOOOOXOXXOOOOOOOOOOOOOOOOOOOO@X.........",
" OOOO # # OOXOXOOO# # # # # # # #OOOO@X.........",
" OOOOOOOOOOOXXOOOOOOOOOOOOOOOOOOOOOOO@X.........",
" OOOO # # OOOOOO# # # # # # # # #OOOO@X.........",
" OOOOOOOOOOOOOOOOOOOOOOOOOOOOOOOOOOOO@X.........",
" OOOO # # # # # # # # # # # # # #OOOO@X.........",
" OOOOOOOOOOOOOOOOOOOOOOOOOOOOOOOOOOOO@X.........",
" OOOO # # # # # # # # # # # # # #OOOO@X.........",
" OOOOOOOOOOOOOOOOOOOOOOOOOOOOOOOOOOOO@X.........",
" OOOO # # # # # # # # # # # # # #OOOO@X.........",
" OOOOOOOOOOOOOOOOOOOOOOOOOOOOOOOOOOOO@X.........",
" OOOOOOOOOOOOOOOOOOOOOOOOOOOOOOOOOOOO@X.........",
" OOOOOOOOOOOOOOOOOOOOOOOOOOOOOOOOOOOO@X.........",
"   @@@@@@@@@@@@@@@@@@@@@@@@@@@@@@@@@@@X.........",
"...XXXXXXXXXXXXXXXXXXXXXXXXXXXXXXXXXXXX........."};
