/* XPM */
static char * ofwp_s_xpm[] = {
/* width height ncolors cpp [x_hot y_hot] */
"24 24 14 1 0 0",
/* colors */
" 	s none	m none	c none",
".	s iconColor1	m black	c black",
"X	s iconGray1	m white	c #dededededede",
"o	s iconGray6	m black	c #636363636363",
"O	s iconColor2	m white	c white",
"+	s iconColor8	m white	c blue",
"@	s iconGray3	m white	c #adadadadadad",
"#	s iconGray8	m black	c #212121212121",
"$	s iconGray4	m white	c #949494949494",
"%	s iconGray2	m white	c #bdbdbdbdbdbd",
"&	s iconColor7	m black	c darkblue",
"*	s iconGray7	m black	c #424242424242",
"=	s iconGray5	m black	c #737373737373",
"-	s iconColor12	m white	c yellow",
/* pixels */
" ..  ..  ..  ..  ..   X.",
"oooOoooOoooOoooOoooO  .+",
"oOO.OOO.OOO.OOO.OOoOO.+O",
"oOX@XXX@XXX@XXX@XXoO#+O+",
"oOXXXXXXXXXXXXXXXXo.+O+$",
"oOXXXXXXXXXXXXXXXX.+O+$+",
"oOXXXXXXXXXXXXXXX.+O+$+o",
"oOX##XX##X##%XXX.+O+$+o&",
"oOX#X#X#X%#X#XX.+O+$+o&*",
"oOX#X##XX###XX.+O+$+o&*.",
"oOX%#X#X%#XXXX#.+$+o&*.=",
"oOX##X#X##XXX.O#.+o&*.= ",
"oOXXXXXXXXXXX.#o#.&*.#  ",
"oOXXXXXXXXXX.O##*#..    ",
"oOXooooooXX.O-%.##.O    ",
"oOXXXXXXXX.O-%-$..oO    ",
"oOXooooXX.O-%-$.XXoO    ",
"oOXXXXXX.O-%-$.XXXoO    ",
"oOXooXX.O-%-$.XXXXoO    ",
"oOXXXX.O.....XXXXXoO    ",
"oOXoX...XXXXXXXXXXoO    ",
"oOXXXXXXXXXXXXXXXXoO    ",
"oOoooooooooooooooooO    ",
" OOOOOOOOOOOOOOOOOOO    "};
