/* XPM */
static char * wp_s_xpm[] = {
/* width height ncolors cpp [x_hot y_hot] */
"24 24 12 1 0 0",
/* colors */
" 	s Gray8	m black	c #212121212121",
".	s none	m none	c none",
"X	s Color1	m black	c black",
"o	s Color2	m white	c white",
"O	s Color8	m white	c blue",
"+	s Gray4	m white	c #949494949494",
"@	s Gray6	m black	c #636363636363",
"#	s Gray2	m white	c #bdbdbdbdbdbd",
"$	s Color7	m black	c darkblue",
"%	s Gray1	m white	c #dededededede",
"&	s Gray7	m black	c #424242424242",
"*	s Color12	m white	c yellow",
/* pixels */
"                .......X",
" ooooooooooooooX .....XO",
" ooooooooooooooXo ...XOo",
" ooooooooooooooXoo . OoO",
" ooooooooooooooXXXXXOoO+",
" ooooooooooooooo@@XOoO+O",
" ooooooooooooooooXOoO+O@",
" oo@@oo@@o@@#oooXOoO+O@$",
" oo@%@o@o#@%@ooXOoO+O@$&",
" oo@%@@oo@@@ooXOoO+O@$&X",
" oo#@o@o#@oooo XO+O@$&X.",
" oo@@o@o@@oooXo XO@$&X..",
" ooooooooooooX @ X$&X...",
" oooooooooooXo  & XX....",
" oo@@@@@@ooXo*#X  X.....",
" oooooooooXo*#*+XXX.....",
" oo@@@@ooXo*#*+Xo@X.....",
" oooooooXo*#*+Xoo@X.....",
" oo@@ooXo*#*+Xooo@X.....",
" oooooXoXXXXXoooo@X.....",
" ooooXXXooooooooo@X.....",
" oooooooooooooooo@X.....",
"  @@@@@@@@@@@@@@@@X.....",
"..XXXXXXXXXXXXXXXXX....."};
