/* XPM */
static char * wordproc_m_pm[] = {
/* width height ncolors cpp [x_hot y_hot] */
"32 32 13 1 0 0",
/* colors */
" 	s none	m none	c none",
".	s iconColor1	m black	c black",
"X	s iconGray6	m black	c #636363636363",
"o	s iconColor2	m white	c white",
"O	s iconGray8	m black	c #212121212121",
"+	s iconGray1	m white	c #dededededede",
"@	s iconColor5	m black	c blue",
"#	s iconGray3	m white	c #adadadadadad",
"$	s iconGray4	m white	c #949494949494",
"%	s iconGray7	m black	c #424242424242",
"&	s iconGray5	m black	c #737373737373",
"*	s iconColor6	m white	c yellow",
"=	s iconGray2	m white	c #bdbdbdbdbdbd",
/* pixels */
"   ..  ..  ..  ..  ..  ..      .",
"  XXXoXXXoXXXoXXXoXXXoXXXoXO+ .@",
"  Xoo.ooo.ooo.ooo.ooo.ooo.oO+.@o",
"  Xo+#+++#+++#+++#+++#+++#+O.@o@",
"  Xo+++++++++++++++++++++++.@o@$",
"  Xo++++++++++++++++++++++.@o@$@",
"  Xo+%%%+%%+%%%+%%%%+++++.@o@$@X",
"  Xo++%+++%++%+++%++%+++.@o@$@X@",
"  Xo++%+++%++%++%+++%++.@o@$@X@%",
"  Xo++%++%%++%++%++%++.@o@$@X@%.",
"  Xo++%++%%+%++%%%%++.@o@$@X@%.&",
"  Xo++%+%+%+%++%++++.@o@$@X@%.& ",
"  Xo++%+%+%+%++%++++O.@$@X@%.&  ",
"  Xo++%%++%%++%++++.oO.@X@%.&   ",
"  Xo++%%++%%++%++++.OXO.@%.O+   ",
"  Xo++%+++%++%%%++.oOO%O..+O+   ",
"  Xo+++++++++++++.o*=.OO.++O+   ",
"  Xo++O%O%O%O%++.o*=*$..+++O+   ",
"  Xo+++++++++++.o*=*$.+++++O+   ",
"  Xo++O%O%O%++.o*=*$.++%O++O+   ",
"  Xo+++++++++.o*=*$.+++++++O+   ",
"  Xo++O%O%++.o.....++%O%O++O+   ",
"  Xo+++++++...+++++++++++++O+   ",
"  Xo++O%O+.++++%O%O%O%O%O++O+   ",
"  Xo+++++++++++++++++++++++O+   ",
"  Xo++O%O%O%O%O%O%O%O%O%O++O+   ",
"  Xo+++++++++++++++++++++++O+   ",
"  Xo++O%O%O%O%O%O%O%O%O%O++O+   ",
"  Xo+++++++++++++++++++++++O+   ",
"  Xo+++++++++++++++++++++++O+   ",
"  XoOOOOOOOOOOOOOOOOOOOOOOOO+   ",
"  Xo+++++++++++++++++++++++++   "};
