/* XPM */
static char * package_l_xpm[] = {
/* width height ncolors cpp [x_hot y_hot] */
"48 48 12 1 0 0",
/* colors */
" 	s Gray8	m black	c #212121212121",
".	s none	m none	c none",
"X	s Color2	m white	c white",
"o	s Color1	m black	c black",
"O	s Gray2	m white	c #bdbdbdbdbdbd",
"+	s Gray1	m white	c #dededededede",
"@	s Gray6	m black	c #636363636363",
"#	s Gray4	m white	c #949494949494",
"$	s Color12	m white	c yellow",
"%	s Gray7	m black	c #424242424242",
"&	s Gray5	m black	c #737373737373",
"*	s Color11	m black	c darkkhaki",
/* pixels */
"                               .................",
" XXXXXXXXXXXXXXXXXXXXXXXXXXXXoO ................",
" XXXXXXXXXXXXXXXXXXXXXXXXXXXXo+O ...............",
" XXXXXXXXXXXXXXXXXXXXXXXXXXXXoX+O ..............",
" XXXXXXXXXXXXXXXXXXXXXXXXXXXXoXX+O .............",
" XXXXXXXXXXXXXXXXXXXXXXXXXXXXoXXX+O ............",
" XXXXXXXXXXXXXXXXXXXXXXXXXXXXoXXXX+O ...........",
" XXXXXXXXXXXXXXXXXXXXXXXXXXXXoXXXXX+O ..........",
" XXXXXXXXXXXXXXXXXXXXXXXXXXXXooooooooo..........",
" XXXXXXXXXXXXXXXXXXXXXXXXXXXXX@@@@@@@@o.........",
" XXXXXXXXXXXXXXXXXXXXXXXXXXXXXX@@@@@@@o.........",
" XXXXXXXXXXXXXXXXXXXXXXXXXXXXXXXXXXXX@o.........",
" XXXXXXXXXXXXXXXXXXXXXXXXXXXXXXXXXXXX@o.........",
" XXXXXXXXXXXXXXXXXXXXXXXXXXXXXXXXXXXX@o.........",
" XXXXXXXXXXXXXXXXXXXXXXXXXXXXXXXXXXXX@o.........",
" XXXXXXXXXXXXXXXXXXXXXXXXXXXXXXXXXXXX@o.........",
" XXXXXXXXXXXXXXXXXXXOOOXXXXXXXXXXXXXX@o.........",
" XXXXXXXXXXXXXXXXXX#X$X#XXXXXXXXXXXXX@o.........",
" XXXXXXXXXXXXXXXXX#X$$$X#XXXXXXXXXXXX@o.........",
" XXXXXXXXXXXXXXXX#X$$$$$X#XXXXXXXXXXX@o.........",
" XXXXXXXXXXXXXXX#X$$$$$$$@#XXXXXXXXXX@o.........",
" XXXXXXXXXXXXXX#X$$$$$$$@+X@XXXXXXXXX@o.........",
" XXXXXXXXXXXXX#@$$$$@@$@+$$X#XXXXXXXX@o.........",
" XXXXXXXXXXXX#X+@$$@$$@+$$$$X#XXXXXXX@o.........",
" XXXXXXXXXXX#X$$+@$@$%+$$$$$$X#XXXXXX@o.........",
" XXXXXXXXXX#X$$$$+@@%+$#$$$$$+@XXXXXX@o.........",
" XXXXXXXXX#X$$$$&&+%&&&$$$$$+@@XXXXXX@o.........",
" XXXXXXXX#X$$$$#$$%@@$$$$$$+@*@XXXXXX@o.........",
" XXXXXXXX@+$$$$$$%+@+@$$$$+@**@XXXXXX@o.........",
" XXXXXXXX@@+$$$$@+$@$+@$$+@***@XXXXXX@o.........",
" XXXXXXXX@*@+$$@+@@$$$+@+@****oXXXXXX@o.........",
" XXXXXXXX@**@+@+$$$$$$$+@****oXXXXXXX@o.........",
" XXXXXXXX@***@+$$$$$$$+@@***oXXXXXXXX@o.........",
" XXXXXXXXo***@@+$$$$$+@*@**oXXXXXXXXX@o.........",
" XXXXXXXXXo**@*@+$$$+@**@*oXXXXXXXXXX@o.........",
" XXXXXXXXXXo*@**@+$+@***@oXXXXXXXXXXX@o.........",
" XXXXXXXXXXXo@***@+@****oXXXXXXXXXXXX@o.........",
" XXXXXXXXXXXXo****@****oXXXXXXXXXXXXX@o.........",
" XXXXXXXXXXXXXo***@***oXXXXXXXXXXXXXX@o.........",
" XXXXXXXXXXXXXXo**@**oXXXXXXXXXXXXXXX@o.........",
" XXXXXXXXXXXXXXXo*@*oXXXXXXXXXXXXXXXX@o.........",
" XXXXXXXXXXXXXXXXo@oXXXXXXXXXXXXXXXXX@o.........",
" XXXXXXXXXXXXXXXXXoXXXXXXXXXXXXXXXXXX@o.........",
" XXXXXXXXXXXXXXXXXXXXXXXXXXXXXXXXXXXX@o.........",
" XXXXXXXXXXXXXXXXXXXXXXXXXXXXXXXXXXXX@o.........",
" XXXXXXXXXXXXXXXXXXXXXXXXXXXXXXXXXXXX@o.........",
"   @@@@@@@@@@@@@@@@@@@@@@@@@@@@@@@@@@@o.........",
"...oooooooooooooooooooooooooooooooooooo........."};
