/* XPM */
static char * package_t_xpm[] = {
/* width height ncolors cpp [x_hot y_hot] */
"16 16 8 1 0 0",
/* colors */
" 	s Gray8	m black	c #212121212121",
".	s none	m none	c none",
"X	s Color2	m white	c white",
"o	s Color1	m black	c black",
"O	s Gray1	m white	c #dededededede",
"+	s Gray6	m black	c #636363636363",
"@	s Gray4	m white	c #949494949494",
"#	s Color12	m white	c yellow",
/* pixels */
"          ......",
" XXXXXXXoO .....",
" XXXXXXXoXO ....",
" XXXXXXXoooo....",
" XXXXXXXX+++o...",
" XXXXXXXXX++o...",
" XXXoooXXXX+o...",
" XXoO@OoXXX+o...",
" Xo@@@@@@XX+o...",
" Xo##@##oXX+o...",
" Xo##@##oXX+o...",
" XoooooooXX+o...",
" XXXXXXXXXX+o...",
" XXXXXXXXXX+o...",
" +++++++++++o...",
"..ooooooooooo..."};
