/* XPM */
static char * package_s_xpm[] = {
/* width height ncolors cpp [x_hot y_hot] */
"24 24 9 1 0 0",
/* colors */
" 	s Gray8	m black	c #212121212121",
".	s none	m none	c none",
"X	s Color2	m white	c white",
"o	s Gray3	m white	c #adadadadadad",
"O	s Gray6	m black	c #636363636363",
"+	s Color1	m black	c black",
"@	s Color12	m white	c yellow",
"#	s Gray7	m black	c #424242424242",
"$	s Color11	m black	c darkkhaki",
/* pixels */
"               .........",
" XXXXXXXXXXXX X ........",
" XXXXXXXXXXXX XX .......",
" XXXXXXXXXXXX XXX ......",
" XXXXXXXXXXXX     ......",
" XXXXXXXXoXXXXXOOO+.....",
" XXXXXXXo@oXXXXOOO+.....",
" XXXXXXo@@@oXXXXXO+.....",
" XXXXXo@@O@OoXXXXO+.....",
" XXXXoO@O@O@@oXXXO+.....",
" XXXo@@O#O@@@@OXXO+.....",
" XXo@@@@O@@@@OOXXO+.....",
" XO@@@@O#O@@O$OXXO+.....",
" XOO@@O@O@OO$$OXXO+.....",
" XO$OO@O@@OO$$+XXO+.....",
" XO$OO@@@O$O$+XXXO+.....",
" X+$O$O@O$$O+XXXXO+.....",
" XX+O$$O$$$+XXXXXO+.....",
" XXX+$$O$$+XXXXXXO+.....",
" XXXX+$O$+XXXXXXXO+.....",
" XXXXX+O+XXXXXXXXO+.....",
" XXXXXX+XXXXXXXXXO+.....",
"  OOOOOOOOOOOOOOOO+.....",
"..+++++++++++++++++....."};
