/* XPM */
static char * package_m_xpm[] = {
/* width height ncolors cpp [x_hot y_hot] */
"32 32 10 1 0 0",
/* colors */
" 	s Gray8	m black	c #212121212121",
".	s none	m none	c none",
"X	s Color2	m white	c white",
"o	s Color1	m black	c black",
"O	s Gray1	m white	c #dededededede",
"+	s Gray6	m black	c #636363636363",
"@	s Gray4	m white	c #949494949494",
"#	s Gray2	m white	c #bdbdbdbdbdbd",
"$	s Color12	m white	c yellow",
"%	s Color11	m black	c darkkhaki",
/* pixels */
"                    ............",
" XXXXXXXXXXXXXXXXXoO ...........",
" XXXXXXXXXXXXXXXXXoXO ..........",
" XXXXXXXXXXXXXXXXXoXXO .........",
" XXXXXXXXXXXXXXXXXoXXXO ........",
" XXXXXXXXXXXXXXXXXoooooo........",
" XXXXXXXXXXXXXXXXXX+++++o.......",
" XXXXXXXXXXXXXXXXXXX++++o.......",
" XXXXXXXXXXXXXXXXXXXXXX+o.......",
" XXXXXXXXXXXOXXXXXXXXXX+o.......",
" XXXXXXXXXX@#@XXXXXXXXX+o.......",
" XXXXXXXXX@X$X@XXXXXXXX+o.......",
" XXXXXXXX@X$$$X@XXXXXXX+o.......",
" XXXXXXX@X$$+$+X@XXXXXX+o.......",
" XXXXXX@X+$+$+$$X@XXXXX+o.......",
" XXXXX@X$$+++$$$$X@XXXX+o.......",
" XXXX@X$$$$+$$$$O++XXXX+o.......",
" XXX@X$$$$+++$$O+%+XXXX+o.......",
" XXX++O$$+$+$+O+%%+XXXX+o.......",
" XXX+%+O+$+$$O+%%%oXXXX+o.......",
" XXX+%%+O$$$O++%%oXXXXX+o.......",
" XXXo%%++O$O+%+%oXXXXXX+o.......",
" XXXXo%+%+O+%%+oXXXXXXX+o.......",
" XXXXXo+%%+%%%oXXXXXXXX+o.......",
" XXXXXXo%%+%%oXXXXXXXXX+o.......",
" XXXXXXXo%+%oXXXXXXXXXX+o.......",
" XXXXXXXXo+oXXXXXXXXXXX+o.......",
" XXXXXXXXXoXXXXXXXXXXXX+o.......",
" XXXXXXXXXXXXXXXXXXXXXX+o.......",
" XXXXXXXXXXXXXXXXXXXXXX+o.......",
"   +++++++++++++++++++++o.......",
"...oooooooooooooooooooooo......."};
