/* XPM */
static char * paint_m_xpm[] = {
/* width height ncolors cpp [x_hot y_hot] */
"32 32 8 1 0 0",
/* colors */
" 	s Gray8	m black	c #212121212121",
".	s none	m none	c none",
"X	s Color2	m white	c white",
"o	s Color1	m black	c black",
"O	s Gray1	m white	c #dededededede",
"+	s Gray6	m black	c #636363636363",
"@	s Color3	m black	c darkred",
"#	s Color4	m white	c red",
/* pixels */
"                    ............",
" XXXXXXXXXXXXXXXXXoO ...........",
" XXXXXXXXXXXXXXXXXoXO ..........",
" XXXXXXXXXXXXXXXXXoXXO .........",
" XXXXXXXXXXXXXXXXXoXXXO ........",
" XXXXXXXXXXXXXXXXXoooooo........",
" XXXXXXXXXXXXXXXXXX+++++o.......",
" XXXXXXXXXXXXXXXXXXX++++o.......",
" XXXXXXXXXXXXXXXXXXXXXX+o.......",
" XXXXXXXXXXXXXXXXXXXXXX+o.......",
" XXXXooooXXXXXXXooooXXX+o.......",
" XXXXXooXXXXXXXXXooXXXX+o.......",
" XXXXXXXXXXXXXXXXXXXXXX+o.......",
" XXXXXXXXXXXXXXXXXXXXXX+o.......",
" XXXXXXXXXXXXoXXXXXXXXX+o.......",
" XXXXXXXXXXXXXoXXXXoXXX+o.......",
" XXXXXXXXXXXXooXXXXoXXX+o.......",
" XXXXXXXXXXXXXXXXXXoXXX+o.......",
" XXXXXXXXXXXXXXXXXoXXXX+o.......",
" XXXXXXXXX@@@@@@XXoXXXX+o.......",
" XXXXXXXX@@@@@@@@XoXXXX+o.......",
" XXXXXXX@#######XoXXXXX+o.......",
" XXXXXXXXXX@@@@XXoXXXXX+o.......",
" XXXXXXXXXXXXXXXoXXXXXX+o.......",
" XXXXXXXXXXXXXXoXXXXXXX+o.......",
" XXXXXXXXXXXXXoXXXXXXXX+o.......",
" XXXXXXXooooooXXXXXXXXX+o.......",
" XXXXXXXXXXXXXXXXXXXXXX+o.......",
" XXXXXXXXXXoXXXXXXXXXXX+o.......",
" XXXXXXXXXXXXXXXXXXXXXX+o.......",
"   +++++++++++++++++++++o.......",
"...oooooooooooooooooooooo......."};
