/* XPM */
static char * paint_l_xpm[] = {
/* width height ncolors cpp [x_hot y_hot] */
"48 48 12 1 0 0",
/* colors */
" 	s Gray8	m black	c #212121212121",
".	s none	m none	c none",
"X	s Color2	m white	c white",
"o	s Color1	m black	c black",
"O	s Gray2	m white	c #bdbdbdbdbdbd",
"+	s Gray1	m white	c #dededededede",
"@	s Gray6	m black	c #636363636363",
"#	s Gray4	m white	c #949494949494",
"$	s Gray3	m white	c #adadadadadad",
"%	s Gray7	m black	c #424242424242",
"&	s Color3	m black	c darkred",
"*	s Color4	m white	c red",
/* pixels */
"                               .................",
" XXXXXXXXXXXXXXXXXXXXXXXXXXXXoO ................",
" XXXXXXXXXXXXXXXXXXXXXXXXXXXXo+O ...............",
" XXXXXXXXXXXXXXXXXXXXXXXXXXXXoX+O ..............",
" XXXXXXXXXXXXXXXXXXXXXXXXXXXXoXX+O .............",
" XXXXXXXXXXXXXXXXXXXXXXXXXXXXoXXX+O ............",
" XXXXXXXXXXXXXXXXXXXXXXXXXXXXoXXXX+O ...........",
" XXXXXXXXXXXXXXXXXXXXXXXXXXXXoXXXXX+O ..........",
" XXXXXXXXXXXXXXXXXXXXXXXXXXXXooooooooo..........",
" XXXXXXXXXXXXXXXXXXXXXXXXXXXXX@@@@@@@@o.........",
" XXXXXXXXXXXXXXXXXXXXXXXXXXXXXX@@@@@@@o.........",
" XXXXXXXXXXXXXXXXXXXXXXXXXXXXXXXXXXXX@o.........",
" XXXXXXXXXXXXXXXXXXXXXXXXXXXXXXXXXXXX@o.........",
" XXXXXXXXXXXXXXXXXXXXXXXXXXXXXXXXXXXX@o.........",
" XXXXXXXXXXXXXXXXXXXXXXXXXXXXXXXXXXXX@o.........",
" XXXXXXoooo@XXXXXXXXXXXXXXXX#o@XXXXXX@o.........",
" XXXXXXXXXX$o@XXXXXXXXXXXXX@oXXXXXXXX@o.........",
" XXXXXXX%%%%X@o#XXXXXXXXX#o@@@XXXXXXX@o.........",
" XXXXXX@oo#@@#@o@XXXXXXoXoo#%%XXXXXXX@o.........",
" XXXXXXXXooo@@XXXXXXXXXXX%%%XXXXXXXXX@o.........",
" XXXXXXXXXXXXXXXXXXXXXXXXXXXXXXXXXXXX@o.........",
" XXXXXXXXXXXXXXXXXXXXXXXXXXXXXXXXXXXX@o.........",
" XXXXXXXXXXXXXXXXXXXXXXXXXXXXXXXXXXXX@o.........",
" XXXXXXXXXXXXXXXXXXXXXXXXXXXXXXXXXXXX@o.........",
" XXXXXXXXXXXXXXXXXXXXXXXXXXXXXXXXXXXX@o.........",
" XXXXXXXXXXXXXXXXXXXXXXXXXXXXXoXXXXXX@o.........",
" XXXXXXXXXXXXXXXXXXXXoXXXXXXXXoXXXXXX@o.........",
" XXXXXXXXXXXXXXXXXoooooXXXXXXXoXXXXXX@o.........",
" XXXXXXXXXXXXXXXXXXXXooXXXXXXooXXXXXX@o.........",
" XXXXXXXXXXXXXXXXXXXXXXXXXXX@oXXXXXXX@o.........",
" XXXXXXXXXXXXXXXXXXXXXXXXXXXooXXXXXXX@o.........",
" XXXXXXXXXXXXXXXXX&&&&&XXXXXo@XXXXXXX@o.........",
" XXXXXXXXXXXXXXX&&&&&&&&&XX@oXXXXXXXX@o.........",
" XXXXXXXXXXXXX&&&&&&&&&&&&Xo@XXXXXXXX@o.........",
" XXXXXXXXXXXX&************@oXXXXXXXXX@o.........",
" XXXXXXXXXXXX&&&&******&&XooXXXXXXXXX@o.........",
" XXXXXXXXXXXXXXX@&&&&&&@X@o@XXXXXXXXX@o.........",
" XXXXXXXXXXXXXXXXXXXXXXXXooXXXXXXXXXX@o.........",
" XXXXXXXXXXXXXXXXXXXXXXXoo@XXXXXXXXXX@o.........",
" XXXXXXXXXXXXXXXXXXXXXXoo@XXXXXXXXXXX@o.........",
" XXXXXXXXXXXXXXXXXXXXXoo@XXXXXXXXXXXX@o.........",
" XXXXXXXXXXoooXXXXXXXoo@XXXXXXXXXXXXX@o.........",
" XXXXXXXXXXXXXooooooo@XXXXXXXXXXXXXXX@o.........",
" XXXXXXXXXXXXXXXXXXXXXXXXXXXXXXXXXXXX@o.........",
" XXXXXXXXXXXXXXXXXXXXXXXXXXXXXXXXXXXX@o.........",
" XXXXXXXXXXXXXXXXXXXXXXXXXXXXXXXXXXXX@o.........",
"   @@@@@@@@@@@@@@@@@@@@@@@@@@@@@@@@@@@o.........",
"...oooooooooooooooooooooooooooooooooooo........."};
