/* XPM */
static char * paint_m_xpm[] = {
/* width height ncolors cpp [x_hot y_hot] */
"32 32 9 1 0 0",
/* colors */
" 	s Gray8	m black	c #212121212121",
".	s none	m none	c none",
"X	s Color2	m white	c white",
"o	s Color1	m black	c black",
"O	s Gray1	m white	c #dededededede",
"+	s Gray6	m black	c #636363636363",
"@	s Gray4	m white	c #949494949494",
"#	s Color3	m black	c darkred",
"$	s Color4	m white	c red",
/* pixels */
"                    ............",
" XXXXXXXXXXXXXXXXXoO ...........",
" XXXXXXXXXXXXXXXXXoXO ..........",
" XXXXXXXXXXXXXXXXXoXXO .........",
" XXXXXXXXXXXXXXXXXoXXXO ........",
" XXXXXXXXXXXXXXXXXoooooo........",
" XXXXXXXXXXXXXXXXXX+++++o.......",
" XXXXXXXXXXXXXXXXXXX++++o.......",
" XXXXXXXXXXXXXXXXXXXXXX+o.......",
" XXXooo+XXXXXXXXXX@oXXX+o.......",
" XXXXXXo+XXXXXXXXXoXXXX+o.......",
" XXXoooX+oXXXXXX@o++XXX+o.......",
" XXXX+oo@++XXXXo++ooXXX+o.......",
" XXXXXXXXXXXXXXXXXXXXXX+o.......",
" XXXXXXXXXXXXXXXXXXXXXX+o.......",
" XXXXXXXXXXXXXXXXXXXXXX+o.......",
" XXXXXXXXXXXXXXXXXXXXXX+o.......",
" XXXXXXXXXXXoooXXXXXXXX+o.......",
" XXXXXXXXXXXXXoXXXXXXXX+o.......",
" XXXXXXXXXXXXXXXXXXXXXX+o.......",
" XXXXXXXXXXX###XXXXXXXX+o.......",
" XXXXXXXXX######XXXXXXX+o.......",
" XXXXXXX$$$$$$$$$XXXXXX+o.......",
" XXXXXXX###$$$$#XXXXXXX+o.......",
" XXXXXXXXX+####XXXXXXXX+o.......",
" XXXXXXXXXXXXXXXXXXXXXX+o.......",
" XXXXXXXXXXXXXXXXXXXXXX+o.......",
" XXXXXXXXXXXXXXoXXXXXXX+o.......",
" XXXXXXXXXXoooXXXXXXXXX+o.......",
" XXXXXXXXXXXXXXXXXXXXXX+o.......",
"   +++++++++++++++++++++o.......",
"...oooooooooooooooooooooo......."};
