/* XPM */
static char * paint_s_xpm[] = {
/* width height ncolors cpp [x_hot y_hot] */
"24 24 8 1 0 0",
/* colors */
" 	s Gray8	m black	c #212121212121",
".	s none	m none	c none",
"X	s Color2	m white	c white",
"o	s Gray6	m black	c #636363636363",
"O	s Color1	m black	c black",
"+	s Gray4	m white	c #949494949494",
"@	s Color3	m black	c darkred",
"#	s Color4	m white	c red",
/* pixels */
"               .........",
" XXXXXXXXXXXX X ........",
" XXXXXXXXXXXX XX .......",
" XXXXXXXXXXXX XXX ......",
" XXXXXXXXXXXX     ......",
" XXXXXXXXXXXXXooooO.....",
" XXOOOoXXXXXXX+OooO.....",
" XXXXXOXXXXXXXOXXoO.....",
" XXOOOXOXXXXX+ooXoO.....",
" XXXoOOooXXXOoOOXoO.....",
" XXXXXXXXXXXXXXXXoO.....",
" XXXXXXXXXXXXXXXXoO.....",
" XXXXXXXXXXXXXXXXoO.....",
" XXXXXXXXXOOXXXXXoO.....",
" XXXXXXXXXXOXXXXXoO.....",
" XXXXXXXXXXXXXXXXoO.....",
" XXXXXXX@@@@@XXXXoO.....",
" XXXXXX#######XXXoO.....",
" XXXXXX@@###@XXXXoO.....",
" XXXXXXXo@@@XXXXXoO.....",
" XXXXXXXXXXXXXXXXoO.....",
" XXXXXXXXXXXXXXXXoO.....",
"  ooooooooooooooooO.....",
"..OOOOOOOOOOOOOOOOO....."};
