/* XPM */
static char * paint_s_xpm[] = {
/* width height ncolors cpp [x_hot y_hot] */
"24 24 11 1 0 0",
/* colors */
" 	s Gray8	m black	c #212121212121",
".	s none	m none	c none",
"X	s Color2	m white	c white",
"o	s Gray6	m black	c #636363636363",
"O	s Color1	m black	c black",
"+	s Gray2	m white	c #bdbdbdbdbdbd",
"@	s Gray7	m black	c #424242424242",
"#	s Gray3	m white	c #adadadadadad",
"$	s Gray4	m white	c #949494949494",
"%	s Color3	m black	c darkred",
"&	s Color4	m white	c red",
/* pixels */
"               .........",
" XXXXXXXXXXXX X ........",
" XXXXXXXXXXXX XX .......",
" XXXXXXXXXXXX XXX ......",
" XXXXXXXXXXXX     ......",
" XXXXXXXXXXXXXooooO.....",
" XXXXXXXXXXXXXXXooO.....",
" XX+@@XXXXXXXX++XoO.....",
" XXX+@o@XXXXX@@XXoO.....",
" XXXoO#ooXXXOO#XXoO.....",
" XXXXXXXXXXXXXXXXoO.....",
" XXXXXXXXXXXXXXXXoO.....",
" XXXXXXXXXXXXXXXXoO.....",
" XXXXXXXXooXXXXXXoO.....",
" XXXXXXXXXXXXXX$XoO.....",
" XXXXXXXX%%+XXX$XoO.....",
" XXXXXX%%%%%+X$XXoO.....",
" XXXXX%%&&&%%X$XXoO.....",
" XXXXXXo%%%%XXXXXoO.....",
" XXXXXXXXXXXXXXXXoO.....",
" XXXXXXXX$$XXXXXXoO.....",
" XXXXXXXXXXXXXXXXoO.....",
"  ooooooooooooooooO.....",
"..OOOOOOOOOOOOOOOOO....."};
