/* XPM */
static char * paint_l_xpm[] = {
/* width height ncolors cpp [x_hot y_hot] */
"48 48 9 1 0 0",
/* colors */
" 	s Gray8	m black	c #212121212121",
".	s none	m none	c none",
"X	s Color2	m white	c white",
"o	s Color1	m black	c black",
"O	s Gray2	m white	c #bdbdbdbdbdbd",
"+	s Gray1	m white	c #dededededede",
"@	s Gray6	m black	c #636363636363",
"#	s Color3	m black	c darkred",
"$	s Color4	m white	c red",
/* pixels */
"                               .................",
" XXXXXXXXXXXXXXXXXXXXXXXXXXXXoO ................",
" XXXXXXXXXXXXXXXXXXXXXXXXXXXXo+O ...............",
" XXXXXXXXXXXXXXXXXXXXXXXXXXXXoX+O ..............",
" XXXXXXXXXXXXXXXXXXXXXXXXXXXXoXX+O .............",
" XXXXXXXXXXXXXXXXXXXXXXXXXXXXoXXX+O ............",
" XXXXXXXXXXXXXXXXXXXXXXXXXXXXoXXXX+O ...........",
" XXXXXXXXXXXXXXXXXXXXXXXXXXXXoXXXXX+O ..........",
" XXXXXXXXXXXXXXXXXXXXXXXXXXXXooooooooo..........",
" XXXXXXXXXXXXXXXXXXXXXXXXXXXXX@@@@@@@@o.........",
" XXXXXXXXXXXXXXXXXXXXXXXXXXXXXX@@@@@@@o.........",
" XXXXXXXXXXXXXXXXXXXXXXXXXXXXXXXXXXXX@o.........",
" XXXXXXXXoooo@XXXXXXXXXXXXXXXXXooXXXX@o.........",
" XXXXXXXXoooooo@XXXXXXXXXXXXX@oXXXXXX@o.........",
" XXXXXXXXXXXXoooooXXXXXXXXXXoooooXXXX@o.........",
" XXXXXXXXX@ooooooo@XXXXXXoX@oooooXXXX@o.........",
" XXXXXXXXXXXX@@@XXXXXXXXXXXXXX@@@XXXX@o.........",
" XXXXXXXXXXXXXXXXXXXXXXXXXXXXXXXXXXXX@o.........",
" XXXXXXXXXXXXXXXXXXXXXXXXXXXXXXXXXXXX@o.........",
" XXXXXXXXXXXXXXXXXXXXXXXXXXXXXXXXXXXX@o.........",
" XXXXXXXXXXXXXXXXXXXXXXXXXXXXXXXoXXXX@o.........",
" XXXXXXXXXXXXXXXXXXXXXXoXXXXXXXXoXXXX@o.........",
" XXXXXXXXXXXXXXXXXXXoooooXXXXXXXoXXXX@o.........",
" XXXXXXXXXXXXXXXXXXXXXXooXXXXXXooXXXX@o.........",
" XXXXXXXXXXXXXXXXXXXXXXXXXXXXX@oXXXXX@o.........",
" XXXXXXXXXXXXXXXXXXXXXXXXXXXXXooXXXXX@o.........",
" XXXXXXXXXXXXXXXXXXX#####XXXXXo@XXXXX@o.........",
" XXXXXXXXXXXXXXXX##########XX@oXXXXXX@o.........",
" XXXXXXXXXXXXXX##############o@XXXXXX@o.........",
" XXXXXXXXXXXXX#$$$$$$$$$$$$$@oXXXXXXX@o.........",
" XXXXXXXXXXXXXX####$$$$$$##XooXXXXXXX@o.........",
" XXXXXXXXXXXXXXXXXX######XX@o@XXXXXXX@o.........",
" XXXXXXXXXXXXXXXXXXXXXXXXXXooXXXXXXXX@o.........",
" XXXXXXXXXXXXXXXXXXXXXXXXXoo@XXXXXXXX@o.........",
" XXXXXXXXXXXXXXXXXXXXXXXXoo@XXXXXXXXX@o.........",
" XXXXXXXXXXXXXXXXXXXXXXXoo@XXXXXXXXXX@o.........",
" XXXXXXXXXXXXoooooooooooo@XXXXXXXXXXX@o.........",
" XXXXXXXXXXXXXXXooooooo@XXXXXXXXXXXXX@o.........",
" XXXXXXXXXXXXXXXXXXXXXXXXXXXXXXXXXXXX@o.........",
" XXXXXXXXXXXXXXXXXXXXXXXXXXXXXXXXXXXX@o.........",
" XXXXXXXXXXXXXXXXXXXXXoXXXXXXXXXXXXXX@o.........",
" XXXXXXXXXXXXXXXXXXX@ooXXXXXXXXXXXXXX@o.........",
" XXXXXXXXXXXXXXXXXXXoo@XXXXXXXXXXXXXX@o.........",
" XXXXXXXXXXXXXXXXXXoo@XXXXXXXXXXXXXXX@o.........",
" XXXXXXXXXXXXXXXXXXXXXXXXXXXXXXXXXXXX@o.........",
" XXXXXXXXXXXXXXXXXXXXXXXXXXXXXXXXXXXX@o.........",
"   @@@@@@@@@@@@@@@@@@@@@@@@@@@@@@@@@@@o.........",
"...oooooooooooooooooooooooooooooooooooo........."};
