/* XPM */
static char * picture_l_xpm[] = {
/* width height ncolors cpp [x_hot y_hot] */
"48 48 12 1 0 0",
/* colors */
" 	s Gray8	m black	c #212121212121",
".	s none	m none	c none",
"X	s Color2	m white	c white",
"o	s Color1	m black	c black",
"O	s Gray2	m white	c #bdbdbdbdbdbd",
"+	s Gray1	m white	c #dededededede",
"@	s Gray6	m black	c #636363636363",
"#	s Color10	m white	c cyan",
"$	s Color12	m white	c yellow",
"%	s Color5	m black	c darkgreen",
"&	s Gray3	m white	c #adadadadadad",
"*	s Color11	m black	c darkkhaki",
/* pixels */
"                               .................",
" XXXXXXXXXXXXXXXXXXXXXXXXXXXXoO ................",
" XXXXXXXXXXXXXXXXXXXXXXXXXXXXo+O ...............",
" XXXXXXXXXXXXXXXXXXXXXXXXXXXXoX+O ..............",
" XXXXXXXXXXXXXXXXXXXXXXXXXXXXoXX+O .............",
" XXXXXXXXXXXXXXXXXXXXXXXXXXXXoXXX+O ............",
" XXXXXXXXXXXXXXXXXXXXXXXXXXXXoXXXX+O ...........",
" XXXXXXXXXXXXXXXXXXXXXXXXXXXXoXXXXX+O ..........",
" XXXXXXXXXXXXXXXXXXXXXXXXXXXXooooooooo..........",
" XXXXXXXXXXXXXXXXXXXXXXXXXXXXX@@@@@@@@o.........",
" XXXXXXXXXXXXXXXXXXXXXXXXXXXXXX@@@@@@@o.........",
" XXXXXXXXXXXXXXXXXXXXXXXXXXXXXXXXXXXX@o.........",
" XXXXXXXXXXXXXXXXXXXXXXXXXXXXXXXXXXXX@o.........",
" XXXXXXXXXXXXXXXXXXXXXXXXXXXXXXXXXXXX@o.........",
" XXXXXXXXXXXXXXXXXXXXXXXXXXXXXXXXXXXX@o.........",
" XXXXXXXXXXXXXXXXXXXXXXXXXXXXXXXXXXXX@o.........",
" XXX##############################XXX@o.........",
" XXX###$##########################XXX@o.........",
" XXX#$$$$$########################XXX@o.........",
" XXX#$$$$$########################XXX@o.........",
" XXX$$$$$$$############%##########XXX@o.........",
" XXX#$$$$$############%%%#########XXX@o.........",
" XXX#$$$$$########%###O%o#########XXX@o.........",
" XXX###$##########O%##%%%#########XXX@o.........",
" XXX##############%o##O%o#########XXX@o.........",
" XXX##############O%##%%%##%######XXX@o.........",
" XXX##############%o##O%o##&%#####XXX@o.........",
" XXX###############%%%%%%##%o#####XXX@o.........",
" XXX################%%O%o##&%#####XXX@o.........",
" XXX##################%%%%&%o#####XXX@o.........",
" XXX#############$$$$$O%o%%%######XXX@o.........",
" XXX############$*****%%%###$$$$##XXX@o.........",
" XXX###########*******O%o##$****$#XXX@o.........",
" XXX##$$$$$$##********%%%*********XXX@o.........",
" XXX#$******$*********O%o$$$******XXX@o.........",
" XXX******************%%%*********XXX@o.........",
" XXX********$$$$******O%o*********XXX@o.........",
" XXX*******$$***$**$$$%%%*********XXX@o.........",
" XXX$$$$***************$*****$$$**XXX@o.........",
" XXX****$*************************XXX@o.........",
" XXX******************************XXX@o.........",
" XXX***$$$$$*****$$$****$$*****$$*XXX@o.........",
" XXX**$*****$*********************XXX@o.........",
" XXXXXXXXXXXXXXXXXXXXXXXXXXXXXXXXXXXX@o.........",
" XXXXXXXXXXXXXXXXXXXXXXXXXXXXXXXXXXXX@o.........",
" XXXXXXXXXXXXXXXXXXXXXXXXXXXXXXXXXXXX@o.........",
"   @@@@@@@@@@@@@@@@@@@@@@@@@@@@@@@@@@@o.........",
"...oooooooooooooooooooooooooooooooooooo........."};
