/* XPM */
static char * picture_s_xpm[] = {
/* width height ncolors cpp [x_hot y_hot] */
"24 24 10 1 0 0",
/* colors */
" 	s Gray8	m black	c #212121212121",
".	s none	m none	c none",
"X	s Color2	m white	c white",
"o	s Color1	m black	c black",
"O	s Gray6	m black	c #636363636363",
"+	s Color12	m white	c yellow",
"@	s Color10	m white	c cyan",
"#	s Color5	m black	c darkgreen",
"$	s Gray4	m white	c #949494949494",
"%	s Color11	m black	c darkkhaki",
/* pixels */
"               .........",
" XXXXXXXXXXXX X ........",
" XXXXXXXXXXXX XX .......",
" XXXXXXXXXXXX XXX ......",
"oXXXXXXXXXXXXooooo......",
"oXXXXXXXXXXXXXOOOOo.....",
"oXXXXXXXXXXXXXXXXOo.....",
"oXXXXXXXXXXXXXXXXOo.....",
"oXX+++@@@@@@@@@XXOo.....",
"oXX+++@@@@@#@@@XXOo.....",
"oXX++@@@@@@$#@@XXOo.....",
"oXX@@@@@@#@##@@XXOo.....",
"oXX@@@@@@$@$#@@XXOo.....",
"oXX@@@@@@####@#XXOo.....",
"oXX@@@@@+%#$#@$XXOo.....",
"oXX++@@%%%+##$#XXOo.....",
"oXX%%+%%%+%$##+XXOo.....",
"oXX%%%%%%%%##%%XXOo.....",
"oXX%++%%+%+$#%%XXOo.....",
"oXX+%%+%%+%%%+%XXOo.....",
"oXXXXXXXXXXXXXXXXOo.....",
"oXXXXXXXXXXXXXXXXOo.....",
"  OOOOOOOOOOOOOOOOo.....",
"..ooooooooooooooooo....."};
