/* XPM */
static char * picture_m_xpm[] = {
/* width height ncolors cpp [x_hot y_hot] */
"32 32 11 1 0 0",
/* colors */
" 	s Gray8	m black	c #212121212121",
".	s none	m none	c none",
"X	s Color2	m white	c white",
"o	s Color1	m black	c black",
"O	s Gray1	m white	c #dededededede",
"+	s Gray6	m black	c #636363636363",
"@	s Color12	m white	c yellow",
"#	s Color10	m white	c cyan",
"$	s Gray4	m white	c #949494949494",
"%	s Color5	m black	c darkgreen",
"&	s Color11	m black	c darkkhaki",
/* pixels */
"                    ............",
" XXXXXXXXXXXXXXXXXoO ...........",
" XXXXXXXXXXXXXXXXXoXO ..........",
" XXXXXXXXXXXXXXXXXoXXO .........",
" XXXXXXXXXXXXXXXXXoXXXO ........",
" XXXXXXXXXXXXXXXXXoooooo........",
" XXXXXXXXXXXXXXXXXX+++++o.......",
" XXXXXXXXXXXXXXXXXXX++++o.......",
" XXXXXXXXXXXXXXXXXXXXXX+o.......",
" XXXXXXXXXXXXXXXXXXXXXX+o.......",
" XX@@#O#O#O###O#O#O#OXX+o.......",
" XX@@@#O#O#O#O#O#O#O#XX+o.......",
" XX@@@@#O#O#O##$%#O#OXX+o.......",
" XX@@@#O#O#O%$#%%O#O#XX+o.......",
" XX@@#O#O#O#$%#$%#O#OXX+o.......",
" XX##O#O#O#O%%#%%#$%#XX+o.......",
" XX#O#O#O#O#$%#$%#%%OXX+o.......",
" XXO#O#O#O#O%%%%%#$%#XX+o.......",
" XX#O#O#O#O#O$%$%#%%OXX+o.......",
" XXO#O#O#O#O###%%%%$#XX+o.......",
" XX#O#O#O#O@@@@$%%$@@XX+o.......",
" XXO@@@@#O@&&&&%%##&&XX+o.......",
" XX@&@&&@&&&&&&$%@@&&XX+o.......",
" XX&&&&&&&&&&&&%%&&&&XX+o.......",
" XX&&&&@@&&@&@@$%&&&&XX+o.......",
" XX@@&@&&@&&@&&&@&&&@XX+o.......",
" XX&&@&&&&&&&&&&&&&&&XX+o.......",
" XX&@@@@&&&&@@&&&@&&&XX+o.......",
" XXXXXXXXXXXXXXXXXXXXXX+o.......",
" XXXXXXXXXXXXXXXXXXXXXX+o.......",
"   +++++++++++++++++++++o.......",
"...oooooooooooooooooooooo......."};
