/* XPM */
static char * python_l_xpm[] = {
/* width height ncolors cpp [x_hot y_hot] */
"48 48 9 1 0 0",
/* colors */
" 	s Gray8	m black	c #212121212121",
".	s none	m none	c none",
"X	s Color2	m white	c white",
"o	s Color1	m black	c black",
"O	s Gray2	m white	c #bdbdbdbdbdbd",
"+	s Gray1	m white	c #dededededede",
"@	s Gray6	m black	c #636363636363",
"#	s Color5	m black	c darkgreen",
"$	s Gray4	m white	c #949494949494",
/* pixels */
"                               .................",
" XXXXXXXXXXXXXXXXXXXXXXXXXXXXoO ................",
" XXXXXXXXXXXXXXXXXXXXXXXXXXXXo+O ...............",
" XXXXXXXXXXXXXXXXXXXXXXXXXXXXoX+O ..............",
" XXXXXXXXXXXXXXXXXXXXXXXXXXXXoXX+O .............",
" XXXXXXXXXXXXXXXXXXXXXXXXXXXXoXXX+O ............",
" XXXXXXXXXXXXXXXXXXXXXXXXXXXXoXXXX+O ...........",
" XXXXXXXXXXXXXXXXXXXXXXXXXXXXoXXXXX+O ..........",
" XXXXXXXXXXXXXXXXXXXXXXXXXXXXooooooooo..........",
" XXXXXXXXXXXXXXXXXXXXXXXXXXXXX@@@@@@@@o.........",
" XXXXXXXXXXXXXXXXXXXXXXXXXXXXXX@@@@@@@o.........",
" XXXXXXXXXXXXXXXXXXXXXXXXXXXXXXXXXXXX@o.........",
" XXXXXXXXXXXXXXXXXXXXXXXXXXXXXXXXXXXX@o.........",
" XXXXXXXXXXXXXXXXXXXXXO######XXXXXXXX@o.........",
" XXXXXXXXXXXXXXXXXXXX#####$o##XXXXXXX@o.........",
" XXXXXXXXXXXXXXXXXXX###########XXXXXX@o.........",
" XXXXXXXXXXXXXXXXXX############XXXXXX@o.........",
" XXXXXXXXXXXXXXXXX$###########XXXXXXX@o.........",
" XXXXXXXXXXXXXXXX########XXXXXXXXXXXX@o.........",
" XXXXXXXXXXXXXXX########XXXXXXXXXXXXX@o.........",
" XXXXXXXXXXXXXX#######$XXXXXXXXXXXXXX@o.........",
" XXXXXXXXXXXXX#######XXXXXXXXXXXXXXXX@o.........",
" XXXXXXXXXXXX#######XXXXXXXXXXXXXXXXX@o.........",
" XXXXXXXXXXX#################OXXXXXXX@o.........",
" XXXXXXXXXX$####################XXXXX@o.........",
" XXXXXXXXX$######################XXXX@o.........",
" XXXXXXXX#########################XXX@o.........",
" XXXXXXX##########################XXX@o.........",
" XXXXXX###########OXXXXXXXO#######XXX@o.........",
" XXXXX###########XXXXXXXXXXXX#####XXX@o.........",
" XXXXO###########OXXXXXXXXXO######XXX@o.........",
" XXXX$#############OXXXXXO########XXX@o.........",
" XXXX######$#####################OXXX@o.........",
" XXXX######X#####################XXXX@o.........",
" XXXX######XX##################OX#XXX@o.........",
" XXXX######OXX################XO##XXX@o.........",
" XXXX$######XXXXO$##########XX###XXXX@o.........",
" XXXX+########XXXXXXXXXXXXXXO###XXXXX@o.........",
" XXXXX#########OXXXXXXXXXXO####XXXXXX@o.........",
" XXXXXX######################OXXXXXXX@o.........",
" XXXXXXX###################OXXXXXXXXX@o.........",
" XXXXXXXX+################XXXXXXXXXXX@o.........",
" XXXXXXXXXX$###########OXXXXXXXXXXXXX@o.........",
" XXXXXXXXXXXXXXXXXXXXXXXXXXXXXXXXXXXX@o.........",
" XXXXXXXXXXXXXXXXXXXXXXXXXXXXXXXXXXXX@o.........",
" XXXXXXXXXXXXXXXXXXXXXXXXXXXXXXXXXXXX@o.........",
"   @@@@@@@@@@@@@@@@@@@@@@@@@@@@@@@@@@@o.........",
"...oooooooooooooooooooooooooooooooooooo........."};
