/* XPM */
static char * python_s_xpm[] = {
/* width height ncolors cpp [x_hot y_hot] */
"24 24 11 1 0 0",
/* colors */
" 	s Gray8	m black	c #212121212121",
".	s none	m none	c none",
"X	s Color2	m white	c white",
"o	s Gray6	m black	c #636363636363",
"O	s Color1	m black	c black",
"+	s Color5	m black	c darkgreen",
"@	s Gray4	m white	c #949494949494",
"#	s Gray1	m white	c #dededededede",
"$	s Gray5	m black	c #737373737373",
"%	s Gray3	m white	c #adadadadadad",
"&	s Gray2	m white	c #bdbdbdbdbdbd",
/* pixels */
"               .........",
" XXXXXXXXXXXX X ........",
" XXXXXXXXXXXX XX .......",
" XXXXXXXXXXXX XXX ......",
" XXXXXXXXXXXX     ......",
" XXXXXXXXXXXXXooooO.....",
" XXXXXXXXXXXXXXoooO.....",
" XXXXXXXX+@O++XXXoO.....",
" XXXXXXX++++++XXXoO.....",
" XXXXXX+++++XXXXXoO.....",
" XXXXXX+++XXXXXXXoO.....",
" XXXXX@++@XXXXXXXoO.....",
" XXX@+++++++++#XXoO.....",
" XX@+++++++++++#XoO.....",
" XX+++++++#@++++XoO.....",
" X++++$+++@#++++XoO.....",
" X+++#++++++++++XoO.....",
" X+++%#+++++++@XXoO.....",
" X++++$##@@@@@++XoO.....",
" XX+++++++++++&XXoO.....",
" XXX&+++++++%%XXXoO.....",
" XXXXXXXXXXXXXXXXoO.....",
"  ooooooooooooooooO.....",
"..OOOOOOOOOOOOOOOOO....."};
