/* XPM */
static char * python_m_xpm[] = {
/* width height ncolors cpp [x_hot y_hot] */
"32 32 10 1 0 0",
/* colors */
" 	s Gray8	m black	c #212121212121",
".	s none	m none	c none",
"X	s Color2	m white	c white",
"o	s Color1	m black	c black",
"O	s Gray1	m white	c #dededededede",
"+	s Gray6	m black	c #636363636363",
"@	s Gray4	m white	c #949494949494",
"#	s Color5	m black	c darkgreen",
"$	s Gray3	m white	c #adadadadadad",
"%	s Gray2	m white	c #bdbdbdbdbdbd",
/* pixels */
"                    ............",
" XXXXXXXXXXXXXXXXXoO ...........",
" XXXXXXXXXXXXXXXXXoXO ..........",
" XXXXXXXXXXXXXXXXXoXXO .........",
" XXXXXXXXXXXXXXXXXoXXXO ........",
" XXXXXXXXXXXXXXXXXoooooo........",
" XXXXXXXXXXXXXXXXXX+++++o.......",
" XXXXXXXXXXXXXXXXXXX++++o.......",
" XXXXXXXXXXXXXXXXXXXXXX+o.......",
" XXXXXXXXXXX@#####XXXXX+o.......",
" XXXXXXXXXX@###$o##XXXX+o.......",
" XXXXXXXXX@########XXXX+o.......",
" XXXXXXXX#######XXXXXXX+o.......",
" XXXXXXX#####XXXXXXXXXX+o.......",
" XXXXXX@####XXXXXXXXXXX+o.......",
" XXXXXX############XXXX+o.......",
" XXXXX@#############XXX+o.......",
" XXX@################XX+o.......",
" XX##################XX+o.......",
" X@########%%OOOO####XX+o.......",
" X###################XX+o.......",
" X####@#############XXX+o.......",
" X####XX##########XO#XX+o.......",
" X####@XXX######XO###XX+o.......",
" X######XXXXXXXO####XXX+o.......",
" XX###############OXXXX+o.......",
" XXX############OXXXXXX+o.......",
" XXXXO########OXXXXXXXX+o.......",
" XXXXXXXXXXXXXXXXXXXXXX+o.......",
" XXXXXXXXXXXXXXXXXXXXXX+o.......",
"   +++++++++++++++++++++o.......",
"...oooooooooooooooooooooo......."};
