/* XPM */
static char * python_t_xpm[] = {
/* width height ncolors cpp [x_hot y_hot] */
"16 16 9 1 0 0",
/* colors */
" 	s Gray8	m black	c #212121212121",
".	s none	m none	c none",
"X	s Color2	m white	c white",
"o	s Color1	m black	c black",
"O	s Gray1	m white	c #dededededede",
"+	s Color5	m black	c darkgreen",
"@	s Gray5	m black	c #737373737373",
"#	s Gray6	m black	c #636363636363",
"$	s Gray2	m white	c #bdbdbdbdbdbd",
/* pixels */
"          ......",
" XXXXXXXoO .....",
" XXXXXXXoXO ....",
" XXXXXXXoooo....",
" XXXXX++XX@#o...",
" XXXX++++XX#o...",
" XXXX++XXXX#o...",
" XXXX++XXXX#o...",
" XXX+++++XX#o...",
" XX++++$++X#o...",
" X++$+++++X#o...",
" X++++++$+X#o...",
" XX++++++XX#o...",
" XXXXXXXXXX#o...",
" ###########o...",
"..ooooooooooo..."};
