/* XPM */
static char * r3_l_xpm[] = {
/* width height ncolors cpp [x_hot y_hot] */
"48 48 14 1 0 0",
/* colors */
" 	s Gray8	m black	c #212121212121",
".	s none	m none	c none",
"X	s Color2	m white	c white",
"o	s Color1	m black	c black",
"O	s Gray2	m white	c #bdbdbdbdbdbd",
"+	s Gray1	m white	c #dededededede",
"@	s Gray6	m black	c #636363636363",
"#	s Color8	m white	c blue",
"$	s Gray4	m white	c #949494949494",
"%	s Color7	m black	c darkblue",
"&	s Color4	m white	c red",
"*	s Color3	m black	c darkred",
"=	s Color6	m white	c green",
"-	s Color5	m black	c darkgreen",
/* pixels */
"                               .................",
" XXXXXXXXXXXXXXXXXXXXXXXXXXXXoO ................",
" XXXXXXXXXXXXXXXXXXXXXXXXXXXXo+O ...............",
" XXXXXXXXXXXXXXXXXXXXXXXXXXXXoX+O ..............",
" XXXXXXXXXXXXXXXXXXXXXXXXXXXXoXX+O .............",
" XXXXXXXXXXXXXXXXXXXXXXXXXXXXoXXX+O ............",
" XXXXXXXXXXXXXXXXXXXXXXXXXXXXoXXXX+O ...........",
" XXXXXXXXXXXXXXXXXXXXXXXXXXXXoXXXXX+O ..........",
" XXXXXXXXXXXXXXXXXXXXXXXXXXXXooooooooo..........",
" XXXXXXXXXXXXXXXXXXXXXXXXXXXXX@@@@@@@@o.........",
" XXXXXXXXXXXXXXXXXXXXXXXXXXXXXX@@@@@@@o.........",
" XXXXXXXXXXXXXXXXXXXXXXXXXXXXXXXXXXXX@o.........",
" XXXXXXXXXXXXXXXXXXXXXXXXXXXXXXXXXXXX@o.........",
" XXXXXXXXXXXXXXXXXXXXXXXXXXXXXXXXXXXX@o.........",
" XXXXXXXXXXXXXXXXXXXXXXXXXXXXXXXXXXXX@o.........",
" XXXXXXXXXXXXXXXXXXXXXXXXXXXXXXXXXXXX@o.........",
" XXXXXXXXXXXXXXXXXXXXXXXXXXXXXXXXXXXX@o.........",
" XXXXXXXXXXXXXXX########XXXXXXXXXXXXX@o.........",
" XXXXXXXXXXXXXX##########XXXXXXXXXXXX@o.........",
" XXXXXXXXXXXXX#O#$#@#@####XXXXXXXXXXX@o.........",
" XXXXXXXXXXXXX#%%%%%%%%%%o.XXXXXXXXXX@o.........",
" XXXXXXXXXXXXX#%%%%%%%%%%o.XXXXXXXXXX@o.........",
" XXXXXXXXXXXXX#%%%%%%%%%%o.XXXXXXXXXX@o.........",
" XXXXXXXXXXXXX#%%%%%%%%%%oOOOOOXXXXXX@o.........",
" XXXXXXXXXXXXX#%%%%%%%%%%oOOOOOXXXXXX@o.........",
" XXXXXXXXXXXXX#%%%%%%%%%%oOOOOXXXXXXX@o.........",
" XXXXXXXXXXXXX#%%%%%%%%%#oOOOXXXXXXXX@o.........",
" XXXXXXXXXXXXX#%%%%%%%%##oOOXXXXXXXXX@o.........",
" XXXXXXXXXXXXXooooooooooooOXXXXXXXXXX@o.........",
" XXXXXXXXX&&&&XXXXXXXXXXXXXXXXXXXXXXX@o.........",
" XXXXXXXX&&&*&oXXXXXXXXXXXXXXXXXXXXXX@o.........",
" XXXXXXX&&X&&*&oXXXXXXXoXXXXXXXXXXXXX@o.........",
" XXXXXX&*&&&*&*&oOXXXX==oXXXXXXXXXXXX@o.........",
" XXXXXX&&*&*&*&*oOOXXX==oXXXXXXXXXXXX@o.........",
" XXXXXX&*&*&*&**oOOXX==--oXXXXXXXXXXX@o.........",
" XXXXXX&&*&*&***oOOX==-=--oXXXXXXXXXX@o.........",
" XXXXXXXo******oOOXX===---oOOOOOXXXXX@o.........",
" XXXXXXXXo****oOOXX===-=---oOOOOXXXXX@o.........",
" XXXXXXXXXooooOXXXX==-=----oOOOXXXXXX@o.........",
" XXXXXXXXXXXXXXXXX==-=-=----oOXXXXXXX@o.........",
" XXXXXXXXXXXXXXXX====-=------oXXXXXXX@o.........",
" XXXXXXXXXXXXXXXX=-=-=-=--o-ooXXXXXXX@o.........",
" XXXXXXXXXXXXXXXXXXXXXXXXXXXXXXXXXXXX@o.........",
" XXXXXXXXXXXXXXXXXXXXXXXXXXXXXXXXXXXX@o.........",
" XXXXXXXXXXXXXXXXXXXXXXXXXXXXXXXXXXXX@o.........",
" XXXXXXXXXXXXXXXXXXXXXXXXXXXXXXXXXXXX@o.........",
"   @@@@@@@@@@@@@@@@@@@@@@@@@@@@@@@@@@@o.........",
"...oooooooooooooooooooooooooooooooooooo........."};
