/* XPM */
static char * r3_m_xpm[] = {
/* width height ncolors cpp [x_hot y_hot] */
"32 32 14 1 0 0",
/* colors */
" 	s Gray8	m black	c #212121212121",
".	s none	m none	c none",
"X	s Color2	m white	c white",
"o	s Color1	m black	c black",
"O	s Gray1	m white	c #dededededede",
"+	s Gray6	m black	c #636363636363",
"@	s Color8	m white	c blue",
"#	s Gray2	m white	c #bdbdbdbdbdbd",
"$	s Gray4	m white	c #949494949494",
"%	s Color7	m black	c darkblue",
"&	s Color4	m white	c red",
"*	s Color3	m black	c darkred",
"=	s Color6	m white	c green",
"-	s Color5	m black	c darkgreen",
/* pixels */
"                    ............",
" XXXXXXXXXXXXXXXXXoO ...........",
" XXXXXXXXXXXXXXXXXoXO ..........",
" XXXXXXXXXXXXXXXXXoXXO .........",
" XXXXXXXXXXXXXXXXXoXXXO ........",
" XXXXXXXXXXXXXXXXXoooooo........",
" XXXXXXXXXXXXXXXXXX+++++o.......",
" XXXXXXXXXXXXXXXXXXX++++o.......",
" XXXXXXXXXXXXXXXXXXXXXX+o.......",
" XXXXXXXXXX@@@@@XXXXXXX+o.......",
" XXXXXXXXX@@@@@@@XXXXXX+o.......",
" XXXXXXXX@#@$@$@@@XXXXX+o.......",
" XXXXXXXX@%%%%%%%oXXXXX+o.......",
" XXXXXXXX@%%%%%%%oXXXXX+o.......",
" XXXXXXXX@%%%%%%%o###XX+o.......",
" XXXXXXXX@%%%%%%%o###XX+o.......",
" XXXXXXXX@%%%%%%%o##XXX+o.......",
" XXXXXXXXooooooooo#XXXX+o.......",
" XXXXXXXXXXXXXXXXXXXXXX+o.......",
" XXXX&&*&XXXXXXX=XXXXXX+o.......",
" XXX&X&&*&XXXXX=-oXXXXX+o.......",
" XX*&&&*&*&##X=-=-oXXXX+o.......",
" XX&*&*****###==--oXXXX+o.......",
" XX*&*&***o##==-=--o##X+o.......",
" XX&*&****o##=-=---o##X+o.......",
" XXX&****o##=-=-=---o#X+o.......",
" XXXXoooo##X==-=----o#X+o.......",
" XXXXXXXXXXXooooooooo#X+o.......",
" XXXXXXXXXXXXXXXXXXXXXX+o.......",
" XXXXXXXXXXXXXXXXXXXXXX+o.......",
"   +++++++++++++++++++++o.......",
"...oooooooooooooooooooooo......."};
