/* XPM */
static char * r3_s_xpm[] = {
/* width height ncolors cpp [x_hot y_hot] */
"24 24 16 1 0 0",
/* colors */
" 	s Gray8	m black	c #212121212121",
".	s none	m none	c none",
"X	s Color2	m white	c white",
"o	s Gray6	m black	c #636363636363",
"O	s Color1	m black	c black",
"+	s Color8	m white	c blue",
"@	s Gray3	m white	c #adadadadadad",
"#	s Gray4	m white	c #949494949494",
"$	s Gray5	m black	c #737373737373",
"%	s Color7	m black	c darkblue",
"&	s Gray2	m white	c #bdbdbdbdbdbd",
"*	s Color4	m white	c red",
"=	s Gray1	m white	c #dededededede",
"-	s Color6	m white	c green",
";	s Color3	m black	c darkred",
":	s Color5	m black	c darkgreen",
/* pixels */
"               .........",
" XXXXXXXXXXXX X ........",
" XXXXXXXXXXXX XX .......",
" XXXXXXXXXXXX XXX ......",
" XXXXXXXXXXXX     ......",
" XXXXXXXXXXXXXooooO.....",
" XXXXXXXXXXXXXXoooO.....",
" XXXXXXX++++XXXXXoO.....",
" XXXXXX+@#$++XXXXoO.....",
" XXXXXX+%%%%O&&XXoO.....",
" XXXXXX+%%%%O&&XXoO.....",
" XXXXXX+%%%%O&XXXoO.....",
" XXXXXXOOOOOO&XXXoO.....",
" XX#**#XXXXXXXXXXoO.....",
" X#=***#XXX-&XXXXoO.....",
" X***;;O&X--OXXXXoO.....",
" X*;;;;O&X-:O&&XXoO.....",
" X#*;;O#&-:-:O&XXoO.....",
" XX#OO#&X--::O&XXoO.....",
" XXXXXXX-OOOOOOXXoO.....",
" XXXXXXXXXXXXXXXXoO.....",
" XXXXXXXXXXXXXXXXoO.....",
"  ooooooooooooooooO.....",
"..OOOOOOOOOOOOOOOOO....."};
