/* XPM */
static char * r3_t_xpm[] = {
/* width height ncolors cpp [x_hot y_hot] */
"16 16 14 1 0 0",
/* colors */
" 	s Gray8	m black	c #212121212121",
".	s none	m none	c none",
"X	s Color2	m white	c white",
"o	s Color1	m black	c black",
"O	s Gray1	m white	c #dededededede",
"+	s Gray6	m black	c #636363636363",
"@	s Gray4	m white	c #949494949494",
"#	s Color8	m white	c blue",
"$	s Color7	m black	c darkblue",
"%	s Color4	m white	c red",
"&	s Gray3	m white	c #adadadadadad",
"*	s Color5	m black	c darkgreen",
"=	s Color3	m black	c darkred",
"-	s Color6	m white	c green",
/* pixels */
"          ......",
" XXXXXXXoO .....",
" XXXXXXXoXO ....",
" XXXXXXXoooo....",
" XXXXXXXX+++o...",
" XXXXXXXXX++o...",
" XXXX@##@XX+o...",
" XXXX###$XX+o...",
" XXXX$$$$XX+o...",
" XXXXXXXXXX+o...",
" XX%&XXX*XX+o...",
" X%==XX-*@X+o...",
" X&=&X-***X+o...",
" XXXXXXXXXX+o...",
" +++++++++++o...",
"..ooooooooooo..."};
