/* XPM */
static char * tga_t_xpm[] = {
/* width height ncolors cpp [x_hot y_hot] */
"16 16 8 1 0 0",
/* colors */
" 	s Gray8	m black	c #212121212121",
".	s none	m none	c none",
"X	s Color2	m white	c white",
"o	s Color1	m black	c black",
"O	s Gray1	m white	c #dededededede",
"+	s Gray6	m black	c #636363636363",
"@	s Color9	m black	c darkcyan",
"#	s Gray2	m white	c #bdbdbdbdbdbd",
/* pixels */
"          ......",
" XXXXXXXoO .....",
" XXXXXXXoXO ....",
" XXXXXXXoooo....",
" XXXXXXXX+++o...",
" XXXXXXXXX++o...",
" XXO@@@OXXX+o...",
" X#@@@@@#XX+o...",
" X@@@@@@@XX+o...",
" XX@X@X@@XX+o...",
" X@X@X@X@XX+o...",
" X#X@X@X#XX+o...",
" XX#@X@#XXX+o...",
" XXXXXXXXXX+o...",
" +++++++++++o...",
"..ooooooooooo..."};
