/* XPM */
static char * tga_l_xpm[] = {
/* width height ncolors cpp [x_hot y_hot] */
"48 48 8 1 0 0",
/* colors */
" 	s Gray8	m black	c #212121212121",
".	s none	m none	c none",
"X	s Color2	m white	c white",
"o	s Color1	m black	c black",
"O	s Gray2	m white	c #bdbdbdbdbdbd",
"+	s Gray1	m white	c #dededededede",
"@	s Gray6	m black	c #636363636363",
"#	s Color9	m black	c darkcyan",
/* pixels */
"                               .................",
" XXXXXXXXXXXXXXXXXXXXXXXXXXXXoO ................",
" XXXXXXXXXXXXXXXXXXXXXXXXXXXXo+O ...............",
" XXXXXXXXXXXXXXXXXXXXXXXXXXXXoX+O ..............",
" XXXXXXXXXXXXXXXXXXXXXXXXXXXXoXX+O .............",
" XXXXXXXXXXXXXXXXXXXXXXXXXXXXoXXX+O ............",
" XXXXXXXXXXXXXXXXXXXXXXXXXXXXoXXXX+O ...........",
" XXXXXXXXXXXXXXXXXXXXXXXXXXXXoXXXXX+O ..........",
" XXXXXXXXXXXXXXXXXXXXXXXXXXXXooooooooo..........",
" XXXXXXXXXXXXXXXXXXXXXXXXXXXXX@@@@@@@@o.........",
" XXXXXXXXXXXXXXXXXXXXXXXXXXXXXX@@@@@@@o.........",
" XXXXXXXXXXXXXXXXXXXXXXXXXXXXXXXXXXXX@o.........",
" XXXXXXXXXXXXXXXXXXXXXXXXXXXXXXXXXXXX@o.........",
" XXXXXXXXXXXXXXXXXXXXXXXXXXXXXXXXXXXX@o.........",
" XXXXXXXXXXXXXX########XXXXXXXXXXXXXX@o.........",
" XXXXXXXXXXXX############XXXXXXXXXXXX@o.........",
" XXXXXXXXXX################XXXXXXXXXX@o.........",
" XXXXXXXXX##################XXXXXXXXX@o.........",
" XXXXXXXX####################XXXXXXXX@o.........",
" XXXXXXX######################XXXXXXX@o.........",
" XXXXXX########################XXXXXX@o.........",
" XXXXX##########################XXXXX@o.........",
" XXXXX##########################XXXXX@o.........",
" XXXX############################XXXX@o.........",
" XXXX############################XXXX@o.........",
" XXX##############################XXX@o.........",
" XXX##############################XXX@o.........",
" XXX##############################XXX@o.........",
" XXX##############################XXX@o.........",
" XXXXXX#XXX#XXX###################XXX@o.........",
" XXX#XXX#XXX#XXX##################XXX@o.........",
" XXX###XX##XX##XX#################XXX@o.........",
" XXX###XX##XX##XX#################XXX@o.........",
" XXXX###XX##XX##XX###############XXXX@o.........",
" XXXX###XX##XX##XX###############XXXX@o.........",
" XXXXX###XX##XX##XX#############XXXXX@o.........",
" XXXXX###XX##XX##XX#############XXXXX@o.........",
" XXXXXX###XX##XX##XX###########XXXXXX@o.........",
" XXXXXXX###XX##XX##XX#########XXXXXXX@o.........",
" XXXXXXXX##XX##XX##XX########XXXXXXXX@o.........",
" XXXXXXXXX##XX##XX##XX######XXXXXXXXX@o.........",
" XXXXXXXXXX#XX##XX##XX#####XXXXXXXXXX@o.........",
" XXXXXXXXXXXXXX##XX##XX##XXXXXXXXXXXX@o.........",
" XXXXXXXXXXXXXX##XX##XXXXXXXXXXXXXXXX@o.........",
" XXXXXXXXXXXXXXXXXXXXXXXXXXXXXXXXXXXX@o.........",
" XXXXXXXXXXXXXXXXXXXXXXXXXXXXXXXXXXXX@o.........",
"   @@@@@@@@@@@@@@@@@@@@@@@@@@@@@@@@@@@o.........",
"...oooooooooooooooooooooooooooooooooooo........."};
