/* XPM */
static char * tga_m_xpm[] = {
/* width height ncolors cpp [x_hot y_hot] */
"32 32 7 1 0 0",
/* colors */
" 	s Gray8	m black	c #212121212121",
".	s none	m none	c none",
"X	s Color2	m white	c white",
"o	s Color1	m black	c black",
"O	s Gray1	m white	c #dededededede",
"+	s Gray6	m black	c #636363636363",
"@	s Color9	m black	c darkcyan",
/* pixels */
"                    ............",
" XXXXXXXXXXXXXXXXXoO ...........",
" XXXXXXXXXXXXXXXXXoXO ..........",
" XXXXXXXXXXXXXXXXXoXXO .........",
" XXXXXXXXXXXXXXXXXoXXXO ........",
" XXXXXXXXXXXXXXXXXoooooo........",
" XXXXXXXXXXXXXXXXXX+++++o.......",
" XXXXXXXXXXXXXXXXXXX++++o.......",
" XXXXXXXXXXXXXXXXXXXXXX+o.......",
" XXXXXXXXXXXXXXXXXXXXXX+o.......",
" XXXXXXXXXXXXXXXXXXXXXX+o.......",
" XXXXXXXXXXXXXXXXXXXXXX+o.......",
" XXXXXXXX@@@@@@XXXXXXXX+o.......",
" XXXXXXX@@@@@@@@XXXXXXX+o.......",
" XXXXX@@@@@@@@@@@@XXXXX+o.......",
" XXXX@@@@@@@@@@@@@@XXXX+o.......",
" XXXX@@@@@@@@@@@@@@XXXX+o.......",
" XXX@@@@@@@@@@@@@@@@XXX+o.......",
" XXX@@@@@@@@@@@@@@@@XXX+o.......",
" XXXXX@@XX@@XX@@@@@@XXX+o.......",
" XXXXXX@XXX@XXX@@@@@XXX+o.......",
" XXX@XX@@XX@@XX@@@@@XXX+o.......",
" XXX@@XX@@XX@@XX@@@@XXX+o.......",
" XXXX@XX@@XX@@XX@@@XXXX+o.......",
" XXXX@@XX@@XX@@XX@@XXXX+o.......",
" XXXXX@XX@@XX@@XX@XXXXX+o.......",
" XXXXXXXXX@@XX@@XXXXXXX+o.......",
" XXXXXXXXX@@XX@XXXXXXXX+o.......",
" XXXXXXXXXXXXXXXXXXXXXX+o.......",
" XXXXXXXXXXXXXXXXXXXXXX+o.......",
"   +++++++++++++++++++++o.......",
"...oooooooooooooooooooooo......."};
