/* XPM */
static char * tga_s_xpm[] = {
/* width height ncolors cpp [x_hot y_hot] */
"24 24 8 1 0 0",
/* colors */
" 	s Gray8	m black	c #212121212121",
".	s none	m none	c none",
"X	s Color2	m white	c white",
"o	s Gray6	m black	c #636363636363",
"O	s Color1	m black	c black",
"+	s Color9	m black	c darkcyan",
"@	s Gray3	m white	c #adadadadadad",
"#	s Gray2	m white	c #bdbdbdbdbdbd",
/* pixels */
"               .........",
" XXXXXXXXXXXX X ........",
" XXXXXXXXXXXX XX .......",
" XXXXXXXXXXXX XXX ......",
" XXXXXXXXXXXX     ......",
" XXXXXXXXXXXXXooooO.....",
" XXXXXXXXXXXXXXoooO.....",
" XXXXXXXXXXXXXXXXoO.....",
" XXXXX+++++XXXXXXoO.....",
" XXX@+++++++@XXXXoO.....",
" XX@+++++++++@XXXoO.....",
" XX+++++++++++XXXoO.....",
" X+++++++++++++XXoO.....",
" X+++++++++++++XXoO.....",
" XXX+XX+XX+++++XXoO.....",
" X+#X+#X+#X++++XXoO.....",
" X++X++X++X++++XXoO.....",
" XX+#X+#X+#X++XXXoO.....",
" XX@+X++X++X+@XXXoO.....",
" XXXXX++X++XXXXXXoO.....",
" XXXXX++X++XXXXXXoO.....",
" XXXXXXXXXXXXXXXXoO.....",
"  ooooooooooooooooO.....",
"..OOOOOOOOOOOOOOOOO....."};
