/* XPM */
static char * xcf_m_xpm[] = {
/* width height ncolors cpp [x_hot y_hot] */
"32 32 12 1 0 0",
/* colors */
" 	s Gray8	m black	c #212121212121",
".	s none	m none	c none",
"X	s Color2	m white	c white",
"o	s Color1	m black	c black",
"O	s Gray1	m white	c #dededededede",
"+	s Gray6	m black	c #636363636363",
"@	c #999999999999",
"#	c #666666666666",
"$	c #333333333333",
"%	c #CCCCCCCCCCCC",
"&	s Gray3	m white	c #adadadadadad",
"*	c #999900000000",
/* pixels */
"                    ............",
" XXXXXXXXXXXXXXXXXoO ...........",
" XXXXXXXXXXXXXXXXXoXO ..........",
" XXXXXXXXXXXXXXXXXoXXO .........",
" XXXXXXXXXXXXXXXXXoXXXO ........",
" XXXXXXXXXXXXXXXXXoooooo .......",
" XXXXXXXXXXXXXXXXXX+++++o.......",
" XXXXXXXXXXXXXXXXXXX++++o.......",
" XXXXXXXXXXXXXXXXXXXXXX+o.......",
" XXXXXXXXXXXXXXXXXXXXXX+o.......",
" XXXXXXXXXXXXXXXXXXXXXX+o.......",
" XXXXXXXXXXXXXXXXX@XXXX+o.......",
" XXXXXXXXXXXXXXXXX@XXXX+o.......",
" XXXXXX@XXXXXXXXX@#XXXX+o.......",
" XXXXXX@XXXXXXXX@$#XXXX+o.......",
" XXXXXX@#%@XX%#$$$#%XXX+o.......",
" XXXXXX@XX@XXX#$$$#XXXX+o.......",
" XXX@@@@X$@XX$#$$$#XXXX+o.......",
" XX@XX$#$#&&$$#$$$#XXXX+o.......",
" XX%$$$o#$$&&#$$$$%XXXX+o.......",
" XXX#$$o$$$$$$$$$$XXXXX+o.......",
" XXXX@##$$$$$$*$$$XXXXX+o.......",
" XXXXXX##$$$$$$*$@XXXXX+o.......",
" XXXXXXX%##$$$$#**@%XXX+o.......",
" XXXXXXXXX%%%%%XX%*@%%X+o.......",
" XXXXXXXXXXXXXXXXX%*$$X+o.......",
" XXXXXXXXXXXXXXXXXX%%$X+o.......",
" XXXXXXXXXXXXXXXXXXXXXX+o.......",
" XXXXXXXXXXXXXXXXXXXXXX+o.......",
" XXXXXXXXXXXXXXXXXXXXXX+o.......",
"   +++++++++++++++++++++o.......",
"...oooooooooooooooooooooo......."};
