/* XPM */
static char * xcf_s_xpm[] = {
/* width height ncolors cpp [x_hot y_hot] */
"24 24 15 1 0 0",
/* colors */
" 	s Gray8	m black	c #212121212121",
".	s none	m none	c none",
"X	s Color2	m white	c white",
"o	s Color1	m black	c black",
"O	s Gray6	m black	c #636363636363",
"+	s Gray1	m white	c #dededededede",
"@	s Gray5	m black	c #737373737373",
"#	s Gray7	m black	c #424242424242",
"$	c #CCCCCCCCCCCC",
"%	c #666666666666",
"&	c #333333333333",
"*	s Gray4	m white	c #949494949494",
"=	c #999999999999",
"-	c #999900000000",
";	s Gray2	m white	c #bdbdbdbdbdbd",
/* pixels */
"               .........",
" XXXXXXXXXXXXoX ........",
" XXXXXXXXXXXXoXX .......",
" XXXXXXXXXXXXoXXX ......",
" XXXXXXXXXXXXooooo .....",
" XXXXXXXXXXXXXOOOOo.....",
" XXXXXXXXXXXXXXOOOo.....",
" XXXXXXXXXXXXXXXXOo.....",
" XXXXXXXXXXXXXXXXOo.....",
" XXXXXXXXXXXXX+XXOo.....",
" XXXXXXXXXXXXO+XXOo.....",
" XXXXX@XXXXXO#+XXOo.....",
" XXXXX@@$X$%@&+XXOo.....",
" XXX*X@X@$X%&&+XXOo.....",
" XX*X %o*$o%&&+XXOo.....",
" XX+  ##&%%&&&+XXOo.....",
" XXXX=#&&&&-&%XXXOo.....",
" XXXXX$#&&&&-$XXXOo.....",
" XXXXXXX$%%%;-$XXOo.....",
" XXXXXXXXXXXX;-$XOo.....",
" XXXXXXXXXXXXX;%XOo.....",
" XXXXXXXXXXXXXXXXOo.....",
"  OOOOOOOOOOOOOOOOo.....",
"..ooooooooooooooooo....."};
