/* XPM */
static char * xcf_t_xpm[] = {
/* width height ncolors cpp [x_hot y_hot] */
"16 16 14 1 0 0",
/* colors */
" 	s Gray8	m black	c #212121212121",
".	s none	m none	c none",
"X	s Color2	m white	c white",
"o	s Color1	m black	c black",
"O	s Gray1	m white	c #dededededede",
"+	s Gray6	m black	c #636363636363",
"@	s Gray2	m white	c #bdbdbdbdbdbd",
"#	c #696966666464",
"$	s Gray7	m black	c #424242424242",
"%	s Gray3	m white	c #adadadadadad",
"&	s Gray5	m black	c #737373737373",
"*	c #585855555555",
"=	s Color3	m black	c darkred",
"-	s Gray4	m white	c #949494949494",
/* pixels */
"          ......",
" XXXXXXXoO .....",
" XXXXXXXoXO ....",
" XXXXXXXoooo....",
" XXXXXXXX+++o...",
" XXXXXXXXX++o...",
" XXXXXXX+OX+o...",
" XXX+@@#$OX+o...",
" X%XX&X*$OX+o...",
" Xoo&$&$$XX+o...",
" XX%$$$=+XX+o...",
" XXX@&&+=-X+o...",
" XXXXXXXX=X+o...",
" XXXXXXXXXX+o...",
" +++++++++++o...",
"..ooooooooooo..."};
