/* XPM */
static char * xcf_l_xpm[] = {
/* width height ncolors cpp [x_hot y_hot] */
"48 48 12 1 0 0",
/* colors */
" 	s Gray8	m black	c #212121212121",
".	s none	m none	c none",
"X	s Color2	m white	c white",
"o	s Color1	m black	c black",
"O	s Gray2	m white	c #bdbdbdbdbdbd",
"+	s Gray1	m white	c #dededededede",
"@	s Gray6	m black	c #636363636363",
"#	c #999999999999",
"$	c #666666666666",
"%	c #CCCCCCCCCCCC",
"&	c #333333333333",
"*	c #999900000000",
/* pixels */
"                               .................",
" XXXXXXXXXXXXXXXXXXXXXXXXXXXXoO ................",
" XXXXXXXXXXXXXXXXXXXXXXXXXXXXo+O ...............",
" XXXXXXXXXXXXXXXXXXXXXXXXXXXXoX+O ..............",
" XXXXXXXXXXXXXXXXXXXXXXXXXXXXoXX+O .............",
" XXXXXXXXXXXXXXXXXXXXXXXXXXXXoXXX+O ............",
" XXXXXXXXXXXXXXXXXXXXXXXXXXXXoXXXX+O ...........",
" XXXXXXXXXXXXXXXXXXXXXXXXXXXXoXXXXX+O ..........",
" XXXXXXXXXXXXXXXXXXXXXXXXXXXXooooooooo .........",
" XXXXXXXXXXXXXXXXXXXXXXXXXXXXX@@@@@@@@o.........",
" XXXXXXXXXXXXXXXXXXXXXXXXXXXXXX@@@@@@@o.........",
" XXXXXXXXXXXXXXXXXXXXXXXXXXXXXXXXXXXX@o.........",
" XXXXXXXXXXXXXXXXXXXXXXXXXXXXXXXXXXXX@o.........",
" XXXXXXXXXXXXXXXXXXXXXXXXXXXXXXXXXXXX@o.........",
" XXXXXXXXXXXXXXXXXXXXXXXXXXXXXXXXXXXX@o.........",
" XXXXXXXXXXXXXXXXXXXXXXXXXXXXXXXXXXXX@o.........",
" XXXXXXXXXXXXXXXXXXXXXXXXXXXX#XXXXXXX@o.........",
" XXXXXXXXXXXXXXXXXXXXXXXXXXX##XXXXXXX@o.........",
" XXXXXXXXXXXXXXXXXXXXXXXXXXX#$XXXXXXX@o.........",
" XXXXXXXXX#%XXXXXXXXXXXXXXX#$$XXXXXXX@o.........",
" XXXXXXXXX#$XXXXXXXXXXXXX##&&$XXXXXXX@o.........",
" XXXXXXXXX#$$%XXXXXXXXX%#$&&&$XXXXXXX@o.........",
" XXXXXXXXX#$$##%%XXX%#$$&&&&&$XXXXXXX@o.........",
" XXXXXXXXX#%XXX#%%XXX#$&&&&&&$XXXXXXX@o.........",
" XXXX%##%X#%XX##XXXX#%$&&&&&&$XXXXXXX@o.........",
" XXX%#X#&##%%X&##%%X&%$&&&&&&$XXXXXXX@o.........",
" XXX#XXX&&$#&&$%#%&&&%$&&&&&&$XXXXXXX@o.........",
" XXX#%X$&&&#%%$$%%%%%$&&&&&&&%XXXXXXX@o.........",
" XXX%&&&&&o&$$&&$%%%$&&&&&&&$%XXXXXXX@o.........",
" XXXX$&&&&o&&&&&&&&&&&&&&&&&$XXXXXXXX@o.........",
" XXXXXooooo$&&&&&&&&&&oo&&&&$XXXXXXXX@o.........",
" XXXXXX#$$$&&&&&&&&&&o**&&&$XXXXXXXXX@o.........",
" XXXXXXXXX$$$&&&&&&&&&&**$$%XXXXXXXXX@o.........",
" XXXXXXXXXXX$$&&&&&&&&&$***$XXXXXXXXX@o.........",
" XXXXXXXXXXXXX$$$&&&&&$$$%**$$%XXXXXX@o.........",
" XXXXXXXXXXXXXXXX%%%%%%XXXX%**$%%%%XX@o.........",
" XXXXXXXXXXXXXXXXXXXXXXXXXXX%**##&#XX@o.........",
" XXXXXXXXXXXXXXXXXXXXXXXXXXXXX%#&&&XX@o.........",
" XXXXXXXXXXXXXXXXXXXXXXXXXXXXXXX%#&%X@o.........",
" XXXXXXXXXXXXXXXXXXXXXXXXXXXXXXXXXX%X@o.........",
" XXXXXXXXXXXXXXXXXXXXXXXXXXXXXXXXXXXX@o.........",
" XXXXXXXXXXXXXXXXXXXXXXXXXXXXXXXXXXXX@o.........",
" XXXXXXXXXXXXXXXXXXXXXXXXXXXXXXXXXXXX@o.........",
" XXXXXXXXXXXXXXXXXXXXXXXXXXXXXXXXXXXX@o.........",
" XXXXXXXXXXXXXXXXXXXXXXXXXXXXXXXXXXXX@o.........",
" XXXXXXXXXXXXXXXXXXXXXXXXXXXXXXXXXXXX@o.........",
"   @@@@@@@@@@@@@@@@@@@@@@@@@@@@@@@@@@@o.........",
"...oooooooooooooooooooooooooooooooooooo........."};
