/* XPM */
static char * cabinet_xpm[] = {
/* width height ncolors cpp [x_hot y_hot] */
"48 48 13 1 0 0",
/* colors */
" 	s none	m none	c none",
".	s iconColor1	m black	c black",
"X	s iconGray1	m white	c #dededededede",
"o	s iconGray6	m black	c #636363636363",
"O	s bottomShadowColor	m black	c #636363636363",
"+	s iconGray2	m white	c #bdbdbdbdbdbd",
"@	s iconColor12	m white	c yellow",
"#	s iconColor2	m white	c white",
"$	s iconColor11	m black	c darkkhaki",
"%	s iconGray4	m white	c #949494949494",
"&	s iconGray8	m black	c #212121212121",
"*	s iconColor7	m black	c darkblue",
"=	s iconColor8	m white	c blue",
/* pixels */
"     .Xoooooooooooooooooooooooooooooooo...XO    ",
"     .Xo.o.o.o.o.o.o.o.o.o.o.o.o.o.o.o.o..XO    ",
"     .X...................................XO    ",
"     .X...................................XO    ",
"     .X.o.....o.o.o.o.o.o.o.o.o.o.o.....o.XO    ",
"     .Xo.o.o...o.o.o.o.o.o.o.o.o.o...o.o..XO    ",
"     .X.o.o...........................o.o.XO    ",
"     .Xo.o.o..XXXXXXXXXXXXXXXXXXXX...o.o..XO    ",
"     .X.o.o.X+.@.@.XXXXXXXXXXXXXXX.#..o.o.XO    ",
"     .Xo.o.X+.$$$$$@.XXXXXXXXXXXXX.X#..o..XO    ",
"     .X.o.X+..@.@.$$$.@.@.@.@.@.@.@.X#..o.XO    ",
"     .Xo.X+.$$$$$$@.$$$$$$$$$$$$$$$$.X#...XO    ",
"     .X.X+........$$.@.@.@.@.@.@.@.@.XX#..XO    ",
"     .XX+.@@@@@@@@.$$$$$$$$$$$$$$$$$$.XX#.XO    ",
"     .X+.@$$$$$$$$@....................XX#XO    ",
"    .X++.@$$$$$$$$$@@@@@@@@@@@@@@@@@@@@.XX#.    ",
"  ............................................  ",
"  .XXXXXXXXXXXXXXXXXXXXXXXXXXXXXXXXXXXXXXXXXX.  ",
"  .X%%%%%%%%%%%%%%%%%%%%%%%%%%%%%%%%%%%%%%%%o.  ",
"  .X%%%%%%%%%%%%%%%%%%%%%%%%%%%%%%%%%%%%%%%%o.  ",
"  .X%%%%%%%%%%%%%%%%%%%%%%%%%%%%%%%%%%%%%%%%o.  ",
"  .X%%%%%%%%%%%%%%%%%%%%%%%%%%%%%%%%%%%%%%%%o.  ",
"  .X%%%%%%%%%%%%+++++++++++++++%%%%%%%%%%%%%o.  ",
"  .X%%%%%%%%%%%%+&*&*&*&*&*&*&%&%%%%%%%%%%%%o.  ",
"  .X%%%%%%%%%%%%+*+=+=+=+=+=+=%&%%%%%%%%%%%%o.  ",
"  .X%%%%%%%%%%%%+&=+=+=+=+=+=+%&%%%%%%%%%%%%o.  ",
"  .X%%%%%%%%%%%%+*+=+=+=+=+=+=%&%%%%%%%%%%%%o.  ",
"  .X%%%%%%%%%%%%+&=+=+=+=+=+=+%&%%%%%%%%%%%%o.  ",
"  .X%%%%%%%%%%%%+*+=+=+=+=+=+=%&%%%%%%%%%%%%o.  ",
"  .X%%%%%%%%%%%%+%%%%%%%%%%%%%%&%%%%%%%%%%%%o.  ",
"  .X%%%%%%%%%%%%%&&&&&&&&&&&&&&&%%%%%%%%%%%%o.  ",
"  .X%%%%%%%%%%%%%%%%%%%%%%%%%%%%%%%%%%%%%%%%o.  ",
"  .X%%%%%%%%%%%%%%%%%%%%%%%%%%%%%%%%%%%%%%%%o.  ",
"  .X%%%%%%%%%%%%%%%%%%%%%%%%%%%%%%%%%%%%%%%%o.  ",
"  .X%%%%%%%%%%%%%%%%%%%%%%%%%%%%%%%%%%%%%%%%o.  ",
"  .X%%%%%%%%%%%%%%%%%%%%%%%%%%%%%%%%%%%%%%%%o.  ",
"  .X%%%%%%%%%.X%%%%%%%%%%%%%%%%%%X.%%%%%%%%%o.  ",
"  .X%%%%%%%%%%.XXXXXXXXXXXXXXXXXX.%%%%%%%%%%o.  ",
"  .X%%%%%%%%%%....................%%%%%%%%%%o.  ",
"  .X%%%%%%%%%%%oooooooooooooooooo%%%%%%%%%%%o.  ",
"  .X%%%%%%%%%%%%%%%%%%%%%%%%%%%%%%%%%%%%%%%%o.  ",
"  .X%%%%%%%%%%%%%%%%%%%%%%%%%%%%%%%%%%%%%%%%o.  ",
"  .X%%%%%%%%%%%%%%%%%%%%%%%%%%%%%%%%%%%%%%%%o.  ",
"  .X%%%%%%%%%%%%%%%%%%%%%%%%%%%%%%%%%%%%%%%%o.  ",
"  .Xooooooooooooooooooooooooooooooooooooooooo.  ",
"  ............................................  ",
"     ..oooooooooooooooooooooooooooooooooo..     ",
"     ..oooooooooooooooooooooooooooooooooo..     "};
