/* XPM */
static char * copy_xpm[] = {
/* width height ncolors cpp [x_hot y_hot] */
"48 48 14 1 0 0",
/* colors */
" 	s Color1	m black	c black",
".	s none	m none	c none",
"X	s Color2	m white	c white",
"o	s Gray1	m white	c #dededededede",
"O	s bottomShadowColor	m black	c #636363636363",
"+	s Gray4	m white	c #949494949494",
"@	s Gray6	m black	c #636363636363",
"#	s Gray3	m white	c #adadadadadad",
"$	s Color11	m black	c darkkhaki",
"%	s Gray2	m white	c #bdbdbdbdbdbd",
"&	s Gray5	m black	c #737373737373",
"*	s Color12	m white	c yellow",
"=	s Gray8	m black	c #212121212121",
"-	s topShadowColor	m white	c #bdbdbdbdbdbd",
/* pixels */
"            ....................................",
" XoXoXoXoX X ...................................",
" oXoXoXoXo XX ..................................",
" XoXoXoXoX XXX .................................",
" oXoXoXoXX     O................................",
" XoXoXoXoXo+++ O................................",
" oXoXoXXXoXoX+ O................................",
" XoXoX@@@@@XoX O................................",
" oXoX@#$#$#@Xo O................................",
" XoX@#$#$#$#+@@@@@@@@...........................",
" oX@%+&+&+&+ooooooooo ..........................",
" Xo@*%oooooo*%*%*%*%$ O.........................",
" oX@%*%*%*%*%*%*%*%*% O.........................",
" Xo@*%*%*%*%*%*%*%*%$ O.........................",
" oX@%*%*%*%*%*%*%*%*% O.........................",
" Xo@*%*%*%*%*%*%*%*%$ O...*.....................",
" oX@%*%*%*%*%*%*%*%*+ O....&....................",
" Xo@*%*%*%*%*%*%*%*%$ O...*+....................",
" ==@%*%*%*%*%*%*%*%*+ O....&....................",
".  @$+$+$+$+$+$+$+$+$ O...o+....................",
"..O@                 O     &   *      ..........",
".....OOOOOOOOOOOOOOOO.*XXX*+XXo&XXXXX  .........",
"...................... *XXX&X*+XXXXXX X ........",
"...................... +XXo+o&XXXXXXX XX .......",
"....... O............. X&*X*+XXXXXXXX     ......",
"....... O.......*.*.o.*XX+X+XX*XoX*XXX@@@ O.....",
"......  O........&+&+&+&+*&*+&+&+&+&XXXX@ O.....",
"......  O............. Xo+o+XXXXXXXXXXXX@ O.....",
"......  O............. *&XX&+*XXXXXXXXXX@ O.....",
"......  O.............o+XX*+X+*XXXXXXXXX@ O.....",
"......   O....OO.....*&XXXX&XX+XXXXXXXXX@ O.....",
"......-   O...  O..... XXXoo       XXXXX& O.....",
".......    OOO   O.... XXXX o$o$o$o XXXX+ O.....",
".......-          O... XXX o$o$o$o$$          ..",
"........-          O.. XX * o$o$o$o XXXXXXXXX& .",
".........--         .. XX o*       Xo*o*o*o*o$ O",
"...........--      -.. XX *oXXXXXXXo*o*o*o*o*& O",
".............    --... XX o*o*o*o*o*o*o*o*o*o$ O",
".............  --..... XX *o*o*o*o*o*o*o*o*o*& O",
".............--....... XX o*o*o*o*o*o*o*o*o*o$ O",
"...................... XX *o*o*o*o*o*o*o*o*o*& O",
"...................... XX o*o*o*o*o*o*o*o*o*o$ O",
"...................... XX *o*o*o*o*o*o*o*o*o*& O",
"...................... XX o*o*o*o*o*o*o*o*o*o$ O",
"......................  @ *o*o*o*o*o*o*o*o*o*& O",
"........................  &$&$&$&$&$&$&$&$&$&$ O",
"..........................                     O",
"...........................OOOOOOOOOOOOOOOOOOOO."};
