/* XPM */
static char * delete_xpm[] = {
/* width height ncolors cpp [x_hot y_hot] */
"48 48 14 1 0 0",
/* colors */
" 	s none	m none	c none",
".	s Color1	m black	c black",
"X	s Color2	m white	c white",
"o	s bottomShadowColor	m black	c #636363636363",
"O	s Gray4	m white	c #949494949494",
"+	s Gray6	m black	c #636363636363",
"@	s Gray5	m black	c #737373737373",
"#	s Color12	m white	c yellow",
"$	s Gray1	m white	c #dededededede",
"%	s Gray8	m black	c #212121212121",
"&	s Gray2	m white	c #bdbdbdbdbdbd",
"*	s Color3	m black	c darkred",
"=	s topShadowColor	m white	c #bdbdbdbdbdbd",
"-	s Color5	m black	c darkgreen",
/* pixels */
"                                                ",
" ............                                   ",
" .XXXXXXXXX.X.                                  ",
" .XXXXXXXXX.XX.                                 ",
" .XXXXXXXXX.XXX.                                ",
" .XXXXXXXXX.....o                               ",
" .XXXXXXXXXXOOO.o                               ",
" .XXXXXXXXXXXXO.o                               ",
" .XXXXX+++++XXX.o                               ",
" .XXXX+XOXOX+XX.o                               ",
" .XXX+XOXOXOXO+++++++++                         ",
" .XX+XO@O@O@OXXXXXXXXX#.                        ",
" .XX+#XXXXXXX#$#$#$#$#O.                        ",
" .XX+$#$#$#$#$#$#$#$#$#.                        ",
" .XX+#$#$#$#$#$#$#$#$#O.                        ",
" .XX+$#$#$#$#$#$#$#$#$#.                        ",
" .XX+#$#$#$#$#$#$#$#$#O.                        ",
" .XX+$#$#$#$#$#$#$#$#$#.                        ",
" .XX+#$#$#$#$#$#$#$#$#O.                        ",
" .%%+$#$#$#$#$#$#$#$#$#.                        ",
"  ..+#O#O#O#O#O#O#O#O#O.                        ",
"    +...................                        ",
"                           $&$&$&$&$&$&$&       ",
"                       $$$$&&&&&&&$&$&$&$$$$$   ",
"                      X&&&&&&&&&&&&$&$&$&$&$&$  ",
"        *o           X&&&&&O&O&O&O$O$O$O$O$&&&$ ",
"        *o           $X&O&O&O&O&O&O$O$O$O$O&O$+ ",
"       **o            $XXXXO&O&O&O$O$O$O$$$$$+  ",
"       **o            $XX$$XXX$X$X$X$X$X$&$&O+  ",
"       **o            $XXX$X$X$$$$$$$$&$&$&&O+  ",
"       **o            $XX$X$X$$$$$$$$$$&$&$&O+  ",
"       ***o    oo      $XX$X$X$$$$$$$$$$&$&O+   ",
"       =***o   **o     $XXX$X$$$$---$-$&$&&O+   ",
"        ****ooo***o    $XX$X$X$-------$$&$&O+   ",
"        =**********o    $XX$X$$--$$---$&$&O+    ",
"         =**********o   $XXX$$--$$----$$&&O+    ",
"          ==*********   $XX$X$-$$$$$$$$&$&O+    ",
"            ==******=   $XXX$$$$$$$$$-$$&&O+    ",
"              ****==     $XXX$----$$--$&&O+     ",
"              **==       $XX$$---$$--$$$&O+     ",
"              ==         $XXX$-------$$&&O+     ",
"                          $XX$-$---$$$&&O+      ",
"                          $XX$X$$$$$$&$&O+      ",
"                          $XXX$X$$$$&$&&O+      ",
"                          $XX$X$$$$$$&$&+       ",
"                           O$X$X$$$$&$&O        ",
"                             O$O$O&O&O          ",
"                                                "};
