/* XPM */
static char * filter_xpm[] = {
/* width height ncolors cpp [x_hot y_hot] */
"48 48 13 1 0 0",
/* colors */
" 	s none	m none	c none",
".	s Color1	m black	c black",
"X	s Color2	m white	c white",
"o	s bottomShadowColor	m black	c #636363636363",
"O	s Gray4	m white	c #949494949494",
"+	s Gray6	m black	c #636363636363",
"@	s Gray5	m black	c #737373737373",
"#	s Color12	m white	c yellow",
"$	s Gray1	m white	c #dededededede",
"%	s Gray8	m black	c #212121212121",
"&	s Gray2	m white	c #bdbdbdbdbdbd",
"*	s Gray7	m black	c #424242424242",
"=	s Gray3	m white	c #adadadadadad",
/* pixels */
"                                                ",
"            ............                        ",
"            .XXXXXXXXX.X.                       ",
"            .XXXXXXXXX.XX.                      ",
"            .XXXXXXXXX.XXX.                     ",
"            .XXXXXXXXX.....o                    ",
"            .XXXXXXXXXXOOO.o                    ",
"            .XXXXXXXXXXXXO.o                    ",
"            .XXXXX+++++XXX.o                    ",
"            .XXXX+XOXOX+XX.o                    ",
"            .XXX+XOXOXOXO+++++++++              ",
"            .XX+XO@O@O@OXXXXXXXXX#.             ",
"            .XX+#XXXXXXX#$#$#$#$#O.o            ",
"            .XX+$#$#$#$#$#$#$#$#$#.o            ",
"            .XX+#$#$#$#$#$#$#$#$#O.o            ",
"            .XX+$#$#$#$#$#$#$#$#$#.o            ",
"            .XX+#$#$#$#$#$#$#$#$#O.o            ",
"            .XX+$#$#$#$#$#$#$#$#$#.o            ",
"            .XX+#$#$#$#$#$#$#$#$#O.o            ",
"            .%%+$#$#$#$#$#$#$#$#$#.o            ",
"             ..+#O#O#O#O#O#O#O#O#O.o            ",
"              o+...................o            ",
"                 oooooooooooooooooo             ",
"                                                ",
"                &&&&&&&&&&&&&&&                 ",
"            $$$$OO@@@@+++@@@@@&&&&&             ",
"          $$@&&&OO@@@@+++@@@@@&&&@@&&           ",
"         $OOO@@&&OO@@@+++@@@@&&&@@OOO&          ",
"         $OOOO@@&&O@@@++@@@@&&&@@OOOO&          ",
"         O$$OOO@@@&O@@++@@@@&&@OOOO$$%          ",
"          O.$$$$O@&O@@++@@@&&@@$$$$$%           ",
"            .+++$$X$X$XXX$X$X$$++*%%            ",
"             .*O+++++++++++++++O*%              ",
"              .*OOO$$O@@@@&&OOO*%               ",
"               .*OO$$O@@@&&&OO*%                ",
"                .*OO$O@@@&&OO*%                 ",
"                 .*O$$@@@&&O*%                  ",
"                  .*O$O@&&O*%                   ",
"                   .*$$@&O*%                    ",
"                    .*$@&*%                     ",
"                     .===%                      ",
"                     .+$+%                      ",
"                     .+$+%                      ",
"                     .+$+%                      ",
"                     .+$+%                      ",
"                     .+$+%                      ",
"                     .+O+%                      ",
"                      ...                       "};
