/* XPM */
static char * magnifier_xpm[] = {
/* width height ncolors cpp [x_hot y_hot] */
"48 48 12 1 0 0",
/* colors */
" 	s none	m none	c none",
".	s Color1	m black	c black",
"X	s Color2	m white	c white",
"o	s Gray7	m black	c #424242424242",
"O	s Gray4	m white	c #949494949494",
"+	s Gray6	m black	c #636363636363",
"@	s Gray3	m white	c #adadadadadad",
"#	s Gray2	m white	c #bdbdbdbdbdbd",
"$	s Color12	m white	c yellow",
"%	s Gray1	m white	c #dededededede",
"&	s Color14	m white	c magenta",
"*	s Color13	m black	c darkmagenta",
/* pixels */
"                                                ",
"                                                ",
"          ..........................            ",
"          .XXXXXXXXXXXXXXXXXXXXXXX.X.           ",
"          .XXXXXXXXXXXXXXXXXXXXXXX.XX.          ",
"          .XXXXXXXXXXXXXXXXXXXXXXX.XXX.         ",
"          .XXXXXXXXXXXXXXXXXXXXXXX.XXXX.        ",
"          .XXXXXXXXXXXXXXXXXXXXXXX......        ",
"          .XXXXXXXXXXXXXXXXXXXXXXXXooooo.       ",
"          .O........OXXXXXXXXXXXXXXXXXXo.       ",
"         O.+OXXXXXXO+.OXXXXXXXXXXXXXXXXo.       ",
"        O.XXX.X.X.XXXX.O..X........XXXXo.       ",
"       O.OXXXX.X.X.X.XX.OXXXXXXXXXXXXXXo.       ",
"      O..OXXXXXXXXXXXXXX.OXXXXXXXXXXXXXo.       ",
"      . .OXXX.X.X.X.X.XXX.X...X....XXXXo.       ",
"     O+ .OXXXX.X.X.X.X.XX+OXXXXXXXXXXXXo.       ",
"     .@ .OXXXXXXXXXXXXXXXO.XXXXXXXXXXXXo.       ",
"     .  .OXXX.X.X.X.X.X.XX.X.X.....XXXXo.       ",
"     .  .OXXXX.X.X.X.X.X.X.XXXXXXXXXXXXo.       ",
"     .  .OXXXXXXXXXXXXXXXX.XXXXXXXXXXXXo.       ",
"     .  .OXXX.X.X.X.X.X.XX.X...X...XXXXo.       ",
"     .  .OXXXX.X.X.X.X.X.X.XXXXXXXXXXXXo.       ",
"     .  .OXXXXXXXXXXXXXXXX.XXXXXXXXXXXXo.       ",
"     .@ .OXXX.X.X.X.X.X.XO.X..X....XXXXo.       ",
"     O+ .OXXXX.X.X.X.X.XX+OXXXXXXXXXXXXo.       ",
"      .O.OXXXXXXXXXXXXXXO.XXXXXXXXXXXXXo.       ",
"      O..OXXX.X.X.X.XXXO..XX..X..X.XXXXo.       ",
"       O..XXXX.X.X.X.XO..#.XXXXXXXXXXXXo.       ",
"        O..XXXXXXXXXXO..$$..XXXXXXXXXXXo.       ",
"         O.+OXXXXXXO+..#$..O.XX..X.XXXXo.       ",
"          .O........O%%...&XO.XXXXXXXXXo.       ",
"          .X%%%%%%%%%%%%.+*&XO.XXXXXXXXo.       ",
"          .XXXXXXXXXXX%%%.+*&XO.XX.XXXXo.       ",
"          .XXX.X.......%%%.+*&XO.XXXXXXo.       ",
"          .XXXXXXXXXXXXX%%%.+*&XO.XXXXXo.       ",
"          .XXXXXXXXXXXXXX%%%.+*&XO.XXXXo.       ",
"          .XXX...X.....X...%%.+*&XO.XXXo.       ",
"          .XXXXXXXXXXXXXXXX%%%.+*&XO.XXo.       ",
"          .XXXXXXXXXXXXXXXXX%%%.+*&XO.Xo.       ",
"          .XXXXXXXXXXXXXXXXXX%%%.+*&X.Xo.       ",
"          .XXXXXXXXXXXXXXXXXXX%%%.+*&.Xo.       ",
"          .XXXXXXXXXXXXXXXXXXXX%%%...#Xo.       ",
"          .XXXXXXXXXXXXXXXXXXXXX%%%%%XXo.       ",
"          .XXXXXXXXXXXXXXXXXXXXXXXXXXXXo.       ",
"          ...ooooooooooooooooooooooooooo.       ",
"             ............................       ",
"                                                ",
"                                                "};
