/* XPM */
static char * mnterr_xpm[] = {
/* width height ncolors cpp [x_hot y_hot] */
"48 48 12 1 0 0",
/* colors */
" 	s none	m none	c none",
".	s Color1	m black	c black",
"X	s bottomShadowColor	m black	c #636363636363",
"o	s Color3	m black	c darkred",
"O	s Gray4	m white	c #949494949494",
"+	s Color2	m white	c white",
"@	s Gray8	m black	c #212121212121",
"#	s Gray5	m black	c #737373737373",
"$	s Gray6	m black	c #636363636363",
"%	s Gray2	m white	c #bdbdbdbdbdbd",
"&	s Color12	m white	c yellow",
"*	s Gray1	m white	c #dededededede",
/* pixels */
"                                                ",
"                       .                        ",
"         ...            X                       ",
"        .ooo.          .                        ",
"       .ooooo.          X                       ",
"       .ooooo.         .                        ",
"      .ooooooo.         X                       ",
"      .ooO+Ooo.        .                        ",
"     .ooo+++ooo@        X                       ",
"     .ooo+++ooo@       .                        ",
"     .ooo+++ooo@.       X                       ",
"    .oooo+++oooo@      .                        ",
"    .oooo+++oooo@.      X                       ",
"   .oooooO+Oooooo@     .                        ",
"   .oooooO+Oooooo@.     #                       ",
"  .ooooooo+ooooooo@    .     $$$$$              ",
"  .oooooooOooooooo@.    X   $+O+O+$             ",
"  .oooooo%+%oooooo@.   .   $+O+O+O+O$$$$$$$$$   ",
" .oooooooo%oooooooo@.   # $+O#O#O#O+++++++++&.  ",
" .ooooooooooooooooo@.  .  $&+++++++&*&*&*&*&O.X ",
"  ..@@@@@@@@@@@@@@@.    # $*&*&*&*&*&*&*&*&*&.X ",
"    ...............    .  $&*&*&*&*&*&*&*&*&O.X ",
"                        X $*&*&*&*&*&*&*&*&*&.X ",
"                       . .$&*&*&*&*&*&*&*&*&O.X ",
"                        # $*&*&*&*&*&*&*&*&*&.X ",
"                       .  $&*&*&*&*&*&*&*&*&O.X ",
"                        X $*&*&*&*&*&*&*&*&*&.X ",
"                       .  $&O&O&O&O&O&O&O&O&O.X ",
"                        X $...................X ",
"                       .    XXXXXXXXXXXXXXXXXX  ",
"                        X    $$$$$              ",
"                       .    $+O+O+$             ",
"                        X  $+O+O+O+O$$$$$$$$$   ",
"                       .  $+O#O#O#O+++++++++&.  ",
"                        X $&+++++++&*&*&*&*&O.X ",
"                       .  $*&*&*&*&*&*&*&*&*&.X ",
"                        X $&*&*&*&*&*&*&*&*&O.X ",
"                       . .$*&*&*&*&*&*&*&*&*&.X ",
"                        X $&*&*&*&*&*&*&*&*&O.X ",
"                          $*&*&*&*&*&*&*&*&*&.X ",
"                          $&*&*&*&*&*&*&*&*&O.X ",
"                          $*&*&*&*&*&*&*&*&*&.X ",
"                          $&O&O&O&O&O&O&O&O&O.X ",
"                          $...................X ",
"                            XXXXXXXXXXXXXXXXXX  ",
"                                                ",
"                                                ",
"                                                "};
