/* XPM */
static char * mount_xpm[] = {
/* width height ncolors cpp [x_hot y_hot] */
"48 48 11 1 0 0",
/* colors */
" 	s none	m none	c none",
".	s Gray8	m black	c #212121212121",
"X	s Color2	m white	c white",
"o	s Color1	m black	c black",
"O	s Gray7	m black	c #424242424242",
"+	s Gray5	m black	c #737373737373",
"@	s Gray6	m black	c #636363636363",
"#	s Gray4	m white	c #949494949494",
"$	s Color12	m white	c yellow",
"%	s Gray1	m white	c #dededededede",
"&	s Gray3	m white	c #adadadadadad",
/* pixels */
"                                                ",
" ...................                            ",
" .X..XX..X........X.                            ",
" ...................                            ",
"   o o       X X o                              ",
"   oo         XX o                              ",
"   o o       X X o                              ",
"   oo         XX o                              ",
"   o o       XX  o                              ",
"    o       X   o                               ",
"    o           o                               ",
"     ooO     +oo                                ",
"      ooOO+O+oo                                 ",
"       ooOO+oo                                  ",
"        oo+oo                                   ",
"         ooo                                    ",
"         ooo                                    ",
"        o   o                                   ",
"       oo   oo                                  ",
"      oo     oo                                 ",
"     oo       oo                                ",
"    o       X   o                               ",
"    o        X  o        @@@@@                  ",
"   o o    #   X  o      @X#X#X@                 ",
"   oo    OO# X X o     @X#X#X#X#@@@@@@@@@       ",
"   o o  OO#O# XX o    @X#+#+#+#XXXXXXXXX$o      ",
"   oo  OOOO#O# X o    @$XXXXXXX$%$%$%$%$&o      ",
"   o OOOOO+O#O#  o    @%$%$%$%$%$%$%$%$%$o      ",
" ...................  @$%$%$%$%$%$%$%$%$&o      ",
" .X..XX..X........X.  @%$%$%$&$&$&$&$%$%$o      ",
" ...................  @$%$%$&@@@@@&$&$&$&o      ",
"                      @%$%$&@X#X#X@&$&$&$o      ",
"                      @$%$&@X#X#X#X#@@@@@@@@@   ",
"                      @%$&@X#+#+#+#XXXXXXXXX$o  ",
"                      @$&$@$XXXXXXX$%$%$%$%$#o  ",
"                      @ooo@%$%$%$%$%$%$%$%$%$o  ",
"                          @$%$%$%$%$%$%$%$%$#o  ",
"                          @%$%$%$%$%$%$%$%$%$o  ",
"                          @$%$%$%$%$%$%$%$%$#o  ",
"                          @%$%$%$%$%$%$%$%$%$o  ",
"                          @$%$%$%$%$%$%$%$%$#o  ",
"                          @%$%$%$%$%$%$%$%$%$o  ",
"                          @$#$#$#$#$#$#$#$#$#o  ",
"                          @ooooooooooooooooooo  ",
"                                                ",
"                                                ",
"                                                ",
"                                                "};
