/* XPM */
static char * mount_xpm[] = {
/* width height ncolors cpp [x_hot y_hot] */
"48 48 12 1 0 0",
/* colors */
" 	s none	m none	c none",
".	s Gray8	m black	c #212121212121",
"X	s Color1	m black	c black",
"o	s Color2	m white	c white",
"O	s bottomShadowColor	m black	c #636363636363",
"+	s Gray5	m black	c #737373737373",
"@	s Gray7	m black	c #424242424242",
"#	s Gray1	m white	c #dededededede",
"$	s Gray6	m black	c #636363636363",
"%	s Gray2	m white	c #bdbdbdbdbdbd",
"&	s Gray4	m white	c #949494949494",
"*	s Color12	m white	c yellow",
/* pixels */
"                                                ",
" ...................   X                        ",
" .o..oo..o........o.O   O                       ",
" ...................O  X                        ",
"   X X       o o XOO    O                       ",
"   XX         oo X     X                        ",
"   X X       o o X      O                       ",
"   XX         oo X     X                        ",
"   X X       oo  X      O    o                  ",
"    X       o   X      X     o+                 ",
"    X           X       O    o+                 ",
"     XX@     +XX       X     o+                 ",
"      XX@@+@+XX         O    o+    #            ",
"       XX@@+XX         X#    o+   o+            ",
"        XX+XX           +o   #+  #+             ",
"         XXX           X +#  o+$ +              ",
"         XXX            O +o$o+o+o$             ",
"        X   X          X   +%o%+o&o&$$$$$$$$$   ",
"       XX   XX        o o ooooooooo#o#o+oooo*X  ",
"      XX     XX       +X++++%o%o+++++++*#*#*&X  ",
"     XX       XX        O $o+o+o*#*#*#*#*#*#*XO ",
"    X       o   X      X  #+#o++#*#*#*#*#*#*&XO ",
"    X        o  X       Oo+#**+#+o*#*#*#*#*#*XO ",
"   X X    &   o  X     X#+$*#o+*#+#*#*#*#*#*&XO ",
"   XX    @@& o o X      + $#**+#*#+%*#*#*#*#*XO ",
"   X X  @@&@& oo X     X  $*#o+*#*#*#*#*#*#*&XO ",
"   XX  @@@@&@& o X      O $#**+#*#*#*#*#*#*#*XO ",
"   X @@@@@+@&@&  X     X  $*&+&*&*&*&*&*&*&*&XO ",
" ...................    O $XXXXXXXXXXXXXXXXXXXO ",
" .o..oo..o........o.O  X    OOOOOOOOOOOOOOOOOO  ",
" ...................O   O    $$$$$              ",
"   OOOOOOOOOOOOOOOOO   X    $o&o&o$             ",
"                        O  $o&o&o&o&$$$$$$$$$   ",
"                       X  $o&+&+&+&ooooooooo*X  ",
"                        O $*ooooooo*#*#*#*#*&XO ",
"                       X  $#*#*#*#*#*#*#*#*#*XO ",
"                        O $*#*#*#*#*#*#*#*#*&XO ",
"                       X X$#*#*#*#*#*#*#*#*#*XO ",
"                        O $*#*#*#*#*#*#*#*#*&XO ",
"                          $#*#*#*#*#*#*#*#*#*XO ",
"                          $*#*#*#*#*#*#*#*#*&XO ",
"                          $#*#*#*#*#*#*#*#*#*XO ",
"                          $*&*&*&*&*&*&*&*&*&XO ",
"                          $XXXXXXXXXXXXXXXXXXXO ",
"                            OOOOOOOOOOOOOOOOOO  ",
"                                                ",
"                                                ",
"                                                "};
