/* XPM */
static char * umount_xpm[] = {
/* width height ncolors cpp [x_hot y_hot] */
"48 48 11 1 0 0",
/* colors */
" 	s none	m none	c none",
".	s Gray8	m black	c #212121212121",
"X	s Color1	m black	c black",
"o	s Color2	m white	c white",
"O	s bottomShadowColor	m black	c #636363636363",
"+	s Gray7	m black	c #424242424242",
"@	s Gray5	m black	c #737373737373",
"#	s Gray6	m black	c #636363636363",
"$	s Gray4	m white	c #949494949494",
"%	s Color12	m white	c yellow",
"&	s Gray1	m white	c #dededededede",
/* pixels */
"                                                ",
" ...................   X                        ",
" .o..oo..o........o.O   O                       ",
" ...................O  X                        ",
"   X X       o o XOO    O                       ",
"   XX         oo X     X                        ",
"   X X       o o X      O                       ",
"   XX         oo X     X                        ",
"   X X       oo  X      O                       ",
"    X       o   X      X                        ",
"    X           X       O                       ",
"     XX+     @XX       X                        ",
"      XX++@+@XX         O                       ",
"       XX++@XX         X                        ",
"        XX@XX           O                       ",
"         XXX           X     # # #              ",
"         XXX            O   # $ $ #             ",
"        X   X          X   # $ $ $ $ # # # #    ",
"       XX   XX          O # $ $ $ $ o o o o %   ",
"      XX     XX        X   % o o o % % % % % X  ",
"     XX       XX        O # % % % % % % % % % O ",
"    X       o   X      X   % % % % % % % % % X  ",
"    X        o  X       O # % % % % % % % % % O ",
"   X X    $   o  X     X X % % % % % % % % % X  ",
"   XX    ++$ o o X      O # % % % % % % % % % O ",
"   X X  ++$+$ oo X     X   % % % % % % % % % X  ",
"   XX  ++++$+$ o X      O   % % % % % % % % % O ",
"   X +++++@+$+$  X     X  #  % % % % % % % % X  ",
" ...................    O   X X X X X X X X X O ",
" .o..oo..o........o.O  X     O O O O O O O O O  ",
" ...................O   O    #####              ",
"   OOOOOOOOOOOOOOOOO   X    #o$o$o#             ",
"                        O  #o$o$o$o$#########   ",
"                       X  #o$@$@$@$ooooooooo%X  ",
"                        O #%ooooooo%&%&%&%&%$X  ",
"                       X  #&%&%&%&%&%&%&%&%&%XO ",
"                        O #%&%&%&%&%&%&%&%&%$XO ",
"                       X X#&%&%&%&%&%&%&%&%&%XO ",
"                        O #%&%&%&%&%&%&%&%&%$XO ",
"                          #&%&%&%&%&%&%&%&%&%XO ",
"                          #%&%&%&%&%&%&%&%&%$XO ",
"                          #&%&%&%&%&%&%&%&%&%XO ",
"                          #%$%$%$%$%$%$%$%$%$XO ",
"                          #XXXXXXXXXXXXXXXXXXXO ",
"                            OOOOOOOOOOOOOOOOOO  ",
"                                                ",
"                                                ",
"                                                "};
